<svg width="535" height="541" viewBox="0 0 535 541" fill="none" xmlns="http://www.w3.org/2000/svg">
<path d="M28.3324 269.623L81.5624 300.609L54.9474 347.292L1.099 316.071L28.3324 269.623Z" fill="white"/>
<path d="M54.9474 348.379C54.7522 348.384 54.5598 348.332 54.393 348.23L0.544538 317.009C0.41891 316.938 0.308865 316.843 0.221048 316.729C0.13323 316.615 0.0694695 316.484 0.0335949 316.344C-0.00227978 316.205 -0.00951258 316.059 0.0123293 315.917C0.0341712 315.775 0.0846244 315.638 0.160668 315.516L27.3728 269.068C27.4454 268.944 27.5416 268.836 27.6561 268.75C27.7705 268.664 27.9007 268.601 28.0395 268.566C28.1782 268.53 28.3226 268.522 28.4643 268.542C28.6061 268.562 28.7425 268.611 28.8656 268.684L82.1809 299.649C82.4296 299.796 82.6111 300.034 82.6867 300.313C82.7624 300.592 82.7263 300.889 82.5861 301.142L55.9071 347.825C55.7528 348.08 55.5099 348.27 55.2247 348.358L54.9474 348.379ZM2.61317 315.665L54.5422 345.778L80.1336 300.993L28.823 271.136L2.61317 315.665Z" fill="#00194C"/>
<path d="M81.3066 496.895C78.6008 501.692 76.3859 506.751 74.6955 511.993C72.4562 519.415 76.956 530.078 80.1123 532.936C81.7889 534.227 83.8511 534.916 85.9672 534.893C88.0832 534.87 90.1298 534.135 91.7777 532.808C95.2538 529.758 91.7777 500.499 91.7777 500.499L81.3066 496.895Z" fill="#00194C"/>
<path d="M85.6783 535.986C83.3378 536.061 81.0543 535.254 79.2805 533.725C75.8683 530.633 71.2192 519.458 73.5864 511.695C75.2803 506.345 77.5395 501.19 80.3255 496.319C80.455 496.121 80.6468 495.971 80.8708 495.894C81.0948 495.816 81.3381 495.816 81.5624 495.892L91.9056 499.497C92.0939 499.56 92.2601 499.676 92.3848 499.831C92.5094 499.986 92.5873 500.173 92.6093 500.371C93.4837 507.366 96.0002 530.441 92.3747 533.618C90.4787 535.149 88.1154 535.985 85.6783 535.986ZM81.797 498.196C79.3259 502.694 77.2975 507.423 75.7404 512.314C73.6077 519.202 77.873 529.374 80.8373 532.147C82.3212 533.261 84.1324 533.853 85.988 533.83C87.8437 533.807 89.6395 533.17 91.0951 532.019C92.9932 530.377 92.396 515.214 90.7113 501.288L81.797 498.196Z" fill="#00194C"/>
<path d="M115.386 390.115C105.278 403.238 97.8051 418.192 93.377 434.153C86.574 459.745 82.9699 494.997 82.5647 496.191C82.1595 497.385 75.7617 508.603 80.2615 510.714C84.7613 512.825 89.2611 514.02 91.6709 500.499C91.6709 500.499 138.205 407.73 139.996 396.619C141.787 385.509 115.386 390.115 115.386 390.115Z" fill="white"/>
<path d="M84.6548 513.103C82.9535 512.994 81.2954 512.521 79.7924 511.716C79.3442 511.51 78.9428 511.215 78.6128 510.848C78.2828 510.481 78.0311 510.051 77.8731 509.584C76.7641 506.492 78.8541 501.437 81.0293 496.916C81.2853 496.404 81.4559 496.042 81.5198 495.871C81.5838 495.701 81.8397 493.589 82.1383 491.265C83.5671 480.175 86.9153 454.221 92.3108 433.898C96.8061 417.791 104.35 402.697 114.533 389.433C114.704 389.234 114.937 389.099 115.194 389.049C115.961 388.921 133.875 385.871 139.463 391.395C140.166 392.089 140.683 392.949 140.966 393.896C141.25 394.842 141.29 395.845 141.084 396.811C139.292 407.858 95.4671 495.423 92.716 500.883C91.5431 507.451 89.7517 511.162 87.1286 512.527C86.3639 512.919 85.5142 513.117 84.6548 513.103ZM115.983 391.139C106.127 404.079 98.8111 418.768 94.4221 434.431C89.0693 454.627 85.7424 480.474 84.3135 491.521C83.823 495.423 83.7164 496.234 83.6098 496.554C83.5032 496.874 83.3112 497.215 83.0127 497.855C81.9037 500.136 79.0034 506.172 79.9417 508.816C80.0021 509.013 80.1037 509.194 80.2398 509.349C80.3758 509.503 80.5432 509.627 80.7308 509.712C83.0127 510.778 84.6974 511.29 86.1049 510.565C88.0456 509.541 89.5598 506.108 90.5834 500.307C90.5995 500.202 90.6357 500.1 90.6901 500.008C91.1592 499.091 137.16 407.261 138.908 396.449C139.057 395.826 139.044 395.175 138.868 394.558C138.692 393.942 138.361 393.381 137.906 392.93C134.046 389.134 121.165 390.286 115.983 391.139Z" fill="#00194C"/>
<path d="M264.604 496.895C267.308 501.691 269.516 506.75 271.194 511.993C273.455 519.415 268.955 530.078 265.799 532.936C264.122 534.227 262.06 534.916 259.944 534.893C257.828 534.87 255.781 534.135 254.133 532.808C250.636 529.758 254.133 500.499 254.133 500.499L264.604 496.895Z" fill="#00194C"/>
<path d="M260.233 535.943C257.763 535.989 255.355 535.167 253.43 533.618C249.804 530.44 252.321 507.366 253.195 500.371C253.217 500.173 253.295 499.986 253.42 499.831C253.544 499.676 253.71 499.56 253.899 499.496L264.242 495.892C264.466 495.819 264.709 495.822 264.932 495.899C265.155 495.975 265.347 496.123 265.479 496.319C268.241 501.202 270.499 506.354 272.218 511.695C274.585 519.457 269.915 530.632 266.502 533.725C264.755 535.208 262.524 535.997 260.233 535.943ZM255.221 501.288C253.536 515.214 252.939 530.376 254.837 532.019C256.291 533.173 258.088 533.812 259.944 533.835C261.801 533.858 263.612 533.264 265.095 532.146C268.081 529.438 272.282 519.201 270.192 512.313C268.618 507.425 266.583 502.698 264.114 498.195L255.221 501.288Z" fill="#00194C"/>
<path d="M230.525 390.115C240.632 403.238 248.106 418.192 252.534 434.153C259.337 459.745 262.941 494.997 263.346 496.191C263.751 497.385 270.149 508.603 265.649 510.714C261.15 512.825 256.65 514.02 254.24 500.499C254.24 500.499 207.706 407.73 205.894 396.619C204.081 385.509 230.525 390.115 230.525 390.115Z" fill="white"/>
<path d="M261.278 513.103C260.416 513.11 259.567 512.905 258.804 512.505C256.181 511.141 254.389 507.43 253.195 500.861C250.465 495.402 206.619 407.837 204.827 396.79C204.63 395.822 204.676 394.819 204.963 393.874C205.25 392.928 205.768 392.069 206.47 391.373C212.057 385.85 229.928 388.899 230.739 389.027C230.996 389.078 231.228 389.213 231.4 389.411C241.583 402.675 249.126 417.77 253.622 433.876C259.017 454.2 262.365 480.154 263.794 491.243C264.093 493.568 264.349 495.508 264.413 495.892L264.903 496.895C267.036 501.416 269.168 506.47 268.059 509.562C267.898 510.028 267.645 510.457 267.315 510.823C266.986 511.189 266.586 511.486 266.14 511.695C264.638 512.504 262.98 512.984 261.278 513.103ZM219.414 390.285C214.744 390.285 210.095 390.904 208.026 392.93C207.573 393.382 207.241 393.942 207.062 394.558C206.883 395.173 206.862 395.823 207.003 396.449C208.773 407.261 254.773 499.091 255.242 500.008C255.287 500.104 255.323 500.204 255.349 500.307C256.373 506.108 257.887 509.541 259.827 510.565C261.235 511.29 262.92 510.778 265.202 509.712C265.389 509.627 265.557 509.503 265.693 509.349C265.829 509.194 265.93 509.013 265.991 508.816C266.929 506.172 264.007 500.136 262.92 497.854C262.698 497.431 262.499 496.997 262.323 496.553C262.323 496.234 262.109 495.423 261.598 491.521C260.19 480.474 256.863 454.626 251.489 434.431C247.104 418.771 239.795 404.082 229.95 391.139C226.458 390.582 222.929 390.297 219.393 390.285H219.414Z" fill="#00194C"/>
<path d="M130.996 266.829C130.996 268.023 114.191 354.095 110.992 392.525C110.992 392.525 176.634 426.945 236.689 390.115C236.689 390.115 223.061 334.88 222.677 322.063C222.293 309.246 215.853 275.636 206.661 261.625L130.996 266.829Z" fill="#00194C"/>
<path d="M175.056 408.093C152.729 407.922 130.701 402.932 110.481 393.463C110.297 393.367 110.146 393.218 110.048 393.036C109.949 392.853 109.907 392.646 109.926 392.439C112.507 361.346 123.98 299.223 128.309 275.828C129.226 270.795 129.909 267.17 129.93 266.765C129.958 266.508 130.072 266.269 130.255 266.087C130.437 265.905 130.676 265.79 130.932 265.762L206.576 260.559C206.764 260.541 206.953 260.575 207.122 260.658C207.291 260.741 207.435 260.869 207.536 261.028C216.834 275.188 223.317 308.564 223.722 322.042C224.127 334.582 237.563 389.304 237.712 389.859C237.763 390.079 237.745 390.309 237.661 390.519C237.577 390.728 237.431 390.907 237.243 391.032C218.511 402.408 196.971 408.317 175.056 408.093ZM112.101 391.885C118.926 395.212 179.897 423.17 235.473 389.624C233.767 382.672 221.995 334.176 221.611 322.106C221.206 309.31 214.872 276.66 206.107 262.713L131.913 267.831C131.721 268.919 131.316 271.222 130.378 276.212C126.113 299.394 114.789 360.685 112.101 391.885Z" fill="#00194C"/>
<path d="M248.482 80.8225L253.536 67.1311C253.536 67.1311 251.19 61.7356 253.813 57.705C256.437 53.6743 258.079 50.2408 260.211 51.4778C262.344 52.7147 273.007 58.2808 271.28 64.9559C269.552 71.6309 264.882 72.5479 264.882 72.5479C262.649 78.8377 259.851 84.9121 256.522 90.6965L248.482 80.8225Z" fill="white"/>
<path d="M256.479 91.7837C256.316 91.7816 256.156 91.7444 256.008 91.6744C255.861 91.6045 255.731 91.5035 255.626 91.3785L247.586 81.5258C247.466 81.3751 247.386 81.1954 247.356 81.0047C247.326 80.8139 247.347 80.6186 247.416 80.4382L252.321 67.152C251.665 65.5417 251.373 63.8064 251.465 62.0701C251.557 60.3338 252.031 58.6393 252.854 57.1074L253.899 55.4653C256.031 51.9465 258.164 48.9182 260.702 50.539L261.342 50.9228C264.476 52.7356 274.031 58.2803 272.261 65.2327C271.965 67.0483 271.205 68.7566 270.054 70.1916C268.903 71.6266 267.4 72.7394 265.692 73.4219C263.461 79.6159 260.707 85.6088 257.46 91.3358C257.371 91.4924 257.244 91.6247 257.092 91.7214C256.939 91.818 256.766 91.876 256.586 91.8903L256.479 91.7837ZM249.698 80.6728L256.309 88.798C259.262 83.5111 261.759 77.9818 263.773 72.2703C263.833 72.0795 263.944 71.9088 264.094 71.7772C264.245 71.6455 264.429 71.5578 264.626 71.5239C264.775 71.5239 268.635 70.6282 270.128 64.7635C271.493 59.4106 263.026 54.5056 260.233 52.8848L259.55 52.4796C258.74 51.9891 257.226 54.3777 255.775 56.7449C255.413 57.278 255.072 57.8538 254.688 58.4296C252.427 61.8845 254.496 66.7468 254.517 66.8108C254.613 67.0723 254.613 67.3596 254.517 67.6212L249.698 80.6728Z" fill="#00194C"/>
<path d="M258.996 54.271C262.091 55.8143 264.719 58.1553 266.609 61.0527C266.861 61.3739 266.99 61.775 266.972 62.183C266.972 62.6735 266.374 62.9507 265.927 63.164C265.325 63.5316 264.626 63.7099 263.922 63.6758C263.471 63.5972 263.042 63.4227 262.664 63.164C261.108 62.2295 259.676 61.1047 258.398 59.8158C258.985 60.2932 259.422 60.9282 259.66 61.646C259.897 62.3638 259.924 63.1345 259.738 63.8673C259.552 64.6001 259.161 65.2645 258.61 65.7822C258.059 66.2999 257.371 66.6494 256.628 66.7894" fill="white"/>
<path d="M256.714 67.877C256.459 67.876 256.213 67.7859 256.019 67.6222C255.824 67.4586 255.692 67.2318 255.648 66.9814C255.591 66.6929 255.652 66.3939 255.816 66.15C255.979 65.906 256.234 65.7372 256.522 65.6805C257.037 65.5504 257.507 65.2835 257.882 64.9081C258.258 64.5327 258.525 64.0626 258.655 63.5478C258.753 63.112 258.752 62.6597 258.653 62.2242C258.553 61.7886 258.357 61.381 258.079 61.0314C257.908 60.8821 257.759 60.7115 257.588 60.5409C257.482 60.4442 257.395 60.3276 257.334 60.1976C257.273 60.0676 257.238 59.9268 257.231 59.7833C257.224 59.6397 257.245 59.4961 257.294 59.3608C257.342 59.2256 257.417 59.1011 257.514 58.9947C257.61 58.8883 257.727 58.802 257.857 58.7406C257.987 58.6793 258.128 58.6441 258.271 58.6372C258.415 58.6303 258.558 58.6517 258.694 58.7002C258.829 58.7487 258.953 58.8235 259.06 58.9201C259.288 59.1098 259.502 59.3165 259.7 59.5385C260.748 60.5376 261.899 61.4239 263.133 62.183C263.386 62.3528 263.668 62.4756 263.965 62.5455C264.449 62.5261 264.92 62.379 265.33 62.119C265.483 62.0643 265.628 61.9851 265.756 61.8844C265.688 61.7996 265.63 61.7065 265.586 61.6072C263.8 58.875 261.319 56.6669 258.399 55.2093C258.169 55.0635 258.001 54.8383 257.926 54.5766C257.852 54.3149 257.876 54.0349 257.995 53.79C258.113 53.5451 258.318 53.3522 258.569 53.2482C258.82 53.1443 259.101 53.1363 259.358 53.226C262.64 54.857 265.424 57.3389 267.42 60.4129C267.633 60.6884 267.788 61.0043 267.876 61.3415C267.964 61.6787 267.983 62.0303 267.931 62.3749C267.81 62.7668 267.601 63.126 267.32 63.4252C267.039 63.7245 266.694 63.956 266.311 64.1023C265.685 64.5381 264.941 64.7717 264.178 64.7717C263.415 64.7717 262.671 64.5381 262.045 64.1023L260.979 63.3986C260.957 63.6505 260.914 63.9001 260.851 64.145C260.612 65.0576 260.128 65.8874 259.451 66.5451C258.775 67.2028 257.931 67.6633 257.012 67.877H256.714Z" fill="#00194C"/>
<path d="M66.5702 253.671L64.2883 271.606C64.139 272.715 66.5488 276.212 66.8687 277.577C67.7218 281.459 67.8497 285.767 68.3829 289.733C68.3829 290.33 68.5108 291.077 68.0203 291.439C67.5298 291.802 66.5702 291.439 65.8877 290.906L60.8974 286.854C58.4345 291.205 56.2961 295.731 54.4996 300.396C50.3623 301.399 46.2677 298.626 43.3034 295.555C42.972 295.237 42.6915 294.871 42.4717 294.468C42.2727 293.971 42.1574 293.445 42.1304 292.911C41.3627 285.767 40.5097 271.926 48.9548 268.236C49.8941 260.025 51.5787 251.916 53.9878 244.01L66.5702 253.671Z" fill="white"/>
<path d="M52.9215 301.697C50.9399 301.53 49.0117 300.968 47.2502 300.045C45.4886 299.122 43.9293 297.857 42.6636 296.323C42.2477 295.921 41.9017 295.452 41.6399 294.937C41.3775 294.336 41.2258 293.693 41.1921 293.039C40.6376 287.814 39.0595 272.16 48.0804 267.447C49.0706 259.395 50.74 251.44 53.0707 243.669C53.1178 243.493 53.2091 243.332 53.336 243.201C53.463 243.07 53.6213 242.974 53.7958 242.922C53.9644 242.869 54.1433 242.856 54.3177 242.886C54.4921 242.916 54.6568 242.986 54.7981 243.093L67.2526 252.754C67.4026 252.876 67.5201 253.033 67.5945 253.212C67.6689 253.39 67.698 253.585 67.6791 253.777C67.6791 253.777 65.3759 271.627 65.3759 271.712C65.7005 272.663 66.1221 273.578 66.6341 274.442C67.1773 275.341 67.6138 276.3 67.935 277.3C68.4439 279.871 68.7999 282.47 69.0013 285.084C69.1293 286.598 69.2786 288.091 69.4705 289.541C69.5999 290.025 69.5947 290.535 69.4557 291.016C69.3166 291.497 69.0489 291.931 68.6814 292.271C68.1483 292.676 66.9967 293.124 65.2906 291.716L61.3026 288.496C59.1633 292.45 57.2827 296.539 55.6725 300.737C55.6091 300.904 55.5061 301.054 55.3724 301.173C55.2387 301.292 55.0783 301.376 54.9048 301.42C54.256 301.586 53.5908 301.679 52.9215 301.697ZM54.7342 245.887C52.5594 253.225 51.0253 260.739 50.1491 268.343C50.127 268.54 50.0546 268.727 49.9388 268.888C49.823 269.049 49.6677 269.177 49.4879 269.26C43.9005 271.691 41.8745 279.411 43.3034 292.825C43.3213 293.228 43.4078 293.625 43.5593 293.998C43.7177 294.307 43.935 294.583 44.1991 294.809C46.1397 296.835 49.8931 300.012 53.7745 299.458C55.5358 294.944 57.6021 290.554 59.9591 286.321C60.0371 286.183 60.1444 286.064 60.2733 285.972C60.4022 285.88 60.5497 285.817 60.7055 285.788C60.8662 285.757 61.0317 285.762 61.1903 285.802C61.3488 285.843 61.4964 285.918 61.6225 286.022L66.6128 290.096C66.8263 290.27 67.0632 290.414 67.3166 290.522C67.3166 290.522 67.3166 290.245 67.3166 289.904C67.1246 288.432 66.9753 286.897 66.8261 285.361C66.6432 282.84 66.3013 280.333 65.8024 277.854C65.5187 277.045 65.1543 276.266 64.7148 275.53C63.8703 274.332 63.3488 272.936 63.2006 271.478C63.2006 271.329 65.0347 257.317 65.3332 254.182L54.7342 245.887Z" fill="#00194C"/>
<path d="M155.031 155.869C154.575 155.652 154.095 155.487 153.602 155.378C149.955 154.589 144.304 158.982 141.233 161.158C138.037 163.632 135.714 167.061 134.601 170.946C133.105 176.058 132.091 181.299 131.572 186.6C128.181 214.324 128.181 242.901 126.497 270.838C126.497 270.838 149.742 287.643 169.149 284.934C188.556 282.226 212.889 271.136 212.889 271.136C212.889 271.136 206.086 193.701 205.83 181.951C205.83 181.951 218.114 165.444 232.829 145.035C247.544 124.626 261.15 84.9381 261.15 84.9381L248.354 76.2371C248.354 76.2371 204.614 145.696 197.001 152.201C189.728 158.407 178.98 160.219 169.703 159.707C166.377 159.535 163.076 159.028 159.851 158.193C158.184 157.55 156.572 156.773 155.031 155.869Z" fill="#0055FF"/>
<path d="M143.771 147.637C142.241 146.735 141.05 145.357 140.38 143.713C140.268 142.436 140.481 141.153 140.998 139.981C145.264 127.185 144.411 112.555 151.661 101.167C152.534 99.5895 153.788 98.2553 155.308 97.2858C156.073 96.8094 156.956 96.5569 157.857 96.5569C158.758 96.5569 159.64 96.8094 160.405 97.2858C166.803 86.4308 182.52 94.1935 186.977 102.937C191.69 112.193 194.463 122.813 197.96 132.58C199.28 135.52 199.908 138.723 199.794 141.943C199.704 143.549 199.083 145.079 198.029 146.295C196.976 147.51 195.549 148.342 193.972 148.66L192.266 145.696C192.459 145.927 192.604 146.193 192.693 146.48C192.782 146.767 192.814 147.069 192.786 147.368C192.758 147.667 192.672 147.958 192.531 148.224C192.391 148.49 192.199 148.725 191.968 148.916C191.061 149.668 189.972 150.168 188.811 150.366C177.53 153.203 165.353 155.485 154.434 151.603C152.749 151.006 150.766 149.471 151.427 147.85C150.382 150.793 146.65 149.641 143.771 147.637Z" fill="white"/>
<path d="M167.443 154.717C162.925 154.769 158.431 154.048 154.157 152.585C152.852 152.16 151.707 151.349 150.872 150.26C150.689 150.363 150.496 150.449 150.297 150.516C147.631 151.412 144.219 149.215 143.216 148.533C142.427 147.978 139.761 145.973 139.378 143.905C139.222 142.511 139.427 141.101 139.975 139.81C141.518 134.782 142.666 129.641 143.408 124.434C144.794 116.245 146.245 107.757 150.766 100.57C151.745 98.837 153.137 97.3721 154.818 96.3049C155.606 95.8502 156.484 95.5744 157.391 95.497C158.298 95.4196 159.21 95.5425 160.064 95.8571C161.165 94.2262 162.673 92.9116 164.438 92.0437C166.204 91.1757 168.166 90.7847 170.13 90.9094C173.817 91.2525 177.367 92.4805 180.479 94.4891C183.59 96.4977 186.17 99.2276 188.001 102.447C191.176 109.195 193.835 116.175 195.956 123.325C196.937 126.311 197.918 129.275 198.963 132.175C200.339 135.279 200.981 138.658 200.839 142.049C200.718 143.906 199.982 145.669 198.745 147.06C197.509 148.45 195.845 149.389 194.015 149.727C193.823 149.746 193.63 149.714 193.455 149.636C193.279 149.557 193.127 149.434 193.013 149.279L192.735 149.599C191.697 150.491 190.437 151.088 189.089 151.326C182.036 153.324 174.768 154.463 167.443 154.717ZM152.514 148.319C152.454 148.477 152.454 148.652 152.514 148.81C153.068 149.631 153.89 150.234 154.839 150.516C165.374 154.227 177.274 152.094 188.598 149.258C189.557 149.106 190.461 148.71 191.221 148.106C191.509 147.816 191.677 147.427 191.69 147.018L191.349 146.4C191.191 146.172 191.125 145.893 191.166 145.618C191.206 145.344 191.35 145.095 191.568 144.923C191.787 144.752 192.062 144.67 192.338 144.694C192.615 144.719 192.871 144.849 193.055 145.056C193.373 145.375 193.613 145.761 193.759 146.187L194.548 147.594C195.72 147.157 196.744 146.396 197.499 145.399C198.254 144.402 198.71 143.211 198.813 141.964C198.879 138.913 198.275 135.885 197.043 133.092C195.998 130.171 195.017 127.185 194.015 124.178C191.898 117.122 189.253 110.236 186.103 103.577C184.467 100.697 182.161 98.2533 179.381 96.453C176.6 94.6526 173.427 93.5484 170.13 93.2339C168.38 93.1336 166.638 93.5286 165.103 94.3735C163.567 95.2185 162.301 96.4792 161.45 98.011C161.37 98.1408 161.264 98.2531 161.14 98.3411C161.015 98.429 160.874 98.4909 160.725 98.5228C160.574 98.5547 160.418 98.5541 160.267 98.521C160.116 98.4879 159.974 98.4231 159.851 98.3309C159.266 97.9749 158.595 97.7866 157.91 97.7866C157.225 97.7866 156.554 97.9749 155.969 98.3309C154.554 99.1658 153.367 100.338 152.514 101.743C148.249 108.567 146.863 116.458 145.456 124.797C144.714 130.072 143.574 135.283 142.043 140.386C141.609 141.387 141.405 142.473 141.446 143.564C142.09 144.909 143.123 146.031 144.411 146.784C145.821 147.995 147.653 148.6 149.507 148.469C149.702 148.405 149.878 148.297 150.023 148.152C150.167 148.008 150.276 147.831 150.339 147.637C150.334 147.566 150.334 147.495 150.339 147.424C150.441 147.141 150.651 146.91 150.923 146.782C151.195 146.654 151.507 146.639 151.789 146.741C152.072 146.843 152.303 147.053 152.431 147.325C152.559 147.597 152.574 147.909 152.472 148.191C152.492 148.232 152.506 148.275 152.514 148.319Z" fill="#00194C"/>
<path d="M173.649 178.496L173.222 178.858C172.681 179.298 172.024 179.571 171.331 179.643C170.638 179.715 169.939 179.583 169.319 179.264C168.749 178.847 168.269 178.317 167.912 177.707C163.348 171.16 160.277 164.357 161.642 156.21C161.647 156.132 161.647 156.054 161.642 155.976L161.429 153.224L160.874 145.632V144.523V142.924L161.557 134.521L179.193 134.713L179.812 144.993V145.632L180.217 152.222L180.43 155.826V155.976C180.437 162.811 178.736 169.541 175.483 175.553C175.036 176.627 174.416 177.622 173.649 178.496Z" fill="white"/>
<path d="M170.834 180.778C170.08 180.79 169.339 180.582 168.701 180.18C168.009 179.69 167.422 179.066 166.974 178.346C163.156 172.844 158.976 165.359 160.576 156.039L159.808 145.717L160 142.838L160.682 134.436C160.704 134.159 160.831 133.901 161.037 133.714C161.244 133.528 161.513 133.427 161.791 133.434L179.428 133.604C179.706 133.614 179.971 133.726 180.172 133.919C180.372 134.112 180.495 134.372 180.516 134.649L181.113 144.928C181.113 144.928 181.113 145.142 181.113 145.163L181.731 155.826C181.791 162.905 180.052 169.884 176.677 176.107C176.113 177.32 175.341 178.425 174.395 179.37L173.883 179.818C172.989 180.442 171.924 180.777 170.834 180.778ZM162.772 135.63L161.983 145.696L162.772 155.89C162.787 156.06 162.787 156.232 162.772 156.402C161.642 163.141 163.455 169.325 168.85 177.088C169.14 177.566 169.516 177.985 169.959 178.325C170.388 178.522 170.863 178.594 171.33 178.534C171.798 178.473 172.239 178.283 172.604 177.984C172.727 177.896 172.841 177.796 172.945 177.685C173.711 176.926 174.326 176.029 174.758 175.041C177.939 169.214 179.597 162.678 179.577 156.039L178.938 145.206V144.992L178.404 135.801L162.772 135.63Z" fill="#00194C"/>
<path d="M160.874 145.632C162.266 148.042 164.238 150.066 166.611 151.518C170.364 153.971 175.696 156.146 180.302 155.4L179.982 144.992C176.614 145.451 173.199 145.451 169.831 144.992C166.814 144.804 163.853 144.082 161.088 142.86L160.874 145.632Z" fill="#00194C"/>
<path d="M178.34 156.615C173.929 156.329 169.677 154.856 166.035 152.35C163.495 150.766 161.397 148.565 159.936 145.952C159.883 145.764 159.883 145.565 159.936 145.376L160.128 142.668C160.143 142.494 160.199 142.326 160.292 142.177C160.385 142.029 160.511 141.905 160.661 141.815C160.815 141.731 160.987 141.687 161.162 141.687C161.337 141.687 161.51 141.731 161.663 141.815C164.324 142.94 167.16 143.596 170.044 143.755C173.328 144.193 176.656 144.193 179.94 143.755C180.087 143.725 180.239 143.73 180.384 143.771C180.529 143.812 180.662 143.887 180.771 143.99C180.888 144.082 180.983 144.198 181.05 144.331C181.116 144.464 181.152 144.609 181.155 144.758L181.475 155.165C181.484 155.424 181.397 155.678 181.233 155.878C181.068 156.078 180.836 156.211 180.58 156.253C179.844 156.432 179.095 156.553 178.34 156.615ZM161.962 145.398C163.26 147.532 165.052 149.324 167.187 150.622C170.699 153.12 174.905 154.455 179.215 154.44L178.959 146.187C175.877 146.475 172.772 146.418 169.703 146.016C167.091 145.816 164.514 145.301 162.026 144.481L161.962 145.398Z" fill="#00194C"/>
<path d="M169.853 147.466H171.708C173.744 147.489 175.765 147.11 177.654 146.352C179.544 145.593 181.266 144.47 182.721 143.046C184.177 141.622 185.338 139.926 186.137 138.053C186.937 136.181 187.36 134.169 187.383 132.133C187.203 127.377 186.754 122.635 186.039 117.93C186.039 117.93 178.895 115.371 173.243 113.238C163.839 109.677 161.301 104.708 161.301 104.708C161.031 108.086 160.314 111.413 159.168 114.603C157.931 116.853 156.505 118.994 154.903 121.001C154.903 121.001 154.626 128.635 154.583 131.813C154.549 135.909 156.134 139.852 158.994 142.784C161.854 145.716 165.757 147.399 169.853 147.466Z" fill="white"/>
<path d="M171.836 148.597H169.831C165.44 148.54 161.25 146.748 158.177 143.611C155.103 140.473 153.397 136.247 153.431 131.856C153.431 128.657 153.73 121.001 153.73 121.001C153.743 120.769 153.825 120.546 153.965 120.361C155.489 118.399 156.851 116.316 158.038 114.134C159.164 111.063 159.881 107.858 160.171 104.601C160.189 104.359 160.287 104.13 160.449 103.948C160.611 103.767 160.828 103.644 161.066 103.598C161.303 103.551 161.55 103.584 161.766 103.692C161.982 103.8 162.156 103.977 162.261 104.196C162.261 104.196 164.798 108.973 173.627 112.3C179.215 114.432 186.423 116.991 186.423 116.991C186.613 117.056 186.781 117.172 186.909 117.326C187.037 117.481 187.12 117.667 187.148 117.866C187.887 122.625 188.335 127.425 188.492 132.239C188.43 136.61 186.646 140.78 183.527 143.843C180.408 146.906 176.207 148.614 171.836 148.597ZM169.853 146.464H171.708C173.599 146.509 175.48 146.169 177.236 145.465C178.992 144.761 180.586 143.708 181.923 142.369C183.268 141.046 184.337 139.47 185.069 137.731C185.801 135.992 186.181 134.126 186.188 132.239C186.042 127.755 185.629 123.282 184.951 118.847C183.096 118.186 177.423 116.117 172.796 114.368C168.709 112.967 165.006 110.63 161.983 107.544C161.604 110.103 160.946 112.613 160.021 115.029C158.847 117.283 157.469 119.424 155.905 121.427C155.905 122.963 155.628 129.105 155.607 131.877C155.584 133.766 155.934 135.642 156.637 137.396C157.34 139.149 158.382 140.748 159.703 142.098C161.025 143.449 162.599 144.526 164.337 145.268C166.075 146.01 167.942 146.402 169.831 146.421L169.853 146.464Z" fill="#00194C"/>
<path d="M171.431 131.067C170.526 131.064 169.622 131.014 168.722 130.917C168.435 130.875 168.176 130.722 168 130.491C167.825 130.259 167.747 129.969 167.784 129.681C167.802 129.537 167.849 129.399 167.921 129.274C167.994 129.149 168.09 129.039 168.205 128.952C168.321 128.864 168.452 128.801 168.592 128.765C168.732 128.729 168.878 128.721 169.021 128.742C170.333 128.872 171.654 128.872 172.966 128.742C172.703 125.72 171.931 122.764 170.684 119.999C170.58 119.716 170.592 119.403 170.718 119.129C170.844 118.855 171.073 118.642 171.356 118.538C171.639 118.433 171.952 118.445 172.226 118.571C172.499 118.697 172.712 118.927 172.817 119.209C173.819 121.79 176.058 128.06 174.949 130.043C174.813 130.276 174.625 130.474 174.399 130.622C174.173 130.77 173.917 130.864 173.649 130.896C172.914 130.999 172.173 131.056 171.431 131.067Z" fill="#00194C"/>
<path d="M164.892 122.337C164.908 120.889 164.444 119.709 163.855 119.703C163.266 119.696 162.776 120.865 162.76 122.314C162.744 123.762 163.208 124.942 163.797 124.948C164.386 124.955 164.876 123.786 164.892 122.337Z" fill="#00194C"/>
<path d="M178.995 121.994C179.011 120.545 178.546 119.365 177.957 119.359C177.368 119.352 176.878 120.521 176.862 121.97C176.846 123.419 177.311 124.598 177.9 124.605C178.488 124.611 178.979 123.442 178.995 121.994Z" fill="#00194C"/>
<path d="M189.494 160.305C189.494 164.57 189.814 173.25 180.622 189.372L171.708 179.584C173.99 175.318 179.876 172.397 180.345 157.106C180.345 156.722 180.345 156.359 180.345 155.976C180.458 155.908 180.58 155.857 180.707 155.826C184.056 154.376 189.025 156.935 189.494 158.727C189.542 159.252 189.542 159.78 189.494 160.305Z" fill="white"/>
<path d="M180.622 190.46C180.471 190.463 180.321 190.434 180.181 190.375C180.041 190.316 179.916 190.229 179.812 190.119L170.791 180.33C170.637 180.163 170.538 179.953 170.508 179.728C170.477 179.503 170.516 179.274 170.62 179.072C171.23 177.941 171.944 176.871 172.753 175.873C175.397 172.525 178.681 168.366 179.023 157.063C179.042 156.701 179.042 156.338 179.023 155.976C179.02 155.786 179.068 155.599 179.162 155.434C179.256 155.269 179.392 155.132 179.556 155.037C179.736 154.927 179.929 154.841 180.132 154.781C181.268 154.392 182.472 154.243 183.668 154.342C184.865 154.441 186.028 154.787 187.084 155.357C187.916 155.762 189.92 156.871 190.326 158.449C190.426 159.07 190.461 159.699 190.432 160.326V160.923C190.432 165.572 190.432 174.273 181.39 189.905C181.309 190.06 181.19 190.192 181.045 190.289C180.899 190.385 180.732 190.444 180.558 190.46H180.622ZM172.945 179.434L180.388 187.517C188.321 173.186 188.364 165.231 188.406 160.902V160.305C188.444 159.865 188.444 159.422 188.406 158.983C187.875 158.239 187.132 157.674 186.274 157.362C184.763 156.558 183.007 156.345 181.347 156.765C181.337 156.892 181.337 157.021 181.347 157.148C180.963 169.176 177.274 173.847 174.587 177.259C173.968 178.027 173.414 178.773 172.945 179.434Z" fill="#00194C"/>
<path d="M170.791 179.669L160.896 189.436C150.019 181.929 152.194 160.091 152.536 158.791C152.963 157.844 153.721 157.085 154.668 156.658C155.698 156.001 156.87 155.598 158.086 155.483C159.302 155.368 160.528 155.544 161.663 155.997V156.231C162.09 172.098 168.445 175.276 170.791 179.669Z" fill="white"/>
<path d="M160.895 190.46C160.668 190.462 160.445 190.395 160.256 190.268C148.27 181.993 151.427 158.663 151.491 158.449C151.982 157.245 152.901 156.265 154.071 155.698C155.259 154.951 156.609 154.498 158.008 154.38C159.407 154.261 160.814 154.479 162.111 155.016C162.289 155.111 162.438 155.252 162.544 155.425C162.649 155.597 162.705 155.795 162.708 155.997V156.231C163.007 167.94 166.526 172.354 169.362 175.894C170.24 176.912 171.018 178.012 171.686 179.178C171.797 179.387 171.839 179.626 171.804 179.86C171.77 180.094 171.661 180.311 171.495 180.479L161.599 190.183C161.403 190.352 161.155 190.449 160.895 190.46ZM155.137 157.618C154.505 157.925 153.972 158.406 153.602 159.004C153.111 160.966 151.597 180.543 160.789 187.922L169.319 179.392C168.85 178.667 168.274 177.941 167.635 177.131C164.777 173.591 160.917 168.75 160.49 156.594C158.65 156.187 156.725 156.508 155.116 157.49L155.137 157.618Z" fill="#00194C"/>
<path d="M174.075 133.839H168.914C168.914 133.839 168.317 143.073 171.495 142.092C174.075 141.282 174.736 137.23 174.075 133.839Z" fill="#00194C"/>
<path d="M147.311 157.106C146.415 154.333 83.6524 188.775 72.3922 196.367C61.132 203.959 46.3317 260.345 46.3317 260.345L70.0464 261.497C70.0464 261.497 88.5361 217.16 96.8106 209.973C105.085 202.786 140.316 189.372 140.316 189.372L147.311 157.106Z" fill="#0055FF"/>
<path d="M475.647 65.361C476.425 63.2215 476.822 60.9623 476.82 58.6859C476.415 56.5533 474.858 52.5866 475.647 50.1555C476.437 47.7243 479.166 40.1322 482.323 40.3241C485.479 40.5161 494.884 43.0752 495.865 47.7883C496.846 52.5013 487.334 76.5572 487.334 76.5572L475.647 65.361Z" fill="white"/>
<path d="M487.334 77.6236C487.057 77.6209 486.791 77.5144 486.588 77.325L475.008 66.1288C474.863 65.9879 474.761 65.8096 474.712 65.6137C474.663 65.4179 474.669 65.2122 474.731 65.0199C475.482 63.059 475.873 60.978 475.882 58.878C475.776 58.3235 475.605 57.6837 475.413 56.9586C474.548 54.652 474.313 52.1568 474.731 49.7291C475.498 47.1913 478.335 38.8741 482.493 39.066C485.223 39.2366 495.843 41.7531 497.016 47.3832C498.04 52.2669 489.318 74.3607 488.315 76.8559C488.254 77.0221 488.151 77.17 488.017 77.2857C487.883 77.4013 487.721 77.4809 487.548 77.517L487.334 77.6236ZM476.97 65.0625L486.929 74.6806C490.683 65.0625 495.566 50.966 494.926 47.895C494.137 44.0563 485.65 41.4972 482.365 41.2839C480.638 41.2839 478.1 45.8051 476.757 50.3475C476.5 52.3936 476.741 54.4715 477.46 56.4041C477.674 57.1932 477.865 57.897 477.972 58.5367C478.026 60.7631 477.65 62.979 476.863 65.0625H476.97Z" fill="#00194C"/>
<path d="M461.146 37.3382L514.738 64.6996L533.953 27.4429L479.913 1.61694L461.146 37.3382Z" fill="white"/>
<path d="M514.738 65.7448C514.566 65.7458 514.397 65.7017 514.248 65.6168L460.655 38.3194C460.525 38.2552 460.408 38.1656 460.313 38.0557C460.218 37.9458 460.146 37.8179 460.101 37.6796C460.043 37.5448 460.014 37.3997 460.014 37.2531C460.014 37.1065 460.043 36.9614 460.101 36.8266L478.846 1.10533C478.975 0.848951 479.199 0.653589 479.471 0.561735C479.742 0.46988 480.039 0.488959 480.297 0.614825L534.337 26.4407C534.472 26.5015 534.593 26.5898 534.692 26.7C534.791 26.8101 534.867 26.9397 534.913 27.0805C534.97 27.2154 535 27.3605 535 27.507C535 27.6536 534.97 27.7987 534.913 27.9336L515.719 65.1903C515.622 65.3635 515.479 65.5067 515.306 65.6045C515.133 65.7022 514.937 65.7507 514.738 65.7448ZM462.639 36.8692L514.269 63.207L532.46 27.9336L480.403 3.06733L462.639 36.8692Z" fill="#00194C"/>
<path d="M318.431 65.361C317.643 63.2243 317.246 60.9633 317.258 58.6859C317.642 56.5533 319.22 52.5866 318.431 50.1555C317.642 47.7243 314.891 40.1322 311.756 40.3241C308.621 40.5161 299.195 43.0752 298.214 47.7883C297.233 52.5013 306.851 76.6638 306.851 76.6638L318.431 65.361Z" fill="white"/>
<path d="M306.851 77.6236H306.617C306.446 77.5807 306.288 77.4986 306.155 77.3839C306.022 77.2691 305.917 77.1248 305.849 76.9625C304.868 74.4673 296.146 52.3735 297.169 47.4898C298.342 41.8597 308.941 39.3432 311.693 39.1726C315.808 38.874 318.666 47.2126 319.455 49.8357C319.851 52.2642 319.616 54.7537 318.773 57.0652C318.581 57.7903 318.41 58.4301 318.304 58.9846C318.311 61.0829 318.694 63.163 319.434 65.1265C319.506 65.3159 319.52 65.5224 319.474 65.7198C319.429 65.9172 319.326 66.0967 319.178 66.2354L307.598 77.4316C307.38 77.5828 307.115 77.6509 306.851 77.6236ZM311.884 41.3692C308.6 41.5825 300.112 44.1416 299.323 47.9803C298.684 51.0512 303.589 65.0412 307.321 74.7659L317.28 65.1478C316.514 63.0463 316.174 60.8136 316.278 58.5794C316.384 57.9822 316.576 57.2785 316.768 56.4468C317.487 54.5141 317.729 52.4362 317.472 50.3901C316.043 45.869 313.612 41.2839 311.884 41.2839V41.3692Z" fill="#00194C"/>
<path d="M454.13 510.543C454.322 511.14 452.36 529.204 454.13 532.147C455.9 535.09 473.174 543.535 480.638 538.033C488.102 532.53 482.408 527.881 480.638 525.237C478.868 522.592 471.404 506.47 471.404 506.47L454.13 510.543Z" fill="#00194C"/>
<path d="M474.027 540.912C472.386 540.898 470.751 540.727 469.143 540.4C462.234 539.014 454.599 535.005 453.213 532.701C451.826 530.398 452.168 523.958 452.893 513.849C452.893 512.42 453.085 510.949 453.085 510.693C453.026 510.573 452.996 510.442 452.996 510.309C452.996 510.176 453.026 510.045 453.085 509.925C453.256 509.698 453.508 509.545 453.788 509.499L471.084 505.383C471.324 505.326 471.577 505.355 471.799 505.464C472.02 505.572 472.197 505.755 472.299 505.98C472.299 506.129 479.742 522.038 481.448 524.619C481.733 525.039 482.04 525.445 482.365 525.834C483.319 526.778 484.072 527.905 484.578 529.147C485.084 530.39 485.332 531.723 485.308 533.064C485.06 534.265 484.566 535.403 483.858 536.404C483.15 537.406 482.242 538.251 481.192 538.886C479.077 540.3 476.569 541.009 474.027 540.912ZM455.196 511.461C455.196 511.994 455.196 512.783 455.025 514.062C454.705 518.328 453.916 529.758 455.025 531.656C455.9 533.149 462.66 536.988 469.548 538.374C472.747 539.014 477.14 539.334 479.977 537.244C480.799 536.761 481.515 536.117 482.083 535.352C482.651 534.586 483.059 533.714 483.282 532.787C483.206 530.661 482.303 528.649 480.766 527.178C480.382 526.687 480.019 526.218 479.742 525.813C478.164 523.403 472.363 510.885 470.807 507.686L455.196 511.461Z" fill="#00194C"/>
<path d="M323.443 502.589C323.443 502.589 308.707 527.05 311.074 533.511C313.441 539.973 334.938 534.407 339.054 529.694C343.17 524.981 343.468 496.404 343.468 496.404L323.443 502.589Z" fill="#00194C"/>
<path d="M318.218 537.521C317.124 537.533 316.032 537.44 314.955 537.244C313.912 537.178 312.906 536.83 312.046 536.237C311.186 535.643 310.503 534.826 310.072 533.874C307.619 527.114 320.991 504.594 322.526 502.035C322.664 501.813 322.875 501.647 323.123 501.565L343.148 495.381C343.31 495.33 343.482 495.318 343.649 495.347C343.817 495.376 343.975 495.444 344.11 495.546C344.246 495.649 344.355 495.782 344.429 495.935C344.503 496.088 344.539 496.256 344.535 496.426C344.535 499.39 344.108 525.515 339.864 530.398C336.878 533.789 325.959 537.521 318.218 537.521ZM324.147 503.399C318.346 513.081 310.498 528.713 312.076 533.064C312.439 534.066 313.526 534.727 315.339 535.069C321.993 536.327 335.258 532.318 338.243 528.905C341.229 525.493 342.21 506.492 342.381 497.769L324.147 503.399Z" fill="#00194C"/>
<path d="M362.918 264.888C362.918 264.888 342.594 380.347 336.111 408.626C329.628 436.904 317.856 506.427 317.856 506.427C317.856 506.427 327.282 512.825 342.594 508.773L399.364 332.619L452.679 513.486L475.648 508.197L438.028 272.928L362.918 264.888Z" fill="#00194C"/>
<path d="M452.765 514.553C452.533 514.556 452.307 514.483 452.122 514.344C451.936 514.205 451.802 514.008 451.741 513.785L399.321 336.245L343.596 509.114C343.544 509.28 343.449 509.43 343.322 509.55C343.195 509.669 343.04 509.754 342.871 509.797C327.26 514.062 317.642 507.664 317.28 507.302C317.112 507.184 316.982 507.022 316.902 506.833C316.823 506.644 316.799 506.437 316.832 506.235C316.96 505.553 328.689 436.371 335.108 408.391C341.528 380.411 361.702 265.848 361.915 264.696C361.958 264.43 362.101 264.19 362.316 264.027C362.53 263.864 362.799 263.791 363.067 263.822L438.178 271.861C438.411 271.887 438.629 271.988 438.799 272.15C438.968 272.312 439.08 272.526 439.116 272.757L476.82 508.027C476.865 508.292 476.806 508.564 476.655 508.786C476.504 509.009 476.273 509.164 476.01 509.221L453.042 514.531L452.765 514.553ZM399.449 331.553C399.676 331.558 399.896 331.635 400.076 331.773C400.257 331.911 400.388 332.103 400.452 332.321L453.554 512.228L474.581 507.366L437.111 273.909L363.792 266.039C361.787 277.364 343.234 382.267 337.156 408.924C331.078 435.582 320.287 498.494 319.029 505.937C321.161 507.174 329.521 511.076 341.762 507.963L398.362 332.321C398.422 332.101 398.553 331.907 398.734 331.769C398.915 331.63 399.136 331.554 399.364 331.553H399.449Z" fill="#00194C"/>
<path d="M491.834 67.5149C486.332 88.3292 450.59 179.776 447.838 186.067C445.087 192.358 447.455 276.468 447.455 276.468C424.657 291.013 359.463 284.7 358.29 281.97C357.117 279.241 358.695 221.468 356.733 210.485C354.771 199.502 301.797 69.4769 301.797 69.4769L320.65 63.207L340.184 105.326C340.184 105.326 363.344 144.502 368.847 148.426C370.799 149.62 372.977 150.397 375.244 150.708C380.705 151.607 386.239 151.986 391.772 151.838C402.734 154.973 416.19 150.708 423.548 147.125C424.899 146.51 426.204 145.798 427.451 144.993C432.526 141.431 474.539 63.207 474.539 63.207L491.834 67.5149Z" fill="#0055FF"/>
<path d="M423.527 147.125L399.897 239.147L375.223 150.708C380.684 151.607 386.218 151.985 391.751 151.838C402.712 154.973 416.169 150.708 423.527 147.125Z" fill="#00194C"/>
<path d="M399.897 240.213C399.667 240.213 399.442 240.139 399.258 240C399.073 239.862 398.938 239.667 398.874 239.446L374.306 151.049C374.257 150.872 374.253 150.686 374.294 150.508C374.335 150.329 374.42 150.163 374.541 150.025C374.663 149.886 374.821 149.783 374.997 149.727C375.174 149.67 375.362 149.663 375.543 149.705C380.927 150.584 386.382 150.955 391.836 150.814H392.156C402.115 153.672 414.719 150.281 423.164 146.165C423.348 146.086 423.551 146.058 423.75 146.087C423.948 146.115 424.135 146.198 424.29 146.326C424.444 146.454 424.56 146.622 424.625 146.812C424.69 147.002 424.701 147.206 424.657 147.402L401.028 239.424C400.974 239.654 400.842 239.857 400.656 240.001C400.47 240.145 400.239 240.22 400.004 240.213H399.897ZM376.716 152.051L399.897 235.031L421.97 149.044C413.311 152.84 401.39 155.634 391.665 152.904C386.667 153.035 381.667 152.75 376.716 152.051Z" fill="#00194C"/>
<path d="M418.408 119.892C418.674 119.194 418.902 118.482 419.091 117.759C422.844 103.961 417.321 86.2178 401.07 85.1088C397.35 84.954 393.662 85.8576 390.434 87.7149C387.206 89.5721 384.572 92.3067 382.836 95.6013C378.166 103.727 379.467 114.112 380.32 123.048C380.323 123.641 380.501 124.22 380.832 124.711C381.77 125.799 383.583 125.074 384.777 125.053C386.504 125.053 388.317 125.309 390.045 125.415C393.073 125.564 396.08 125.671 399.087 125.607C403.44 125.796 407.802 125.675 412.138 125.245C413.972 124.946 415.231 124.946 416.404 123.453C417.28 122.396 417.959 121.189 418.408 119.892Z" fill="white"/>
<path d="M405.655 126.652H402.968H399.172C396.528 126.652 393.627 126.652 390.066 126.46L387.933 126.289C386.888 126.289 385.801 126.076 384.777 126.097H383.86C383.356 126.332 382.8 126.433 382.246 126.391C381.691 126.348 381.157 126.164 380.694 125.856C380.232 125.547 379.856 125.125 379.604 124.629C379.352 124.134 379.231 123.582 379.254 123.026V121.79C378.379 112.982 377.398 102.98 382.005 94.94C383.849 91.4939 386.629 88.6387 390.024 86.7031C393.42 84.7676 397.293 83.8305 401.198 83.9997C404.222 84.1645 407.168 85.0189 409.811 86.4974C412.454 87.976 414.724 90.0395 416.446 92.5301C418.847 96.2876 420.421 100.512 421.064 104.924C421.708 109.337 421.406 113.835 420.178 118.121C419.979 118.844 419.744 119.555 419.475 120.254C418.984 121.624 418.262 122.901 417.342 124.029C416.821 124.664 416.172 125.183 415.437 125.55C414.702 125.917 413.898 126.126 413.077 126.161H412.437C410.193 126.508 407.926 126.672 405.655 126.652ZM400.303 124.519H403.011C406.023 124.647 409.041 124.518 412.032 124.135H412.693C413.259 124.149 413.82 124.04 414.34 123.816C414.859 123.591 415.323 123.256 415.7 122.835C416.442 121.882 417.025 120.816 417.427 119.678C417.662 118.996 417.875 118.292 418.067 117.546C419.209 113.568 419.493 109.394 418.901 105.298C418.309 101.203 416.855 97.2799 414.634 93.7884C413.087 91.57 411.053 89.7359 408.687 88.4271C406.321 87.1183 403.686 86.3697 400.985 86.2389C397.501 86.1156 394.052 86.9764 391.035 88.7228C388.017 90.4691 385.553 93.0304 383.924 96.1129C379.659 103.577 380.597 113.174 381.429 121.704L381.557 122.941C381.563 123.311 381.651 123.675 381.813 124.007C382.09 124.327 382.772 124.263 383.732 124.007L384.926 123.88C386.057 123.88 387.187 123.879 388.296 124.071L390.279 124.242C393.798 124.413 396.677 124.477 399.258 124.434L400.303 124.519Z" fill="#00194C"/>
<path d="M386.569 121.576C385.716 114.709 374.455 112.641 374.733 120.702C374.736 123.495 375.708 126.201 377.484 128.358C378.39 129.42 379.591 130.19 380.935 130.57C382.279 130.949 383.705 130.922 385.033 130.491" fill="white"/>
<path d="M382.836 131.856C381.669 131.838 380.518 131.581 379.454 131.1C378.39 130.62 377.437 129.926 376.652 129.062C374.696 126.723 373.625 123.772 373.623 120.723C373.496 119.958 373.532 119.173 373.73 118.423C373.927 117.672 374.281 116.971 374.769 116.367C375.256 115.762 375.866 115.268 376.558 114.916C377.25 114.565 378.009 114.363 378.784 114.326C380.862 114.177 382.919 114.813 384.55 116.109C386.181 117.404 387.266 119.264 387.592 121.321C387.61 121.461 387.601 121.603 387.564 121.739C387.527 121.876 387.464 122.003 387.378 122.115C387.292 122.227 387.184 122.321 387.062 122.391C386.939 122.462 386.804 122.507 386.664 122.526C386.524 122.544 386.382 122.534 386.246 122.497C386.109 122.461 385.982 122.397 385.87 122.311C385.758 122.225 385.664 122.118 385.594 121.995C385.523 121.873 385.478 121.738 385.459 121.598C385.195 120.088 384.383 118.729 383.179 117.781C381.975 116.833 380.463 116.362 378.934 116.458C377.697 116.458 375.628 117.226 375.735 120.553C375.718 123.126 376.618 125.62 378.273 127.59C379.046 128.483 380.066 129.127 381.204 129.442C382.342 129.757 383.548 129.729 384.67 129.361C384.931 129.26 385.221 129.264 385.479 129.371C385.737 129.478 385.944 129.681 386.057 129.936C386.158 130.2 386.155 130.493 386.048 130.754C385.941 131.016 385.738 131.227 385.481 131.344C384.641 131.685 383.743 131.859 382.836 131.856Z" fill="#00194C"/>
<path d="M411.115 121.576C411.968 114.709 423.249 112.641 422.972 120.702C422.972 123.5 421.991 126.209 420.2 128.358C419.299 129.421 418.101 130.191 416.761 130.571C415.42 130.951 413.996 130.923 412.672 130.491" fill="white"/>
<path d="M414.826 131.856C413.951 131.861 413.083 131.702 412.267 131.387C412.006 131.274 411.799 131.063 411.692 130.8C411.584 130.537 411.584 130.242 411.691 129.979C411.799 129.72 412.006 129.514 412.265 129.406C412.525 129.298 412.817 129.297 413.077 129.403C414.199 129.769 415.405 129.796 416.542 129.481C417.68 129.166 418.7 128.524 419.475 127.633C421.083 125.666 421.957 123.201 421.949 120.66C422.055 117.333 419.987 116.672 418.75 116.565C417.221 116.473 415.712 116.946 414.509 117.893C413.306 118.841 412.493 120.197 412.224 121.704C412.187 121.984 412.04 122.238 411.816 122.41C411.592 122.582 411.31 122.658 411.03 122.622C410.89 122.606 410.755 122.562 410.632 122.493C410.51 122.424 410.403 122.331 410.317 122.219C410.232 122.108 410.169 121.98 410.134 121.844C410.099 121.708 410.092 121.566 410.113 121.427C410.438 119.37 411.524 117.51 413.155 116.215C414.786 114.92 416.843 114.284 418.92 114.432C419.696 114.47 420.455 114.671 421.147 115.023C421.839 115.375 422.449 115.869 422.936 116.473C423.423 117.078 423.778 117.778 423.975 118.529C424.172 119.28 424.209 120.064 424.081 120.83C424.081 123.883 423.001 126.837 421.032 129.169C420.235 130.016 419.274 130.691 418.206 131.153C417.139 131.616 415.989 131.855 414.826 131.856Z" fill="#00194C"/>
<path d="M385.715 155.698C390.195 157.63 395.019 158.639 399.897 158.662C408.812 158.982 410.326 156.53 410.326 156.53L410.113 151.753L409.622 140.621L409.153 130.235L388.744 129.531L387.763 138.061L387.464 140.791L385.715 155.698Z" fill="white"/>
<path d="M401.39 159.75H399.897C394.875 159.725 389.911 158.672 385.31 156.658C385.115 156.562 384.955 156.408 384.852 156.217C384.749 156.026 384.708 155.807 384.734 155.592L387.72 129.446C387.747 129.18 387.875 128.935 388.077 128.76C388.279 128.586 388.541 128.495 388.808 128.507L409.217 129.211C409.485 129.226 409.74 129.338 409.932 129.526C410.124 129.715 410.241 129.966 410.262 130.235L411.435 156.53C411.444 156.742 411.384 156.952 411.264 157.127C410.901 157.575 409.131 159.75 401.39 159.75ZM386.846 155.037C391.013 156.646 395.431 157.512 399.897 157.596C406.295 157.81 408.556 156.594 409.195 156.125L408.086 131.28L389.639 130.64L386.846 155.037Z" fill="#00194C"/>
<path d="M387.421 140.727C389.015 143.265 391.213 145.368 393.819 146.848C398.084 149.428 404.589 152.393 409.963 151.774L409.473 140.642C405.573 141.007 401.644 140.921 397.765 140.386C394.304 140.127 390.903 139.343 387.677 138.062L387.421 140.727Z" fill="#00194C"/>
<path d="M408.556 152.926C402.862 152.926 396.72 149.769 393.371 147.765C390.579 146.247 388.216 144.045 386.504 141.367C386.381 141.178 386.328 140.951 386.355 140.727L386.654 137.976C386.675 137.809 386.735 137.65 386.827 137.509C386.919 137.369 387.042 137.252 387.187 137.166C387.338 137.087 387.507 137.046 387.677 137.046C387.848 137.046 388.016 137.087 388.168 137.166C391.296 138.37 394.59 139.089 397.935 139.298C401.747 139.87 405.614 139.977 409.451 139.618C409.597 139.604 409.743 139.62 409.883 139.664C410.022 139.708 410.151 139.779 410.262 139.874C410.375 139.968 410.468 140.085 410.534 140.218C410.6 140.35 410.638 140.494 410.646 140.642L411.136 151.753C411.149 152.022 411.059 152.286 410.885 152.492C410.711 152.697 410.465 152.83 410.198 152.862C409.652 152.915 409.104 152.936 408.556 152.926ZM388.509 140.493C390.041 142.753 392.087 144.617 394.48 145.931C397.082 147.487 403.459 150.964 408.961 150.772L408.556 141.815C404.917 142.04 401.266 141.89 397.658 141.367C394.583 141.106 391.549 140.49 388.616 139.533L388.509 140.493Z" fill="#00194C"/>
<path d="M416.723 103.066L415.849 127.825C415.828 128.883 415.685 129.935 415.423 130.96C414.576 134.46 412.548 137.562 409.681 139.741C406.814 141.92 403.283 143.045 399.684 142.924H397.85C394.473 142.805 391.225 141.596 388.592 139.478C385.959 137.36 384.082 134.446 383.241 131.173C382.873 129.725 382.708 128.232 382.751 126.738L383.625 101.999C383.625 101.999 387.485 107.096 398.554 106.99C404.824 107.022 411.025 105.682 416.723 103.066Z" fill="white"/>
<path d="M400.217 143.99H399.642H397.807C394.202 143.85 390.737 142.553 387.925 140.291C385.114 138.029 383.105 134.921 382.197 131.429C381.811 129.882 381.638 128.289 381.685 126.695L382.559 101.935C382.562 101.716 382.634 101.504 382.764 101.328C382.894 101.152 383.076 101.021 383.284 100.954C383.496 100.889 383.722 100.89 383.932 100.959C384.142 101.028 384.326 101.16 384.457 101.338C384.457 101.338 388.296 106.072 398.554 105.902C404.639 105.954 410.663 104.688 416.212 102.191C416.374 102.097 416.558 102.048 416.745 102.048C416.932 102.048 417.116 102.097 417.278 102.191C417.435 102.291 417.562 102.43 417.648 102.595C417.734 102.76 417.776 102.944 417.769 103.129L416.958 127.868C416.935 128.997 416.785 130.12 416.51 131.216C415.614 134.86 413.522 138.099 410.568 140.415C407.615 142.73 403.97 143.989 400.217 143.99ZM384.607 104.238L383.818 126.716C383.685 130.582 385.094 134.342 387.733 137.169C390.373 139.997 394.027 141.66 397.893 141.794H399.727C403.076 141.892 406.358 140.842 409.027 138.816C411.696 136.791 413.592 133.913 414.399 130.661C414.632 129.697 414.76 128.71 414.783 127.718L415.593 104.686C410.16 106.824 404.372 107.917 398.533 107.906C393.617 108.213 388.733 106.927 384.607 104.238Z" fill="#00194C"/>
<path d="M400.068 114.795C400.068 114.795 405.208 126.14 402.926 126.354C401.004 126.269 399.125 125.759 397.423 124.861" fill="white"/>
<path d="M402.542 127.398C400.579 127.241 398.67 126.682 396.933 125.756C396.799 125.696 396.68 125.61 396.581 125.502C396.483 125.394 396.408 125.266 396.36 125.128C396.313 124.99 396.295 124.843 396.307 124.697C396.318 124.552 396.36 124.41 396.429 124.281C396.498 124.152 396.592 124.039 396.707 123.948C396.822 123.857 396.954 123.791 397.095 123.753C397.236 123.715 397.384 123.707 397.528 123.729C397.673 123.751 397.811 123.802 397.935 123.879C399.345 124.613 400.877 125.083 402.456 125.266C401.844 121.763 400.716 118.371 399.108 115.2C399.047 115.074 399.012 114.937 399.005 114.798C398.998 114.659 399.019 114.519 399.067 114.388C399.115 114.257 399.188 114.136 399.283 114.034C399.378 113.932 399.493 113.85 399.62 113.792C399.88 113.676 400.176 113.667 400.443 113.766C400.711 113.866 400.928 114.067 401.049 114.325C402.734 118.057 405.314 124.626 404.29 126.567C404.16 126.792 403.978 126.983 403.759 127.123C403.54 127.264 403.291 127.351 403.032 127.377L402.542 127.398Z" fill="#00194C"/>
<path d="M392.817 115.477C393.406 115.477 393.883 114.389 393.883 113.046C393.883 111.703 393.406 110.615 392.817 110.615C392.228 110.615 391.751 111.703 391.751 113.046C391.751 114.389 392.228 115.477 392.817 115.477Z" fill="#00194C"/>
<path d="M408.172 115.477C408.761 115.477 409.238 114.389 409.238 113.046C409.238 111.703 408.761 110.615 408.172 110.615C407.583 110.615 407.106 111.703 407.106 113.046C407.106 114.389 407.583 115.477 408.172 115.477Z" fill="#00194C"/>
<path d="M309.986 42.4355C307.996 42.8136 306.134 43.6863 304.57 44.9734C302.97 46.1463 301.285 47.6818 301.328 49.6438C301.321 49.8563 301.397 50.063 301.541 50.2196C301.726 50.3324 301.947 50.3705 302.16 50.3262C305.071 50.1297 307.883 49.1899 310.328 47.5965C309.079 48.78 308.217 50.3136 307.855 51.9959C307.494 53.6781 307.649 55.4304 308.302 57.0226L308.707 57.1506" fill="white"/>
<path d="M308.6 58.2377H308.28L307.875 58.1097C307.727 58.0664 307.591 57.9902 307.476 57.8868C307.362 57.7834 307.272 57.6555 307.214 57.5126C306.297 55.2342 306.297 52.6894 307.214 50.411C305.649 50.9826 304.013 51.3343 302.352 51.456C301.853 51.5243 301.348 51.3941 300.944 51.0934C300.759 50.9225 300.612 50.7145 300.513 50.483C300.414 50.2515 300.364 50.0017 300.368 49.7499C300.469 48.5951 300.844 47.4812 301.464 46.5016C302.084 45.522 302.929 44.7052 303.93 44.1198C305.626 42.7093 307.663 41.7681 309.837 41.39C309.976 41.3723 310.117 41.3826 310.252 41.4205C310.387 41.4584 310.513 41.523 310.622 41.6106C310.732 41.6981 310.823 41.8068 310.889 41.9301C310.956 42.0534 310.997 42.1889 311.01 42.3284C311.04 42.6081 310.958 42.8884 310.782 43.1081C310.607 43.3278 310.351 43.4692 310.072 43.5013C308.273 43.8623 306.594 44.6689 305.188 45.8472C303.418 47.1268 302.544 48.1717 302.394 49.238C304.974 48.9878 307.454 48.1171 309.624 46.7002C309.85 46.5546 310.123 46.5001 310.388 46.5475C310.653 46.595 310.891 46.741 311.053 46.9561C311.213 47.1676 311.289 47.4311 311.265 47.6953C311.241 47.9595 311.12 48.2054 310.925 48.385C309.892 49.3616 309.16 50.6137 308.816 51.9932C308.472 53.3726 308.53 54.8217 308.984 56.169C309.233 56.2735 309.434 56.4666 309.548 56.711C309.662 56.9553 309.682 57.2334 309.602 57.4912C309.532 57.7036 309.399 57.8892 309.219 58.0228C309.04 58.1563 308.824 58.2314 308.6 58.2377Z" fill="#00194C"/>
<path d="M402.03 131.514L396.208 129.552C396.208 129.552 393.734 135.054 396.933 136.974C400.132 138.893 402.03 131.514 402.03 131.514Z" fill="#00194C"/>
<path d="M478.676 47.3615C478.929 47.0231 479.248 46.7405 479.615 46.5314C479.982 46.3222 480.388 46.191 480.808 46.1459C482.426 45.75 484.098 45.6274 485.756 45.7834C487.421 45.9632 488.991 46.6478 490.256 47.7454C490.533 47.9617 490.735 48.2604 490.832 48.5984C490.857 48.8878 490.784 49.1774 490.626 49.4209C490.468 49.6644 490.232 49.8478 489.957 49.942C489.405 50.1066 488.824 50.1574 488.251 50.0913L483.986 49.7927C485.234 50.6868 486.286 51.8261 487.078 53.1409C487.462 53.7933 487.65 54.5423 487.62 55.2986C487.589 56.0548 487.342 56.7864 486.908 57.4061" fill="white"/>
<path d="M486.951 58.515C486.704 58.5119 486.465 58.4297 486.268 58.2804C486.053 58.0946 485.92 57.8323 485.896 57.5494C485.872 57.2664 485.96 56.9854 486.14 56.7662C486.433 56.2959 486.588 55.7529 486.588 55.1988C486.588 54.6446 486.433 54.1016 486.14 53.6313C485.402 52.4459 484.438 51.417 483.304 50.603C483.134 50.4585 483.014 50.2645 482.96 50.0482C482.907 49.8319 482.922 49.6042 483.004 49.3971C483.087 49.19 483.232 49.0139 483.419 48.8936C483.607 48.7733 483.828 48.7148 484.05 48.7263L488.315 49.0248C488.724 49.1037 489.144 49.1037 489.552 49.0248C489.642 48.9847 489.716 48.9176 489.766 48.8329C489.695 48.7476 489.616 48.6691 489.531 48.5983C488.433 47.6514 487.071 47.0635 485.628 46.9136C484.092 46.7643 482.541 46.8797 481.043 47.2548C480.51 47.3614 479.806 47.5747 479.593 47.9585C479.524 48.0818 479.432 48.1903 479.322 48.2779C479.211 48.3654 479.084 48.4304 478.949 48.469C478.813 48.5076 478.671 48.5192 478.531 48.5029C478.391 48.4867 478.255 48.443 478.132 48.3744C478.009 48.3058 477.9 48.2136 477.813 48.103C477.725 47.9925 477.66 47.8658 477.622 47.7301C477.583 47.5945 477.572 47.4525 477.588 47.3124C477.604 47.1723 477.648 47.0368 477.716 46.9136C478.04 46.4352 478.463 46.0316 478.956 45.73C479.449 45.4284 480.001 45.2357 480.574 45.1648C482.31 44.7396 484.107 44.617 485.884 44.8023C487.755 44.9765 489.526 45.7209 490.96 46.9349C491.421 47.3007 491.744 47.8119 491.877 48.3851C491.949 48.9142 491.838 49.452 491.562 49.9096C491.287 50.3671 490.864 50.7171 490.363 50.9015C489.68 51.145 488.948 51.2182 488.23 51.1148H487.015C487.432 51.6055 487.803 52.1338 488.123 52.6929C488.606 53.5434 488.832 54.5151 488.775 55.4912C488.719 56.4673 488.381 57.4062 487.804 58.1951C487.696 58.3106 487.563 58.3997 487.415 58.4552C487.267 58.5106 487.108 58.5311 486.951 58.515Z" fill="#00194C"/>
<path d="M399.897 291.119C399.615 291.119 399.343 291.007 399.143 290.807C398.943 290.607 398.831 290.336 398.831 290.053V239.148C398.831 238.865 398.943 238.594 399.143 238.394C399.343 238.194 399.615 238.081 399.897 238.081C400.178 238.087 400.446 238.201 400.645 238.4C400.844 238.598 400.958 238.867 400.964 239.148V290.053C400.958 290.334 400.844 290.602 400.645 290.801C400.446 291 400.178 291.114 399.897 291.119Z" fill="#00194C"/>
</svg>
