<svg width="112" height="33" viewBox="0 0 112 33" fill="none" xmlns="http://www.w3.org/2000/svg">
<path d="M0.666667 26.9731C0.666667 29.9186 3.05448 32.3064 6 32.3064C8.94552 32.3064 11.3333 29.9186 11.3333 26.9731C11.3333 24.0276 8.94552 21.6398 6 21.6398C3.05448 21.6398 0.666667 24.0276 0.666667 26.9731ZM26.6269 14.9611L26.2766 14.0245L26.6269 14.9611ZM39.2395 13.5159L39.1951 14.5149L39.2395 13.5159ZM67.6929 18.3019L67.7267 17.3025L67.6929 18.3019ZM98.8679 10.4191L99.3089 11.3166L98.8679 10.4191ZM100.667 5.68933C100.667 8.63485 103.054 11.0227 106 11.0227C108.946 11.0227 111.333 8.63485 111.333 5.68933C111.333 2.74381 108.946 0.355998 106 0.355998C103.054 0.355998 100.667 2.74381 100.667 5.68933ZM9.04578 26.1426C9.50407 25.8344 9.62573 25.213 9.31752 24.7547C9.00931 24.2964 8.38794 24.1748 7.92966 24.483L9.04578 26.1426ZM12.9166 21.1544C12.4541 21.4562 12.3238 22.0759 12.6256 22.5384C12.9274 23.0009 13.547 23.1312 14.0095 22.8294L12.9166 21.1544ZM19.0491 19.7128C19.5277 19.4372 19.6923 18.8258 19.4167 18.3472C19.1411 17.8686 18.5296 17.704 18.051 17.9796L19.0491 19.7128ZM23.4518 15.1909C22.9484 15.4179 22.7242 16.0101 22.9513 16.5136C23.1783 17.0171 23.7705 17.2412 24.2739 17.0141L23.4518 15.1909ZM29.9023 15.0524C30.4425 14.9375 30.7873 14.4064 30.6724 13.8662C30.5575 13.326 30.0264 12.9813 29.4862 13.0962L29.9023 15.0524ZM36.0363 12.4502C35.484 12.4548 35.0401 12.9063 35.0447 13.4585C35.0493 14.0108 35.5007 14.4548 36.053 14.4502L36.0363 12.4502ZM42.7104 14.8241C43.2583 14.8941 43.7591 14.5067 43.8291 13.9589C43.8992 13.4111 43.5118 12.9102 42.964 12.8402L42.7104 14.8241ZM50.1591 14.1633C49.6202 14.0425 49.0854 14.3815 48.9647 14.9204C48.8439 15.4593 49.1829 15.9941 49.7218 16.1149L50.1591 14.1633ZM56.7655 17.7393C57.3049 17.8582 57.8384 17.5173 57.9573 16.978C58.0762 16.4386 57.7353 15.9051 57.1959 15.7862L56.7655 17.7393ZM64.2097 17.0291C63.6613 16.9642 63.1641 17.3562 63.0991 17.9047C63.0342 18.4531 63.4262 18.9504 63.9747 19.0153L64.2097 17.0291ZM70.4274 19.3042C70.9794 19.2874 71.4133 18.8263 71.3965 18.2743C71.3797 17.7222 70.9185 17.2883 70.3665 17.3051L70.4274 19.3042ZM75.6463 16.8471C75.0993 16.9234 74.7177 17.4286 74.7939 17.9756C74.8702 18.5226 75.3755 18.9042 75.9225 18.828L75.6463 16.8471ZM81.3259 17.8234C81.8641 17.6994 82.1999 17.1627 82.076 16.6245C81.952 16.0863 81.4152 15.7505 80.877 15.8744L81.3259 17.8234ZM86.0266 14.4805C85.4991 14.6439 85.204 15.2041 85.3674 15.7316C85.5309 16.2592 86.091 16.5543 86.6186 16.3909L86.0266 14.4805ZM91.791 14.5978C92.3068 14.4002 92.5647 13.822 92.3671 13.3062C92.1696 12.7905 91.5913 12.5326 91.0756 12.7301L91.791 14.5978ZM96.0094 10.6647C95.5066 10.8932 95.2844 11.4861 95.5129 11.9888C95.7415 12.4916 96.3344 12.7139 96.8371 12.4853L96.0094 10.6647ZM101.257 10.311C101.742 10.0462 101.92 9.43859 101.655 8.95393C101.39 8.46928 100.783 8.29108 100.298 8.5559L101.257 10.311ZM103.772 6.31943C103.337 6.65906 103.259 7.28744 103.599 7.72295C103.938 8.15846 104.567 8.23619 105.002 7.89656L103.772 6.31943ZM6.55068 27.8078C7.38353 27.2584 8.21505 26.7013 9.04578 26.1426L7.92966 24.483C7.10039 25.0407 6.27468 25.5939 5.44932 26.1384L6.55068 27.8078ZM14.0095 22.8294C15.6713 21.7451 17.3454 20.6939 19.0491 19.7128L18.051 17.9796C16.3042 18.9856 14.5966 20.0583 12.9166 21.1544L14.0095 22.8294ZM24.2739 17.0141C25.164 16.6128 26.0644 16.2391 26.9772 15.8977L26.2766 14.0245C25.3195 14.3824 24.3785 14.7731 23.4518 15.1909L24.2739 17.0141ZM26.9772 15.8977C27.9317 15.5407 28.9082 15.2639 29.9023 15.0524L29.4862 13.0962C28.4052 13.3261 27.3327 13.6295 26.2766 14.0245L26.9772 15.8977ZM36.053 14.4502C37.0972 14.4414 38.1459 14.4683 39.1951 14.5149L39.2839 12.5169C38.2105 12.4692 37.1251 12.4411 36.0363 12.4502L36.053 14.4502ZM39.1951 14.5149C40.3709 14.5672 41.5416 14.6747 42.7104 14.8241L42.964 12.8402C41.7484 12.6848 40.5223 12.5719 39.2839 12.5169L39.1951 14.5149ZM49.7218 16.1149C52.0013 16.6257 54.4481 17.2286 56.7655 17.7393L57.1959 15.7862C54.8068 15.2597 52.5726 14.7041 50.1591 14.1633L49.7218 16.1149ZM63.9747 19.0153C65.1904 19.1591 66.4181 19.2595 67.6592 19.3014L67.7267 17.3025C66.5486 17.2627 65.3773 17.1673 64.2097 17.0291L63.9747 19.0153ZM67.6592 19.3014C68.5751 19.3323 69.4986 19.3325 70.4274 19.3042L70.3665 17.3051C69.4783 17.3322 68.5977 17.3319 67.7267 17.3025L67.6592 19.3014ZM75.9225 18.828C77.7239 18.5768 79.5303 18.237 81.3259 17.8234L80.877 15.8744C79.1334 16.276 77.3848 16.6048 75.6463 16.8471L75.9225 18.828ZM86.6186 16.3909C88.3723 15.8475 90.1016 15.245 91.791 14.5978L91.0756 12.7301C89.4244 13.3626 87.7364 13.9507 86.0266 14.4805L86.6186 16.3909ZM96.8371 12.4853C97.6769 12.1035 98.5016 11.7133 99.3089 11.3166L98.4268 9.52157C97.6374 9.90951 96.8308 10.2912 96.0094 10.6647L96.8371 12.4853ZM99.3089 11.3166C99.9566 10.9983 100.61 10.6649 101.257 10.311L100.298 8.5559C99.6824 8.89232 99.0563 9.21223 98.4268 9.52157L99.3089 11.3166ZM105.002 7.89656C105.597 7.43307 106.168 6.93511 106.707 6.39644L105.293 4.98222C104.819 5.45631 104.31 5.90037 103.772 6.31943L105.002 7.89656Z" fill="#0055FF"/>
</svg>
