<svg width="70" height="71" viewBox="0 0 70 71" fill="none" xmlns="http://www.w3.org/2000/svg">
<g clip-path="url(#clip0_49_9552)">
<path d="M35 0.712402C15.6712 0.712402 0 16.3837 0 35.7124C0 55.0412 15.6712 70.7124 35 70.7124C54.3288 70.7124 70 55.0412 70 35.7124C70 16.3837 54.3288 0.712402 35 0.712402ZM35 66.3374C18.1125 66.3374 4.375 52.5999 4.375 35.7124C4.375 18.8249 18.1125 5.0874 35 5.0874C51.8875 5.0874 65.625 18.8249 65.625 35.7124C65.625 52.5999 51.8875 66.3374 35 66.3374ZM28.0306 24.2849C27.714 24.0131 27.3727 23.7715 27.0112 23.563C26.9981 23.5543 26.9894 23.5412 26.9762 23.5368C26.9544 23.5237 26.9325 23.5193 26.9106 23.5105C26.4775 23.2699 26.1669 23.1562 26.1669 23.1562L26.1888 23.2087C25.4791 22.8972 24.7149 22.7292 23.94 22.7143C20.3787 22.7143 17.4956 25.7112 17.4956 29.408C17.4956 33.1049 20.3831 36.1018 23.94 36.1018C25.0819 36.1018 26.1362 35.7693 27.0681 35.2268C26.7487 38.8055 24.9462 44.0249 18.34 49.3449C17.4169 50.093 17.2463 51.4755 17.9637 52.4337C18.3837 52.9936 19.0094 53.2868 19.6394 53.2868C20.1131 53.287 20.5722 53.1231 20.9387 52.823C29.0456 46.2824 31.0713 39.5624 31.3425 35.0737C31.8062 29.3337 30.065 26.3149 28.4725 24.7399C28.3281 24.5868 28.1925 24.4205 28.0306 24.2849ZM49.2406 24.2849C48.924 24.0131 48.5827 23.7715 48.2213 23.563L48.1862 23.5368C48.1644 23.5237 48.1425 23.5193 48.1206 23.5105C47.6875 23.2743 47.3769 23.1562 47.3769 23.1562L47.3988 23.2087C46.6889 22.8977 45.9248 22.7297 45.15 22.7143C41.5887 22.7143 38.7056 25.7112 38.7056 29.408C38.7056 33.1049 41.5887 36.1018 45.15 36.1018C46.2919 36.1018 47.3462 35.7693 48.2781 35.2268C47.9587 38.8055 46.1562 44.0249 39.55 49.3449C38.6225 50.093 38.4563 51.4755 39.1738 52.4337C39.5938 52.9936 40.2194 53.2868 40.8494 53.2868C41.3231 53.287 41.7822 53.1231 42.1488 52.823C50.2556 46.2824 52.2812 39.5624 52.5525 35.0737C53.0163 29.3337 51.2706 26.3149 49.6825 24.7399C49.5381 24.5868 49.4025 24.4205 49.2406 24.2849Z" fill="#00194C"/>
</g>
<defs>
<clipPath id="clip0_49_9552">
<rect width="70" height="70" fill="white" transform="translate(0 0.712402)"/>
</clipPath>
</defs>
</svg>
