<svg width="141" height="141" viewBox="0 0 141 141" fill="none" xmlns="http://www.w3.org/2000/svg">
<rect x="6.16667" y="6.18933" width="129" height="129" rx="64.5" stroke="#0055FF" stroke-dasharray="4 4"/>
<g filter="url(#filter0_d_49_8882)">
<rect x="20.6667" y="20.6893" width="100" height="100" rx="50" fill="white" shape-rendering="crispEdges"/>
<path d="M85.4781 98.0265H41.4096C40.861 98.0265 40.4953 97.6607 40.4953 97.1122V44.2665C40.4953 43.7179 40.861 43.3522 41.4096 43.3522H85.4781C86.0267 43.3522 86.3924 43.7179 86.3924 44.2665V69.2265C86.3924 69.775 86.0267 70.1407 85.4781 70.1407C84.9296 70.1407 84.5638 69.775 84.5638 69.2265V45.1807H42.3238V96.1979H84.5638V88.6093C84.5638 88.0607 84.9296 87.695 85.4781 87.695C86.0267 87.695 86.3924 88.0607 86.3924 88.6093V97.1122C86.3924 97.5693 85.9353 98.0265 85.4781 98.0265Z" fill="#00194C"/>
<path d="M52.6553 56.1522C50.3695 56.1522 48.541 54.3236 48.541 52.0379C48.541 49.7522 50.3695 47.9236 52.6553 47.9236C54.941 47.9236 56.7695 49.7522 56.7695 52.0379C56.7695 54.3236 54.941 56.1522 52.6553 56.1522ZM52.6553 49.6607C51.3753 49.6607 50.3695 50.6664 50.3695 51.9464C50.3695 53.2264 51.3753 54.2322 52.6553 54.2322C53.9353 54.2322 54.941 53.2264 54.941 51.9464C54.941 50.7579 53.9353 49.6607 52.6553 49.6607ZM60.2438 65.7522H45.0667C44.5181 65.7522 44.1524 65.3864 44.1524 64.8379C44.1524 61.1807 46.4381 57.9807 49.9124 56.7922C50.2781 56.7007 50.7353 56.7922 50.9181 57.1579C51.2838 57.7064 51.9238 57.9807 52.5638 57.9807C53.2038 57.9807 53.8438 57.7064 54.301 57.1579C54.5753 56.7922 54.941 56.7007 55.3067 56.7922C58.781 57.9807 61.0667 61.1807 61.0667 64.8379C61.1581 65.295 60.7924 65.7522 60.2438 65.7522ZM46.0724 63.9236H59.3295C59.0553 61.6379 57.501 59.6264 55.3981 58.7122C54.6667 59.4436 53.7524 59.8093 52.6553 59.8093C51.6495 59.8093 50.6438 59.4436 50.0038 58.7122C47.8095 59.6264 46.3467 61.6379 46.0724 63.9236Z" fill="#00194C"/>
<path d="M79.901 51.0322H65.821C65.2724 51.0322 64.9067 50.6665 64.9067 50.1179C64.9067 49.5693 65.2724 49.2036 65.821 49.2036H79.901C80.4495 49.2036 80.8153 49.5693 80.8153 50.1179C80.8153 50.6665 80.3581 51.0322 79.901 51.0322ZM79.901 58.0722H65.821C65.2724 58.0722 64.9067 57.7065 64.9067 57.1579C64.9067 56.6093 65.2724 56.2436 65.821 56.2436H79.901C80.4495 56.2436 80.8153 56.6093 80.8153 57.1579C80.8153 57.7065 80.3581 58.0722 79.901 58.0722ZM79.901 65.1122H65.821C65.2724 65.1122 64.9067 64.7465 64.9067 64.1979C64.9067 63.6493 65.2724 63.2836 65.821 63.2836H79.901C80.4495 63.2836 80.8153 63.6493 80.8153 64.1979C80.8153 64.7465 80.3581 65.1122 79.901 65.1122ZM70.6667 72.1522H45.0667C44.5181 72.1522 44.1524 71.7865 44.1524 71.2379C44.1524 70.6893 44.5181 70.3236 45.0667 70.3236H70.6667C71.2153 70.3236 71.581 70.6893 71.581 71.2379C71.581 71.7865 71.1238 72.1522 70.6667 72.1522ZM68.5638 79.2836H45.0667C44.5181 79.2836 44.1524 78.9179 44.1524 78.3693C44.1524 77.8208 44.5181 77.455 45.0667 77.455H68.5638C69.1124 77.455 69.4781 77.8208 69.4781 78.3693C69.4781 78.9179 69.1124 79.2836 68.5638 79.2836ZM70.6667 86.3236H45.0667C44.5181 86.3236 44.1524 85.9579 44.1524 85.4093C44.1524 84.8608 44.5181 84.495 45.0667 84.495H70.6667C71.2153 84.495 71.581 84.8608 71.581 85.4093C71.581 85.9579 71.1238 86.3236 70.6667 86.3236ZM79.901 93.3636H45.0667C44.5181 93.3636 44.1524 92.9979 44.1524 92.4493C44.1524 91.9008 44.5181 91.535 45.0667 91.535H79.901C80.4495 91.535 80.8153 91.9008 80.8153 92.4493C80.8153 92.9979 80.3581 93.3636 79.901 93.3636Z" fill="#00194C"/>
<path d="M83.0095 89.7978C80.1753 89.7978 77.4324 88.7007 75.3295 86.5978C73.2267 84.495 72.1295 81.8436 72.1295 78.9178C72.1295 75.9921 73.2267 73.2493 75.3295 71.2378C77.341 69.2264 80.0838 68.0378 83.0095 68.0378C85.9353 68.0378 88.6781 69.135 90.6896 71.2378C94.3467 74.895 94.8953 80.655 92.061 84.9521C91.6953 85.5921 91.1467 86.1407 90.6896 86.6893C90.141 87.1464 89.5924 87.6036 88.9524 88.0607C87.1238 89.2493 85.1124 89.7978 83.0095 89.7978ZM83.0095 69.8664C80.6324 69.8664 78.3467 70.7807 76.6095 72.5178C74.8724 74.255 73.9581 76.5407 73.9581 78.9178C73.9581 81.295 74.8724 83.5807 76.6095 85.3178C79.6267 88.335 84.381 88.7921 87.9467 86.5064C88.4038 86.1407 88.9524 85.775 89.4095 85.3178C89.8667 84.8607 90.2324 84.4036 90.5981 83.855C92.9753 80.2893 92.4267 75.535 89.4095 72.5178C87.6724 70.7807 85.3867 69.8664 83.0095 69.8664Z" fill="#00194C"/>
<path d="M97.2724 96.7464H97.181C96.1753 96.7464 95.261 96.2893 94.621 95.5578L87.7638 87.8778C87.581 87.695 87.4895 87.4207 87.581 87.1464C87.581 86.8721 87.7638 86.6893 87.9467 86.5064C88.4953 86.1407 88.9524 85.775 89.4095 85.3178C89.8667 84.8607 90.2324 84.4035 90.5981 83.855C90.781 83.6721 90.9638 83.4893 91.2381 83.4893C91.5124 83.4893 91.7867 83.5807 91.9695 83.6721L99.6495 90.5293C100.381 91.1693 100.838 92.0835 100.838 93.0893C100.838 94.095 100.472 95.0093 99.8324 95.6493C99.101 96.3807 98.2781 96.7464 97.2724 96.7464ZM89.8667 87.4207L96.0838 94.3693C96.3581 94.735 96.8153 94.9178 97.2724 94.9178C97.7295 94.9178 98.1867 94.735 98.5524 94.4607C98.9181 94.1864 99.101 93.6378 99.0095 93.1807C99.0095 92.7235 98.8267 92.2664 98.461 91.9921L91.5124 85.775C91.2381 86.0493 90.9638 86.3235 90.6895 86.5978C90.4153 86.8721 90.141 87.1464 89.8667 87.4207Z" fill="#00194C"/>
</g>
<defs>
<filter id="filter0_d_49_8882" x="0.666687" y="0.689331" width="140" height="140" filterUnits="userSpaceOnUse" color-interpolation-filters="sRGB">
<feFlood flood-opacity="0" result="BackgroundImageFix"/>
<feColorMatrix in="SourceAlpha" type="matrix" values="0 0 0 0 0 0 0 0 0 0 0 0 0 0 0 0 0 0 127 0" result="hardAlpha"/>
<feOffset/>
<feGaussianBlur stdDeviation="10"/>
<feComposite in2="hardAlpha" operator="out"/>
<feColorMatrix type="matrix" values="0 0 0 0 0 0 0 0 0 0 0 0 0 0 0 0 0 0 0.14 0"/>
<feBlend mode="normal" in2="BackgroundImageFix" result="effect1_dropShadow_49_8882"/>
<feBlend mode="normal" in="SourceGraphic" in2="effect1_dropShadow_49_8882" result="shape"/>
</filter>
</defs>
</svg>
