<svg width="535" height="315" viewBox="0 0 535 315" fill="none" xmlns="http://www.w3.org/2000/svg">
<path d="M217.924 100.459C218.452 91.7365 220.47 83.1689 223.89 75.1275C224.391 73.9244 225.56 72.4874 226.713 73.1057C226.045 76.8152 225.371 80.5135 224.692 84.2007C231.548 79.6592 237.498 73.8793 242.236 67.1572C242.638 66.4636 243.214 65.8874 243.907 65.4862C244.256 65.2902 244.668 65.2381 245.055 65.3411C245.442 65.4441 245.774 65.694 245.979 66.0377C246.062 66.3599 246.072 66.6966 246.009 67.0232C245.945 67.3498 245.809 67.6582 245.612 67.9258C243.589 71.5518 241.24 74.9859 238.594 78.1853C241.936 73.1725 245.595 67.9592 250.909 65.0351C250.355 70.8416 248.171 76.3733 244.609 80.9925L253.114 71.535C253.883 70.6661 255.169 69.7471 256.072 70.4656C256.974 71.1841 256.372 72.6044 255.754 73.5401L249.839 82.3627C252.847 79.7226 255.971 77.2273 259.213 74.8769C258.645 80.2573 254.534 84.5683 250.157 87.7263C245.779 90.8844 240.85 93.4242 237.257 97.4512C235.102 100.091 233.263 102.974 231.776 106.04" fill="white"/>
<path d="M231.76 106.808C231.638 106.831 231.513 106.831 231.392 106.808C231.216 106.71 231.086 106.546 231.029 106.352C230.973 106.158 230.995 105.95 231.091 105.772C232.594 102.646 234.468 99.712 236.672 97.0334C239.376 94.2452 242.438 91.829 245.779 89.8484C247.099 88.9795 248.419 88.1774 249.689 87.1916C254.267 83.8497 257.091 80.3742 258.043 76.7316C255.387 78.7367 252.78 80.842 250.29 83.0143C250.159 83.1649 249.974 83.2575 249.775 83.2716C249.576 83.2857 249.38 83.2202 249.229 83.0895C249.078 82.9587 248.986 82.7735 248.972 82.5745C248.958 82.3755 249.023 82.1791 249.154 82.0284L255.069 73.2059C255.57 72.4373 255.938 71.535 255.537 71.1506C255.136 70.7663 254.284 71.4013 253.632 72.1198L245.127 81.594C244.982 81.729 244.791 81.8041 244.592 81.8041C244.394 81.8041 244.203 81.729 244.058 81.594C243.903 81.4694 243.804 81.2889 243.782 81.0917C243.76 80.8945 243.817 80.6967 243.941 80.5413C247.088 76.4508 249.141 71.6261 249.906 66.5222C247.741 68.0236 245.805 69.8302 244.158 71.8859C242.624 74.2452 240.95 76.5105 239.145 78.6698C239.018 78.8197 238.84 78.9166 238.645 78.9414C238.45 78.9661 238.253 78.9169 238.092 78.8035C237.938 78.6842 237.836 78.5108 237.805 78.3185C237.774 78.1262 237.817 77.9292 237.925 77.7675C239.477 75.4153 241.15 73.1454 242.938 70.9668C243.657 69.8473 244.325 68.7111 244.977 67.625C245.194 67.2072 245.444 66.706 245.311 66.4052C245.286 66.3538 245.251 66.308 245.208 66.2706C245.165 66.2333 245.115 66.2052 245.06 66.188C244.808 66.0884 244.527 66.0884 244.275 66.188C243.716 66.539 243.252 67.0207 242.921 67.5916C238.123 74.3971 232.1 80.2503 225.159 84.8523C225.032 84.9343 224.884 84.9779 224.733 84.9779C224.582 84.9779 224.434 84.9343 224.307 84.8523C224.183 84.7712 224.086 84.6544 224.029 84.5172C223.973 84.38 223.959 84.2288 223.99 84.0837C224.608 80.7418 225.243 77.2663 225.844 73.8576C225.283 74.2795 224.864 74.8623 224.641 75.5285C221.255 83.484 219.26 91.9618 218.743 100.592C218.73 100.796 218.636 100.987 218.482 101.121C218.329 101.256 218.128 101.324 217.924 101.311C217.72 101.298 217.53 101.204 217.395 101.05C217.261 100.897 217.192 100.696 217.206 100.492C217.733 91.6818 219.773 83.028 223.238 74.9102C223.637 73.8088 224.453 72.9086 225.51 72.4038C225.78 72.2959 226.07 72.2504 226.359 72.2707C226.649 72.2909 226.93 72.3764 227.181 72.5208C227.324 72.5942 227.439 72.7123 227.508 72.8571C227.578 73.002 227.598 73.1655 227.566 73.3229C227.014 76.4308 226.446 79.522 225.895 82.63C232.041 78.3073 237.399 72.9605 241.735 66.8229C242.211 66.0105 242.89 65.3365 243.707 64.8679C244.339 64.6098 245.047 64.6098 245.678 64.8679C245.925 64.9568 246.151 65.0943 246.343 65.2722C246.536 65.4502 246.69 65.665 246.798 65.9039C246.967 66.2933 247.008 66.7263 246.915 67.1404C248.068 66.1426 249.322 65.2689 250.658 64.5338C250.775 64.4595 250.911 64.4201 251.05 64.4201C251.189 64.4201 251.326 64.4595 251.443 64.5338C251.559 64.6084 251.653 64.713 251.715 64.8365C251.777 64.96 251.804 65.0978 251.794 65.2355C251.468 68.5805 250.611 71.8521 249.254 74.927L252.596 71.1506C254 69.58 255.537 69.1455 256.606 70.0144C257.676 70.8833 257.575 72.3871 256.439 74.1082L253.515 78.4526C255.186 77.049 257.024 75.6956 258.812 74.3923C258.935 74.3151 259.076 74.2742 259.221 74.2742C259.366 74.2742 259.508 74.3151 259.631 74.3923C259.76 74.4636 259.865 74.5713 259.933 74.7021C260.002 74.8328 260.03 74.9807 260.015 75.1275C259.514 79.8729 256.372 84.3844 250.641 88.4949C249.354 89.4306 248.018 90.2995 246.681 91.1851C243.451 93.096 240.49 95.4279 237.875 98.1195C235.763 100.686 233.958 103.49 232.495 106.474C232.415 106.593 232.304 106.687 232.175 106.746C232.045 106.805 231.901 106.826 231.76 106.808Z" fill="#00194C"/>
<path d="M7.58735 113.225C14.2711 105.789 24.8648 100.877 33.7374 98.8046C55.5431 93.6748 79.7215 91.7867 101.293 99.3059C134.962 111.002 127.911 152.876 130.936 181.716C132.49 196.521 132.723 212.712 138.204 226.631C144.27 242.02 141.028 255.638 127.31 266.733C117 275.088 103.265 278.196 90.0144 277.962C75.3269 277.695 51.8169 283.576 39.3685 274.787C21.6232 262.255 18.3482 234.534 13.5526 215.035C7.27516 189.458 3.10613 163.41 1.08743 137.152C0.459205 132.51 0.69144 127.792 1.77251 123.234C2.92333 119.498 4.91219 116.075 7.58735 113.225Z" fill="#00194C"/>
<path d="M60.0881 280.401C52.0676 280.401 44.4649 279.315 38.9341 275.389C23.7453 264.661 19.1168 243.541 15.0397 224.893C14.3045 221.551 13.586 218.209 12.8508 215.218C6.55677 189.599 2.37654 163.506 0.352254 137.203C-0.29027 132.471 -0.0523425 127.661 1.05404 123.016C2.25673 119.178 4.30031 115.656 7.03598 112.707C13.068 106.023 22.9934 100.542 33.5704 98.0693C59.9043 91.8869 82.7793 92.054 101.544 98.5873C128.914 108.128 129.833 137.303 130.652 163.035C130.869 169.619 131.069 175.851 131.671 181.633C131.988 184.724 132.256 187.899 132.54 191.09C133.542 203.054 134.595 215.436 138.889 226.347C145.222 242.421 141.479 256.206 127.761 267.301C118.37 274.921 104.969 278.998 89.9977 278.697C85.8873 278.614 81.075 279.031 75.9953 279.466C70.9157 279.9 65.3682 280.401 60.0881 280.401ZM69.4453 95.045C57.4655 95.1647 45.5396 96.6674 33.9046 99.5231C23.5949 101.929 13.9704 107.259 8.12209 113.709C5.52877 116.489 3.59798 119.819 2.47434 123.451C1.42638 127.923 1.19991 132.549 1.80596 137.102C3.84503 163.325 8.01383 189.338 14.2711 214.884C15.023 217.942 15.7415 221.184 16.4935 224.609C20.5037 242.989 25.0653 263.809 39.7862 274.202C48.5085 280.351 63.0456 279.115 75.8617 278.012C80.9914 277.578 85.8873 277.16 90.0145 277.243C104.685 277.527 117.719 273.567 126.775 266.182C139.925 255.521 143.484 242.304 137.452 226.898C133.091 215.787 132.022 203.305 131.002 191.224C130.735 188.049 130.468 184.891 130.134 181.8C129.515 175.968 129.331 169.719 129.114 163.102C128.312 137.838 127.443 109.198 100.992 100.008C90.8292 96.5971 80.1648 94.9195 69.4453 95.045Z" fill="#00194C"/>
<path d="M73.1714 75.612L77.9169 56.5968C83.0466 36.0276 90.1147 14.8235 112.622 8.40711C119.306 6.51895 125.99 7.27087 130.484 13.3029C135.029 9.4765 142.181 11.5317 146.86 15.1577C153.376 20.1705 157.67 27.5727 160.511 35.2088C165.524 48.7768 166.409 63.4476 172.208 76.9821C143.501 98.1696 102.496 101.161 71.0159 84.3677L73.1714 75.612Z" fill="white"/>
<path d="M115.379 96.1645C99.7784 96.228 84.4008 92.4582 70.5982 85.1865C70.4474 85.1087 70.3273 84.9821 70.2575 84.8274C70.1878 84.6727 70.1724 84.4989 70.2139 84.3343L72.4363 75.5118L77.1817 56.4966C82.1945 36.3284 89.4965 14.2554 112.405 7.77221C120.075 5.58329 126.508 7.20409 130.618 12.3171C135.531 8.87502 142.632 11.0305 147.327 14.6397C153.192 19.1345 157.871 26.0188 161.23 35.0919C163.41 41.4211 165.158 47.8915 166.46 54.458C167.91 62.0928 170.046 69.5812 172.843 76.8318C172.907 76.9913 172.918 77.1676 172.872 77.3337C172.827 77.4997 172.729 77.6463 172.592 77.7508C155.961 89.8102 135.922 96.2598 115.379 96.1645ZM71.8347 84.1171C87.4764 92.1153 105.013 95.6685 122.534 94.3898C140.056 93.1111 156.89 87.0496 171.205 76.8652C168.492 69.7022 166.406 62.3167 164.972 54.7922C163.68 48.2614 161.949 41.825 159.793 35.5264C156.551 26.7373 152.039 20.087 146.425 15.7593C141.997 12.4174 135.263 10.312 131.002 13.8878C130.923 13.9558 130.829 14.0059 130.728 14.0347C130.627 14.0635 130.521 14.0704 130.418 14.0549C130.315 14.0439 130.216 14.0115 130.127 13.9597C130.037 13.9079 129.96 13.8378 129.9 13.7541C125.171 7.30435 118.036 7.68866 112.856 9.14237C90.6828 15.3582 83.7485 36.1279 78.7357 56.7806L71.8347 84.1171Z" fill="#00194C"/>
<path d="M162.282 99.6567C168.08 105.071 181.03 125.473 192.827 146.861L217.273 95.563L237.123 101.478C237.123 101.478 219.161 196.203 201.449 200.063C183.737 203.923 159.592 161.632 159.592 161.632L132.506 87.2584C132.506 87.2584 153.627 91.5527 162.282 99.6567Z" fill="#0055FF"/>
<path d="M130.534 96.2481C130.534 96.2481 157.269 111.286 162.533 137.303C167.796 163.319 157.52 242.872 157.52 242.872L91.184 240.115C91.184 240.115 101.995 145.307 95.5118 124.671C89.0285 104.035 89.2291 98.3033 95.5118 96.2648C101.794 94.2262 118.838 83.3485 130.534 96.2481Z" fill="white"/>
<path d="M157.537 243.641L91.1674 240.934C90.9579 240.926 90.76 240.836 90.616 240.683C90.549 240.603 90.4995 240.509 90.4707 240.409C90.4419 240.308 90.4345 240.202 90.4489 240.099C90.5492 239.146 101.16 145.206 94.8101 124.971C88.26 104.168 88.3603 97.8521 95.2946 95.5964C96.2805 95.2789 97.5838 94.7108 99.0876 94.0591C106.707 90.7173 120.81 84.6351 130.986 95.7301C132.891 96.8329 158.222 112.055 163.251 137.219C168.415 163.018 158.389 242.237 158.239 243.039C158.205 243.204 158.118 243.352 157.991 243.461C157.864 243.57 157.704 243.633 157.537 243.641ZM92.1032 239.38L156.919 242.087C157.904 234.184 166.66 161.715 161.814 137.453C156.802 112.105 130.434 97.0668 130.184 96.9164C130.104 96.8862 130.034 96.8341 129.983 96.766C120.593 86.3728 107.543 92.0206 99.7393 95.3959C98.2021 96.0642 96.882 96.6324 95.8126 96.9833C90.616 98.6542 89.5299 102.865 96.3139 124.453C102.48 144.204 93.1558 229.471 92.1032 239.38Z" fill="#00194C"/>
<path d="M147.01 256.657C145.239 214.517 141.178 180.396 140.326 168.466C139.374 155.399 136.015 117.469 132.406 100.876C127.727 90.5501 129.749 87.509 129.749 87.509C129.749 87.509 156.15 83.7996 164.003 123.2C166.326 134.813 172.224 202.503 177.906 255.087L147.01 256.657Z" fill="#0055FF"/>
<path d="M132.473 80.5245L132.59 100.81C132.59 100.81 130.535 112.272 118.203 108.763C114.563 107.704 111.204 105.848 108.369 103.331C105.535 100.814 103.294 97.6984 101.811 94.2095L103.215 59.1199C104.837 52.981 105.525 46.6324 105.253 40.2885C120.292 40.0379 131.988 28.7256 131.988 28.7256C131.988 28.7256 137.135 36.4788 139.374 38.9183C141.169 40.757 142.729 42.8112 144.019 45.0339C146.091 48.9439 146.007 53.8063 145.907 58.134C145.861 63.2602 145.352 68.3718 144.387 73.4064C142.448 82.9474 132.473 80.5245 132.473 80.5245Z" fill="white"/>
<path d="M122.581 110.184C121.031 110.163 119.491 109.932 118.003 109.499C114.236 108.422 110.76 106.511 107.833 103.907C104.906 101.304 102.602 98.0752 101.093 94.4602C101.069 94.367 101.069 94.2694 101.093 94.1761C101.093 94.1761 102.48 59.2704 102.48 59.0866C102.545 58.5185 102.668 57.9586 102.847 57.4156C104.237 51.8472 104.8 46.1045 104.518 40.3721C104.514 40.2702 104.531 40.1685 104.569 40.0736C104.606 39.9786 104.663 39.8925 104.735 39.8207C104.803 39.7465 104.886 39.6873 104.978 39.647C105.07 39.6067 105.169 39.5862 105.27 39.5868C119.774 39.3529 131.42 28.3581 131.537 28.2412C131.62 28.1666 131.717 28.1105 131.823 28.0766C131.929 28.0426 132.041 28.0316 132.152 28.0443C132.263 28.0569 132.369 28.0929 132.465 28.1499C132.561 28.2069 132.643 28.2836 132.707 28.3748C132.707 28.4584 137.853 36.0946 140.025 38.4004C141.863 40.2889 143.457 42.3994 144.771 44.6831C146.96 48.7936 146.86 53.9735 146.759 58.1509C146.721 63.3225 146.207 68.4796 145.222 73.5569C145.013 74.8661 144.537 76.1185 143.824 77.2365C143.111 78.3546 142.177 79.3144 141.078 80.0568C138.714 81.4039 135.965 81.916 133.275 81.5105L133.392 100.893C132.796 104.033 130.997 106.815 128.379 108.646C126.637 109.713 124.622 110.247 122.581 110.184ZM102.53 94.0926C103.998 97.4272 106.176 100.402 108.912 102.808C111.648 105.215 114.876 106.996 118.37 108.028C119.839 108.561 121.405 108.776 122.964 108.657C124.522 108.539 126.038 108.091 127.41 107.343C129.67 105.757 131.237 103.365 131.788 100.659L131.704 80.5246C131.703 80.4095 131.729 80.2957 131.778 80.1916C131.827 80.0874 131.899 79.9957 131.988 79.9231C132.08 79.8536 132.186 79.8042 132.298 79.7783C132.41 79.7524 132.527 79.7505 132.64 79.7727C135.217 80.3217 137.906 79.9368 140.226 78.6866C141.151 78.0517 141.936 77.2329 142.531 76.2814C143.126 75.3298 143.519 74.2658 143.685 73.1558C144.652 68.2003 145.161 63.1663 145.205 58.1174C145.205 53.9234 145.406 49.1612 143.384 45.3849C142.139 43.2175 140.629 41.2136 138.889 39.4197C137.034 37.3812 133.275 31.8838 131.921 29.8787C129.248 32.2347 118.972 40.4891 106.055 41.0071C106.303 46.6282 105.74 52.2557 104.384 57.7164C104.24 58.1794 104.139 58.6549 104.084 59.1367C104.084 59.1367 103.95 59.6881 102.58 94.0926H102.53Z" fill="#00194C"/>
<path d="M132.356 90.5502C132.356 90.5502 124.118 90.9178 118.838 85.4372C113.558 79.9565 114.326 74.409 114.326 74.409C114.326 74.409 123.233 80.3909 132.473 80.5915L132.356 90.5502Z" fill="#00194C"/>
<path d="M131.988 91.3021C130.217 91.3021 123.149 90.9679 118.303 85.9384C112.823 80.2572 113.558 74.5593 113.591 74.2419C113.609 74.118 113.659 74.0008 113.735 73.9014C113.811 73.802 113.911 73.7236 114.026 73.6737C114.132 73.6121 114.253 73.5797 114.377 73.5797C114.5 73.5797 114.621 73.6121 114.727 73.6737C114.727 73.6737 123.567 79.522 132.489 79.7225C132.682 79.7269 132.864 79.8063 132.999 79.9437C133.133 80.0811 133.208 80.2656 133.208 80.4577L133.091 90.4833C133.087 90.6697 133.012 90.8477 132.882 90.9811C132.752 91.1145 132.575 91.1934 132.389 91.2018L131.988 91.3021ZM115.028 75.729C115.319 79.2131 116.855 82.4758 119.356 84.9191C123.483 89.1967 129.582 89.7481 131.621 89.8149L131.721 81.2932C125.809 80.7194 120.102 78.8173 115.028 75.729Z" fill="#00194C"/>
<path d="M125.288 51.4504C125.288 51.4504 131.821 61.1919 130.301 62.8963C128.78 64.6006 124.402 63.4644 124.402 63.4644" fill="white"/>
<path d="M127.193 64.5672C126.156 64.5561 125.125 64.4271 124.118 64.1829C123.929 64.1318 123.767 64.0089 123.667 63.8404C123.568 63.6719 123.537 63.471 123.583 63.2806C123.607 63.1858 123.649 63.0966 123.707 63.0182C123.765 62.9398 123.838 62.8738 123.922 62.8241C124.006 62.7743 124.099 62.7417 124.196 62.7283C124.293 62.7149 124.391 62.7209 124.486 62.7459C125.505 62.9965 128.63 63.4978 129.649 62.395C130.2 61.6097 127.844 56.6971 124.636 51.8681C124.553 51.7047 124.533 51.5166 124.578 51.3391C124.624 51.1617 124.734 51.0071 124.885 50.9045C125.037 50.8018 125.221 50.7582 125.403 50.7818C125.585 50.8054 125.752 50.8946 125.873 51.0327C127.928 54.1239 132.556 61.476 130.768 63.3976C130.284 63.826 129.716 64.1508 129.101 64.3519C128.486 64.553 127.837 64.6263 127.193 64.5672Z" fill="#00194C"/>
<path d="M138.68 51.8861C139.298 51.8618 139.762 50.9002 139.716 49.7384C139.671 48.5765 139.133 47.6543 138.515 47.6786C137.897 47.7029 137.434 48.6644 137.479 49.8263C137.525 50.9881 138.063 51.9104 138.68 51.8861Z" fill="#00194C"/>
<path d="M120.302 50.2863C120.92 50.262 121.384 49.3005 121.338 48.1386C121.292 46.9767 120.755 46.0545 120.137 46.0788C119.519 46.1031 119.055 47.0646 119.101 48.2265C119.146 49.3884 119.684 50.3106 120.302 50.2863Z" fill="#00194C"/>
<path d="M129.733 68.6108L124.536 67.274C124.536 67.274 123.483 74.8601 126.407 75.5285C129.332 76.1968 129.733 68.6108 129.733 68.6108Z" fill="white"/>
<path d="M126.758 76.3138C126.586 76.3383 126.412 76.3383 126.24 76.3138C122.748 75.5118 123.684 68.026 123.851 67.1571C123.868 67.0547 123.907 66.9571 123.964 66.8707C124.022 66.7843 124.097 66.7111 124.185 66.6558C124.268 66.5952 124.364 66.5546 124.466 66.5373C124.567 66.5199 124.671 66.5261 124.77 66.5556L129.966 67.8756C130.131 67.9179 130.276 68.0159 130.377 68.153C130.477 68.2901 130.527 68.4578 130.518 68.6275C130.518 69.2124 130.167 74.3087 128.145 75.8293C127.752 76.1445 127.262 76.3155 126.758 76.3138ZM125.171 68.2098C124.954 70.6327 125.054 74.4591 126.574 74.8935C126.684 74.9232 126.8 74.9251 126.911 74.8988C127.022 74.8725 127.124 74.819 127.209 74.7432C128.212 73.9912 128.78 71.2008 128.88 69.2625L125.171 68.2098Z" fill="#00194C"/>
<path d="M109.982 48.7768C108.629 45.2177 104.1 43.8977 100.658 44.5828C99.5229 44.7695 98.468 45.2879 97.6265 46.0729C96.7851 46.8579 96.1946 47.8742 95.9296 48.994C95.6541 50.3841 95.6541 51.8147 95.9296 53.2048C96.321 55.7563 97.1641 58.2177 98.4193 60.4734C99.0003 61.6498 99.868 62.6611 100.942 63.4142C101.633 63.8267 102.434 64.0189 103.237 63.9652C104.04 63.9115 104.807 63.6144 105.437 63.1134" fill="white"/>
<path d="M102.897 64.7677C102.056 64.7631 101.233 64.5198 100.525 64.066C99.3463 63.2452 98.3926 62.1422 97.7508 60.8578C96.4289 58.4962 95.5457 55.9147 95.1441 53.2383C94.8479 51.7491 94.8479 50.2161 95.1441 48.7268C95.4365 47.4653 96.0981 46.3195 97.0445 45.4356C97.9909 44.5517 99.1792 43.9698 100.458 43.7641C104.301 42.9955 109.163 44.5328 110.65 48.426C110.722 48.6145 110.716 48.8234 110.635 49.0078C110.554 49.1922 110.403 49.3373 110.216 49.4119C110.025 49.4822 109.815 49.4743 109.63 49.3897C109.445 49.3052 109.301 49.151 109.23 48.9607C108.027 45.8361 103.983 44.6163 100.758 45.2513C99.7614 45.4008 98.8325 45.8475 98.0933 46.5332C97.354 47.2188 96.8387 48.1114 96.6146 49.0944C96.3605 50.3854 96.3605 51.7134 96.6146 53.0044C96.9965 55.5037 97.8227 57.9144 99.0541 60.1226C99.5772 61.1795 100.352 62.0918 101.31 62.7793C101.876 63.112 102.53 63.2631 103.184 63.2123C103.839 63.1615 104.462 62.9112 104.969 62.4953C105.053 62.4382 105.146 62.3982 105.245 62.3774C105.344 62.3566 105.446 62.3554 105.545 62.3741C105.645 62.3927 105.739 62.4307 105.824 62.4859C105.909 62.5411 105.982 62.6124 106.039 62.6958C106.096 62.7792 106.136 62.873 106.157 62.9718C106.177 63.0707 106.178 63.1727 106.16 63.272C106.141 63.3713 106.103 63.466 106.048 63.5506C105.993 63.6352 105.921 63.7081 105.838 63.7652C104.982 64.3886 103.956 64.7381 102.897 64.7677Z" fill="#00194C"/>
<path d="M61.6253 256.658C64.071 246.527 65.8791 236.253 67.0391 225.896C69.1779 201.868 67.0391 120.076 72.1522 103.801C74.6251 96.0309 100.775 90.333 100.775 90.333C100.775 90.333 125.839 222.938 125.839 258.763L61.6253 256.658Z" fill="#0055FF"/>
<path d="M105.955 187.865C112.104 186.813 117.652 183.955 123.416 181.532C125.722 180.563 128.078 179.678 130.468 178.942C133.275 178.074 135.965 176.403 138.973 176.319C140.844 176.319 140.36 178.909 139.658 179.861C138.938 180.728 138.073 181.463 137.101 182.034C135.347 183.237 131.637 185.376 131.002 187.548C133.337 187.946 135.702 188.136 138.07 188.116C140.61 188.4 143.083 188.784 145.623 189.269C148.163 189.753 150.502 190.322 152.908 190.94C155.061 191.326 157.179 191.884 159.241 192.611C159.726 192.861 160.244 193.229 160.277 193.764C160.394 195.668 156.117 195.435 155.047 195.334L135.347 193.363C142.244 194.011 149.075 195.241 155.766 197.039C156.417 197.141 157.009 197.473 157.437 197.974C159.108 200.497 152.056 200.631 151.271 200.648C147.637 200.737 144.001 200.642 140.376 200.364L149.232 201.834C151.204 202.168 153.192 202.486 155.147 202.987C156.231 203.194 157.24 203.684 158.072 204.407C158.185 204.505 158.257 204.643 158.272 204.792C158.272 204.992 158.055 205.126 157.871 205.209C156.202 205.889 154.408 206.208 152.608 206.145C148.917 206.218 145.227 205.972 141.579 205.41L152.507 206.58C153.485 206.576 154.433 206.919 155.181 207.549C155.266 207.86 155.249 208.191 155.131 208.492C155.014 208.793 154.803 209.048 154.529 209.22C153.961 209.558 153.318 209.753 152.658 209.788C148.629 210.038 144.589 210.038 140.56 209.788C136.163 209.81 131.769 209.531 127.41 208.952C118.789 207.877 110.408 205.369 102.613 201.533" fill="white"/>
<path d="M148.363 210.857C147.06 210.857 145.79 210.857 144.52 210.757C143.25 210.657 141.88 210.657 140.543 210.757C136.113 210.771 131.686 210.492 127.293 209.922C118.579 208.833 110.108 206.297 102.229 202.419C102.047 202.326 101.909 202.166 101.843 201.972C101.778 201.779 101.79 201.568 101.878 201.383C101.974 201.204 102.136 201.07 102.329 201.007C102.522 200.945 102.732 200.96 102.914 201.049C110.627 204.856 118.924 207.341 127.46 208.401C131.803 208.972 136.18 209.235 140.56 209.186C141.914 209.186 143.267 209.186 144.604 209.287C147.254 209.46 149.914 209.415 152.557 209.153C153.095 209.119 153.619 208.971 154.095 208.719C154.211 208.644 154.308 208.544 154.378 208.424C154.448 208.305 154.488 208.171 154.496 208.033C153.881 207.642 153.169 207.434 152.44 207.432L147.311 206.881C145.356 206.764 143.401 206.546 141.462 206.262C141.266 206.226 141.091 206.115 140.973 205.954C140.855 205.792 140.803 205.592 140.827 205.393C140.856 205.198 140.959 205.022 141.115 204.901C141.27 204.779 141.467 204.722 141.663 204.742L147.428 205.36C149.143 205.46 150.864 205.494 152.591 205.46C154.158 205.515 155.722 205.277 157.203 204.758C156.521 204.295 155.754 203.972 154.947 203.806C153.025 203.321 151.037 202.987 149.099 202.67L140.259 201.199C140.161 201.188 140.065 201.158 139.978 201.11C139.891 201.062 139.814 200.998 139.752 200.92C139.69 200.842 139.644 200.753 139.616 200.658C139.589 200.563 139.58 200.463 139.591 200.364C139.602 200.265 139.632 200.17 139.68 200.083C139.728 199.995 139.793 199.919 139.87 199.857C139.948 199.795 140.037 199.748 140.132 199.721C140.228 199.693 140.328 199.685 140.426 199.696C144.019 199.963 147.662 200.046 151.254 199.963C154.847 199.879 156.685 199.228 156.902 198.81C156.902 198.726 156.902 198.559 156.802 198.476C156.466 198.142 156.033 197.926 155.565 197.857C148.916 196.046 142.124 194.805 135.263 194.148C135.077 194.128 134.905 194.04 134.778 193.902C134.652 193.763 134.581 193.583 134.578 193.396V193.313C134.603 193.113 134.704 192.931 134.859 192.804C135.015 192.676 135.213 192.613 135.414 192.627L155.114 194.616C156.565 194.873 158.06 194.692 159.408 194.098C159.508 193.998 159.525 193.931 159.508 193.847C159.492 193.764 159.375 193.563 158.907 193.346C157.653 192.813 156.341 192.431 154.997 192.21C154.212 192.043 153.426 191.892 152.691 191.675C150.318 191.007 147.895 190.422 145.473 190.004C143.05 189.586 140.46 189.135 137.987 188.868C137.132 188.786 136.273 188.747 135.414 188.751C133.862 188.797 132.31 188.634 130.802 188.266C130.703 188.241 130.61 188.195 130.529 188.132C130.448 188.069 130.382 187.989 130.334 187.899C130.259 187.711 130.259 187.502 130.334 187.314C130.969 185.209 133.86 183.304 135.965 181.9L137.001 181.198C137.802 180.73 138.514 180.125 139.106 179.41C139.316 179.094 139.456 178.737 139.52 178.363C139.583 177.989 139.567 177.606 139.474 177.238C139.474 177.238 139.34 177.054 139.056 177.071C137.155 177.227 135.301 177.743 133.592 178.592C132.673 178.959 131.721 179.36 130.752 179.661C128.384 180.392 126.058 181.251 123.784 182.234C122.731 182.669 121.679 183.137 120.643 183.588C116.033 185.85 111.161 187.533 106.139 188.601C105.952 188.607 105.769 188.546 105.625 188.428C105.48 188.31 105.383 188.143 105.353 187.959C105.322 187.775 105.359 187.585 105.458 187.427C105.556 187.268 105.709 187.151 105.888 187.097C110.782 186.045 115.529 184.401 120.024 182.201L123.182 180.814C125.51 179.821 127.885 178.946 130.301 178.191C131.219 177.897 132.123 177.557 133.007 177.171C134.896 176.258 136.934 175.692 139.023 175.5C139.387 175.482 139.749 175.567 140.068 175.744C140.387 175.921 140.65 176.184 140.827 176.503C141.059 177.122 141.135 177.788 141.051 178.443C140.966 179.098 140.723 179.723 140.343 180.263C139.655 181.129 138.818 181.865 137.87 182.435L136.8 183.153C135.058 184.166 133.495 185.459 132.172 186.98C133.279 187.138 134.396 187.211 135.514 187.197C136.418 187.186 137.321 187.225 138.221 187.314C140.761 187.581 143.234 187.982 145.84 188.467C148.447 188.951 150.769 189.536 153.176 190.221C153.877 190.422 154.629 190.572 155.365 190.723C156.83 190.967 158.261 191.387 159.625 191.976C160.014 192.107 160.359 192.344 160.621 192.66C160.884 192.975 161.054 193.357 161.113 193.764C161.132 194.035 161.089 194.306 160.988 194.558C160.887 194.81 160.729 195.035 160.528 195.217C159.358 196.337 156.517 196.27 155.381 196.17L156.033 196.354C156.858 196.504 157.6 196.95 158.122 197.607C158.328 197.872 158.455 198.19 158.488 198.524C158.52 198.859 158.457 199.195 158.305 199.495C157.67 200.698 155.331 201.366 151.371 201.45C152.708 201.684 154.078 201.935 155.415 202.285C156.665 202.513 157.824 203.093 158.757 203.956C158.883 204.077 158.985 204.222 159.054 204.383C159.122 204.544 159.158 204.717 159.158 204.892C159.139 205.135 159.05 205.367 158.901 205.559C158.753 205.752 158.552 205.898 158.322 205.978C157.436 206.38 156.496 206.65 155.532 206.78C155.657 206.883 155.774 206.994 155.882 207.114C155.942 207.176 155.988 207.25 156.016 207.332C156.178 207.809 156.175 208.326 156.009 208.802C155.842 209.277 155.521 209.683 155.097 209.955C154.425 210.365 153.661 210.6 152.875 210.64C151.378 210.819 149.87 210.891 148.363 210.857Z" fill="#00194C"/>
<path d="M72.052 103.767C72.052 103.767 20.6374 197.339 39.0678 203.622C46.6204 206.195 114.26 210.156 114.26 210.156L121.428 180.981L70.7654 173.144L72.052 103.767Z" fill="#0055FF"/>
<path d="M138.605 61.6597C136.243 61.6531 133.936 60.9464 131.975 59.6289C130.014 58.3114 128.488 56.4422 127.59 54.2576C126.691 52.073 126.46 49.671 126.926 47.3552C127.392 45.0394 128.535 42.9138 130.208 41.247C131.882 39.5802 134.013 38.4469 136.33 37.9906C138.648 37.5342 141.049 37.7751 143.23 38.6829C145.411 39.5907 147.273 41.1246 148.583 43.0907C149.892 45.0569 150.589 47.3671 150.586 49.7293C150.584 51.2996 150.272 52.8541 149.668 54.3039C149.065 55.7536 148.182 57.0702 147.069 58.1782C145.956 59.2863 144.636 60.1641 143.184 60.7615C141.731 61.3589 140.176 61.6641 138.605 61.6597ZM138.605 39.3194C136.546 39.3194 134.534 39.9299 132.822 41.0738C131.11 42.2176 129.776 43.8434 128.988 45.7456C128.2 47.6477 127.994 49.7408 128.395 51.7601C128.797 53.7795 129.788 55.6343 131.244 57.0902C132.7 58.546 134.555 59.5375 136.574 59.9392C138.594 60.3408 140.687 60.1347 142.589 59.3468C144.491 58.5589 146.117 57.2246 147.261 55.5127C148.405 53.8008 149.015 51.7882 149.015 49.7293C149.011 46.9698 147.913 44.3245 145.961 42.3732C144.01 40.422 141.365 39.3238 138.605 39.3194Z" fill="#00194C"/>
<path d="M115.496 59.7382C113.136 59.7382 110.83 59.0385 108.868 57.7276C106.906 56.4167 105.377 54.5534 104.474 52.3734C103.571 50.1934 103.335 47.7945 103.795 45.4803C104.255 43.166 105.392 41.0402 107.06 39.3717C108.729 37.7032 110.854 36.5669 113.169 36.1066C115.483 35.6462 117.882 35.8825 120.062 36.7855C122.242 37.6885 124.105 39.2176 125.416 41.1796C126.727 43.1415 127.427 45.4482 127.427 47.8078C127.422 50.9706 126.164 54.0026 123.927 56.239C121.691 58.4754 118.659 59.7338 115.496 59.7382ZM115.496 37.3979C113.437 37.3946 111.422 38.0023 109.708 39.1441C107.994 40.286 106.657 41.9106 105.867 43.8125C105.076 45.7144 104.868 47.808 105.267 49.8284C105.667 51.8488 106.657 53.7052 108.113 55.1628C109.568 56.6203 111.423 57.6134 113.442 58.0164C115.462 58.4194 117.556 58.2143 119.459 57.4269C121.362 56.6395 122.989 55.3052 124.134 53.5929C125.278 51.8807 125.889 49.8674 125.889 47.8078C125.885 45.0511 124.789 42.4084 122.841 40.4576C120.894 38.5068 118.253 37.4067 115.496 37.3979Z" fill="#00194C"/>
<path d="M121.445 181.733H121.328L70.6651 173.896C70.5597 173.881 70.4589 173.844 70.3694 173.786C70.28 173.728 70.2041 173.652 70.1471 173.562C70.0865 173.476 70.0447 173.377 70.0246 173.274C70.0044 173.17 70.0063 173.063 70.0302 172.961L82.228 120.326C82.2679 120.125 82.3862 119.947 82.557 119.833C82.7278 119.718 82.937 119.676 83.1386 119.716C83.3403 119.756 83.5178 119.875 83.6322 120.045C83.7466 120.216 83.7884 120.425 83.7485 120.627L71.7345 172.426L121.595 180.129C121.695 180.145 121.791 180.181 121.877 180.234C121.963 180.288 122.038 180.357 122.097 180.44C122.156 180.522 122.198 180.615 122.221 180.714C122.244 180.812 122.247 180.915 122.23 181.014C122.226 181.113 122.202 181.21 122.16 181.3C122.118 181.389 122.059 181.47 121.986 181.537C121.913 181.603 121.828 181.655 121.735 181.689C121.642 181.722 121.544 181.737 121.445 181.733Z" fill="#00194C"/>
<path d="M171.723 195.435C171.537 195.436 171.358 195.368 171.219 195.245C171.08 195.121 170.992 194.951 170.971 194.766L163.001 128.698C161.447 115.765 161.447 115.765 162.149 115.614L162.449 117.118L162.299 116.366H163.068C163.168 117.502 172.391 193.864 172.492 194.632C172.515 194.834 172.458 195.037 172.333 195.196C172.208 195.356 172.025 195.46 171.823 195.485L171.723 195.435Z" fill="#00194C"/>
<path d="M183.119 165.241C182.989 165.24 182.862 165.206 182.749 165.142C182.636 165.079 182.541 164.988 182.473 164.878C182.405 164.768 182.365 164.642 182.358 164.513C182.351 164.384 182.377 164.255 182.434 164.138L212.711 103.433C212.801 103.253 212.958 103.115 213.149 103.049C213.34 102.983 213.548 102.995 213.73 103.082C213.912 103.175 214.05 103.336 214.116 103.529C214.181 103.722 214.169 103.934 214.081 104.118L183.804 164.823C183.741 164.95 183.643 165.057 183.522 165.131C183.401 165.205 183.261 165.243 183.119 165.241Z" fill="#00194C"/>
<path d="M32.4843 166.561H32.384C32.165 166.536 31.9648 166.425 31.8271 166.253C31.6894 166.081 31.6253 165.861 31.6488 165.642C31.6488 165.358 34.8904 137.019 31.6488 122.749C29.9779 115.146 27.5049 112.339 25.7671 111.32C25.4225 111.081 25.0335 110.914 24.6231 110.828C24.2127 110.741 23.7893 110.738 23.3777 110.819C23.165 110.882 22.936 110.86 22.7394 110.757C22.5428 110.654 22.3941 110.478 22.325 110.267C22.2615 110.059 22.2819 109.834 22.3818 109.64C22.4817 109.447 22.6532 109.3 22.8597 109.231C23.4785 109.078 24.1221 109.052 24.7513 109.155C25.3804 109.259 25.9819 109.489 26.519 109.833C29.4933 111.504 31.7658 115.731 33.2028 122.398C36.5446 136.918 33.3532 164.656 33.2028 165.842C33.1814 166.025 33.0989 166.196 32.9685 166.327C32.8381 166.457 32.6675 166.539 32.4843 166.561Z" fill="white"/>
<path d="M104.351 154.38C104.239 154.371 104.131 154.336 104.036 154.278C103.94 154.22 103.859 154.14 103.8 154.046L88.3435 136.334C88.2107 136.194 88.1366 136.009 88.1366 135.816C88.1366 135.623 88.2107 135.438 88.3435 135.298L98.3691 125.055L88.3435 115.681C88.2148 115.558 88.1327 115.394 88.1114 115.217C88.0901 115.041 88.1308 114.862 88.2265 114.712C89.8975 112.256 97.9848 99.9743 98.6698 99.2892C98.814 99.1453 99.0093 99.0645 99.2129 99.0645C99.4165 99.0645 99.6118 99.1453 99.756 99.2892C99.8267 99.3591 99.8828 99.4424 99.9212 99.5342C99.9595 99.626 99.9792 99.7244 99.9792 99.8239C99.9792 99.9234 99.9595 100.022 99.9212 100.114C99.8828 100.205 99.8267 100.289 99.756 100.359C99.2213 100.96 93.6738 109.248 89.864 115.013L99.8896 124.47C99.9643 124.541 100.024 124.627 100.064 124.722C100.104 124.816 100.124 124.919 100.124 125.022C100.119 125.225 100.042 125.421 99.9063 125.573L89.8807 135.866L104.919 153.11C105.048 153.267 105.112 153.467 105.096 153.67C105.081 153.872 104.987 154.061 104.836 154.196C104.699 154.309 104.528 154.374 104.351 154.38Z" fill="#00194C"/>
<path d="M142.231 150.102C142.071 150.099 141.916 150.053 141.78 149.968C141.618 149.848 141.508 149.67 141.474 149.471C141.44 149.271 141.483 149.067 141.596 148.899L153.71 131.638L141.078 121.613C140.996 121.545 140.928 121.461 140.879 121.366C140.831 121.271 140.802 121.168 140.794 121.061C140.783 120.958 140.796 120.853 140.83 120.755C140.865 120.656 140.921 120.567 140.995 120.493L148.648 112.473L135.28 100.425C135.14 100.279 135.062 100.085 135.062 99.8823C135.062 99.6799 135.14 99.4854 135.28 99.3392C135.424 99.1954 135.62 99.1146 135.823 99.1146C136.027 99.1146 136.222 99.1954 136.366 99.3392L150.235 111.921C150.311 111.988 150.373 112.07 150.416 112.162C150.459 112.254 150.483 112.354 150.486 112.456C150.492 112.558 150.476 112.661 150.438 112.756C150.401 112.851 150.343 112.937 150.268 113.007L142.666 120.978L155.214 131.003C155.369 131.123 155.471 131.298 155.499 131.491C155.527 131.684 155.479 131.881 155.365 132.039L142.833 149.902C142.752 149.975 142.657 150.031 142.553 150.065C142.45 150.1 142.34 150.112 142.231 150.102Z" fill="#00194C"/>
<path d="M439.189 81.6274C442.715 81.477 446.224 80.8755 450.318 80.5246C454.127 80.1904 459.023 78.8536 459.09 74.9604C459.09 71.6185 455.23 69.0119 456.099 65.8538C456.399 65.0057 456.858 64.2229 457.452 63.5479C462.892 56.2499 465.298 47.1309 464.168 38.0992C463.037 29.0675 458.458 20.823 451.387 15.0909C451.66 15.1384 451.94 15.1278 452.209 15.0597C452.478 14.9915 452.729 14.8675 452.947 14.6956C453.165 14.5237 453.344 14.3079 453.472 14.0622C453.601 13.8164 453.676 13.5464 453.693 13.2696C453.709 12.1236 453.271 11.018 452.473 10.1951C449.648 7.06402 445.973 4.82293 441.896 3.74525C429.017 -0.223678 415.241 -0.223678 402.362 3.74525C392.47 6.63597 380.64 14.5061 381.926 26.4365C382.394 30.7141 385.753 34.9081 390.064 35.0919C392.269 47.8746 398.97 56.5968 407.391 65.8538C413.034 72.1936 420.158 77.0385 428.128 79.9565C431.668 81.2412 435.428 81.8092 439.189 81.6274Z" fill="white"/>
<path d="M437.635 82.4963C434.304 82.5168 430.995 81.9512 427.86 80.8254C419.751 77.8701 412.504 72.9432 406.773 66.4888C398.987 57.9503 391.818 49.1612 389.362 35.9608C384.75 35.3593 381.559 30.8478 381.091 26.6036C379.821 14.9071 390.732 6.35191 402.128 3.02676C415.167 -0.977669 429.108 -0.977669 442.147 3.02676C446.368 4.1632 450.177 6.48212 453.125 9.71049C453.589 10.2007 453.952 10.7778 454.193 11.4086C454.434 12.0394 454.548 12.7116 454.528 13.3865C454.479 13.8274 454.336 14.2525 454.109 14.6331C453.881 15.0136 453.574 15.3407 453.208 15.5922C459.933 21.595 464.167 29.8981 465.076 38.8665C465.986 47.8349 463.504 56.8188 458.121 64.0492L458.004 64.1996C457.533 64.7566 457.16 65.3894 456.901 66.071C456.833 66.8252 456.914 67.5855 457.141 68.3081C457.367 69.0307 457.735 69.7015 458.221 70.2818C459.21 71.6577 459.79 73.2856 459.892 74.9771C459.892 78.4693 456.266 80.8421 450.351 81.3433C448.68 81.4937 447.009 81.6943 445.522 81.8613C443.333 82.1287 441.278 82.3793 439.189 82.4629L437.635 82.4963ZM422.747 1.70673C415.924 1.72139 409.138 2.71169 402.596 4.64756C394.542 7.00358 381.408 14.2053 382.845 26.4365C383.246 30.1126 386.187 34.1896 390.181 34.3734C390.371 34.3787 390.553 34.4499 390.697 34.5749C390.84 34.6999 390.935 34.8709 390.966 35.0585C393.021 46.9389 398.803 55.1097 408.093 65.3859C413.644 71.627 420.653 76.3972 428.495 79.2714C431.933 80.4902 435.581 81.0073 439.223 80.7919C441.261 80.7919 443.283 80.4577 445.439 80.2071C446.992 80.0233 448.613 79.8395 450.334 79.6891C452.055 79.5387 458.271 78.72 458.338 74.9437C458.201 73.5642 457.693 72.2476 456.868 71.1339C455.865 69.463 454.812 67.6751 455.381 65.6366C455.678 64.7437 456.143 63.9157 456.751 63.197L456.868 63.0466C462.168 55.9299 464.51 47.0391 463.404 38.2347C462.299 29.4304 457.831 21.3948 450.936 15.8094C450.784 15.6853 450.681 15.5118 450.645 15.3194C450.608 15.127 450.64 14.9278 450.735 14.7567C450.825 14.5833 450.973 14.4477 451.154 14.3742C451.335 14.3006 451.536 14.2941 451.721 14.3557C451.823 14.387 451.932 14.3927 452.037 14.3723C452.142 14.3519 452.24 14.306 452.323 14.2387C452.49 14.1282 452.632 13.9829 452.739 13.8129C452.845 13.6428 452.914 13.4518 452.941 13.2529C452.926 12.3261 452.555 11.4406 451.905 10.7799C449.165 7.43802 444.77 5.6167 441.712 4.61414C435.586 2.64134 429.183 1.65983 422.747 1.70673Z" fill="#00194C"/>
<path d="M386.655 53.7896C386.655 53.7896 377.532 68.828 379.654 71.7688C381.776 74.7097 388.359 72.4539 388.359 72.4539" fill="white"/>
<path d="M383.597 74.0914C382.728 74.165 381.854 74.0289 381.049 73.6945C380.244 73.3602 379.53 72.8373 378.969 72.1699C376.713 69.0118 383.731 56.9143 385.937 53.2716C385.988 53.1682 386.061 53.0767 386.15 53.0029C386.239 52.9291 386.343 52.8746 386.454 52.8428C386.565 52.811 386.682 52.8026 386.796 52.8182C386.911 52.8338 387.021 52.873 387.119 52.9333C387.218 52.9937 387.303 53.0739 387.369 53.1688C387.435 53.2637 387.481 53.3713 387.503 53.4848C387.526 53.5983 387.524 53.7151 387.499 53.828C387.474 53.9409 387.425 54.0473 387.357 54.1405C383.113 61.1417 379.219 69.6468 380.339 71.184C381.776 73.2058 386.404 72.1532 388.075 71.585C388.286 71.5152 388.516 71.5302 388.715 71.6269C388.915 71.7236 389.069 71.8944 389.145 72.103C389.214 72.3114 389.199 72.5386 389.102 72.7356C389.005 72.9326 388.834 73.0835 388.627 73.1557C387.007 73.7181 385.311 74.0336 383.597 74.0914Z" fill="#00194C"/>
<path d="M387.975 34.34C382.01 39.6201 384.199 50.1637 384.516 57.1315C384.962 66.8563 385.636 76.5644 386.538 86.2558C387.106 92.4049 403.08 91.9203 405.821 89.9653L404.267 114.411C404.267 114.411 412.003 116.216 424.652 109.766C437.301 103.316 437.301 100.258 437.301 100.258L435.145 72.1699C435.145 72.1699 424.619 72.621 417.935 60.3063C411.251 47.9915 410.683 28.7256 410.683 28.7256C410.683 28.7256 393.79 29.2102 387.975 34.34Z" fill="white"/>
<path d="M407.141 115.447C406.109 115.472 405.078 115.382 404.066 115.18C403.871 115.139 403.699 115.028 403.581 114.868C403.464 114.707 403.41 114.509 403.431 114.311L404.902 91.2353C401.326 92.3548 393.606 92.5052 389.245 90.5001C388.32 90.1984 387.499 89.6442 386.873 88.9001C386.247 88.156 385.842 87.2517 385.703 86.2893C384.817 76.6313 384.132 66.8229 383.681 57.1148C383.681 55.9619 383.53 54.7087 383.413 53.3719C382.845 46.6882 382.143 38.3336 387.424 33.7218C393.406 28.4416 409.964 27.8568 410.666 27.8401C410.774 27.8288 410.883 27.8425 410.984 27.8802C411.086 27.9178 411.177 27.9785 411.251 28.0573C411.334 28.1311 411.4 28.2211 411.446 28.3218C411.492 28.4224 411.517 28.5315 411.518 28.6421C411.518 28.8427 412.087 47.908 418.62 59.9053C424.986 71.6018 434.711 71.3178 435.112 71.3011C435.22 71.2943 435.327 71.3088 435.429 71.3438C435.531 71.3787 435.625 71.4335 435.706 71.5049C435.787 71.5763 435.853 71.663 435.9 71.7599C435.947 71.8568 435.974 71.9621 435.981 72.0697L438.12 100.141C438.12 100.81 437.501 104.085 425.02 110.451C419.537 113.501 413.411 115.213 407.141 115.447ZM405.135 113.659C407.274 113.893 414.192 114.11 424.268 108.964C435.797 103.082 436.465 100.158 436.465 100.125L434.377 72.9553C431.687 72.8216 423.031 71.4848 417.149 60.7073C411.268 49.9298 410.065 33.4711 409.881 29.5444C406.455 29.7283 393.339 30.7308 388.526 34.975C383.881 39.0688 384.55 46.9221 385.084 53.2383C385.201 54.5917 385.302 55.8616 385.352 57.048C385.803 66.7227 386.488 76.4976 387.373 86.1222C387.474 87.2919 388.343 88.2443 389.947 88.9795C394.609 91.135 403.548 90.5168 405.336 89.2469C405.468 89.1619 405.622 89.1168 405.779 89.1168C405.936 89.1168 406.089 89.1619 406.222 89.2469C406.361 89.3229 406.476 89.4371 406.553 89.5762C406.63 89.7153 406.666 89.8735 406.656 90.0322L405.135 113.659Z" fill="#00194C"/>
<path d="M386.488 78.9539C386.488 78.9539 394.208 83.2984 397.917 75.3447L386.488 78.9539Z" fill="white"/>
<path d="M391.2 80.9757C389.45 80.9373 387.734 80.491 386.187 79.6724C386.09 79.6202 386.005 79.549 385.936 79.463C385.867 79.3769 385.816 79.2779 385.787 79.1718C385.757 79.0658 385.749 78.9548 385.763 78.8456C385.778 78.7363 385.814 78.6311 385.87 78.5362C385.979 78.3437 386.159 78.2021 386.372 78.1426C386.585 78.0831 386.813 78.1105 387.006 78.2187C388.902 79.2254 391.101 79.5047 393.188 79.004C394.112 78.6611 394.953 78.1265 395.656 77.4353C396.359 76.7442 396.907 75.9121 397.265 74.9938C397.312 74.8935 397.378 74.8034 397.46 74.7288C397.542 74.6542 397.637 74.5966 397.741 74.5593C397.846 74.522 397.956 74.5058 398.067 74.5115C398.177 74.5173 398.285 74.5449 398.385 74.5928C398.583 74.687 398.737 74.8556 398.812 75.0619C398.887 75.2683 398.878 75.496 398.786 75.6956C398.335 76.8282 397.647 77.851 396.768 78.6955C395.889 79.54 394.839 80.1865 393.69 80.5914C392.885 80.8491 392.045 80.9788 391.2 80.9757Z" fill="#00194C"/>
<path d="M405.854 62.3616C406.133 60.3428 407.046 58.4647 408.461 56.9979C409.426 55.6186 410.592 54.3909 411.919 53.3553C413.415 52.2444 415.258 51.7051 417.116 51.8347C417.872 51.915 418.603 52.1474 419.266 52.5178C419.93 52.8883 420.511 53.3891 420.976 53.9902C421.748 55.0795 422.194 56.3661 422.263 57.6997C422.797 63.3809 419.088 69.3962 412.955 72.7381L413.473 72.2535" fill="white"/>
<path d="M412.922 73.5234C412.789 73.5215 412.657 73.4888 412.539 73.428C412.42 73.3671 412.317 73.2797 412.237 73.1725C412.118 73.0062 412.065 72.8021 412.086 72.5989C412.108 72.3957 412.203 72.2074 412.354 72.0697L412.889 71.5851C412.973 71.5052 413.073 71.4444 413.182 71.4069C413.292 71.3694 413.408 71.3561 413.524 71.3679C418.737 68.1263 421.878 62.7793 421.41 57.7832C421.36 56.5834 420.965 55.4234 420.274 54.4414C419.872 53.9251 419.367 53.497 418.792 53.1837C418.218 52.8704 417.584 52.6785 416.932 52.6201C415.275 52.5092 413.633 52.9953 412.304 53.9902C411.026 54.979 409.9 56.1499 408.962 57.4658C407.677 58.7969 406.826 60.4866 406.522 62.3115C406.522 62.533 406.434 62.7455 406.278 62.9022C406.121 63.0589 405.909 63.1469 405.687 63.1469C405.465 63.1469 405.253 63.0589 405.096 62.9022C404.939 62.7455 404.852 62.533 404.852 62.3115C405.123 60.1013 406.102 58.0382 407.642 56.4298C408.653 54.9904 409.875 53.7116 411.268 52.6368C412.928 51.3966 414.983 50.8027 417.049 50.9658C417.917 51.0604 418.757 51.3298 419.518 51.7577C420.279 52.1856 420.945 52.7631 421.477 53.4555C422.348 54.6696 422.852 56.1076 422.931 57.5994C423.482 63.5647 419.589 69.9142 413.189 73.3898C413.109 73.4491 413.018 73.4943 412.922 73.5234Z" fill="#00194C"/>
<path d="M405.821 89.9152C405.821 89.9152 413.992 87.0412 417.634 81.2097C417.634 81.2097 417.634 96.0308 405.136 100.81L405.821 89.9152Z" fill="#00194C"/>
<path d="M405.135 101.645C404.954 101.649 404.777 101.59 404.634 101.478C404.521 101.398 404.431 101.289 404.372 101.163C404.314 101.037 404.289 100.898 404.3 100.76L404.985 89.8652C404.995 89.7021 405.053 89.5456 405.151 89.4149C405.249 89.2843 405.383 89.1852 405.536 89.13C405.62 89.13 413.49 86.2727 416.916 80.7753C417.009 80.6172 417.152 80.4945 417.323 80.4261C417.494 80.3577 417.682 80.3475 417.859 80.3969C418.036 80.4464 418.192 80.5529 418.302 80.6998C418.412 80.8467 418.471 81.026 418.469 81.2097C418.469 81.3601 418.336 96.6659 405.42 101.595C405.329 101.629 405.232 101.646 405.135 101.645ZM406.623 90.5168L406.054 99.5232C413.657 95.9474 415.88 88.1775 416.531 84.0002C413.717 86.8451 410.343 89.0755 406.623 90.5502V90.5168Z" fill="#00194C"/>
<path d="M392.643 50.2183C393.384 50.0634 393.666 48.4147 393.273 46.5359C392.88 44.657 391.961 43.2595 391.22 43.4143C390.479 43.5692 390.198 45.2179 390.59 47.0967C390.983 48.9756 391.902 50.3731 392.643 50.2183Z" fill="#00194C"/>
<path d="M346.903 200.832C342.542 203.372 336.878 201.717 332.701 198.86C329.207 196.419 326.302 193.23 324.198 189.524C322.093 185.818 320.842 181.689 320.536 177.439C320.218 174.594 320.76 171.719 322.09 169.184C333.402 150.253 364.716 190.472 346.903 200.832Z" fill="white"/>
<path d="M342.041 202.904C338.526 202.77 335.127 201.608 332.266 199.562C328.687 197.049 325.711 193.774 323.552 189.971C321.394 186.168 320.107 181.933 319.784 177.572C319.445 174.573 320.028 171.542 321.455 168.883C323.978 164.656 327.638 162.868 332.099 163.687C340.821 165.358 350.864 177.054 352.752 187.748C353.838 193.981 351.9 198.877 347.305 201.567C345.704 202.483 343.885 202.945 342.041 202.904ZM330.044 164.973C328.52 165.012 327.035 165.467 325.751 166.288C324.467 167.11 323.432 168.268 322.759 169.635C321.486 172.026 320.979 174.75 321.305 177.439C321.613 181.571 322.833 185.583 324.879 189.186C326.925 192.789 329.745 195.893 333.135 198.275C336.845 200.832 342.309 202.67 346.503 200.213C351.632 197.222 351.9 191.859 351.215 187.982C349.443 177.957 339.836 166.628 331.782 165.141C331.208 165.038 330.627 164.982 330.044 164.973Z" fill="#00194C"/>
<path d="M264.46 207.432L342.375 206.479L306.283 114.628L228.368 115.564L264.46 207.432Z" fill="white"/>
<path d="M264.46 208.184C264.306 208.189 264.155 208.144 264.029 208.057C263.903 207.97 263.808 207.844 263.758 207.699L227.649 115.798C227.592 115.69 227.562 115.569 227.562 115.447C227.562 115.325 227.592 115.204 227.649 115.096C227.715 114.992 227.806 114.907 227.915 114.848C228.023 114.79 228.144 114.76 228.267 114.762L306.183 113.81C306.333 113.825 306.478 113.877 306.603 113.962C306.728 114.046 306.831 114.161 306.901 114.294L343.01 206.195C343.053 206.31 343.067 206.433 343.053 206.555C343.038 206.676 342.995 206.793 342.926 206.894C342.857 206.995 342.766 207.079 342.658 207.138C342.551 207.196 342.431 207.228 342.308 207.231L264.393 208.167L264.46 208.184ZM229.47 116.283L264.978 206.63L341.272 205.694L305.765 115.364L229.47 116.283Z" fill="#00194C"/>
<path d="M267.117 205.193L345.032 204.257L308.94 112.406L231.024 113.342L267.117 205.193Z" fill="white"/>
<path d="M267.117 205.961C266.964 205.964 266.814 205.918 266.688 205.831C266.562 205.744 266.467 205.621 266.415 205.477L230.306 113.576C230.253 113.466 230.225 113.346 230.225 113.225C230.225 113.103 230.253 112.983 230.306 112.874C230.373 112.77 230.464 112.684 230.572 112.623C230.68 112.562 230.8 112.527 230.924 112.523L308.856 111.587C309.008 111.598 309.154 111.649 309.28 111.734C309.406 111.819 309.508 111.935 309.575 112.072L345.667 203.973C345.712 204.088 345.727 204.212 345.713 204.334C345.698 204.457 345.654 204.574 345.583 204.675C345.516 204.779 345.425 204.865 345.317 204.926C345.21 204.987 345.089 205.021 344.965 205.026L267.05 205.961H267.117ZM232.144 114.06L267.634 204.391L343.929 203.472L308.422 113.141L232.144 114.06Z" fill="#00194C"/>
<path d="M257.425 143.218C255.754 141.246 256.322 138.94 256.205 136.701C256.088 134.462 255.203 132.29 255.119 130.151C255.184 128.716 255.614 127.322 256.368 126.1C257.123 124.877 258.177 123.868 259.43 123.167C260.191 122.656 261.093 122.399 262.008 122.432C262.924 122.465 263.805 122.787 264.527 123.351C265.345 122.064 267.384 122.164 268.955 122.833C271.116 123.831 272.994 125.353 274.419 127.261C276.234 129.428 277.486 132.011 278.061 134.78C278.341 136.066 278.344 137.397 278.07 138.685C277.797 139.973 277.252 141.187 276.474 142.249C274.846 144.104 272.591 145.294 270.141 145.591C267.586 145.913 264.997 145.868 262.455 145.457C260.83 145.355 259.271 144.773 257.977 143.786C257.78 143.609 257.596 143.419 257.425 143.218Z" fill="white"/>
<path d="M271.478 140.879L273.449 146.192C273.449 146.192 274.001 149.283 270.475 149.15C269.398 149.076 268.346 148.79 267.379 148.309C266.413 147.827 265.551 147.159 264.844 146.343L261.836 137.036C261.66 135.312 261.232 133.623 260.567 132.023C263.032 131.257 265.116 129.585 266.398 127.344C266.398 127.344 268.487 129.015 269.289 129.566C269.935 129.934 270.535 130.377 271.077 130.886C271.888 131.854 272.461 132.999 272.748 134.228C273.217 135.567 273.575 136.941 273.817 138.339C274.235 140.879 271.478 140.879 271.478 140.879Z" fill="white"/>
<path d="M260.967 132.324C260.666 132.122 260.311 132.015 259.948 132.015C259.585 132.015 259.231 132.122 258.929 132.324C258.692 132.629 258.549 132.997 258.516 133.382C258.483 133.768 258.563 134.155 258.745 134.496C259.085 135.373 259.552 136.195 260.132 136.935C260.442 137.405 260.853 137.799 261.335 138.088C261.559 138.232 261.824 138.298 262.09 138.277C262.355 138.256 262.607 138.149 262.806 137.971" fill="white"/>
<path d="M272.613 134.405C273.608 133.18 273.294 131.277 271.912 130.154C270.53 129.03 268.603 129.112 267.607 130.337C266.612 131.562 266.926 133.465 268.308 134.588C269.69 135.712 271.617 135.629 272.613 134.405Z" fill="white"/>
<path d="M267.132 133.862C268.126 132.631 267.805 130.724 266.416 129.602C265.027 128.48 263.095 128.568 262.101 129.799C261.107 131.03 261.427 132.937 262.816 134.059C264.205 135.181 266.137 135.093 267.132 133.862Z" fill="white"/>
<path d="M266.833 133.677C266.833 133.677 269.456 135.833 269.222 136.367C268.988 136.902 267.735 136.885 267.735 136.885" fill="white"/>
<path d="M244.158 131.572C243.281 131.554 242.426 131.291 241.691 130.813C240.955 130.334 240.369 129.659 239.997 128.865L234.533 114.929C234.317 114.449 234.224 113.923 234.262 113.398C234.3 112.873 234.468 112.365 234.751 111.921C235.1 111.46 235.556 111.09 236.08 110.842C236.604 110.595 237.18 110.478 237.758 110.501C238.977 110.524 240.166 110.886 241.19 111.547C242.215 112.208 243.034 113.142 243.556 114.244L245.227 118.655C245.268 118.757 245.288 118.866 245.287 118.976C245.285 119.086 245.262 119.194 245.219 119.295C245.175 119.396 245.112 119.488 245.033 119.564C244.955 119.641 244.862 119.701 244.76 119.741C244.553 119.819 244.325 119.814 244.122 119.726C243.92 119.639 243.759 119.477 243.673 119.274L242.002 114.846C241.606 114.059 241.003 113.394 240.259 112.924C239.514 112.453 238.656 112.193 237.775 112.172C237.461 112.138 237.144 112.182 236.852 112.302C236.56 112.422 236.303 112.612 236.104 112.857C235.992 113.086 235.934 113.337 235.934 113.592C235.934 113.847 235.992 114.099 236.104 114.328L241.585 128.246C241.825 128.74 242.198 129.157 242.661 129.452C243.124 129.747 243.659 129.908 244.208 129.917C244.373 129.933 244.539 129.909 244.693 129.848C244.847 129.787 244.984 129.69 245.094 129.566C245.155 129.451 245.187 129.322 245.187 129.19C245.187 129.059 245.155 128.93 245.094 128.815L240.816 117.736C240.731 117.575 240.604 117.44 240.448 117.346C240.292 117.252 240.113 117.202 239.931 117.202L243.84 127.227C243.89 127.331 243.917 127.444 243.921 127.559C243.925 127.674 243.905 127.788 243.862 127.895C243.82 128.002 243.755 128.098 243.674 128.179C243.592 128.26 243.495 128.323 243.387 128.365C243.28 128.406 243.166 128.425 243.051 128.42C242.936 128.416 242.823 128.387 242.72 128.337C242.617 128.286 242.525 128.215 242.45 128.128C242.376 128.041 242.32 127.939 242.287 127.829L238.326 117.803C238.218 117.559 238.173 117.292 238.196 117.025C238.22 116.759 238.31 116.504 238.46 116.283C238.621 116.049 238.84 115.861 239.094 115.735C239.348 115.609 239.63 115.551 239.914 115.564C240.438 115.58 240.946 115.746 241.378 116.042C241.811 116.338 242.149 116.752 242.353 117.235L246.698 128.297C246.856 128.664 246.922 129.065 246.89 129.464C246.858 129.863 246.729 130.248 246.514 130.586C246.257 130.939 245.917 131.224 245.523 131.413C245.129 131.603 244.695 131.692 244.258 131.672L244.158 131.572Z" fill="#00194C"/>
<path d="M350.229 182.284C347.836 175.834 343.497 170.287 337.814 166.41C335.1 164.34 331.988 162.849 328.674 162.033C325.131 161.431 324.413 164.923 327.187 166.828L334.154 171.574C334.656 171.925 335.257 172.242 335.725 172.643C336.527 173.362 336.41 172.977 336.243 173.896C335.67 176.761 335.813 179.723 336.661 182.518C337.378 184.612 338.261 186.646 339.301 188.6" fill="white"/>
<path d="M339.401 189.369C339.259 189.371 339.119 189.333 338.998 189.259C338.877 189.185 338.779 189.079 338.716 188.951C337.656 186.958 336.751 184.885 336.009 182.752C335.136 179.836 334.987 176.75 335.575 173.763V173.495L335.257 173.228C334.96 172.977 334.642 172.753 334.305 172.56L333.753 172.209L326.769 167.413C326 166.986 325.399 166.31 325.065 165.496C324.731 164.682 324.684 163.779 324.931 162.935C325.286 162.253 325.866 161.714 326.572 161.41C327.278 161.106 328.068 161.054 328.807 161.264C332.228 162.102 335.441 163.632 338.248 165.759C344.056 169.732 348.492 175.405 350.947 182C351.018 182.191 351.01 182.402 350.925 182.586C350.841 182.771 350.686 182.915 350.496 182.986C350.306 183.057 350.095 183.049 349.91 182.964C349.725 182.879 349.582 182.725 349.51 182.535C347.176 176.227 342.936 170.802 337.379 167.012C334.75 165.014 331.743 163.57 328.54 162.768C327.437 162.584 326.618 162.868 326.351 163.52C326.084 164.171 326.351 165.308 327.621 166.177L334.589 170.922L335.09 171.256C335.493 171.487 335.874 171.756 336.226 172.058L336.594 172.359C336.815 172.489 336.983 172.692 337.069 172.934C337.155 173.175 337.152 173.439 337.062 173.679V174.013C336.516 176.755 336.648 179.588 337.446 182.268C338.164 184.324 339.035 186.324 340.053 188.25C340.101 188.338 340.131 188.435 340.14 188.535C340.149 188.635 340.138 188.736 340.106 188.832C340.075 188.927 340.025 189.015 339.958 189.09C339.891 189.166 339.81 189.226 339.719 189.269C339.623 189.329 339.514 189.364 339.401 189.369Z" fill="#00194C"/>
<path d="M308.856 306.1H393.99V236.222H308.856V306.1Z" fill="#D1D3D4"/>
<path d="M393.99 306.936H308.773C308.551 306.936 308.339 306.848 308.182 306.691C308.025 306.535 307.937 306.322 307.937 306.1V236.239C307.937 236.017 308.025 235.805 308.182 235.648C308.339 235.491 308.551 235.403 308.773 235.403H393.99C394.212 235.403 394.425 235.491 394.581 235.648C394.738 235.805 394.826 236.017 394.826 236.239V306.1C394.826 306.322 394.738 306.535 394.581 306.691C394.425 306.848 394.212 306.936 393.99 306.936ZM309.692 305.265H393.239V237.074H309.692V305.265Z" fill="#D1D3D4"/>
<path d="M316.877 236.222H389.212V226.698H316.877V236.222Z" fill="white"/>
<path d="M389.212 236.991H316.877C316.676 236.991 316.483 236.912 316.339 236.771C316.196 236.631 316.113 236.44 316.108 236.239V226.698C316.113 226.497 316.196 226.306 316.339 226.165C316.483 226.024 316.676 225.946 316.877 225.946H389.212C389.413 225.946 389.606 226.024 389.749 226.165C389.893 226.306 389.976 226.497 389.98 226.698V236.239C389.976 236.44 389.893 236.631 389.749 236.771C389.606 236.912 389.413 236.991 389.212 236.991ZM317.679 235.47H388.476V227.466H317.679V235.47Z" fill="#00194C"/>
<path d="M212.895 226.313L399.755 226.313V210.406L212.895 210.406V226.313Z" fill="white"/>
<path d="M399.755 227.082H212.895C212.795 227.082 212.696 227.062 212.603 227.023C212.511 226.984 212.427 226.928 212.357 226.856C212.287 226.784 212.232 226.699 212.195 226.606C212.159 226.513 212.141 226.414 212.143 226.313V210.423C212.141 210.323 212.159 210.223 212.195 210.13C212.232 210.037 212.287 209.952 212.357 209.88C212.427 209.809 212.511 209.752 212.603 209.713C212.696 209.674 212.795 209.654 212.895 209.654H399.755C399.959 209.654 400.155 209.735 400.299 209.879C400.443 210.024 400.524 210.219 400.524 210.423V226.313C400.524 226.517 400.443 226.713 400.299 226.857C400.155 227.001 399.959 227.082 399.755 227.082ZM213.664 225.562H399.003V211.175H213.664V225.562Z" fill="#00194C"/>
<path d="M21.4059 226.313L225.961 226.313V210.406L21.4059 210.406V226.313Z" fill="white"/>
<path d="M225.962 227.082H21.3893C21.2891 227.082 21.19 227.062 21.0976 227.023C21.0053 226.984 20.9217 226.928 20.8516 226.856C20.7816 226.784 20.7265 226.699 20.6897 226.606C20.653 226.513 20.6352 226.414 20.6374 226.313V210.423C20.6352 210.323 20.653 210.223 20.6897 210.13C20.7265 210.037 20.7816 209.952 20.8516 209.88C20.9217 209.809 21.0053 209.752 21.0976 209.713C21.19 209.674 21.2891 209.654 21.3893 209.654H225.962C226.165 209.654 226.361 209.735 226.505 209.879C226.649 210.024 226.73 210.219 226.73 210.423V226.313C226.73 226.517 226.649 226.713 226.505 226.857C226.361 227.001 226.165 227.082 225.962 227.082ZM22.1078 225.562H225.193V211.175H22.1579L22.1078 225.562Z" fill="#00194C"/>
<path d="M393.74 118.989L397.549 103.182L452.256 93.6247L453.676 112.69L393.74 118.989Z" fill="white"/>
<path d="M393.74 119.825C393.613 119.823 393.489 119.793 393.376 119.737C393.262 119.681 393.163 119.6 393.085 119.501C393.006 119.402 392.951 119.287 392.923 119.164C392.894 119.04 392.894 118.912 392.921 118.789L396.731 102.982C396.768 102.822 396.851 102.677 396.969 102.564C397.088 102.451 397.238 102.376 397.399 102.347L452.122 92.806C452.236 92.7881 452.353 92.7938 452.465 92.8225C452.577 92.8512 452.682 92.9024 452.774 92.9731C452.865 93.0468 452.939 93.1381 452.994 93.2415C453.048 93.3448 453.082 93.4581 453.091 93.5746L454.512 112.623C454.526 112.841 454.456 113.057 454.316 113.225C454.176 113.393 453.977 113.5 453.76 113.526L393.823 119.808L393.74 119.825ZM398.218 103.918L394.876 118.037L452.824 111.955L451.537 94.6273L398.218 103.918Z" fill="#00194C"/>
<path d="M495.7 123.969C495.7 123.969 471.037 100.893 422.313 107.427C373.588 113.96 378.167 137.503 374.658 160.646C371.149 183.788 374.658 267.669 374.658 267.669C374.658 267.669 309.859 256.674 302.808 267.669C295.756 278.664 301.671 308.323 301.671 308.323H376.663L481.146 299.784L495.7 123.969Z" fill="#0055FF"/>
<path d="M406.806 282.707C406.806 282.707 421.11 122.298 442.999 104.185C464.888 86.0721 524.874 92.4885 533.229 114.211C541.584 135.933 504.105 275.272 495.8 294.103C487.496 312.935 484.104 312.066 444.569 312.066C419.506 312.066 326.585 318.85 319.801 306.034C313.017 293.218 334.472 281.237 406.806 282.707Z" fill="#00194C"/>
<path d="M372.602 314.639C344.197 314.639 322.475 312.818 319.049 306.451C318.207 305.064 317.762 303.471 317.762 301.848C317.762 300.224 318.207 298.632 319.049 297.244C325.733 286.434 356.612 281.02 406.055 282.006C407.241 269.089 421.093 121.262 442.431 103.617C457.085 91.4859 486.727 90.6838 507.163 96.0809C521.349 99.8238 530.79 106.107 533.747 114.01C542.336 136.651 504.239 276.458 496.318 294.471C488.198 312.851 484.538 312.851 449.415 312.851H444.402C439.206 312.851 430.935 313.152 421.344 313.503C404.467 314.121 387.607 314.639 372.602 314.639ZM395.327 283.359C353.236 283.359 326.167 288.606 320.369 298.013C319.651 299.178 319.27 300.521 319.27 301.89C319.27 303.259 319.651 304.601 320.369 305.766C325.532 315.491 387.875 313.252 421.377 312.049C430.968 311.698 439.256 311.397 444.486 311.397H449.499C484.438 311.397 487.329 311.397 495.048 293.869C503.57 274.503 540.498 135.749 532.461 114.528C529.67 107.176 520.58 101.161 506.879 97.5012C479.96 90.3831 454.111 95.9305 443.383 104.753C422.012 122.432 407.625 281.22 407.492 282.808C407.472 282.991 407.386 283.161 407.251 283.287C407.116 283.413 406.941 283.486 406.756 283.493C402.835 283.415 399.026 283.37 395.327 283.359Z" fill="#00194C"/>
<path d="M365.534 242.605C355.509 243.958 344.798 246.916 338.682 254.97C331.096 264.995 333.168 279.015 335.591 291.329C340.326 291.775 344.996 292.756 349.51 294.253C346.777 287.126 346.094 279.375 347.538 271.88C347.966 268.355 349.616 265.091 352.2 262.656C354.817 260.884 357.867 259.856 361.023 259.682C381.074 256.958 399.254 259.999 418.937 262.506C422.112 250.976 417.784 244.577 406.823 243.006C393.145 240.968 379.25 240.833 365.534 242.605Z" fill="#00194C"/>
<path d="M349.51 294.905H349.276C344.817 293.421 340.204 292.451 335.524 292.015C335.367 292 335.219 291.935 335.102 291.83C334.985 291.724 334.904 291.584 334.873 291.43C332.4 278.881 330.395 264.695 338.098 254.485C344.882 245.529 356.946 242.973 365.434 241.82C379.217 240.05 393.179 240.191 406.923 242.237C412.588 243.039 416.548 245.128 418.72 248.437C420.892 251.745 421.277 256.641 419.606 262.656C419.553 262.823 419.445 262.968 419.299 263.065C419.153 263.162 418.978 263.207 418.804 263.191L412.571 262.372C395.244 260.1 378.885 257.944 361.09 260.367C358.069 260.52 355.147 261.491 352.635 263.174C350.479 264.845 349.042 267.786 348.224 271.98C346.828 279.337 347.498 286.937 350.162 293.936C350.214 294.065 350.227 294.206 350.201 294.343C350.174 294.479 350.108 294.605 350.011 294.705C349.875 294.831 349.696 294.903 349.51 294.905ZM336.143 290.578C340.245 290.997 344.296 291.814 348.24 293.017C345.91 286.147 345.392 278.792 346.736 271.663C347.622 267.118 349.243 263.96 351.666 262.005C354.392 260.152 357.566 259.067 360.856 258.863C378.835 256.424 395.294 258.579 412.655 260.885L418.252 261.604C419.606 256.357 419.305 252.179 417.35 249.222C415.395 246.264 411.802 244.41 406.589 243.658C392.978 241.625 379.15 241.49 365.501 243.257C357.28 244.36 345.6 246.832 339.134 255.338C332.049 264.862 333.837 278.463 336.21 290.578H336.143Z" fill="#00194C"/>
<path d="M400.022 279.365C399.912 279.391 399.798 279.391 399.688 279.365L374.323 268.488C374.128 268.396 373.976 268.232 373.899 268.03C373.822 267.828 373.826 267.604 373.91 267.406C373.994 267.207 374.152 267.048 374.351 266.963C374.549 266.879 374.773 266.874 374.975 266.95L400.34 277.845C400.442 277.885 400.535 277.946 400.613 278.022C400.691 278.099 400.753 278.191 400.795 278.292C400.838 278.394 400.859 278.502 400.858 278.612C400.857 278.722 400.834 278.83 400.791 278.931C400.716 279.068 400.605 279.181 400.469 279.258C400.333 279.335 400.178 279.372 400.022 279.365Z" fill="#00194C"/>
<path d="M212.895 313.937H316.877V226.33H212.895V313.937Z" fill="white"/>
<path d="M316.877 314.689H212.895C212.795 314.689 212.696 314.669 212.603 314.63C212.511 314.591 212.427 314.535 212.357 314.463C212.287 314.391 212.232 314.306 212.195 314.213C212.159 314.12 212.141 314.021 212.143 313.92V226.313C212.143 226.114 212.222 225.923 212.363 225.782C212.504 225.641 212.695 225.562 212.895 225.562H316.877C317.078 225.561 317.271 225.64 317.415 225.781C317.558 225.921 317.641 226.112 317.646 226.313V313.92C317.646 314.124 317.565 314.32 317.42 314.464C317.276 314.608 317.081 314.689 316.877 314.689ZM213.664 313.168H316.108V227.082H213.664V313.168Z" fill="#00194C"/>
<path d="M30.3288 313.937H212.895V226.33L30.3288 226.33V313.937Z" fill="white"/>
<path d="M212.895 314.689H30.2787C30.1771 314.691 30.0761 314.673 29.9818 314.635C29.8875 314.597 29.8019 314.541 29.7301 314.469C29.6582 314.397 29.6017 314.311 29.5639 314.217C29.5261 314.123 29.5077 314.022 29.51 313.92V226.313C29.51 226.213 29.53 226.114 29.5688 226.022C29.6076 225.929 29.6645 225.846 29.7361 225.776C29.8077 225.706 29.8926 225.651 29.9858 225.614C30.0789 225.577 30.1785 225.559 30.2787 225.561H212.895C213.096 225.561 213.289 225.64 213.432 225.781C213.576 225.921 213.659 226.112 213.663 226.313V313.92C213.663 314.124 213.582 314.32 213.438 314.464C213.294 314.608 213.099 314.689 212.895 314.689ZM31.0974 313.168H212.143V227.082H31.0974V313.168Z" fill="#00194C"/>
<path d="M306.333 302.073H225.059C224.838 302.073 224.625 301.985 224.468 301.829C224.312 301.672 224.224 301.46 224.224 301.238V239.046C224.224 238.824 224.312 238.612 224.468 238.455C224.625 238.298 224.838 238.21 225.059 238.21H306.333C306.554 238.215 306.764 238.304 306.919 238.46C307.075 238.616 307.165 238.826 307.169 239.046V301.238C307.169 301.46 307.081 301.672 306.924 301.829C306.767 301.985 306.555 302.073 306.333 302.073ZM225.895 300.402H305.498V239.881H225.895V300.402Z" fill="#D1D3D4"/>
<path d="M265.362 260.233C264.096 260.237 262.857 259.864 261.802 259.163C260.748 258.462 259.925 257.463 259.438 256.294C258.951 255.125 258.822 253.838 259.067 252.595C259.312 251.353 259.92 250.211 260.814 249.314C261.709 248.418 262.849 247.806 264.091 247.558C265.333 247.31 266.62 247.436 267.791 247.919C268.961 248.403 269.961 249.224 270.665 250.276C271.369 251.329 271.745 252.567 271.745 253.834C271.741 255.527 271.067 257.149 269.872 258.348C268.676 259.547 267.055 260.224 265.362 260.233ZM265.362 249.122C264.426 249.118 263.509 249.393 262.729 249.912C261.949 250.43 261.34 251.168 260.98 252.033C260.62 252.898 260.525 253.85 260.707 254.769C260.889 255.688 261.339 256.532 262.002 257.194C262.664 257.856 263.508 258.307 264.427 258.489C265.346 258.671 266.298 258.576 267.163 258.216C268.028 257.856 268.766 257.247 269.284 256.467C269.803 255.687 270.078 254.77 270.074 253.834C270.07 252.585 269.572 251.389 268.689 250.507C267.807 249.624 266.611 249.126 265.362 249.122Z" fill="#D1D3D4"/>
<path d="M255.554 172.76C256.489 175.784 257.542 178.759 258.762 181.666C255.119 178.604 251.291 175.77 247.299 173.178C246.59 172.593 245.694 172.285 244.776 172.309C244.257 172.462 243.78 172.733 243.383 173.101C242.985 173.47 242.679 173.925 242.487 174.431C239.045 181.115 240.699 189.603 244.86 195.919C251.543 205.945 262.989 214.667 275.371 213.982C276.175 213.997 276.967 213.789 277.66 213.38C278.164 212.951 278.574 212.422 278.863 211.826C280.957 208.084 282.879 204.257 284.628 200.347C285.008 199.734 285.14 198.999 284.995 198.292C284.699 197.683 284.204 197.194 283.592 196.905C274.736 191.324 269.823 183.153 264.025 174.882C262.856 173.211 260.182 167.162 257.659 167.263C254.835 167.413 254.902 170.638 255.554 172.76Z" fill="white"/>
<path d="M274.017 214.784C261.101 214.784 249.989 204.976 244.258 196.404C239.546 189.252 238.594 180.513 241.852 174.147C242.079 173.53 242.454 172.977 242.943 172.538C243.432 172.098 244.021 171.784 244.659 171.624C245.765 171.564 246.854 171.916 247.717 172.61C250.892 174.665 253.983 176.904 256.957 179.293C256.172 177.238 255.47 175.149 254.835 173.077C254.522 172.232 254.387 171.331 254.438 170.431C254.49 169.531 254.728 168.651 255.136 167.847C255.426 167.452 255.806 167.13 256.245 166.909C256.683 166.689 257.168 166.575 257.659 166.578C260.015 166.578 262.171 170.187 263.708 172.894C264.008 173.467 264.337 174.025 264.694 174.565L266.799 177.622C271.812 184.791 276.407 191.558 284.026 196.37C284.441 196.53 284.813 196.783 285.116 197.109C285.418 197.434 285.642 197.825 285.771 198.25C285.9 198.675 285.93 199.124 285.859 199.563C285.789 200.001 285.619 200.418 285.363 200.782C283.692 204.692 281.654 208.568 279.565 212.311C279.225 213.011 278.734 213.627 278.128 214.116C277.321 214.615 276.387 214.871 275.438 214.851C274.97 214.767 274.485 214.784 274.017 214.784ZM245.077 173.011H244.893C244.292 173.094 243.74 173.662 243.222 174.682C240.215 180.563 241.134 188.701 245.562 195.384C251.259 204.023 262.505 213.765 275.371 213.113C276.032 213.135 276.685 212.973 277.259 212.645C277.678 212.287 278.014 211.842 278.245 211.342C280.317 207.649 282.238 203.806 283.993 199.946C284.263 199.494 284.38 198.966 284.327 198.442C284.193 198.041 283.675 197.724 283.224 197.44C275.338 192.427 270.592 185.576 265.563 178.274L263.457 175.216C263.173 174.832 262.822 174.197 262.405 173.545C261.285 171.59 259.297 167.948 257.743 167.998C257.486 167.994 257.232 168.049 257 168.159C256.768 168.269 256.565 168.431 256.406 168.633C256.13 169.242 255.979 169.901 255.962 170.569C255.945 171.238 256.062 171.903 256.306 172.526C257.208 175.5 258.277 178.475 259.48 181.365C259.542 181.524 259.549 181.699 259.501 181.862C259.453 182.025 259.351 182.168 259.213 182.268C259.081 182.376 258.916 182.436 258.745 182.436C258.574 182.436 258.409 182.376 258.277 182.268C254.667 179.242 250.866 176.452 246.898 173.913C246.381 173.467 245.751 173.172 245.077 173.061V173.011Z" fill="#00194C"/>
<path d="M417.935 126.024C417.935 126.024 407.909 228.536 373.522 227.951C339.134 227.366 266.582 216.605 266.582 215.101C266.582 213.598 275.521 186.696 275.521 186.696C275.521 186.696 352.635 194.733 360.171 182.669C367.707 170.605 379.386 132.641 379.386 132.641" fill="#0055FF"/>
<path d="M376.161 227.567C347.405 227.567 295.706 220.883 292.849 220.515C292.63 220.486 292.431 220.371 292.296 220.196C292.161 220.021 292.102 219.799 292.13 219.58C292.16 219.359 292.274 219.159 292.449 219.022C292.623 218.884 292.845 218.821 293.066 218.844C324.496 222.955 385.903 229.271 393.222 223.857C402.412 217.09 416.882 157.137 417.016 156.519C417.075 156.305 417.213 156.122 417.403 156.007C417.592 155.892 417.818 155.854 418.035 155.9C418.249 155.959 418.432 156.098 418.547 156.287C418.661 156.477 418.7 156.703 418.653 156.92C418.052 159.409 403.899 218.076 394.224 225.211C391.918 226.848 385.168 227.567 376.161 227.567Z" fill="#00194C"/>
<path d="M426.423 285.13H426.289C426.182 285.108 426.081 285.065 425.99 285.004C425.9 284.942 425.823 284.863 425.764 284.771C425.705 284.679 425.665 284.576 425.646 284.469C425.627 284.361 425.63 284.251 425.654 284.144C437.752 229.271 460.31 123.735 459.19 117.051C457.352 106.056 446.775 107.627 446.324 107.694C446.102 107.729 445.876 107.675 445.694 107.544C445.512 107.412 445.39 107.214 445.355 106.992C445.319 106.771 445.373 106.544 445.505 106.362C445.637 106.18 445.835 106.058 446.057 106.023C446.19 106.023 458.706 104.101 460.828 116.75C462.298 125.423 428.712 278.012 427.292 284.495C427.242 284.685 427.129 284.852 426.97 284.967C426.812 285.083 426.619 285.14 426.423 285.13Z" fill="white"/>
</svg>
