<svg width="535" height="341" viewBox="0 0 535 341" fill="none" xmlns="http://www.w3.org/2000/svg">
<path d="M345.303 116.2C345.303 116.2 346.042 104.432 340.342 101.652C334.643 98.8729 312.62 93.6837 312.62 105.047C312.62 116.411 326.692 127.088 329.172 128.583C331.652 130.079 343.35 164.89 343.35 164.89L369.279 135.549L345.303 116.2Z" fill="white"/>
<path d="M343.35 165.787H343.174C343.021 165.76 342.878 165.691 342.76 165.589C342.642 165.487 342.554 165.354 342.506 165.206C337 148.777 330.298 130.623 328.697 129.357C325.936 127.721 311.74 116.832 311.74 105.082C311.683 103.866 311.957 102.658 312.534 101.586C313.11 100.514 313.966 99.6185 315.012 98.9954C321.661 94.844 336.296 98.7139 340.729 100.895C346.288 103.604 346.288 113.525 346.2 115.83L369.842 134.863C370.024 135.018 370.137 135.239 370.158 135.478C370.168 135.595 370.155 135.713 370.119 135.825C370.082 135.937 370.024 136.04 369.947 136.129L344.001 165.453C343.925 165.553 343.826 165.636 343.714 165.694C343.601 165.752 343.477 165.783 343.35 165.787ZM323.209 98.9426C320.692 98.7986 318.183 99.3332 315.944 100.491C315.154 100.957 314.508 101.633 314.077 102.443C313.646 103.253 313.446 104.166 313.499 105.082C313.499 115.865 327.114 126.366 329.63 127.949C332.145 129.533 340.465 153.737 343.702 163.289L368.03 135.742L344.757 116.903C344.645 116.816 344.556 116.704 344.498 116.575C344.44 116.446 344.414 116.305 344.423 116.164C344.423 116.041 345.057 104.941 339.973 102.461C334.658 100.237 328.97 99.0371 323.209 98.925V98.9426Z" fill="#00194C"/>
<path d="M21.0559 257.927H117.065V241.99H21.0559V257.927Z" fill="white"/>
<path d="M117.048 258.806H21.0383C20.8051 258.806 20.5814 258.714 20.4164 258.549C20.2515 258.384 20.1588 258.16 20.1588 257.927V242.095C20.1588 241.862 20.2515 241.638 20.4164 241.473C20.5814 241.308 20.8051 241.216 21.0383 241.216H117.048C117.281 241.216 117.505 241.308 117.67 241.473C117.835 241.638 117.927 241.862 117.927 242.095V257.927C117.927 258.16 117.835 258.384 117.67 258.549C117.505 258.714 117.281 258.806 117.048 258.806ZM21.9179 257.047H116.256V242.975H21.9179V257.047Z" fill="#D1D3D4"/>
<path d="M61.8132 257.927H117.048V241.99H61.8132V257.927Z" fill="#D1D3D4"/>
<path d="M117.048 258.806H61.8133C61.58 258.806 61.3563 258.714 61.1914 258.549C61.0264 258.384 60.9338 258.16 60.9338 257.927V242.095C60.9338 241.862 61.0264 241.638 61.1914 241.473C61.3563 241.308 61.58 241.216 61.8133 241.216H117.048C117.281 241.216 117.505 241.308 117.67 241.473C117.835 241.638 117.927 241.862 117.927 242.095V257.927C117.927 258.16 117.835 258.384 117.67 258.549C117.505 258.714 117.281 258.806 117.048 258.806ZM62.6928 257.047H116.256V242.975H62.6928V257.047Z" fill="#D1D3D4"/>
<path d="M9.04153 241.392H105.051V225.455H9.04153V241.392Z" fill="white"/>
<path d="M105.069 242.271H9.05922C8.82595 242.271 8.60224 242.179 8.43729 242.014C8.27235 241.849 8.17969 241.625 8.17969 241.392V225.455C8.17969 225.221 8.27235 224.998 8.43729 224.833C8.60224 224.668 8.82595 224.575 9.05922 224.575H105.069C105.302 224.575 105.526 224.668 105.69 224.833C105.855 224.998 105.948 225.221 105.948 225.455V241.392C105.944 241.624 105.849 241.845 105.685 242.009C105.521 242.173 105.3 242.267 105.069 242.271ZM9.93874 240.512H104.189V226.334H9.93874V240.512Z" fill="#D1D3D4"/>
<path d="M49.834 241.392H105.068V225.455H49.834V241.392Z" fill="#D1D3D4"/>
<path d="M105.068 242.271H49.8165C49.5846 242.267 49.3635 242.173 49.1995 242.009C49.0356 241.845 48.9415 241.624 48.937 241.392V225.455C48.937 225.221 49.0296 224.998 49.1946 224.833C49.3595 224.668 49.5832 224.575 49.8165 224.575H105.068C105.302 224.575 105.525 224.668 105.69 224.833C105.855 224.998 105.948 225.221 105.948 225.455V241.392C105.943 241.624 105.849 241.845 105.685 242.009C105.521 242.173 105.3 242.267 105.068 242.271ZM50.696 240.512H104.189V226.334H50.696V240.512Z" fill="#D1D3D4"/>
<path d="M21.0559 224.856H117.065V208.919H21.0559V224.856Z" fill="white"/>
<path d="M117.048 225.718H21.0383C20.8051 225.718 20.5814 225.626 20.4164 225.461C20.2515 225.296 20.1588 225.072 20.1588 224.839V208.902C20.1633 208.67 20.2574 208.449 20.4214 208.285C20.5854 208.121 20.8065 208.027 21.0383 208.022H117.048C117.281 208.022 117.505 208.115 117.67 208.28C117.835 208.445 117.927 208.668 117.927 208.902V224.839C117.927 225.072 117.835 225.296 117.67 225.461C117.505 225.626 117.281 225.718 117.048 225.718ZM21.9179 223.959H116.256V209.781H21.9179V223.959Z" fill="#D1D3D4"/>
<path d="M61.8132 224.856H117.048V208.919H61.8132V224.856Z" fill="#D1D3D4"/>
<path d="M117.048 225.718H61.8133C61.58 225.718 61.3563 225.626 61.1914 225.461C61.0264 225.296 60.9338 225.072 60.9338 224.839V208.902C60.9338 208.668 61.0264 208.445 61.1914 208.28C61.3563 208.115 61.58 208.022 61.8133 208.022H117.048C117.281 208.022 117.505 208.115 117.67 208.28C117.835 208.445 117.927 208.668 117.927 208.902V224.839C117.927 225.072 117.835 225.296 117.67 225.461C117.505 225.626 117.281 225.718 117.048 225.718ZM62.6928 223.959H116.256V209.781H62.6928V223.959Z" fill="#D1D3D4"/>
<path d="M216.03 339.811H348.416V277.417H216.03V339.811Z" fill="#00194C"/>
<path d="M348.452 340.69H216.03C215.797 340.69 215.573 340.597 215.408 340.433C215.243 340.268 215.15 340.044 215.15 339.811V277.434C215.15 277.201 215.243 276.977 215.408 276.813C215.573 276.648 215.797 276.555 216.03 276.555H348.452C348.685 276.555 348.909 276.648 349.074 276.813C349.238 276.977 349.331 277.201 349.331 277.434V339.811C349.331 340.044 349.238 340.268 349.074 340.433C348.909 340.597 348.685 340.69 348.452 340.69ZM216.945 338.931H347.572V278.314H216.909L216.945 338.931Z" fill="#00194C"/>
<path d="M7.01855 277.435L384.794 277.435C388.174 277.435 390.915 274.694 390.915 271.313V264.259C390.915 260.878 388.174 258.138 384.794 258.138L7.01855 258.138C3.63773 258.138 0.897064 260.878 0.897064 264.259V271.313C0.897064 274.694 3.63773 277.435 7.01855 277.435Z" fill="white"/>
<path d="M384.794 278.314H7.03623C5.1701 278.314 3.38041 277.573 2.06086 276.253C0.741316 274.934 0 273.144 0 271.278V264.242C0 262.375 0.741316 260.586 2.06086 259.266C3.38041 257.947 5.1701 257.205 7.03623 257.205H384.794C386.66 257.205 388.449 257.947 389.769 259.266C391.089 260.586 391.83 262.375 391.83 264.242V271.278C391.83 273.144 391.089 274.934 389.769 276.253C388.449 277.573 386.66 278.314 384.794 278.314ZM7.03623 258.964C5.63663 258.964 4.29437 259.52 3.30471 260.51C2.31505 261.5 1.75906 262.842 1.75906 264.242V271.278C1.75906 272.677 2.31505 274.02 3.30471 275.009C4.29437 275.999 5.63663 276.555 7.03623 276.555H384.794C386.193 276.555 387.536 275.999 388.525 275.009C389.515 274.02 390.071 272.677 390.071 271.278V264.242C390.071 262.842 389.515 261.5 388.525 260.51C387.536 259.52 386.193 258.964 384.794 258.964H7.03623Z" fill="#00194C"/>
<path d="M5.20673 277.435H224.28C226.65 277.435 228.572 275.513 228.572 273.142V262.43C228.572 260.059 226.65 258.138 224.28 258.138H5.20673C2.83626 258.138 0.914612 260.059 0.914612 262.43V273.142C0.914612 275.513 2.83626 277.435 5.20673 277.435Z" fill="white"/>
<path d="M224.28 278.314H5.20684C3.83524 278.314 2.51982 277.77 1.54995 276.8C0.580085 275.83 0.0352173 274.514 0.0352173 273.143V262.43C0.0352173 261.059 0.580085 259.743 1.54995 258.773C2.51982 257.803 3.83524 257.259 5.20684 257.259H224.28C225.651 257.259 226.967 257.803 227.937 258.773C228.907 259.743 229.451 261.059 229.451 262.43V273.143C229.451 274.514 228.907 275.83 227.937 276.8C226.967 277.77 225.651 278.314 224.28 278.314ZM5.20684 258.965C4.30177 258.965 3.43378 259.324 2.7938 259.964C2.15381 260.604 1.79427 261.472 1.79427 262.377V273.09C1.79427 273.995 2.15381 274.863 2.7938 275.503C3.43378 276.143 4.30177 276.503 5.20684 276.503H224.28C225.185 276.503 226.053 276.143 226.693 275.503C227.333 274.863 227.692 273.995 227.692 273.09V262.377C227.692 261.472 227.333 260.604 226.693 259.964C226.053 259.324 225.185 258.965 224.28 258.965H5.20684Z" fill="#00194C"/>
<path d="M193.655 177.397C193.655 177.397 188.377 232.015 200.128 239.421C211.087 246.281 223.242 244.276 230.032 244.276C232.533 244.157 235.007 244.843 237.09 246.233C239.173 247.622 240.756 249.643 241.606 251.998L243.365 257.926H158.931C152.591 253.755 147.251 248.235 143.293 241.761C137.629 231.787 141.147 179.947 141.147 179.947L193.655 177.397Z" fill="white"/>
<path d="M243.313 258.806H158.878C158.735 258.8 158.596 258.758 158.473 258.683C151.995 254.443 146.549 248.805 142.536 242.183C136.802 232.104 140.109 182.023 140.267 179.895C140.283 179.681 140.376 179.48 140.527 179.328C140.679 179.177 140.88 179.084 141.094 179.068L193.567 176.517C193.695 176.509 193.823 176.53 193.942 176.579C194.061 176.628 194.167 176.703 194.253 176.799C194.341 176.888 194.408 176.996 194.448 177.115C194.488 177.234 194.499 177.361 194.481 177.485C194.481 177.626 193.162 191.276 193.303 205.63C193.496 224.399 195.994 235.815 200.568 238.683C209.468 244.241 219.09 243.819 226.127 243.52C227.534 243.52 228.818 243.397 229.961 243.397C232.647 243.286 235.297 244.035 237.528 245.535C239.758 247.034 241.452 249.206 242.363 251.735L244.122 257.68C244.164 257.81 244.175 257.948 244.153 258.082C244.132 258.217 244.079 258.344 243.999 258.454C243.918 258.56 243.814 258.647 243.695 258.708C243.577 258.769 243.446 258.802 243.313 258.806ZM159.177 257.047H242.117L240.674 252.245C239.861 250.087 238.384 248.243 236.456 246.978C234.527 245.714 232.247 245.094 229.944 245.209C228.818 245.209 227.552 245.209 226.179 245.332C219.319 245.631 208.976 246.088 199.618 240.213C188.237 233.089 191.931 186.139 192.582 178.382L141.903 180.845C141.498 187.353 138.895 232.403 143.996 241.374C147.855 247.641 153.036 252.99 159.177 257.047Z" fill="#00194C"/>
<path d="M145.157 229.36C145.157 242.834 149.203 246.95 154.603 246.95H175.712C177.169 246.95 178.591 247.397 179.787 248.231C180.982 249.064 181.893 250.244 182.397 251.612L184.736 257.997H152.176C143.82 257.997 137.892 245.332 137.611 231.857C137.33 218.383 137.611 180.018 137.611 180.018H144.893C144.893 180.018 145.157 215.868 145.157 229.36Z" fill="#00194C"/>
<path d="M184.859 258.806H152.176C142.853 258.806 136.995 245.086 136.731 231.805C136.468 218.524 136.731 180.335 136.731 179.948C136.736 179.716 136.83 179.495 136.994 179.331C137.158 179.167 137.379 179.073 137.611 179.068H144.893C145.127 179.068 145.35 179.161 145.515 179.326C145.68 179.491 145.773 179.714 145.773 179.948C145.773 180.299 146.037 216.026 146.037 229.36C146.037 246 152.493 246 154.603 246H175.712C177.353 246.008 178.952 246.518 180.295 247.461C181.638 248.405 182.66 249.736 183.223 251.277L185.563 257.663C185.608 257.797 185.622 257.939 185.603 258.079C185.585 258.22 185.535 258.354 185.457 258.472C185.386 258.566 185.296 258.644 185.193 258.701C185.09 258.759 184.977 258.794 184.859 258.806ZM138.543 180.827C138.543 186.632 138.297 219.526 138.543 231.84C138.825 245.772 144.964 257.117 152.229 257.117H183.593L181.693 251.928C181.249 250.73 180.451 249.696 179.404 248.964C178.358 248.232 177.113 247.836 175.835 247.83H154.727C147.69 247.83 144.401 241.814 144.401 229.43C144.401 217.046 144.19 186.491 144.155 180.898L138.543 180.827Z" fill="#00194C"/>
<path d="M259.092 28.6508L271.862 174.653C272.074 176.28 271.938 177.934 271.462 179.504C270.986 181.075 270.182 182.526 269.102 183.762C268.022 184.998 266.692 185.991 265.2 186.673C263.708 187.356 262.087 187.714 260.446 187.722H86.3521C82.8673 187.589 79.5511 186.187 77.0275 183.78C74.5039 181.373 72.9468 178.127 72.6491 174.653L59.8783 28.6508C59.6661 27.0243 59.8025 25.3713 60.2786 23.8016C60.7546 22.2319 61.5593 20.7815 62.6392 19.5469C63.7191 18.3122 65.0495 17.3216 66.5418 16.6408C68.0342 15.9601 69.6543 15.6048 71.2946 15.5986H245.441C248.916 15.7364 252.222 17.1389 254.735 19.5425C257.249 21.9461 258.798 25.1852 259.092 28.6508Z" fill="#00194C"/>
<path d="M260.499 188.62H86.3522C82.6469 188.484 79.1193 186.998 76.4335 184.441C73.7477 181.885 72.0889 178.435 71.7696 174.741L58.9988 28.7396C58.8043 26.9212 58.9952 25.0822 59.5589 23.3425C60.1226 21.6028 61.0466 20.0013 62.2707 18.6426C63.4142 17.3906 64.809 16.3941 66.364 15.7182C67.919 15.0422 69.5992 14.702 71.2946 14.7199H245.441C249.145 14.8521 252.672 16.3346 255.359 18.8879C258.045 21.4412 259.704 24.889 260.024 28.5813L272.795 174.583C272.985 176.401 272.792 178.239 272.228 179.978C271.665 181.717 270.743 183.319 269.523 184.68C268.377 185.931 266.983 186.928 265.428 187.606C263.874 188.285 262.195 188.63 260.499 188.62ZM71.277 16.479C69.8153 16.4505 68.3642 16.7339 67.0205 17.3102C65.6768 17.8865 64.4713 18.7425 63.4844 19.8212C62.4227 21.0071 61.6219 22.4028 61.1341 23.918C60.6462 25.4331 60.4821 27.0338 60.6523 28.6165L73.4407 174.618C73.7008 177.884 75.1499 180.942 77.5132 183.211C79.8766 185.48 82.9902 186.804 86.2642 186.932H260.411C261.861 186.943 263.298 186.65 264.629 186.072C265.959 185.493 267.153 184.641 268.133 183.572C269.195 182.386 269.996 180.99 270.483 179.475C270.971 177.96 271.135 176.359 270.965 174.776L258.177 28.7748C257.92 25.5072 256.473 22.4477 254.108 20.1776C251.744 17.9075 248.629 16.585 245.353 16.4614L71.277 16.479Z" fill="#00194C"/>
<path d="M259.672 28.0703L271.88 167.476C272.079 169.03 271.946 170.61 271.489 172.109C271.032 173.609 270.261 174.994 269.228 176.173C268.196 177.352 266.924 178.299 265.498 178.949C264.072 179.6 262.524 179.94 260.956 179.947H94.7252C91.3981 179.822 88.2313 178.485 85.821 176.189C83.4107 173.892 81.923 170.793 81.6378 167.476L69.43 28.0703C69.2277 26.515 69.3589 24.9345 69.8149 23.4338C70.2709 21.9331 71.0412 20.5467 72.0746 19.3669C73.108 18.1871 74.3808 17.2408 75.8083 16.5911C77.2358 15.9413 78.7853 15.603 80.3537 15.5986H246.585C249.913 15.7199 253.082 17.0555 255.493 19.3532C257.904 21.6508 259.391 24.7517 259.672 28.0703Z" fill="white"/>
<path d="M260.956 180.827H94.7252C91.1792 180.703 87.8012 179.286 85.2283 176.843C82.6554 174.399 81.0654 171.099 80.7583 167.564L68.568 28.1413C68.3822 26.3993 68.5649 24.6376 69.1044 22.9708C69.6438 21.304 70.5279 19.7693 71.6992 18.4665C72.8 17.2721 74.1389 16.3216 75.6295 15.6763C77.1201 15.0309 78.7294 14.7051 80.3537 14.7197H246.585C250.121 14.8564 253.487 16.2794 256.048 18.7215C258.61 21.1636 260.193 24.4568 260.499 27.983L272.812 167.406C272.998 169.148 272.815 170.91 272.276 172.576C271.736 174.243 270.852 175.778 269.681 177.081C268.572 178.283 267.221 179.238 265.718 179.884C264.214 180.529 262.592 180.851 260.956 180.827ZM80.3537 16.4788C78.9731 16.4625 77.6046 16.7376 76.3376 17.2863C75.0706 17.8349 73.9336 18.6447 73.0009 19.6627C71.9942 20.7835 71.2344 22.1033 70.7707 23.5367C70.3071 24.9701 70.1499 26.485 70.3095 27.983L82.5174 167.406C82.7772 170.505 84.1621 173.402 86.411 175.551C88.6599 177.699 91.6173 178.95 94.7252 179.068H260.956C262.337 179.085 263.705 178.81 264.972 178.261C266.239 177.712 267.376 176.902 268.309 175.884C269.32 174.765 270.087 173.447 270.559 172.014C271.032 170.581 271.2 169.066 271.053 167.564L258.74 28.1413C258.48 25.042 257.095 22.1449 254.846 19.9964C252.597 17.848 249.64 16.5968 246.532 16.4788H80.3537Z" fill="#00194C"/>
<path d="M269.822 144.063L271.88 167.476C272.079 169.031 271.946 170.611 271.489 172.11C271.032 173.609 270.261 174.995 269.228 176.174C268.196 177.353 266.924 178.299 265.498 178.95C264.072 179.601 262.524 179.941 260.956 179.948H94.7252C91.398 179.823 88.2313 178.486 85.821 176.189C83.4106 173.892 81.9229 170.794 81.6378 167.476L79.5797 144.063H269.822Z" fill="white"/>
<path d="M260.956 180.827H94.7252C91.1792 180.703 87.8012 179.286 85.2283 176.843C82.6554 174.399 81.0654 171.099 80.7583 167.564L78.7178 144.151C78.7016 144.03 78.7137 143.906 78.7534 143.79C78.7931 143.674 78.8592 143.569 78.9465 143.483C79.0229 143.389 79.1195 143.313 79.2291 143.261C79.3387 143.209 79.4585 143.183 79.5797 143.184H269.822C270.043 143.183 270.257 143.266 270.42 143.416C270.583 143.566 270.684 143.772 270.701 143.993L272.812 167.406C272.998 169.148 272.815 170.91 272.276 172.576C271.736 174.243 270.852 175.778 269.681 177.081C268.572 178.283 267.221 179.238 265.718 179.884C264.214 180.529 262.592 180.851 260.956 180.827ZM80.5472 144.943L82.5174 167.406C82.7772 170.505 84.1621 173.402 86.411 175.551C88.6599 177.699 91.6173 178.95 94.7252 179.068H260.956C262.337 179.085 263.705 178.81 264.972 178.261C266.239 177.712 267.376 176.902 268.309 175.884C269.32 174.765 270.087 173.447 270.559 172.014C271.032 170.581 271.2 169.066 271.053 167.564L269.065 144.943H80.5472Z" fill="#00194C"/>
<path d="M180.908 168.936C184.37 166.616 185.103 161.64 182.545 157.823C179.986 154.006 175.106 152.792 171.644 155.113C168.182 157.433 167.449 162.408 170.007 166.226C172.565 170.043 177.446 171.256 180.908 168.936Z" fill="white"/>
<path d="M176.979 170.976C174.62 170.893 172.371 169.955 170.653 168.337C168.934 166.719 167.863 164.531 167.638 162.181C167.509 161.006 167.631 159.817 167.995 158.692C168.358 157.567 168.956 156.532 169.749 155.655C170.487 154.847 171.387 154.203 172.39 153.767C173.393 153.33 174.477 153.111 175.571 153.122C177.923 153.222 180.158 154.169 181.866 155.789C183.573 157.409 184.636 159.592 184.859 161.935C184.988 163.11 184.867 164.299 184.503 165.424C184.139 166.549 183.541 167.584 182.748 168.461C182.014 169.257 181.121 169.892 180.128 170.325C179.135 170.758 178.062 170.98 176.979 170.976ZM175.571 154.793C174.722 154.785 173.88 154.957 173.101 155.296C172.322 155.636 171.624 156.136 171.051 156.763C170.411 157.453 169.923 158.27 169.62 159.161C169.317 160.052 169.205 160.997 169.292 161.935C169.449 163.868 170.309 165.676 171.71 167.018C173.11 168.359 174.953 169.142 176.891 169.217C177.739 169.228 178.58 169.059 179.359 168.723C180.138 168.387 180.838 167.89 181.411 167.265C182.035 166.566 182.505 165.746 182.793 164.855C183.081 163.965 183.18 163.024 183.083 162.093C182.928 160.173 182.08 158.374 180.699 157.031C179.317 155.689 177.495 154.893 175.571 154.793Z" fill="#00194C"/>
<path d="M186.689 258.138H314.625V251.12L186.689 251.12V258.138Z" fill="white"/>
<path d="M314.625 259.018H186.618C186.385 259.018 186.161 258.925 185.996 258.76C185.831 258.595 185.739 258.371 185.739 258.138V251.102C185.739 250.869 185.831 250.645 185.996 250.48C186.161 250.315 186.385 250.222 186.618 250.222H314.554C314.788 250.222 315.011 250.315 315.176 250.48C315.341 250.645 315.434 250.869 315.434 251.102V258.138C315.435 258.36 315.352 258.573 315.202 258.736C315.052 258.9 314.846 259 314.625 259.018ZM187.568 257.259H313.745V251.981H187.568V257.259Z" fill="#00194C"/>
<path d="M332.62 285.069C332.62 285.069 273.533 299.985 273.533 339.898H429.72C429.72 339.898 454.558 315.923 448.419 279.088C385.497 281.164 332.62 285.069 332.62 285.069Z" fill="white"/>
<path d="M429.738 340.69H273.551C273.318 340.69 273.094 340.598 272.929 340.433C272.764 340.268 272.671 340.044 272.671 339.811C272.671 299.669 331.828 284.295 332.479 284.137H332.62C333.148 284.137 386.219 280.284 448.454 278.138C448.67 278.123 448.883 278.191 449.05 278.329C449.217 278.466 449.325 278.663 449.351 278.877C455.49 315.817 430.635 340.215 430.388 340.444C430.212 340.609 429.978 340.697 429.738 340.69ZM274.43 338.931H429.368C431.901 336.328 452.904 313.46 447.698 279.897C386.957 282.026 335.118 285.685 332.778 285.861C330.456 286.476 275.275 301.428 274.43 338.931Z" fill="#00194C"/>
<path d="M409.913 82.7777C409.913 82.7777 423.88 72.5927 427.838 66.2601C431.796 59.9275 440.644 15.6697 419.992 19.0471C399.693 -9.92461 357.986 2.3536 351.688 20.2432C346.147 35.9516 366.359 39.5928 373.36 41.7565C380.361 43.9201 387.89 77.2718 397.459 82.7777C407.028 88.2835 409.913 82.7777 409.913 82.7777Z" fill="white"/>
<path d="M404.935 86.0492C402.12 85.8859 399.394 85.0015 397.019 83.481C391.742 80.4554 387.38 70.0946 383.123 60.0855C379.605 51.9059 376.086 43.4449 373.096 42.495C372.357 42.2663 371.478 42.02 370.493 41.7562C364.565 40.1026 354.661 37.3233 351.143 30.5862C350.342 28.9185 349.903 27.1004 349.855 25.2511C349.806 23.4019 350.149 21.5633 350.862 19.8559C354.063 10.7616 365.972 3.09209 379.798 1.19231C396.333 -1.05928 411.092 5.06224 420.397 18.0089C422.341 17.6364 424.352 17.8604 426.167 18.6515C427.981 19.4426 429.514 20.7638 430.564 22.4417C438.005 33.6117 431.655 61.7215 428.577 66.6468C424.742 72.7859 412.147 82.1441 410.582 83.3051C409.76 84.4816 408.553 85.334 407.169 85.715C406.445 85.9355 405.692 86.0482 404.935 86.0492ZM386.447 2.5116C384.305 2.51158 382.166 2.65851 380.044 2.95137C366.834 4.71043 355.505 11.9577 352.515 20.454C351.89 21.9373 351.584 23.5356 351.618 25.1449C351.651 26.7542 352.023 28.3384 352.709 29.7946C355.857 35.8457 365.321 38.5899 370.968 40.0675L373.624 40.8415C377.371 42.02 380.783 50.0765 384.741 59.3995C388.699 68.7225 393.149 79.2241 397.899 81.9506C401.417 83.9559 404.407 84.6947 406.694 84.0615C407.731 83.8283 408.635 83.1964 409.209 82.3024C409.273 82.1839 409.364 82.0815 409.473 82.0034C409.614 81.8978 423.335 71.8536 427.169 65.7321C430.019 61.141 436.105 33.858 429.175 23.5147C428.239 22.0602 426.868 20.9374 425.258 20.3059C423.647 19.6744 421.879 19.5662 420.204 19.9966C420.04 20.0226 419.872 20.0017 419.719 19.9364C419.567 19.871 419.436 19.7638 419.342 19.6272C415.704 14.274 410.795 9.9077 405.053 6.92035C399.312 3.93301 392.919 2.4181 386.447 2.5116Z" fill="#00194C"/>
<path d="M366.148 53.1196C366.148 53.1196 356.068 66.5764 357.827 69.5844C359.586 72.5924 366.042 71.0444 366.042 71.0444" fill="white"/>
<path d="M362.524 72.346C361.494 72.4646 360.45 72.3148 359.494 71.911C358.539 71.5072 357.704 70.8633 357.071 70.0416C355.189 66.7698 363.017 55.8636 365.462 52.5918C365.602 52.4052 365.81 52.2818 366.041 52.2488C366.272 52.2158 366.506 52.2759 366.693 52.4159C366.876 52.5586 366.996 52.7666 367.029 52.9961C367.062 53.2257 367.004 53.4591 366.869 53.6472C362.19 59.8919 357.704 67.5966 358.601 69.1445C359.762 71.1499 364.23 70.587 365.849 70.2C366.077 70.1466 366.317 70.1849 366.518 70.3065C366.719 70.4282 366.863 70.6236 366.922 70.8508C366.975 71.077 366.936 71.315 366.814 71.5127C366.692 71.7105 366.497 71.8519 366.271 71.9062C365.042 72.1916 363.785 72.3391 362.524 72.346Z" fill="#00194C"/>
<path d="M369.208 34.7204C363.034 39.1884 364.142 49.4613 363.808 56.0754C363.351 65.3866 363.099 74.6979 363.052 84.0092C363.052 89.9196 378.268 90.9399 381.065 89.2864L377.318 112.436L410.107 102.127L409.913 82.7779C409.913 82.7779 399.535 82.2501 394.257 69.884C388.98 57.5178 391.373 31.4134 391.373 31.4134C391.373 31.4134 375.224 30.3756 369.208 34.7204Z" fill="white"/>
<path d="M377.318 113.35C377.111 113.35 376.911 113.275 376.755 113.139C376.64 113.041 376.552 112.915 376.499 112.774C376.447 112.632 376.432 112.479 376.456 112.33L379.974 90.6056C374.941 91.3638 369.797 90.6044 365.198 88.4244C364.332 88.0418 363.589 87.4266 363.052 86.6472C362.515 85.8677 362.204 84.9545 362.155 84.0092C362.155 74.7213 362.471 65.3104 362.929 56.0226C362.929 54.9144 362.929 53.7182 363.017 52.5045C363.105 46.0663 363.193 38.0626 368.681 34.0871C374.89 29.584 390.757 30.569 391.425 30.569C391.663 30.5934 391.883 30.7064 392.041 30.8857C392.117 30.9748 392.173 31.0787 392.206 31.1908C392.239 31.3028 392.249 31.4205 392.235 31.5365C392.235 31.8004 389.948 57.5002 395.067 69.5145C400.045 81.1771 409.561 81.8279 409.966 81.8279C410.188 81.8454 410.396 81.9452 410.549 82.1079C410.702 82.2705 410.789 82.4843 410.793 82.7075L410.986 102.057C410.987 102.245 410.928 102.429 410.817 102.581C410.706 102.733 410.55 102.845 410.37 102.901L377.599 113.333L377.318 113.35ZM381.065 88.442C381.247 88.4428 381.424 88.498 381.575 88.6003C381.711 88.6945 381.818 88.8254 381.884 88.9779C381.949 89.1305 381.97 89.2984 381.944 89.4623L378.426 111.204L409.227 101.406L409.051 83.4991C406.395 83.0945 398.057 80.9836 393.448 70.1654C388.664 58.9074 390.036 37.0599 390.423 32.2577C386.993 32.117 374.591 31.8883 369.719 35.4416C364.846 38.9949 364.846 46.4181 364.776 52.4693C364.776 53.7534 364.776 54.9847 364.688 56.1105C364.23 65.3632 363.966 74.7565 363.914 84.0092C363.914 85.0998 364.635 86.0673 366.077 86.9116C370.299 89.3567 378.831 89.603 380.625 88.5651C380.76 88.4919 380.911 88.4499 381.065 88.442Z" fill="#00194C"/>
<path d="M363.667 77.0778C367.472 76.7347 371.222 75.9375 374.837 74.7031L363.667 77.0778Z" fill="white"/>
<path d="M363.667 77.9573C363.446 77.958 363.232 77.875 363.069 77.725C362.906 77.575 362.806 77.369 362.788 77.1481C362.778 77.032 362.792 76.9152 362.829 76.8047C362.866 76.6943 362.925 76.5924 363.002 76.5052C363.079 76.4181 363.173 76.3475 363.279 76.2978C363.384 76.248 363.498 76.2201 363.615 76.2158C367.357 75.8591 371.046 75.0741 374.609 73.8762C374.842 73.7993 375.096 73.8181 375.316 73.9286C375.535 74.0391 375.702 74.2323 375.778 74.4655C375.855 74.6988 375.837 74.9531 375.726 75.1725C375.616 75.3918 375.422 75.5583 375.189 75.6353C371.482 76.8926 367.637 77.7017 363.738 78.0452L363.667 77.9573Z" fill="#00194C"/>
<path d="M383.633 60.1212C384.028 57.8104 385.057 55.6547 386.605 53.8941C387.598 52.3723 388.82 51.0134 390.229 49.8659C390.933 49.2923 391.757 48.8826 392.639 48.6666C393.521 48.4506 394.441 48.4336 395.33 48.617C396.105 48.854 396.82 49.2547 397.427 49.7918C398.034 50.3289 398.519 50.99 398.848 51.7305C399.5 53.2014 399.807 54.8019 399.746 56.4096C399.697 59.916 398.725 63.3476 396.928 66.3587C395.131 69.3697 392.571 71.8538 389.508 73.5604L390.053 73.0327" fill="white"/>
<path d="M389.455 74.4395C389.281 74.4371 389.111 74.3829 388.968 74.2839C388.824 74.1849 388.714 74.0455 388.65 73.8834C388.586 73.7213 388.571 73.5438 388.608 73.3735C388.645 73.2031 388.732 73.0476 388.857 72.9267L389.367 72.4341L389.49 72.5397C392.289 70.8666 394.614 68.5069 396.245 65.6842C397.877 62.8614 398.761 59.669 398.814 56.4091C398.869 54.9302 398.592 53.4577 398.004 52.0994C397.732 51.4828 397.333 50.9305 396.833 50.4789C396.333 50.0272 395.743 49.6863 395.102 49.4785C394.339 49.3277 393.553 49.3473 392.799 49.5359C392.045 49.7244 391.341 50.0772 390.739 50.5691C389.382 51.6647 388.196 52.9572 387.221 54.4038C385.789 56.0421 384.824 58.0346 384.424 60.1735C384.402 60.4068 384.291 60.6226 384.114 60.7764C383.938 60.9302 383.709 61.0104 383.475 61.0003C383.359 60.9914 383.246 60.9597 383.143 60.9071C383.039 60.8545 382.948 60.782 382.872 60.6937C382.797 60.6054 382.74 60.5031 382.705 60.3927C382.669 60.2823 382.656 60.166 382.665 60.0504C383.067 57.571 384.158 55.2546 385.814 53.366C386.857 51.7778 388.139 50.3598 389.614 49.1618C390.423 48.5046 391.37 48.0384 392.384 47.7978C393.398 47.5572 394.453 47.5484 395.471 47.7722C396.355 48.0377 397.171 48.489 397.866 49.0958C398.56 49.7025 399.117 50.4507 399.5 51.2903C400.207 52.8828 400.544 54.6149 400.485 56.3564C400.422 60.0179 399.402 63.5993 397.526 66.7441C395.65 69.889 392.982 72.4875 389.79 74.2811C389.691 74.357 389.577 74.411 389.455 74.4395Z" fill="#00194C"/>
<path d="M370.576 46.1776C370.782 44.353 370.369 42.8086 369.655 42.728C368.941 42.6473 368.195 44.061 367.989 45.8856C367.783 47.7101 368.195 49.2546 368.909 49.3352C369.624 49.4158 370.37 48.0021 370.576 46.1776Z" fill="#00194C"/>
<path d="M416.246 108.16L414.117 97.729H372.973L367.696 112.716C383.963 116.218 400.914 114.627 416.246 108.16Z" fill="white"/>
<path d="M384.16 115.355C378.516 115.452 372.881 114.861 367.379 113.596C367.149 113.522 366.954 113.366 366.834 113.156C366.786 113.045 366.762 112.925 366.762 112.804C366.762 112.683 366.786 112.564 366.834 112.452L372.111 97.4829C372.169 97.3096 372.28 97.1589 372.429 97.0517C372.577 96.9445 372.755 96.8861 372.938 96.8848H414.082C414.285 96.8847 414.481 96.9547 414.638 97.083C414.795 97.2112 414.903 97.3897 414.944 97.5884L417.072 108.02C417.112 108.22 417.081 108.427 416.985 108.607C416.889 108.786 416.733 108.927 416.545 109.005C406.268 113.214 395.266 115.371 384.16 115.355ZM368.769 112.065C384.381 115.127 400.547 113.58 415.296 107.615L413.396 98.6086H373.588L368.769 112.065Z" fill="#00194C"/>
<path d="M448.436 279C448.436 279 464.021 151.486 445.516 125.417C427.011 99.3479 381.592 95.1438 360.571 111.96C339.551 128.777 329.102 293.02 329.102 293.02C329.102 293.02 385.761 299.986 448.436 279Z" fill="#0055FF"/>
<path d="M202.89 217.381C204.649 212.403 221.852 207.548 227.305 207.548C230.823 207.548 240.463 211.769 246.655 214.69L306.322 220.934L338.566 164.908L367.625 198.031C367.625 198.031 345.831 251.12 335.962 254.638C326.094 258.156 240.586 234.303 240.586 234.303L220.814 228.78C213.286 231.119 206.531 223.59 206.531 222.816C206.531 222.042 203.417 230.855 201.078 230.609C198.738 230.363 201.078 222.359 202.89 217.381Z" fill="white"/>
<path d="M332.972 255.834C314.713 255.834 243.559 236.062 240.322 235.165L220.814 229.764C218.83 230.213 216.771 230.206 214.79 229.742C212.809 229.279 210.96 228.373 209.38 227.091C208.378 226.354 207.452 225.517 206.619 224.593C204.86 228.269 203.101 231.752 200.972 231.541C200.702 231.512 200.442 231.42 200.213 231.274C199.984 231.127 199.793 230.93 199.653 230.697C198.246 228.428 200.568 221.198 202.063 217.082C204.156 211.365 222.046 206.686 227.305 206.686C230.911 206.686 239.918 210.556 246.901 213.827L305.847 219.984L337.792 164.451C337.863 164.33 337.963 164.228 338.082 164.154C338.202 164.081 338.338 164.038 338.478 164.028C338.615 164.01 338.754 164.026 338.883 164.075C339.012 164.124 339.127 164.205 339.216 164.31L368.276 197.433C368.387 197.554 368.461 197.705 368.489 197.867C368.517 198.029 368.498 198.196 368.434 198.348C367.537 200.529 346.376 251.841 336.208 255.447C335.156 255.74 334.064 255.871 332.972 255.834ZM220.814 227.97H221.043L240.78 233.423C270.261 241.638 328.011 256.449 335.628 253.758C343.245 251.067 360.396 213.194 366.605 198.154L338.706 166.386L307.043 221.339C306.957 221.487 306.829 221.607 306.677 221.685C306.524 221.763 306.352 221.795 306.181 221.778L246.514 215.516C246.421 215.534 246.326 215.534 246.233 215.516C236.575 210.978 229.821 208.48 227.253 208.48C221.553 208.48 205.194 213.511 203.664 217.715C200.955 225.121 200.55 229.342 201.131 229.852C201.447 229.852 202.45 229.36 205.036 223.713C205.704 222.271 205.898 221.849 206.654 221.954C206.826 222.001 206.982 222.094 207.103 222.225C207.224 222.356 207.306 222.518 207.34 222.693C207.885 223.801 213.919 230.028 220.498 227.97H220.814Z" fill="#00194C"/>
<path d="M360.571 111.96L319.409 179.948L367.625 208.849L399.693 144.063C399.693 144.063 372.023 113.157 360.571 111.96Z" fill="#0055FF"/>
<path d="M339.463 297.558H364.09L393.325 165.629C395.511 155.76 400.997 146.933 408.877 140.603C416.757 134.274 426.561 130.822 436.668 130.817H489.757C496.342 130.816 502.846 132.281 508.796 135.104C514.746 137.928 519.993 142.04 524.157 147.142C528.322 152.244 531.299 158.209 532.873 164.604C534.447 170.999 534.578 177.664 533.258 184.116L501.489 339.81L354.942 338.808H306.322V330.699C306.322 321.909 309.814 313.48 316.029 307.265C322.244 301.049 330.673 297.558 339.463 297.558Z" fill="#00194C"/>
<path d="M501.49 340.69L354.96 339.687H306.322C306.089 339.687 305.865 339.595 305.7 339.43C305.535 339.265 305.443 339.041 305.443 338.808V330.699C305.452 321.679 309.039 313.031 315.417 306.653C321.795 300.275 330.443 296.688 339.463 296.678H363.368L392.428 165.453C394.61 155.365 400.192 146.333 408.24 139.87C416.288 133.408 426.312 129.907 436.633 129.955H489.721C496.437 129.958 503.067 131.453 509.134 134.334C515.2 137.214 520.549 141.407 524.796 146.61C529.042 151.812 532.078 157.894 533.685 164.414C535.291 170.934 535.428 177.73 534.085 184.31L502.316 340.022C502.27 340.208 502.165 340.374 502.015 340.495C501.866 340.616 501.681 340.684 501.49 340.69ZM307.219 337.928H354.942L500.768 338.931L532.431 183.923C533.726 177.599 533.597 171.065 532.054 164.797C530.511 158.529 527.593 152.682 523.511 147.681C519.429 142.68 514.286 138.649 508.454 135.882C502.622 133.114 496.247 131.678 489.792 131.679H436.651C426.734 131.64 417.105 135.009 409.375 141.221C401.645 147.433 396.283 156.112 394.187 165.805L364.969 297.734C364.922 297.928 364.812 298.101 364.656 298.225C364.5 298.349 364.307 298.418 364.107 298.42H339.48C330.927 298.429 322.727 301.831 316.679 307.879C310.631 313.927 307.229 322.128 307.219 330.681V337.928Z" fill="#00194C"/>
<path d="M12.1199 339.811H215.819V277.417H12.1199V339.811Z" fill="white"/>
<path d="M215.819 340.69H12.1375C11.9043 340.69 11.6805 340.597 11.5156 340.433C11.3507 340.268 11.258 340.044 11.258 339.811V277.434C11.258 277.201 11.3507 276.977 11.5156 276.813C11.6805 276.648 11.9043 276.555 12.1375 276.555H215.819C216.052 276.555 216.276 276.648 216.441 276.813C216.606 276.977 216.698 277.201 216.698 277.434V339.811C216.698 340.044 216.606 340.268 216.441 340.433C216.276 340.597 216.052 340.69 215.819 340.69ZM13.0171 338.931H214.939V278.314H13.0171V338.931Z" fill="#00194C"/>
<path d="M215.836 339.811H231.58V277.417H215.836V339.811Z" fill="white"/>
<path d="M231.562 340.69H215.731C215.497 340.69 215.274 340.597 215.109 340.433C214.944 340.268 214.851 340.044 214.851 339.811V277.434C214.851 277.201 214.944 276.977 215.109 276.813C215.274 276.648 215.497 276.555 215.731 276.555H231.562C231.796 276.555 232.019 276.648 232.184 276.813C232.349 276.977 232.442 277.201 232.442 277.434V339.811C232.442 340.044 232.349 340.268 232.184 340.433C232.019 340.597 231.796 340.69 231.562 340.69ZM216.698 338.931H230.771V278.314H216.698V338.931Z" fill="#00194C"/>
<path d="M105.069 226.334H61.8133C61.58 226.334 61.3563 226.242 61.1914 226.077C61.0264 225.912 60.9338 225.688 60.9338 225.455C60.9338 225.221 61.0264 224.998 61.1914 224.833C61.3563 224.668 61.58 224.575 61.8133 224.575H105.069C105.302 224.575 105.525 224.668 105.69 224.833C105.855 224.998 105.948 225.221 105.948 225.455C105.948 225.688 105.855 225.912 105.69 226.077C105.525 226.242 105.302 226.334 105.069 226.334Z" fill="#00194C"/>
<path d="M105.068 242.272H49.8165C49.5846 242.267 49.3635 242.173 49.1995 242.009C49.0356 241.845 48.9415 241.624 48.937 241.392C48.937 241.159 49.0296 240.935 49.1946 240.77C49.3595 240.605 49.5832 240.512 49.8165 240.512H105.068C105.302 240.512 105.525 240.605 105.69 240.77C105.855 240.935 105.948 241.159 105.948 241.392C105.943 241.624 105.849 241.845 105.685 242.009C105.521 242.173 105.3 242.267 105.068 242.272Z" fill="#00194C"/>
<path d="M367.625 198.875C367.489 198.875 367.355 198.839 367.238 198.769C367.134 198.719 367.041 198.648 366.964 198.561C366.888 198.474 366.829 198.373 366.791 198.264C366.754 198.154 366.738 198.039 366.745 197.923C366.753 197.807 366.783 197.695 366.834 197.591C376.28 178.417 391.232 146.947 391.074 144.203C391.045 144.092 391.038 143.977 391.054 143.863C391.071 143.75 391.11 143.641 391.169 143.543C391.228 143.444 391.305 143.359 391.398 143.291C391.49 143.223 391.595 143.175 391.707 143.148C391.938 143.095 392.18 143.136 392.381 143.261C392.582 143.386 392.725 143.586 392.78 143.816C393.589 146.912 374.327 186.35 368.417 198.347C368.346 198.499 368.235 198.629 368.095 198.722C367.956 198.815 367.793 198.868 367.625 198.875Z" fill="#00194C"/>
<path d="M391.672 327.093H391.496C391.381 327.072 391.272 327.028 391.175 326.964C391.078 326.9 390.995 326.817 390.931 326.72C390.867 326.623 390.823 326.514 390.803 326.4C390.782 326.286 390.784 326.168 390.81 326.055C391.038 324.929 414.17 212.191 425.991 153.667C426.01 153.553 426.051 153.444 426.113 153.347C426.175 153.249 426.257 153.165 426.352 153.099C426.447 153.034 426.554 152.988 426.668 152.964C426.781 152.941 426.898 152.941 427.011 152.964C427.241 153.011 427.443 153.145 427.574 153.339C427.706 153.533 427.756 153.771 427.715 154.002C415.964 212.631 392.833 325.369 392.534 326.495C392.473 326.674 392.357 326.829 392.201 326.936C392.046 327.044 391.86 327.099 391.672 327.093Z" fill="white"/>
<path d="M95.3936 51.114C95.1604 51.114 94.9366 51.0214 94.7717 50.8564C94.6068 50.6915 94.5141 50.4678 94.5141 50.2345C94.5186 50.0027 94.6127 49.7815 94.7767 49.6176C94.9407 49.4536 95.1618 49.3595 95.3936 49.355H113.336C113.569 49.355 113.793 49.4476 113.958 49.6126C114.123 49.7775 114.216 50.0012 114.216 50.2345C114.218 50.3492 114.197 50.4632 114.155 50.5698C114.113 50.6764 114.05 50.7735 113.969 50.8554C113.889 50.9373 113.793 51.0024 113.688 51.0468C113.582 51.0912 113.468 51.1141 113.354 51.114H95.3936Z" fill="#D1D3D4"/>
<path d="M115.922 51.114C115.689 51.114 115.465 51.0214 115.3 50.8564C115.135 50.6915 115.042 50.4678 115.042 50.2345C115.042 50.0012 115.135 49.7775 115.3 49.6126C115.465 49.4476 115.689 49.355 115.922 49.355H169.204C169.437 49.355 169.661 49.4476 169.826 49.6126C169.991 49.7775 170.083 50.0012 170.083 50.2345C170.083 50.4678 169.991 50.6915 169.826 50.8564C169.661 51.0214 169.437 51.114 169.204 51.114H115.922Z" fill="#0055FF"/>
<path d="M91.207 58.0454C90.9738 58.0454 90.7501 57.9528 90.5851 57.7878C90.4202 57.6229 90.3275 57.3992 90.3275 57.1659C90.3275 56.9326 90.4202 56.7089 90.5851 56.544C90.7501 56.379 90.9738 56.2864 91.207 56.2864H109.167C109.399 56.2909 109.62 56.385 109.784 56.549C109.948 56.7129 110.042 56.934 110.047 57.1659C110.047 57.3992 109.954 57.6229 109.789 57.7878C109.624 57.9528 109.4 58.0454 109.167 58.0454H91.2246H91.207Z" fill="#D1D3D4"/>
<path d="M112.826 58.0103C112.593 58.0103 112.369 57.9176 112.204 57.7527C112.039 57.5877 111.946 57.364 111.946 57.1307C111.946 56.8975 112.039 56.6738 112.204 56.5088C112.369 56.3439 112.593 56.2512 112.826 56.2512H141.727C141.957 56.2512 142.179 56.3414 142.343 56.5026C142.507 56.6637 142.602 56.883 142.607 57.1132C142.607 57.3481 142.515 57.5736 142.35 57.7414C142.186 57.9091 141.962 58.0057 141.727 58.0103H112.826Z" fill="#0055FF"/>
<path d="M152.756 57.9217C152.523 57.9217 152.299 57.829 152.135 57.664C151.97 57.4991 151.877 57.2754 151.877 57.0421C151.877 56.8089 151.97 56.5851 152.135 56.4202C152.299 56.2553 152.523 56.1626 152.756 56.1626H181.658C181.891 56.1626 182.115 56.2553 182.28 56.4202C182.445 56.5851 182.537 56.8089 182.537 57.0421C182.537 57.2754 182.445 57.4991 182.28 57.664C182.115 57.829 181.891 57.9217 181.658 57.9217H152.756Z" fill="#0055FF"/>
<path d="M91.7875 64.9229C91.5543 64.9229 91.3306 64.8302 91.1656 64.6653C91.0007 64.5003 90.908 64.2766 90.908 64.0433C90.908 63.8101 91.0007 63.5864 91.1656 63.4214C91.3306 63.2565 91.5543 63.1638 91.7875 63.1638H109.73C109.963 63.1638 110.187 63.2565 110.352 63.4214C110.517 63.5864 110.609 63.8101 110.609 64.0433C110.609 64.2766 110.517 64.5003 110.352 64.6653C110.187 64.8302 109.963 64.9229 109.73 64.9229H91.7875Z" fill="#D1D3D4"/>
<path d="M117.065 64.8704C116.832 64.8704 116.608 64.7777 116.443 64.6128C116.278 64.4478 116.186 64.2241 116.186 63.9909C116.186 63.7576 116.278 63.5339 116.443 63.3689C116.608 63.204 116.832 63.1113 117.065 63.1113H142.29C142.522 63.1158 142.743 63.2099 142.907 63.3739C143.071 63.5379 143.165 63.759 143.17 63.9909C143.17 64.2241 143.077 64.4478 142.912 64.6128C142.747 64.7777 142.523 64.8704 142.29 64.8704H117.048H117.065Z" fill="#0055FF"/>
<path d="M146.547 64.8172C146.315 64.8127 146.094 64.7186 145.93 64.5546C145.766 64.3906 145.672 64.1695 145.667 63.9376C145.667 63.7044 145.76 63.4807 145.925 63.3157C146.09 63.1508 146.314 63.0581 146.547 63.0581H156.873C157.106 63.0581 157.33 63.1508 157.495 63.3157C157.66 63.4807 157.752 63.7044 157.752 63.9376C157.752 64.1709 157.66 64.3946 157.495 64.5596C157.33 64.7245 157.106 64.8172 156.873 64.8172H146.565H146.547Z" fill="#D1D3D4"/>
<path d="M92.3681 71.783C92.2535 71.7853 92.1395 71.7648 92.0329 71.7225C91.9263 71.6802 91.8291 71.6171 91.7472 71.5368C91.6653 71.4566 91.6002 71.3607 91.5558 71.255C91.5114 71.1493 91.4886 71.0357 91.4886 70.921C91.4885 70.6861 91.5806 70.4606 91.7451 70.2928C91.9096 70.1251 92.1332 70.0285 92.3681 70.0239H110.311C110.544 70.0239 110.767 70.1166 110.932 70.2815C111.097 70.4465 111.19 70.6702 111.19 70.9035C111.19 71.1367 111.097 71.3604 110.932 71.5254C110.767 71.6903 110.544 71.783 110.311 71.783H92.3681Z" fill="#D1D3D4"/>
<path d="M115.077 71.7478C114.844 71.7478 114.62 71.6552 114.456 71.4902C114.291 71.3253 114.198 71.1016 114.198 70.8683C114.198 70.635 114.291 70.4113 114.456 70.2464C114.62 70.0814 114.844 69.9888 115.077 69.9888H152.018C152.251 69.9888 152.475 70.0814 152.64 70.2464C152.805 70.4113 152.897 70.635 152.897 70.8683C152.897 71.1016 152.805 71.3253 152.64 71.4902C152.475 71.6552 152.251 71.7478 152.018 71.7478H115.077Z" fill="#0055FF"/>
<path d="M156.275 71.6602C156.041 71.6602 155.818 71.5675 155.653 71.4026C155.488 71.2376 155.395 71.0139 155.395 70.7807C155.395 70.5474 155.488 70.3237 155.653 70.1587C155.818 69.9938 156.041 69.9011 156.275 69.9011H174.217C174.45 69.9011 174.674 69.9938 174.839 70.1587C175.004 70.3237 175.096 70.5474 175.096 70.7807C175.096 71.0139 175.004 71.2376 174.839 71.4026C174.674 71.5675 174.45 71.6602 174.217 71.6602H156.275Z" fill="#0055FF"/>
<path d="M88.7268 78.6792C88.495 78.6747 88.2739 78.5806 88.1099 78.4166C87.9459 78.2527 87.8518 78.0315 87.8473 77.7997C87.8473 77.5664 87.94 77.3427 88.1049 77.1778C88.2698 77.0128 88.4936 76.9202 88.7268 76.9202H98.2433C98.4752 76.9247 98.6963 77.0188 98.8603 77.1828C99.0242 77.3467 99.1183 77.5678 99.1229 77.7997C99.1229 78.033 99.0302 78.2567 98.8652 78.4216C98.7003 78.5866 98.4766 78.6792 98.2433 78.6792H88.7092H88.7268Z" fill="#D1D3D4"/>
<path d="M106.124 78.6434C105.892 78.6389 105.671 78.5448 105.507 78.3808C105.343 78.2168 105.249 77.9957 105.244 77.7639C105.244 77.5306 105.337 77.3069 105.502 77.142C105.667 76.977 105.891 76.8843 106.124 76.8843L147.708 76.7964C147.941 76.7964 148.165 76.8891 148.33 77.054C148.495 77.2189 148.588 77.4426 148.588 77.6759C148.588 77.9092 148.495 78.1329 148.33 78.2978C148.165 78.4628 147.941 78.5554 147.708 78.5554L106.124 78.6434Z" fill="#0055FF"/>
<path d="M89.3073 85.5393C89.0741 85.5393 88.8503 85.4467 88.6854 85.2817C88.5205 85.1168 88.4278 84.8931 88.4278 84.6598C88.4278 84.4265 88.5205 84.2028 88.6854 84.0379C88.8503 83.8729 89.0741 83.7803 89.3073 83.7803H107.25C107.483 83.7803 107.707 83.8729 107.872 84.0379C108.037 84.2028 108.129 84.4265 108.129 84.6598C108.129 84.8931 108.037 85.1168 107.872 85.2817C107.707 85.4467 107.483 85.5393 107.25 85.5393H89.3073Z" fill="#D1D3D4"/>
<path d="M92.544 92.3994C92.3107 92.3994 92.087 92.3068 91.922 92.1418C91.7571 91.9769 91.6644 91.7532 91.6644 91.5199C91.6644 91.2866 91.7571 91.0629 91.922 90.898C92.087 90.733 92.3107 90.6404 92.544 90.6404H128.341C128.574 90.6404 128.798 90.733 128.963 90.898C129.128 91.0629 129.22 91.2866 129.22 91.5199C129.22 91.7532 129.128 91.9769 128.963 92.1418C128.798 92.3068 128.574 92.3994 128.341 92.3994H92.544Z" fill="#D1D3D4"/>
<path d="M134.286 92.3291C134.053 92.3291 133.829 92.2365 133.664 92.0715C133.499 91.9066 133.407 91.6829 133.407 91.4496C133.407 91.2163 133.499 90.9926 133.664 90.8277C133.829 90.6627 134.053 90.5701 134.286 90.5701H159.177C159.409 90.5746 159.63 90.6687 159.794 90.8327C159.958 90.9966 160.052 91.2177 160.056 91.4496C160.056 91.6829 159.964 91.9066 159.799 92.0715C159.634 92.2365 159.41 92.3291 159.177 92.3291H134.286Z" fill="#0055FF"/>
<path d="M162.748 92.2586C162.515 92.2586 162.291 92.1659 162.126 92.001C161.961 91.836 161.868 91.6123 161.868 91.379C161.868 91.1458 161.961 90.9221 162.126 90.7571C162.291 90.5922 162.515 90.4995 162.748 90.4995H193.567C193.8 90.4995 194.024 90.5922 194.189 90.7571C194.353 90.9221 194.446 91.1458 194.446 91.379C194.446 91.6123 194.353 91.836 194.189 92.001C194.024 92.1659 193.8 92.2586 193.567 92.2586H162.766H162.748Z" fill="#0055FF"/>
<path d="M94.6724 99.2774C94.4392 99.2774 94.2155 99.1848 94.0505 99.0198C93.8856 98.8549 93.7929 98.6312 93.7929 98.3979C93.7929 98.1646 93.8856 97.9409 94.0505 97.776C94.2155 97.611 94.4392 97.5184 94.6724 97.5184L146.864 97.4128C147.097 97.4128 147.321 97.5055 147.486 97.6704C147.651 97.8354 147.743 98.0591 147.743 98.2924C147.743 98.5256 147.651 98.7493 147.486 98.9143C147.321 99.0792 147.097 99.1719 146.864 99.1719L94.6724 99.2774Z" fill="#D1D3D4"/>
<path d="M150.417 99.1538C150.184 99.1538 149.96 99.0612 149.795 98.8962C149.63 98.7313 149.537 98.5076 149.537 98.2743C149.537 98.041 149.63 97.8173 149.795 97.6524C149.96 97.4874 150.184 97.3948 150.417 97.3948H173.9C174.134 97.3948 174.357 97.4874 174.522 97.6524C174.687 97.8173 174.78 98.041 174.78 98.2743C174.78 98.5076 174.687 98.7313 174.522 98.8962C174.357 99.0612 174.134 99.1538 173.9 99.1538H150.417Z" fill="#0055FF"/>
<path d="M177.823 99.1014C177.59 99.1014 177.366 99.0088 177.201 98.8438C177.036 98.6789 176.943 98.4552 176.943 98.2219C176.943 97.9887 177.036 97.7649 177.201 97.6C177.366 97.4351 177.59 97.3424 177.823 97.3424L247.64 97.2017C247.873 97.2017 248.097 97.2943 248.262 97.4593C248.427 97.6242 248.52 97.8479 248.52 98.0812C248.52 98.3145 248.427 98.5382 248.262 98.7031C248.097 98.8681 247.873 98.9607 247.64 98.9607L177.823 99.1014Z" fill="#0055FF"/>
<path d="M95.0419 106.138C94.8086 106.138 94.5849 106.045 94.42 105.88C94.255 105.715 94.1624 105.491 94.1624 105.258C94.1624 105.025 94.255 104.801 94.42 104.636C94.5849 104.471 94.8086 104.379 95.0419 104.379H119.669C119.902 104.379 120.126 104.471 120.291 104.636C120.456 104.801 120.548 105.025 120.548 105.258C120.548 105.491 120.456 105.715 120.291 105.88C120.126 106.045 119.902 106.138 119.669 106.138H95.0419Z" fill="#D1D3D4"/>
<path d="M124.629 106.084C124.396 106.084 124.172 105.992 124.007 105.827C123.842 105.662 123.75 105.438 123.75 105.205C123.75 104.972 123.842 104.748 124.007 104.583C124.172 104.418 124.396 104.325 124.629 104.325H142.8C143.033 104.325 143.257 104.418 143.422 104.583C143.587 104.748 143.68 104.972 143.68 105.205C143.68 105.438 143.587 105.662 143.422 105.827C143.257 105.992 143.033 106.084 142.8 106.084H124.612H124.629Z" fill="#0055FF"/>
<path d="M147.708 106.032C147.475 106.032 147.251 105.939 147.086 105.774C146.921 105.609 146.828 105.386 146.828 105.152C146.828 104.919 146.921 104.696 147.086 104.531C147.251 104.366 147.475 104.273 147.708 104.273H165.879C166.112 104.273 166.336 104.366 166.501 104.531C166.666 104.696 166.759 104.919 166.759 105.152C166.759 105.386 166.666 105.609 166.501 105.774C166.336 105.939 166.112 106.032 165.879 106.032H147.708Z" fill="#0055FF"/>
<path d="M95.6223 113.016C95.3891 113.016 95.1653 112.923 95.0004 112.758C94.8355 112.593 94.7428 112.37 94.7428 112.136C94.7428 111.903 94.8355 111.679 95.0004 111.514C95.1653 111.349 95.3891 111.257 95.6223 111.257H139.247C139.48 111.257 139.704 111.349 139.869 111.514C140.034 111.679 140.126 111.903 140.126 112.136C140.122 112.368 140.028 112.589 139.864 112.753C139.7 112.917 139.479 113.011 139.247 113.016H95.6047H95.6223Z" fill="#D1D3D4"/>
<path d="M144.63 112.91C144.396 112.91 144.173 112.818 144.008 112.653C143.843 112.488 143.75 112.264 143.75 112.031C143.75 111.798 143.843 111.574 144.008 111.409C144.173 111.244 144.396 111.151 144.63 111.151H166.459C166.693 111.151 166.916 111.244 167.081 111.409C167.246 111.574 167.339 111.798 167.339 112.031C167.339 112.264 167.246 112.488 167.081 112.653C166.916 112.818 166.693 112.91 166.459 112.91H144.647H144.63Z" fill="#0055FF"/>
<path d="M171.825 112.857C171.591 112.857 171.368 112.764 171.203 112.599C171.038 112.434 170.945 112.211 170.945 111.977C170.945 111.744 171.038 111.52 171.203 111.356C171.368 111.191 171.591 111.098 171.825 111.098H205.053C205.287 111.098 205.51 111.191 205.675 111.356C205.84 111.52 205.933 111.744 205.933 111.977C205.933 112.211 205.84 112.434 205.675 112.599C205.51 112.764 205.287 112.857 205.053 112.857H171.825Z" fill="#D1D3D4"/>
<path d="M208.554 112.786C208.321 112.786 208.097 112.694 207.932 112.529C207.767 112.364 207.674 112.14 207.674 111.907C207.674 111.674 207.767 111.45 207.932 111.285C208.097 111.12 208.321 111.027 208.554 111.027H241.782C241.899 111.022 242.016 111.042 242.125 111.084C242.234 111.127 242.333 111.191 242.415 111.274C242.498 111.357 242.563 111.456 242.605 111.565C242.648 111.673 242.667 111.79 242.662 111.907C242.662 112.14 242.569 112.364 242.404 112.529C242.239 112.694 242.016 112.786 241.782 112.786H208.554Z" fill="#0055FF"/>
<path d="M107.232 119.858C106.999 119.858 106.775 119.766 106.61 119.601C106.445 119.436 106.353 119.212 106.353 118.979C106.353 118.745 106.445 118.522 106.61 118.357C106.775 118.192 106.999 118.099 107.232 118.099H133.266C133.499 118.099 133.723 118.192 133.888 118.357C134.053 118.522 134.146 118.745 134.146 118.979C134.146 119.212 134.053 119.436 133.888 119.601C133.723 119.766 133.499 119.858 133.266 119.858H107.232Z" fill="#D1D3D4"/>
<path d="M138.156 119.806C137.923 119.806 137.699 119.713 137.534 119.548C137.369 119.383 137.277 119.159 137.277 118.926C137.274 118.811 137.295 118.698 137.337 118.591C137.38 118.484 137.443 118.387 137.523 118.305C137.603 118.223 137.699 118.158 137.805 118.114C137.911 118.069 138.024 118.047 138.139 118.047H164.173C164.406 118.047 164.63 118.139 164.795 118.304C164.96 118.469 165.052 118.693 165.052 118.926C165.052 119.159 164.96 119.383 164.795 119.548C164.63 119.713 164.406 119.806 164.173 119.806H138.139H138.156Z" fill="#0055FF"/>
<path d="M169.274 119.717C169.041 119.717 168.817 119.625 168.652 119.46C168.487 119.295 168.394 119.071 168.394 118.838C168.394 118.605 168.487 118.381 168.652 118.216C168.817 118.051 169.041 117.958 169.274 117.958H195.308C195.541 117.958 195.765 118.051 195.93 118.216C196.095 118.381 196.188 118.605 196.188 118.838C196.188 119.071 196.095 119.295 195.93 119.46C195.765 119.625 195.541 119.717 195.308 119.717H169.274Z" fill="#0055FF"/>
<path d="M201.57 120.439C201.337 120.439 201.113 120.346 200.948 120.181C200.783 120.016 200.691 119.792 200.691 119.559C200.691 119.326 200.783 119.102 200.948 118.937C201.113 118.772 201.337 118.68 201.57 118.68H227.604C227.838 118.68 228.061 118.772 228.226 118.937C228.391 119.102 228.484 119.326 228.484 119.559C228.484 119.792 228.391 120.016 228.226 120.181C228.061 120.346 227.838 120.439 227.604 120.439H201.57Z" fill="#0055FF"/>
<path d="M111.683 126.753C111.449 126.753 111.226 126.661 111.061 126.496C110.896 126.331 110.803 126.107 110.803 125.874C110.803 125.641 110.896 125.417 111.061 125.252C111.226 125.087 111.449 124.994 111.683 124.994H129.625C129.858 124.994 130.082 125.087 130.247 125.252C130.412 125.417 130.504 125.641 130.504 125.874C130.504 126.107 130.412 126.331 130.247 126.496C130.082 126.661 129.858 126.753 129.625 126.753H111.683Z" fill="#D1D3D4"/>
<path d="M133.847 126.753C133.613 126.753 133.39 126.661 133.225 126.496C133.06 126.331 132.967 126.107 132.967 125.874C132.965 125.759 132.985 125.645 133.028 125.539C133.07 125.432 133.133 125.335 133.213 125.253C133.294 125.171 133.389 125.106 133.495 125.062C133.601 125.017 133.714 124.994 133.829 124.994H151.789C152.022 124.994 152.246 125.087 152.411 125.252C152.576 125.417 152.669 125.641 152.669 125.874C152.664 126.106 152.57 126.327 152.406 126.491C152.242 126.655 152.021 126.749 151.789 126.753H133.847Z" fill="#0055FF"/>
<path d="M193.285 127.246L156.169 126.631C155.936 126.631 155.712 126.538 155.547 126.373C155.382 126.208 155.29 125.984 155.29 125.751C155.29 125.518 155.382 125.294 155.547 125.129C155.712 124.964 155.936 124.872 156.169 124.872L193.285 125.487C193.401 125.49 193.515 125.515 193.62 125.561C193.726 125.607 193.822 125.674 193.902 125.757C193.982 125.841 194.045 125.939 194.087 126.046C194.129 126.154 194.149 126.269 194.147 126.384C194.147 126.613 194.056 126.832 193.895 126.994C193.733 127.155 193.514 127.246 193.285 127.246Z" fill="#D1D3D4"/>
<path d="M176.451 51.0093C176.218 51.0093 175.994 50.9166 175.829 50.7517C175.664 50.5868 175.571 50.363 175.571 50.1298C175.571 49.8965 175.664 49.6728 175.829 49.5079C175.994 49.3429 176.218 49.2502 176.451 49.2502H200.708C200.942 49.2502 201.165 49.3429 201.33 49.5079C201.495 49.6728 201.588 49.8965 201.588 50.1298C201.588 50.363 201.495 50.5868 201.33 50.7517C201.165 50.9166 200.942 51.0093 200.708 51.0093H176.451Z" fill="#D1D3D4"/>
<path d="M216.522 50.9912C214.388 51.0779 212.251 51.0485 210.119 50.9032C209.898 50.834 209.712 50.6817 209.601 50.4784C209.489 50.2751 209.461 50.0365 209.521 49.8126C209.579 49.6021 209.715 49.4214 209.901 49.3071C210.087 49.1928 210.31 49.1535 210.524 49.197C211.615 49.197 227.516 49.197 238 49.197C238.234 49.197 238.457 49.2896 238.622 49.4546C238.787 49.6195 238.88 49.8432 238.88 50.0765C238.88 50.3098 238.787 50.5335 238.622 50.6984C238.457 50.8633 238.234 50.956 238 50.956C227.077 50.9736 220.498 50.9912 216.522 50.9912Z" fill="#0055FF"/>
<path d="M152.51 78.5384C152.277 78.5384 152.053 78.4457 151.888 78.2807C151.723 78.1158 151.631 77.8921 151.631 77.6588C151.631 77.4256 151.723 77.2019 151.888 77.0369C152.053 76.872 152.277 76.7793 152.51 76.7793H170.664C170.897 76.7793 171.121 76.872 171.286 77.0369C171.451 77.2019 171.543 77.4256 171.543 77.6588C171.543 77.8921 171.451 78.1158 171.286 78.2807C171.121 78.4457 170.897 78.5384 170.664 78.5384H152.51Z" fill="#0055FF"/>
<path d="M116.256 85.4861C116.023 85.4861 115.799 85.3934 115.634 85.2285C115.469 85.0636 115.376 84.8398 115.376 84.6066C115.381 84.3747 115.475 84.1536 115.639 83.9896C115.803 83.8257 116.024 83.7316 116.256 83.7271H129.607C129.834 83.7469 130.046 83.8459 130.207 84.0067C130.368 84.1676 130.467 84.38 130.487 84.6066C130.489 84.7212 130.469 84.8352 130.426 84.9418C130.384 85.0485 130.321 85.1456 130.241 85.2275C130.16 85.3094 130.065 85.3744 129.959 85.4189C129.853 85.4633 129.74 85.4861 129.625 85.4861H116.256Z" fill="#0055FF"/>
<path d="M134.656 85.4507C134.423 85.4507 134.199 85.358 134.034 85.1931C133.869 85.0282 133.776 84.8044 133.776 84.5712C133.776 84.3379 133.869 84.1142 134.034 83.9493C134.199 83.7843 134.423 83.6917 134.656 83.6917H166.319C166.552 83.6917 166.776 83.7843 166.941 83.9493C167.106 84.1142 167.198 84.3379 167.198 84.5712C167.201 84.6858 167.18 84.7998 167.138 84.9064C167.096 85.0131 167.032 85.1102 166.952 85.1921C166.872 85.274 166.776 85.339 166.67 85.3835C166.565 85.4279 166.451 85.4507 166.336 85.4507H134.673H134.656Z" fill="#D1D3D4"/>
<path d="M172.757 85.3812C172.524 85.3812 172.3 85.2886 172.135 85.1236C171.97 84.9587 171.877 84.735 171.877 84.5017C171.877 84.2684 171.97 84.0447 172.135 83.8798C172.3 83.7148 172.524 83.6222 172.757 83.6222L234.324 83.4814C234.557 83.4814 234.781 83.5741 234.946 83.7391C235.111 83.904 235.203 84.1277 235.203 84.361C235.203 84.5942 235.111 84.818 234.946 84.9829C234.781 85.1478 234.557 85.2405 234.324 85.2405L172.757 85.3812Z" fill="#0055FF"/>
<path d="M107.091 139.068C106.908 139.06 106.73 138.999 106.581 138.892L102.905 136.183C102.791 136.101 102.699 135.992 102.638 135.867C102.576 135.741 102.547 135.601 102.553 135.461C102.551 135.318 102.586 135.177 102.653 135.051C102.721 134.925 102.82 134.818 102.94 134.74L106.018 132.665C106.212 132.537 106.449 132.492 106.676 132.538C106.903 132.584 107.103 132.718 107.232 132.911C107.298 133.005 107.345 133.112 107.369 133.224C107.394 133.337 107.395 133.453 107.374 133.566C107.353 133.679 107.309 133.787 107.245 133.883C107.182 133.979 107.099 134.061 107.003 134.125L104.945 135.514L107.619 137.467C107.805 137.607 107.928 137.814 107.965 138.043C108.001 138.273 107.946 138.508 107.813 138.698C107.732 138.814 107.624 138.908 107.498 138.973C107.372 139.037 107.233 139.07 107.091 139.068Z" fill="#D1D3D4"/>
<path d="M111.313 139.068C111.073 139.06 110.846 138.959 110.68 138.786C110.519 138.622 110.429 138.401 110.429 138.17C110.429 137.94 110.519 137.719 110.68 137.555L112.439 135.901L109.888 134.142C109.793 134.076 109.712 133.991 109.65 133.893C109.588 133.794 109.546 133.685 109.526 133.57C109.507 133.456 109.51 133.339 109.536 133.226C109.562 133.112 109.61 133.005 109.677 132.911C109.742 132.816 109.826 132.736 109.922 132.674C110.019 132.612 110.127 132.57 110.24 132.55C110.353 132.53 110.469 132.534 110.58 132.559C110.692 132.585 110.798 132.633 110.891 132.7L114.409 135.092C114.516 135.166 114.604 135.263 114.668 135.375C114.732 135.488 114.77 135.614 114.779 135.743C114.787 136.003 114.692 136.256 114.515 136.447L112.034 138.839C111.937 138.926 111.823 138.992 111.699 139.031C111.574 139.071 111.443 139.083 111.313 139.068Z" fill="#D1D3D4"/>
<path d="M295.873 91.2916C295.747 91.2905 295.623 91.2634 295.508 91.2119C295.393 91.1604 295.29 91.0858 295.205 90.9926C295.054 90.814 294.979 90.5835 294.995 90.3502C295.011 90.1169 295.118 89.8993 295.293 89.7436C297.527 87.8087 301.133 83.9388 300.06 79.8402C299.23 77.6319 297.783 75.7086 295.891 74.2991C295.117 73.5955 294.308 72.8391 293.587 72.0475C291.136 69.2185 289.662 65.6753 289.383 61.9429C289.105 58.2105 290.036 54.4876 292.039 51.3258C292.176 51.1552 292.372 51.042 292.589 51.0084C292.805 50.9749 293.027 51.0234 293.209 51.1444C293.392 51.2655 293.523 51.4503 293.577 51.6629C293.63 51.8754 293.602 52.1002 293.499 52.2933C291.707 55.1301 290.877 58.4683 291.13 61.8139C291.384 65.1594 292.707 68.3344 294.906 70.869C295.574 71.6078 296.348 72.329 297.087 73.015C299.23 74.6477 300.855 76.8652 301.766 79.4004C303.068 84.4137 298.987 88.8641 296.489 91.0805C296.319 91.2286 296.098 91.3044 295.873 91.2916Z" fill="#D1D3D4"/>
<path d="M319.797 89.4265C319.654 89.4253 319.514 89.3894 319.388 89.322C319.263 89.2546 319.155 89.1576 319.075 89.0395C319.008 88.9464 318.961 88.8408 318.935 88.729C318.909 88.6171 318.906 88.5013 318.926 88.3883C318.945 88.2752 318.987 88.1672 319.049 88.0706C319.111 87.974 319.192 87.8908 319.286 87.8258C320.3 87.1224 321.026 86.0764 321.33 84.8805C321.633 83.6846 321.495 82.4192 320.94 81.3173C320.6 80.8384 320.217 80.391 319.797 79.9804L319.304 79.4878C316.636 76.6298 315.19 72.8424 315.276 68.9335C315.225 66.7819 315.999 64.6923 317.439 63.0934C317.52 63.0115 317.615 62.9464 317.721 62.902C317.827 62.8576 317.94 62.8347 318.055 62.8347C318.17 62.8347 318.283 62.8576 318.389 62.902C318.495 62.9464 318.591 63.0115 318.671 63.0934C318.753 63.1752 318.819 63.2725 318.863 63.3796C318.908 63.4868 318.931 63.6018 318.931 63.7179C318.931 63.834 318.908 63.949 318.863 64.0561C318.819 64.1633 318.753 64.2606 318.671 64.3424C317.567 65.6195 316.984 67.2642 317.035 68.9511C316.95 72.4033 318.212 75.753 320.553 78.2917L321.01 78.749C321.517 79.2379 321.977 79.7739 322.382 80.3498C323.191 81.8324 323.423 83.5616 323.033 85.2048C322.643 86.8479 321.66 88.2889 320.272 89.2506C320.136 89.3585 319.97 89.4202 319.797 89.4265Z" fill="#D1D3D4"/>
<path d="M308.363 91.3085C308.217 91.3102 308.074 91.2757 307.945 91.2081C307.816 91.1406 307.705 91.0421 307.624 90.9215C307.496 90.7249 307.45 90.4858 307.496 90.2556C307.542 90.0254 307.676 89.8224 307.87 89.6902C308.688 89.1422 309.355 88.3976 309.81 87.5247C310.265 86.6518 310.493 85.6786 310.474 84.6945C310.148 82.4319 309.218 80.299 307.782 78.5202C307.378 77.9045 306.973 77.2888 306.586 76.6556C304.617 73.2457 303.543 69.3932 303.463 65.4564C303.383 61.5197 304.3 57.6266 306.129 54.1396C306.183 54.0363 306.256 53.9447 306.346 53.87C306.435 53.7954 306.538 53.7393 306.65 53.7049C306.761 53.6706 306.878 53.6586 306.994 53.6699C307.11 53.6811 307.222 53.7152 307.325 53.7702C307.527 53.8851 307.677 54.0741 307.743 54.2972C307.808 54.5204 307.785 54.7603 307.677 54.9664C305.992 58.1845 305.147 61.7761 305.221 65.4078C305.295 69.0396 306.285 72.5939 308.099 75.7409C308.468 76.3389 308.855 76.937 309.26 77.4999C310.874 79.5283 311.897 81.9633 312.215 84.5361C312.251 85.8234 311.96 87.0989 311.37 88.2433C310.779 89.3876 309.908 90.3636 308.838 91.0798C308.71 91.2081 308.543 91.2888 308.363 91.3085Z" fill="#D1D3D4"/>
<path d="M319.568 122.655C317.277 122.624 315.021 122.096 312.954 121.107C312.849 121.06 312.754 120.992 312.676 120.908C312.598 120.823 312.537 120.724 312.498 120.616C312.458 120.508 312.441 120.393 312.447 120.278C312.453 120.163 312.482 120.05 312.532 119.946C312.628 119.734 312.804 119.569 313.021 119.487C313.239 119.404 313.48 119.411 313.693 119.507C320.131 122.462 325.531 120.21 328.047 116.692C328.971 115.587 329.478 114.193 329.478 112.752C329.478 111.311 328.971 109.916 328.047 108.812C327.964 108.73 327.899 108.633 327.854 108.525C327.809 108.418 327.786 108.303 327.786 108.187C327.786 108.071 327.809 107.956 327.854 107.849C327.899 107.742 327.964 107.644 328.047 107.563C328.128 107.48 328.226 107.415 328.333 107.37C328.44 107.325 328.555 107.302 328.671 107.302C328.787 107.302 328.902 107.325 329.009 107.37C329.116 107.415 329.214 107.48 329.295 107.563C330.511 108.965 331.19 110.753 331.209 112.609C331.228 114.465 330.587 116.268 329.401 117.695C328.272 119.242 326.792 120.498 325.082 121.36C323.373 122.223 321.483 122.667 319.568 122.655Z" fill="#00194C"/>
<path d="M297.756 132.119C272.003 132.119 274.8 96.938 274.8 96.938H320.711C320.711 96.938 323.508 132.119 297.756 132.119Z" fill="white"/>
<path d="M297.755 132.999C294.805 133.118 291.864 132.6 289.132 131.48C286.4 130.359 283.941 128.664 281.924 126.508C272.443 116.252 273.797 97.6239 273.868 96.8324C273.885 96.6115 273.986 96.4055 274.149 96.2555C274.312 96.1054 274.525 96.0225 274.747 96.0232H320.658C320.88 96.0225 321.094 96.1054 321.257 96.2555C321.42 96.4055 321.52 96.6115 321.538 96.8324C321.538 97.6239 322.963 116.182 313.481 126.508C311.476 128.65 309.035 130.338 306.322 131.457C303.609 132.577 300.688 133.102 297.755 132.999ZM275.627 97.8174C275.486 101.511 275.398 116.833 283.278 125.364C287.143 129.157 292.341 131.281 297.755 131.281C303.17 131.281 308.368 129.157 312.233 125.364C320.131 116.833 320.025 101.511 319.884 97.835L275.627 97.8174Z" fill="white"/>
<path d="M297.756 132.119C272.003 132.119 274.8 96.938 274.8 96.938H320.711C320.711 96.938 323.508 132.119 297.756 132.119Z" fill="white"/>
<path d="M297.755 132.999C294.805 133.118 291.864 132.6 289.132 131.48C286.4 130.359 283.941 128.664 281.924 126.508C272.443 116.252 273.797 97.6239 273.868 96.8324C273.885 96.6115 273.986 96.4055 274.149 96.2555C274.312 96.1054 274.525 96.0225 274.747 96.0232H320.658C320.88 96.0225 321.094 96.1054 321.257 96.2555C321.42 96.4055 321.52 96.6115 321.538 96.8324C321.538 97.6239 322.963 116.182 313.481 126.508C311.476 128.65 309.035 130.338 306.322 131.457C303.609 132.577 300.688 133.102 297.755 132.999ZM275.627 97.8174C275.486 101.511 275.398 116.833 283.278 125.364C287.143 129.157 292.341 131.281 297.755 131.281C303.17 131.281 308.368 129.157 312.233 125.364C320.131 116.833 320.025 101.511 319.884 97.835L275.627 97.8174Z" fill="#D1D3D4"/>
<path d="M297.756 132.119C272.003 132.119 274.8 96.938 274.8 96.938H320.711C320.711 96.938 323.508 132.119 297.756 132.119Z" stroke="#00194C" stroke-linecap="round" stroke-linejoin="round"/>
<path d="M297.755 132.999C294.805 133.118 291.864 132.6 289.132 131.48C286.4 130.359 283.941 128.664 281.924 126.508C272.443 116.252 273.797 97.6239 273.868 96.8324C273.885 96.6115 273.986 96.4055 274.149 96.2555C274.312 96.1054 274.525 96.0225 274.747 96.0232H320.658C320.88 96.0225 321.094 96.1054 321.257 96.2555C321.42 96.4055 321.52 96.6115 321.538 96.8324C321.538 97.6239 322.963 116.182 313.481 126.508C311.476 128.65 309.035 130.338 306.322 131.457C303.609 132.577 300.688 133.102 297.755 132.999ZM275.627 97.8174C275.486 101.511 275.398 116.833 283.278 125.364C287.143 129.157 292.341 131.281 297.755 131.281C303.17 131.281 308.368 129.157 312.233 125.364C320.131 116.833 320.025 101.511 319.884 97.835L275.627 97.8174Z" stroke="#00194C" stroke-linecap="round" stroke-linejoin="round"/>
<path d="M324.37 100.861C322.963 103.2 319.199 110.993 323.702 112.083C326.481 112.769 327.66 110.148 328.75 108.196C329.539 106.533 330.038 104.749 330.228 102.919C332.092 105.118 331.195 115.232 335.646 116.041" fill="white"/>
<path d="M335.646 116.851H335.47C332.075 116.182 331.318 111.573 330.703 107.809C330.703 107.316 330.544 106.806 330.457 106.331C330.242 107.138 329.922 107.912 329.507 108.636L329.26 109.093C328.24 110.852 326.71 113.737 323.508 112.963C322.961 112.842 322.45 112.593 322.019 112.235C321.587 111.877 321.247 111.421 321.028 110.905C319.515 107.264 323.455 100.702 323.631 100.351C323.686 100.242 323.762 100.145 323.856 100.068C323.95 99.99 324.059 99.9326 324.176 99.8991C324.293 99.8657 324.416 99.8568 324.536 99.8733C324.657 99.8897 324.773 99.931 324.877 99.9945C324.98 100.058 325.07 100.142 325.14 100.242C325.209 100.342 325.257 100.456 325.281 100.575C325.304 100.694 325.303 100.818 325.276 100.936C325.25 101.055 325.199 101.167 325.127 101.265C323.614 103.763 321.837 108.196 322.646 110.166C322.76 110.426 322.934 110.654 323.155 110.831C323.375 111.009 323.635 111.131 323.913 111.186C325.672 111.609 326.569 110.272 327.712 108.178L327.976 107.721C328.547 106.674 328.911 105.528 329.049 104.344C329.137 103.816 329.225 103.253 329.383 102.585C329.414 102.422 329.492 102.271 329.608 102.152C329.724 102.033 329.872 101.951 330.034 101.916C330.194 101.879 330.361 101.887 330.517 101.94C330.672 101.993 330.81 102.088 330.914 102.215C331.815 103.837 332.338 105.641 332.444 107.492C332.954 110.694 333.605 114.652 335.804 115.092C335.918 115.11 336.027 115.152 336.125 115.214C336.222 115.276 336.307 115.357 336.372 115.452C336.438 115.548 336.484 115.655 336.507 115.768C336.53 115.882 336.53 115.998 336.508 116.112C336.471 116.315 336.365 116.5 336.208 116.635C336.051 116.769 335.853 116.846 335.646 116.851Z" fill="#00194C"/>
<path d="M85.3494 32.5386L85.068 30.4629L92.6143 25.5552L94.5669 28.2465L89.149 31.6063L95.464 34.9485L94.2151 37.5519L85.3494 32.5386Z" fill="#00194C"/>
<path d="M95.2704 40.2256H97.135C97.909 40.2256 98.2081 39.8914 98.1025 39.1701L96.5546 27.7187H100.213L101.761 39.2053C102.184 42.3365 101.04 43.603 97.909 43.603H95.7278L95.2704 40.2256ZM95.8685 22.635H99.5098L99.9671 26.0476H96.3259L95.8685 22.635Z" fill="#00194C"/>
<path d="M102.729 35.7579C102.448 33.6998 103.784 32.6268 107.285 32.2398C109.325 31.9408 109.906 31.6417 109.836 31.0964C109.765 30.5511 108.974 30.0762 107.901 30.0762C107.619 30.0369 107.332 30.0556 107.057 30.131C106.783 30.2064 106.527 30.3371 106.304 30.5149C106.082 30.6927 105.898 30.914 105.764 31.1652C105.631 31.4164 105.549 31.6923 105.526 31.976L102.184 31.3075C102.272 28.9504 104.47 27.3145 107.461 27.3145C110.979 27.3145 113.301 29.0735 113.688 31.9408L114.62 38.977H111.313L111.172 37.8688C110.72 38.3707 110.157 38.7607 109.528 39.0079C108.9 39.2552 108.222 39.353 107.549 39.2936C106.443 39.4465 105.322 39.1628 104.422 38.5027C103.522 37.8427 102.915 36.8582 102.729 35.7579ZM110.522 34.6497L110.363 33.5415C110.17 33.8757 109.677 34.0868 108.358 34.3683C106.722 34.7025 106.194 35.0015 106.265 35.5644C106.335 36.1273 106.88 36.4088 108.024 36.4088C109.466 36.4088 110.645 35.5996 110.522 34.6497Z" fill="#00194C"/>
<path d="M112.879 27.719H116.96L121.023 34.7552L123.204 27.719H127.285L123.292 38.889H119.774L112.879 27.719Z" fill="#00194C"/>
<path d="M128.253 35.7574C127.971 33.6993 129.308 32.6263 132.809 32.2393C134.849 31.9402 135.43 31.6412 135.359 31.0959C135.289 30.5506 134.497 30.0756 133.424 30.0756C133.143 30.0364 132.856 30.055 132.581 30.1305C132.307 30.2059 132.05 30.3365 131.828 30.5143C131.606 30.6922 131.422 30.9134 131.288 31.1647C131.155 31.4159 131.073 31.6917 131.05 31.9754L127.637 31.3949C127.637 29.0378 129.924 27.4019 132.914 27.4019C136.432 27.4019 138.772 29.1609 139.159 32.0282L140.091 39.0644H136.784L136.626 37.9562C136.172 38.4559 135.609 38.8444 134.98 39.0915C134.352 39.3386 133.675 39.4377 133.002 39.381C131.895 39.5123 130.78 39.2074 129.894 38.5311C129.007 37.8548 128.419 36.86 128.253 35.7574ZM136.028 34.6492L135.887 33.541C135.711 33.8752 135.201 34.0863 133.899 34.3677C132.246 34.702 131.718 35.001 131.806 35.5639C131.894 36.1268 132.422 36.4082 133.565 36.4082C134.99 36.4082 136.169 35.5991 136.028 34.6492Z" fill="#00194C"/>
<path d="M140.76 35.5112L144.049 34.5437C144.366 35.1898 144.873 35.7234 145.502 36.0725C146.131 36.4217 146.852 36.5695 147.567 36.4962C149.045 36.4962 149.819 36.2148 149.766 35.7222C149.713 35.2297 148.992 34.9131 146.741 34.5789C142.73 33.9808 140.988 32.9429 140.707 30.92C140.426 28.8971 142.466 27.4019 145.72 27.4019C147.02 27.3167 148.318 27.5858 149.477 28.1806C150.636 28.7754 151.611 29.6736 152.299 30.7793L149.15 31.7468C148.799 31.2249 148.316 30.8042 147.752 30.5265C147.187 30.2488 146.559 30.1237 145.931 30.1636C144.753 30.1636 144.172 30.4627 144.172 30.9376C144.172 31.4126 144.806 31.6412 147.286 32.0282C151.209 32.6615 152.985 33.6466 153.267 35.7398C153.548 37.8331 151.508 39.3811 147.778 39.3811C146.36 39.4841 144.941 39.1734 143.695 38.4865C142.45 37.7996 141.43 36.766 140.76 35.5112Z" fill="#00194C"/>
<path d="M153.777 33.3126C153.644 32.5333 153.692 31.7338 153.917 30.9761C154.143 30.2184 154.54 29.5227 155.077 28.9428C155.614 28.3629 156.278 27.9144 157.016 27.632C157.755 27.3496 158.548 27.2409 159.335 27.3142C160.697 27.2774 162.041 27.6368 163.202 28.3488C164.364 29.0607 165.294 30.0946 165.879 31.3248L162.625 32.3627C162.394 31.8003 161.998 31.3211 161.489 30.9883C160.981 30.6554 160.383 30.4845 159.775 30.4981C159.419 30.4764 159.063 30.5389 158.736 30.6804C158.409 30.8219 158.12 31.0384 157.892 31.3125C157.664 31.5866 157.504 31.9105 157.425 32.258C157.346 32.6055 157.349 32.9668 157.436 33.3126C157.51 34.0808 157.869 34.7935 158.442 35.3109C159.014 35.8283 159.76 36.1131 160.532 36.1095C161.072 36.1668 161.614 36.0172 162.048 35.6907C162.482 35.3643 162.776 34.8853 162.871 34.3504L166.389 35.3707C166.142 36.5978 165.446 37.6887 164.438 38.4303C163.43 39.1719 162.181 39.511 160.936 39.3813C159.205 39.428 157.518 38.8347 156.197 37.715C154.876 36.5953 154.014 35.0278 153.777 33.3126Z" fill="#00194C"/>
<path d="M166.759 27.7193H170.277L170.417 28.7923C170.788 28.3442 171.262 27.9919 171.798 27.7654C172.333 27.5388 172.916 27.4446 173.496 27.4906C174.184 27.49 174.87 27.5787 175.536 27.7545L175.343 31.0087C174.769 30.8592 174.177 30.7882 173.584 30.7976C171.825 30.7976 170.945 31.8531 171.227 34.0167L171.895 38.8893H168.236L166.759 27.7193Z" fill="#00194C"/>
<path d="M175.818 22.5645H179.477L179.934 25.977H176.293L175.818 22.5645ZM176.539 27.7185H180.18L181.693 38.8885H178.052L176.539 27.7185Z" fill="#00194C"/>
<path d="M182.098 27.7192H185.616L185.756 28.7219C186.181 28.2913 186.692 27.9558 187.256 27.7374C187.82 27.5191 188.424 27.423 189.028 27.4553C190.653 27.4821 192.214 28.089 193.431 29.1665C194.647 30.244 195.438 31.721 195.66 33.3306C195.817 34.0581 195.805 34.812 195.625 35.5341C195.444 36.2562 195.1 36.9271 194.619 37.495C194.138 38.0628 193.532 38.5125 192.85 38.8091C192.167 39.1058 191.425 39.2415 190.682 39.2058C189.424 39.2191 188.194 38.8376 187.164 38.1152L187.902 43.6387H184.261L182.098 27.7192ZM191.984 33.2778C191.875 32.5244 191.492 31.8377 190.907 31.3504C190.322 30.8631 189.578 30.6098 188.817 30.6392C187.322 30.6392 186.267 31.5891 186.425 32.7325L186.583 33.9463C186.742 34.5992 187.133 35.172 187.683 35.5574C188.234 35.9427 188.906 36.1141 189.574 36.0395C189.928 36.0667 190.285 36.0106 190.614 35.8758C190.944 35.741 191.237 35.5311 191.471 35.2629C191.705 34.9948 191.873 34.6757 191.962 34.331C192.051 33.9864 192.058 33.6258 191.984 33.2778Z" fill="#00194C"/>
<path d="M201.676 30.6391L202.221 34.6674C202.221 35.3534 202.608 35.5997 203.4 35.5997H205.475L205.933 38.8891H203.294C202.727 38.9764 202.148 38.9427 201.595 38.7901C201.043 38.6376 200.528 38.3698 200.086 38.0042C199.644 37.6387 199.285 37.1837 199.031 36.6692C198.777 36.1547 198.636 35.5924 198.615 35.0192L198.017 30.6391H195.414L195.027 27.7191H197.665L197.173 24.8167H200.814L201.201 27.7191H204.719L205.106 30.6391H201.676Z" fill="#00194C"/>
<path d="M207.076 34.8603L212.494 31.5181L206.179 28.2462L207.428 25.6428L216.223 30.5506L216.505 32.6263L208.958 37.5516L207.076 34.8603Z" fill="#00194C"/>
</svg>
