<svg width="234" height="425" viewBox="0 0 234 425" fill="none" xmlns="http://www.w3.org/2000/svg">
<path d="M-119.988 583.928L6.93174 364.972L-113.984 5.31871C-113.979 4.5617 -113.972 3.80327 -113.966 3.04619L7.67417 364.854L7.7543 365.093L-120.006 585.5C-120 584.976 -119.993 584.452 -119.988 583.928Z" fill="#00194C"/>
<path d="M-120.147 597.821L16.2221 362.562L-113.752 -24.033C-113.746 -24.7736 -113.74 -25.5129 -113.734 -26.2535L16.9462 362.445L17.0241 362.68L-120.165 599.356C-120.16 598.844 -120.153 598.333 -120.147 597.821Z" fill="#00194C"/>
<path d="M-120.307 611.713L25.5114 360.152L-113.521 -53.3872C-113.516 -54.1099 -113.509 -54.8341 -113.504 -55.5582L26.2203 360.038L26.296 360.266L-120.325 613.211C-120.319 612.712 -120.314 612.212 -120.307 611.713Z" fill="#00194C"/>
<path d="M-120.467 625.606L34.8007 357.743L-113.324 -82.843C-113.32 -83.5507 -113.315 -84.2597 -113.31 -84.9674L35.4923 357.633L35.5659 357.855L-120.486 627.07C-120.479 626.582 -120.474 626.095 -120.467 625.606Z" fill="#00194C"/>
<path d="M-120.627 639.499L44.0912 355.333L-113.131 -112.314C-113.127 -113.003 -113.123 -113.694 -113.118 -114.384L44.7654 355.226L44.8379 355.443L-120.644 640.926L-120.627 639.499Z" fill="#00194C"/>
<path d="M-120.785 653.388L53.3805 352.923L-112.94 -141.782C-112.935 -142.455 -112.931 -143.128 -112.927 -143.803L54.0375 352.819L54.1078 353.03L-120.802 654.776C-120.796 654.312 -120.791 653.85 -120.785 653.388Z" fill="#00194C"/>
<path d="M-120.943 667.277L62.6709 350.513L-112.771 -171.322C-112.768 -171.981 -112.766 -172.641 -112.761 -173.299L63.3106 350.411L63.3788 350.616L-120.959 668.631C-120.953 668.179 -120.949 667.728 -120.943 667.277Z" fill="#00194C"/>
<path d="M-121.1 681.164L71.9602 348.104L-112.625 -200.928C-112.622 -201.568 -112.618 -202.209 -112.615 -202.851L72.5835 348.005L72.6507 348.205L-121.116 682.483C-121.111 682.043 -121.106 681.604 -121.1 681.164Z" fill="#00194C"/>
<path d="M-121.258 695.054L81.2496 345.693L-112.478 -230.535C-112.476 -231.159 -112.471 -231.781 -112.469 -232.405L81.8546 345.597L81.9206 345.793L-121.272 696.335C-121.268 695.908 -121.264 695.481 -121.258 695.054Z" fill="#00194C"/>
<path d="M-121.416 708.942L90.5399 343.286L-112.338 -260.159C-112.336 -260.766 -112.335 -261.375 -112.333 -261.983L91.1276 343.192L91.1915 343.382L-121.43 710.187C-121.426 709.772 -121.421 709.356 -121.416 708.942Z" fill="#00194C"/>
<path d="M-116.613 714.273L99.8293 340.875L-112.245 -289.925C-112.243 -290.516 -112.242 -291.105 -112.24 -291.697L100.401 340.783L100.462 340.966L-115.951 714.318L215.454 1437.46L214.975 1437.82L-116.52 714.472L-116.613 714.273Z" fill="#00194C"/>
<path d="M-105.018 -300.208L109.675 338.377L109.734 338.555L-106.681 711.907L224.728 1435.06L224.263 1435.4L-107.235 712.055L-107.323 711.862L109.121 338.465L-105.602 -300.204C-105.407 -300.205 -105.213 -300.207 -105.018 -300.208Z" fill="#00194C"/>
<path d="M-94.9705 -300.311L118.946 335.969L119.005 336.141L-97.4112 709.493L234 1432.65L233.55 1432.98L-97.948 709.639L-98.0335 709.452L118.408 336.055L-95.5333 -300.3C-95.345 -300.303 -95.1588 -300.308 -94.9705 -300.311Z" fill="#00194C"/>
</svg>
