<svg width="535" height="340" viewBox="0 0 535 340" fill="none" xmlns="http://www.w3.org/2000/svg">
<path d="M534.138 278.679H0.862069C0.633434 278.679 0.414163 278.588 0.252494 278.426C0.0908242 278.265 0 278.045 0 277.817C0.00441392 277.589 0.0966578 277.373 0.25738 277.212C0.418103 277.051 0.634816 276.959 0.862069 276.955H534.138C534.365 276.959 534.582 277.051 534.743 277.212C534.903 277.373 534.996 277.589 535 277.817C535 278.045 534.909 278.265 534.747 278.426C534.586 278.588 534.367 278.679 534.138 278.679Z" fill="#D1D3D4"/>
<path d="M43.2414 92.9718C17.5 111.713 14.0517 150.782 13.3966 180.127C12.7414 207.713 18.8966 234.058 24.6552 260.972C30.2759 287.299 51.6379 301.661 77.1379 307.524C115.069 316.299 156.448 317.317 194.948 313.075C233.448 308.834 234.448 270.903 230.586 239.851C229.517 231.23 223.466 225.903 216.931 221.248C208.846 215.848 201.793 209.045 196.103 201.161C177.845 174.73 176.793 143.317 164.621 114.558C155 91.7822 133.586 75.9201 108.741 76.7132C83.8966 77.5063 60.3621 80.5236 43.2414 92.9718Z" fill="white"/>
<path d="M151.224 316.42C126.243 316.558 101.327 313.875 76.9483 308.42C39.5173 299.799 27.3966 277.92 23.8104 261.144L22.6035 255.489C17.1035 229.972 11.9138 205.886 12.5345 180.11C13.9655 120.679 29.431 101.955 42.7414 92.2649C60.8621 79.0925 86.2586 76.5752 108.724 75.8511C132.966 75.1097 155.276 90.127 165.414 114.213C169.869 125.431 173.511 136.955 176.31 148.696C180.966 166.368 185.793 184.627 196.828 200.696C201.707 207.799 207.862 213.748 217.517 220.575C224.138 225.282 230.414 230.92 231.517 239.765C235.069 268.196 232.155 287.886 222.603 299.972C216.328 307.92 207.086 312.627 195.121 313.955C180.544 315.575 165.89 316.398 151.224 316.42ZM43.7586 93.6959C19.0345 111.679 15 149.368 14.2586 180.179C13.6552 205.748 18.8104 229.748 24.2759 255.161L25.5 260.817C28.9483 277.11 40.7931 298.282 77.3448 306.765C112.724 314.972 153.362 316.886 194.845 312.299C206.328 311.041 215.19 306.541 221.172 298.972C230.414 287.265 233.241 267.937 229.793 240.041C228.759 231.817 222.793 226.524 216.5 222.041C206.759 215.144 200.466 209.024 195.466 201.748C184.259 185.437 179.414 167.006 174.776 149.196C171.985 137.528 168.367 126.074 163.948 114.92C154.052 91.489 132.431 76.7994 108.897 77.6097C86.7069 78.3339 61.6207 80.7994 43.8793 93.6959H43.7586Z" fill="#00194C"/>
<path d="M110.828 238.661C106.219 238.658 101.614 238.399 97.0345 237.886C88.2478 236.889 79.5835 235.012 71.1724 232.282C59.7241 228.575 52.0345 224.334 46.2586 218.575C37.4828 209.799 34.1897 197.886 32.8621 189.558C29.931 170.179 32.8621 148.765 34.9828 137.73C36.3672 130.165 39.3904 122.995 43.8402 116.722C48.2901 110.449 54.0587 105.227 60.7414 101.42C70.0173 96.0235 81.0862 92.5408 94.5517 90.7822C108.69 88.9373 118.862 90.4546 126.569 95.5408C139.155 103.851 142.741 119.834 145.328 135.489L149.724 162.058C150.793 168.661 152.276 177.696 157.466 181.955C159.296 183.34 161.267 184.531 163.345 185.506C166.983 187.334 170.724 189.248 172.845 193.403C175.448 198.575 176.552 207.196 173.879 212.868C170.914 219.11 164.862 223.213 160.586 225.748C145.463 234.447 128.273 238.909 110.828 238.661ZM105.431 91.7477C101.925 91.774 98.4235 92.0216 94.9483 92.4891C81.7069 94.2132 70.8104 97.6615 61.7931 102.834C55.3215 106.512 49.7352 111.565 45.4277 117.636C41.1202 123.707 38.1963 130.648 36.8621 137.972C34.7414 148.972 31.8104 170.161 34.7414 189.299C35.9655 197.437 39.2069 208.903 47.6552 217.351C53.2241 222.92 60.6897 227.024 71.7931 230.644C80.0609 233.342 88.5819 235.19 97.2241 236.161C120.586 238.799 142.224 234.679 159.793 224.265C163.879 221.834 169.638 217.937 172.397 212.196C174.845 207.024 173.81 199.024 171.397 194.248C169.534 190.593 166.224 188.903 162.655 187.11C160.466 186.085 158.391 184.831 156.466 183.368C150.759 178.696 149.224 169.265 148.103 162.403L143.707 135.834C141.19 120.558 137.707 104.972 125.707 97.058C120.448 93.4718 113.828 91.7477 105.431 91.7477Z" fill="#D1D3D4"/>
<path d="M47.3448 211.713C47.1722 211.713 47.0033 211.663 46.8592 211.568C46.7151 211.473 46.6021 211.338 46.5344 211.179C46.4924 211.073 46.4716 210.961 46.4732 210.848C46.4747 210.734 46.4986 210.622 46.5434 210.518C46.5883 210.414 46.6532 210.32 46.7345 210.241C46.8158 210.162 46.9119 210.1 47.0172 210.058C58.0862 205.472 65.4655 206.61 65.7758 206.61C65.889 206.627 65.9978 206.666 66.0959 206.725C66.194 206.784 66.2795 206.862 66.3475 206.954C66.4156 207.046 66.4648 207.15 66.4924 207.261C66.5201 207.372 66.5256 207.488 66.5086 207.601C66.4916 207.714 66.4525 207.823 66.3935 207.921C66.3345 208.019 66.2567 208.105 66.1646 208.173C66.0726 208.241 65.968 208.29 65.8569 208.318C65.7459 208.345 65.6304 208.351 65.5172 208.334C65.5172 208.334 58.2586 207.299 47.6724 211.679C47.5671 211.715 47.4552 211.726 47.3448 211.713Z" fill="#D1D3D4"/>
<path d="M491.759 92.9718C517.535 111.713 520.897 150.782 521.604 180.127C522.259 207.713 516.104 234.058 510.345 260.972C504.724 287.299 483.362 301.661 457.862 307.524C419.931 316.299 378.552 317.317 340.052 313.075C301.552 308.834 300.552 270.903 304.414 239.851C305.483 231.23 311.535 225.903 318.069 221.248C326.154 215.848 333.207 209.045 338.897 201.161C357.155 174.73 358.207 143.317 370.379 114.558C380 91.7822 401.414 75.9201 426.259 76.7132C451.103 77.5063 474.638 80.5236 491.759 92.9718Z" fill="white"/>
<path d="M383.776 316.42C369.122 316.409 354.479 315.597 339.914 313.989C327.948 312.661 318.707 307.955 312.431 300.006C302.879 287.937 299.965 268.23 303.517 239.799C304.621 230.903 310.896 225.317 317.517 220.61C327.086 213.713 333.241 207.834 338.207 200.73C349.241 184.661 354.069 166.403 358.724 148.73C361.523 136.989 365.165 125.465 369.621 114.248C379.81 90.1097 402.121 75.1614 426.31 75.8856C448.724 76.6097 474.172 79.127 492.293 92.2994C517.638 110.73 521.741 148.92 522.5 180.23C523.121 206.006 517.931 230.092 512.431 255.61L511.224 261.265C507.638 278.041 495.517 299.851 458.086 308.541C433.692 313.957 408.764 316.601 383.776 316.42ZM424.396 77.5408C401.552 77.5408 380.759 92.0408 371.103 114.886C366.685 126.039 363.067 137.494 360.276 149.161C355.586 166.972 350.741 185.368 339.586 201.713C334.586 208.989 328.293 215.058 318.552 222.006C312.259 226.489 306.293 231.782 305.259 240.006C301.81 267.955 304.569 287.23 313.879 298.937C319.862 306.506 328.724 311.006 340.207 312.265C381.69 316.851 422.327 314.937 457.707 306.73C494.259 298.248 505.983 277.075 509.552 260.782L510.776 255.127C516.241 229.713 521.396 205.713 520.793 180.144C519.379 121.524 504.293 103.11 491.293 93.6615C473.552 80.7649 448.465 78.2994 426.276 77.5752L424.396 77.5408Z" fill="#00194C"/>
<path d="M424.172 238.661C406.68 238.934 389.44 234.471 374.276 225.748C370 223.213 363.931 219.11 360.983 212.868C358.31 207.213 359.414 198.541 362.017 193.403C364.138 189.248 367.879 187.334 371.517 185.506C373.595 184.531 375.566 183.34 377.396 181.955C382.569 177.696 384.069 168.661 385.138 162.058L389.534 135.489C392.121 119.834 395.707 103.851 408.293 95.5408C416 90.4546 426.172 88.9373 440.31 90.7822C453.776 92.5063 464.845 95.9546 474.121 101.42C480.803 105.227 486.572 110.449 491.022 116.722C495.472 122.995 498.495 130.165 499.879 137.73C501.931 148.765 504.931 170.179 502 189.558C500.741 197.955 497.379 209.799 488.603 218.575C482.828 224.334 475.138 228.575 463.69 232.282C455.278 235.012 446.614 236.889 437.828 237.886C433.293 238.394 428.735 238.653 424.172 238.661ZM429.569 91.7477C421.138 91.7477 414.517 93.4718 409.207 96.9201C397.138 104.834 393.69 120.42 391.207 135.696L386.81 162.265C385.69 169.161 384.155 178.558 378.448 183.23C376.523 184.693 374.448 185.947 372.259 186.972C368.81 188.696 365.362 190.42 363.517 194.11C361.103 198.886 360.069 206.886 362.517 212.058C365.276 217.868 371.034 221.765 375.121 224.127C392.69 234.472 414.31 238.661 437.69 236.024C446.332 235.052 454.853 233.204 463.121 230.506C474.31 226.886 481.776 222.782 487.259 217.213C495.707 208.765 498.948 197.299 500.172 189.161C503.069 170.024 500.172 148.834 498.052 137.92C496.717 130.597 493.794 123.655 489.486 117.584C485.179 111.513 479.592 106.46 473.121 102.782C464.052 97.5063 453.207 94.1615 439.965 92.4373C436.518 91.9902 433.045 91.7599 429.569 91.7477Z" fill="#D1D3D4"/>
<path d="M487.655 211.713C487.547 211.738 487.435 211.738 487.328 211.713C476.741 207.334 469.569 208.368 469.483 208.368C469.369 208.385 469.254 208.38 469.143 208.352C469.032 208.325 468.927 208.275 468.835 208.207C468.743 208.139 468.665 208.054 468.606 207.956C468.547 207.858 468.508 207.749 468.491 207.636C468.474 207.522 468.48 207.407 468.507 207.296C468.535 207.185 468.584 207.08 468.652 206.988C468.72 206.896 468.806 206.818 468.904 206.759C469.002 206.7 469.111 206.661 469.224 206.644C469.534 206.644 476.914 205.524 487.983 210.092C488.088 210.134 488.184 210.196 488.265 210.275C488.347 210.354 488.412 210.449 488.456 210.553C488.501 210.657 488.525 210.769 488.527 210.882C488.528 210.995 488.507 211.108 488.465 211.213C488.393 211.366 488.278 211.494 488.134 211.582C487.99 211.671 487.824 211.716 487.655 211.713Z" fill="#D1D3D4"/>
<path d="M361.966 111.144L308.517 81.8339C308.517 81.8339 305.431 73.0063 302.121 70.2994C298.81 67.5925 300.862 77.196 300.862 77.196C300.862 77.196 282.586 65.5235 280.707 68.6787C278.828 71.8339 275.707 84.6959 281.948 89.6787C287.448 94.0408 297.69 95.1442 297.69 95.1442C326.241 118.161 366.534 143.593 366.534 143.593" fill="white"/>
<path d="M366.534 144.42C366.375 144.416 366.22 144.369 366.086 144.282C365.672 144.024 325.586 118.679 297.328 96.0063C295.603 95.7994 286.621 94.5235 281.414 90.3856C274.879 85.2132 277.776 71.9028 279.966 68.2649C280.102 68.0387 280.285 67.8436 280.502 67.6922C280.719 67.5408 280.965 67.4363 281.224 67.3856C284.672 66.558 295.345 72.8166 299.655 75.4546C299.259 72.9546 299.086 70.0235 300.345 69.2477C300.81 68.9718 301.569 68.8166 302.655 69.6959C305.81 72.2304 308.569 79.5925 309.172 81.2304L362.379 110.541C362.581 110.651 362.73 110.836 362.795 111.056C362.859 111.275 362.834 111.512 362.724 111.713C362.614 111.914 362.429 112.064 362.209 112.128C361.989 112.193 361.753 112.168 361.552 112.058L308.103 82.7477C308.009 82.7018 307.924 82.6368 307.856 82.5566C307.788 82.4765 307.737 82.383 307.707 82.2821C307.707 82.2821 304.724 73.6615 301.621 71.2132L301.276 70.9718C301.042 73.0641 301.206 75.1817 301.759 77.2132C301.799 77.38 301.788 77.5551 301.726 77.7152C301.664 77.8754 301.556 78.013 301.414 78.1097C301.27 78.2019 301.102 78.2508 300.931 78.2508C300.76 78.2508 300.592 78.2019 300.448 78.1097C294.569 74.3511 284.241 68.6097 281.672 69.2304C281.569 69.2304 281.5 69.2304 281.5 69.2304C279.569 72.4373 276.879 84.6097 282.534 89.1097C287.707 93.2821 297.724 94.4029 297.828 94.4029C297.991 94.4252 298.146 94.4906 298.276 94.5925C326.466 117.317 366.655 142.73 367.052 142.972C367.243 143.096 367.378 143.289 367.43 143.511C367.481 143.733 367.445 143.966 367.328 144.161C367.226 144.266 367.101 144.344 366.963 144.389C366.825 144.434 366.678 144.444 366.534 144.42Z" fill="#00194C"/>
<path d="M348.724 277.161C348.724 277.161 352.604 321.437 351.017 324.299C349.431 327.161 311.448 332.92 310.759 328.868C310.069 324.817 329.345 316.799 329.345 316.799L325.104 280.593" fill="white"/>
<path d="M316.483 331.093C315.237 331.12 313.991 331.039 312.759 330.851C311.638 330.661 310.121 330.265 309.897 329.024C309.19 324.799 323.172 318.524 328.414 316.334L324.241 280.782C324.228 280.669 324.237 280.554 324.267 280.444C324.298 280.335 324.35 280.232 324.421 280.142C324.491 280.053 324.579 279.978 324.678 279.922C324.777 279.866 324.887 279.83 325 279.817C325.113 279.803 325.228 279.812 325.338 279.843C325.448 279.873 325.55 279.926 325.64 279.996C325.73 280.066 325.804 280.154 325.86 280.253C325.916 280.353 325.952 280.462 325.966 280.575L330.207 316.782C330.228 316.969 330.187 317.159 330.091 317.321C329.994 317.482 329.847 317.608 329.672 317.679C320.707 321.368 311.241 326.644 311.603 328.73C311.603 328.73 312.103 329.282 315.793 329.386C326.862 329.748 348.845 325.558 350.276 323.851C351.31 321.679 349.345 294.11 347.862 277.299C347.852 277.186 347.864 277.072 347.898 276.964C347.932 276.855 347.987 276.754 348.06 276.667C348.133 276.58 348.222 276.508 348.323 276.455C348.423 276.402 348.533 276.37 348.647 276.36C348.76 276.35 348.874 276.362 348.982 276.396C349.091 276.43 349.192 276.485 349.279 276.557C349.366 276.63 349.438 276.72 349.491 276.82C349.544 276.921 349.576 277.031 349.586 277.144C350.241 284.575 353.414 321.834 351.776 324.765C350.138 327.696 327.121 331.093 316.483 331.093Z" fill="#00194C"/>
<path d="M404.897 288.782C404.897 288.782 410.224 327.903 407.465 329.024C404.707 330.144 367.207 331.92 367.81 328.627C368.414 325.334 386.914 319.058 386.914 319.058L380.224 280.92" fill="white"/>
<path d="M382.638 331.42C375.345 331.42 368.965 330.989 367.483 329.799C367.282 329.651 367.126 329.45 367.032 329.219C366.938 328.988 366.909 328.735 366.948 328.489C367.534 325.041 380.741 320.248 385.914 318.489L379.328 281.058C379.293 280.834 379.347 280.606 379.479 280.422C379.612 280.238 379.811 280.113 380.034 280.075C380.146 280.053 380.26 280.053 380.371 280.076C380.482 280.099 380.587 280.144 380.681 280.208C380.774 280.272 380.853 280.355 380.914 280.45C380.975 280.546 381.016 280.653 381.034 280.765L387.741 318.903C387.777 319.11 387.737 319.322 387.63 319.503C387.522 319.683 387.354 319.819 387.155 319.886C378.828 322.696 369.69 326.782 368.707 328.506C369.741 329.092 374.672 329.834 387.672 329.541C394.131 329.515 400.581 329.072 406.983 328.213C408.172 326.041 406.414 306.627 403.983 288.851C403.953 288.623 404.014 288.392 404.153 288.208C404.291 288.025 404.496 287.903 404.724 287.868C404.836 287.851 404.951 287.857 405.061 287.886C405.171 287.914 405.274 287.964 405.365 288.034C405.455 288.103 405.53 288.19 405.586 288.289C405.642 288.388 405.677 288.497 405.69 288.61C408.172 306.765 410.534 328.627 407.741 329.765C406.121 330.506 393.362 331.42 382.638 331.42Z" fill="#00194C"/>
<path d="M363.586 210.351C362.672 213.489 354.672 295.696 354.672 295.696H322.414C322.414 295.696 307.569 213.144 312.448 192.765C315.793 178.73 331.035 171.868 346.552 176.42C369.638 175.506 393.362 172.558 393.362 172.558L363.586 210.351Z" fill="#00194C"/>
<path d="M354.672 296.558H322.414C322.212 296.561 322.015 296.491 321.86 296.361C321.705 296.231 321.602 296.051 321.569 295.851C320.966 292.403 306.741 212.886 311.604 192.558C312.337 189.484 313.693 186.593 315.588 184.063C317.483 181.533 319.877 179.419 322.621 177.851C326.269 175.88 330.276 174.66 334.404 174.263C338.532 173.866 342.698 174.3 346.655 175.541C369.397 174.644 393.017 171.73 393.207 171.713C393.377 171.689 393.551 171.717 393.706 171.794C393.86 171.871 393.986 171.993 394.069 172.144C394.152 172.293 394.188 172.463 394.172 172.632C394.157 172.801 394.091 172.961 393.983 173.093L364.328 210.73C363.466 214.851 357.672 273.282 355.483 295.782C355.463 295.987 355.37 296.178 355.221 296.32C355.073 296.462 354.878 296.547 354.672 296.558ZM323.138 294.834H353.897C354.759 285.937 361.879 213.161 362.759 210.11C362.793 210.004 362.846 209.905 362.914 209.817L391.397 173.61C385.103 174.334 365.535 176.489 346.569 177.23H346.293C342.542 176.029 338.587 175.596 334.665 175.958C330.743 176.319 326.934 177.467 323.466 179.334C320.915 180.769 318.691 182.719 316.937 185.062C315.182 187.404 313.936 190.086 313.276 192.937C308.741 211.937 321.707 286.799 323.138 294.834Z" fill="#00194C"/>
<path d="M463.172 184.041C463.172 184.041 473.327 200.903 457.638 219.886C441.948 238.868 397.293 218.903 397.293 218.903L408.448 293.179L375.69 292.851C375.69 292.851 341.552 191.73 345.483 181.265C349.414 170.799 377.379 165.972 377.379 165.972L463.172 184.041Z" fill="#00194C"/>
<path d="M408.397 294.041L375.638 293.713C375.459 293.712 375.284 293.655 375.139 293.55C374.994 293.445 374.885 293.297 374.828 293.127C373.431 288.989 340.621 191.593 344.621 180.955C348.621 170.317 376.017 165.334 377.19 165.127C377.298 165.11 377.409 165.11 377.517 165.127L463.345 183.196C463.463 183.222 463.575 183.272 463.673 183.343C463.77 183.415 463.853 183.505 463.914 183.61C464.017 183.782 474.259 201.196 458.293 220.437C451.672 228.455 438.897 230.782 421.379 227.334C413.491 225.692 405.769 223.331 398.31 220.282L409.241 293.041C409.262 293.163 409.256 293.288 409.223 293.407C409.19 293.526 409.132 293.636 409.052 293.73C408.97 293.825 408.87 293.901 408.757 293.955C408.644 294.008 408.521 294.038 408.397 294.041ZM376.259 291.972L407.397 292.299L396.379 219.006C396.356 218.853 396.375 218.697 396.434 218.553C396.492 218.41 396.588 218.285 396.711 218.191C396.835 218.098 396.981 218.039 397.135 218.022C397.289 218.004 397.445 218.029 397.586 218.092C398.035 218.299 441.879 237.575 456.966 219.317C464.862 209.765 465.931 200.817 465.431 194.989C465.154 191.442 464.194 187.982 462.603 184.799L377.328 166.851C375.052 167.265 349.741 172.024 346.293 181.558C343.121 189.851 366.655 263.506 376.259 291.972Z" fill="#00194C"/>
<path d="M356.845 236.075C356.674 236.077 356.507 236.026 356.365 235.931C356.224 235.836 356.114 235.7 356.052 235.541C355.31 233.661 337.965 189.317 343.414 178.196C343.678 177.577 344.074 177.024 344.574 176.574C345.075 176.124 345.667 175.789 346.31 175.592C346.419 175.561 346.533 175.551 346.645 175.563C346.758 175.575 346.867 175.61 346.966 175.664C347.065 175.719 347.153 175.792 347.224 175.88C347.295 175.969 347.348 176.07 347.379 176.179C347.439 176.398 347.411 176.632 347.301 176.831C347.192 177.031 347.01 177.18 346.793 177.248C346.38 177.383 346.002 177.607 345.686 177.905C345.37 178.203 345.124 178.568 344.965 178.972C339.793 189.42 357.465 234.472 357.655 234.92C357.697 235.026 357.717 235.14 357.714 235.254C357.711 235.368 357.686 235.481 357.639 235.585C357.593 235.689 357.526 235.783 357.443 235.861C357.36 235.94 357.262 236.001 357.155 236.041L356.845 236.075Z" fill="white"/>
<path d="M397.241 219.765C397.083 219.768 396.928 219.726 396.793 219.644C396.362 219.386 386.19 213.179 383.31 208.782C383.246 208.689 383.202 208.583 383.179 208.473C383.157 208.362 383.156 208.247 383.179 208.136C383.201 208.025 383.246 207.92 383.31 207.826C383.374 207.733 383.456 207.654 383.552 207.592C383.742 207.468 383.973 207.423 384.196 207.468C384.419 207.514 384.615 207.645 384.741 207.834C387.414 211.92 397.586 218.179 397.69 218.179C397.884 218.3 398.023 218.492 398.077 218.714C398.132 218.936 398.098 219.171 397.983 219.368C397.901 219.49 397.791 219.59 397.661 219.659C397.532 219.728 397.388 219.764 397.241 219.765Z" fill="white"/>
<path d="M463.172 184.041C463.172 184.041 499.19 95.2994 472.586 74.9373C445.983 54.5753 408.069 63.6442 402.897 82.6787C397.724 101.713 377.328 165.972 377.328 165.972C377.328 165.972 442.672 185.455 463.172 184.041Z" fill="#0055FF"/>
<path d="M425.517 84.6097L419.293 147.248L453.621 80.1787L425.517 84.6097Z" fill="#00194C"/>
<path d="M419.224 148.11C419.139 148.126 419.051 148.126 418.965 148.11C418.771 148.057 418.602 147.935 418.491 147.767C418.38 147.599 418.334 147.396 418.362 147.196L424.603 84.558C424.62 84.3665 424.701 84.186 424.832 84.0455C424.963 83.9049 425.138 83.8122 425.328 83.7822L453.414 79.3684C453.573 79.339 453.737 79.3558 453.887 79.4169C454.036 79.478 454.166 79.5809 454.259 79.7132C454.339 79.8489 454.381 80.0037 454.381 80.1615C454.381 80.3192 454.339 80.4741 454.259 80.6098L419.914 147.679C419.843 147.802 419.743 147.905 419.623 147.981C419.503 148.056 419.366 148.1 419.224 148.11ZM426.241 85.3511L420.517 142.799L452.017 81.2994L426.241 85.3511Z" fill="#00194C"/>
<path d="M405.258 75.0408L360.293 106.851L364.396 147.248L412.586 126.886C412.586 126.886 420.569 82.1959 405.258 75.0408Z" fill="#0055FF"/>
<path d="M422.672 75.9546C425.904 74.8681 429.334 74.4974 432.724 74.8684C438.017 75.7994 442.862 78.3167 448.241 79.1098C454.172 79.6442 460.138 79.6442 466.069 79.1098C467.793 79.0236 466.069 81.3512 467.517 80.3512C472.379 76.7994 472.138 69.7649 472.121 64.4891C472.269 52.2697 470.743 40.0876 467.586 28.2822C465.862 22.1442 459.052 -0.321273 449.103 9.31666C451.345 7.127 440.483 2.02356 438.931 1.59252C424.827 -2.32127 412.034 10.0753 408.879 22.9718C406.586 32.3339 406.414 41.627 401.983 50.4201C400.017 54.2994 397.465 58.127 397.293 62.4891C397.337 65.1183 398.109 67.6837 399.525 69.8997C400.94 72.1158 402.943 73.8955 405.31 75.0408C410.115 77.2485 415.531 77.7414 420.655 76.4373L422.672 75.9546Z" fill="white"/>
<path d="M467.017 81.4546C466.855 81.4515 466.695 81.4101 466.552 81.3339C466.357 81.2022 466.205 81.0156 466.116 80.7977C466.027 80.5798 466.005 80.3404 466.052 80.1097V79.9891L463.345 80.1097C458.277 80.5296 453.18 80.4834 448.121 79.9718C445.253 79.4839 442.437 78.7336 439.707 77.7304C437.377 76.881 434.985 76.2123 432.552 75.7304C429.451 75.3743 426.311 75.6919 423.345 76.6615L422.845 76.7822L420.793 77.2822C415.474 78.6094 409.862 78.0865 404.879 75.7994C402.362 74.5894 400.233 72.7008 398.731 70.3461C397.229 67.9915 396.415 65.2644 396.379 62.4718C396.786 58.7857 398.043 55.2444 400.052 52.127C400.431 51.4201 400.81 50.7132 401.172 50.0063C404.138 44.1787 405.172 38.1959 406.345 31.8684C406.845 28.8856 407.379 25.8166 408.069 22.7477C410.112 14.6022 415.252 7.57514 422.397 3.16147C424.883 1.6345 427.655 0.63261 430.543 0.217489C433.431 -0.197633 436.374 -0.0172015 439.19 0.747672C440.172 1.02353 448.207 4.54078 449.948 7.48905C450.719 6.86202 451.624 6.42206 452.594 6.20369C453.563 5.98532 454.569 5.99447 455.534 6.23043C461.569 7.85112 465.879 18.9373 468.448 27.9546C471.645 39.8469 473.183 52.124 473.017 64.4373V65.0925C473.017 70.2649 473.017 77.3511 468.052 81.0063C467.762 81.26 467.4 81.4168 467.017 81.4546ZM466.138 78.1787C466.359 78.167 466.58 78.2008 466.788 78.2779C466.995 78.355 467.185 78.4738 467.345 78.627C467.47 78.7566 467.569 78.9087 467.638 79.0753C471.328 75.7994 471.293 69.8684 471.276 65.058V64.4201C471.438 52.2589 469.924 40.1334 466.776 28.3856C463.328 16.3166 459.172 8.95457 455.086 7.86836C454.093 7.68147 453.068 7.77075 452.123 8.12646C451.177 8.48218 450.348 9.09068 449.724 9.8856C449.559 10.0456 449.338 10.1337 449.108 10.1305C448.879 10.1273 448.66 10.033 448.5 9.86836C448.34 9.70375 448.252 9.4823 448.255 9.25272C448.258 9.02315 448.353 8.80427 448.517 8.64422C448.828 7.35112 441.121 3.04077 438.707 2.36836C436.105 1.65622 433.385 1.48771 430.715 1.87334C428.045 2.25896 425.483 3.19046 423.19 4.60974C416.441 8.7826 411.59 15.4276 409.672 23.127C408.931 26.127 408.414 29.1787 407.948 32.127C406.896 38.3166 405.793 44.6959 402.776 50.7649C402.414 51.4718 402.017 52.1787 401.638 52.9028C399.786 55.7874 398.607 59.0521 398.19 62.4546C398.228 64.9213 398.955 67.3281 400.29 69.4029C401.624 71.4778 403.513 73.1381 405.741 74.196C410.373 76.3029 415.584 76.7711 420.517 75.5235L422.517 75.0408L423.017 74.9201C426.214 73.8883 429.595 73.5589 432.931 73.9546C435.45 74.461 437.928 75.1525 440.345 76.0235C442.974 76.9929 445.687 77.7201 448.448 78.196C453.4 78.6935 458.386 78.7339 463.345 78.3167L466.103 78.1787H466.138Z" fill="#00194C"/>
<path d="M414.241 27.989C414.241 27.989 409.534 42.4546 412.345 53.2649C413.049 56.285 414.618 59.0345 416.859 61.1778C419.1 63.3211 421.917 64.7652 424.965 65.3339L425.517 84.5925C425.517 84.5925 425.724 94.4546 437.741 92.5753C441.227 92.0315 444.516 90.6055 447.295 88.4328C450.074 86.2601 452.252 83.4128 453.621 80.1615L453.965 44.6959C453.965 44.6959 440.052 37.2132 440.862 24.4718C440.862 24.489 424.828 32.8339 414.241 27.989Z" fill="white"/>
<path d="M434.862 93.6959C432.37 93.8103 429.921 93.0204 427.965 91.4718C426.988 90.5967 426.194 89.5367 425.629 88.353C425.064 87.1693 424.739 85.8853 424.672 84.5753L424.121 66.1097C421.061 65.3851 418.262 63.827 416.035 61.6083C413.807 59.3897 412.237 56.5972 411.5 53.5408C408.672 42.6097 413.224 28.3684 413.431 27.6787C413.468 27.5649 413.529 27.4601 413.609 27.371C413.689 27.282 413.787 27.2106 413.897 27.1615C414.008 27.1145 414.129 27.0903 414.25 27.0903C414.371 27.0903 414.491 27.1145 414.603 27.1615C424.69 31.7822 440.31 23.7132 440.465 23.7132C440.6 23.6377 440.751 23.598 440.905 23.598C441.059 23.598 441.211 23.6377 441.345 23.7132C441.471 23.7977 441.572 23.914 441.639 24.0502C441.705 24.1864 441.735 24.3378 441.724 24.4891C440.948 36.558 454.241 43.8339 454.362 43.9028C454.501 43.975 454.618 44.0838 454.7 44.2174C454.782 44.3511 454.826 44.5046 454.828 44.6615L454.483 80.1442C454.499 80.2354 454.499 80.3289 454.483 80.4201C453.077 83.826 450.814 86.8101 447.914 89.0822C445.014 91.3542 441.574 92.8368 437.931 93.3856C436.918 93.5731 435.892 93.6768 434.862 93.6959ZM414.793 29.1615C413.845 32.4546 410.862 44.127 413.172 53.0408C413.816 55.9045 415.287 58.5162 417.401 60.5514C419.516 62.5867 422.183 63.9559 425.069 64.489C425.273 64.5136 425.462 64.6106 425.601 64.7624C425.741 64.9142 425.821 65.1108 425.828 65.3166L426.379 84.5753C426.515 86.7164 427.479 88.7205 429.069 90.1615C431.017 91.8856 433.896 92.3166 437.69 91.7477C440.995 91.2181 444.115 89.8651 446.76 87.8131C449.406 85.7612 451.492 83.0765 452.828 80.0063L453.155 45.2132C450.776 43.8166 440.224 36.9891 440.034 25.8684C436.017 27.7132 423.914 32.6442 414.793 29.1615Z" fill="#00194C"/>
<path d="M447.207 42.4201C447.207 42.4201 452.776 28.8684 459.724 37.1097C466.672 45.3511 457.172 54.8684 451.207 54.2477" fill="white"/>
<path d="M451.776 55.1442H451.121C451.007 55.1334 450.897 55.1003 450.797 55.0467C450.696 54.9931 450.607 54.9201 450.535 54.8319C450.463 54.7437 450.409 54.6421 450.376 54.533C450.344 54.4238 450.333 54.3092 450.345 54.1959C450.356 54.0825 450.389 53.9724 450.442 53.8718C450.496 53.7713 450.569 53.6824 450.657 53.6102C450.745 53.5381 450.847 53.4841 450.956 53.4515C451.065 53.4189 451.18 53.4082 451.293 53.4201C454.293 53.7304 458.328 51.0925 460.207 47.5235C461.085 45.9767 461.448 44.1907 461.243 42.4239C461.039 40.6571 460.277 39.0012 459.069 37.6959C458.597 36.9572 457.939 36.3552 457.162 35.9499C456.384 35.5445 455.514 35.35 454.638 35.3856C451.5 35.8684 448.793 40.8856 448.017 42.7822C447.93 42.9948 447.763 43.1642 447.551 43.2531C447.339 43.342 447.101 43.3432 446.888 43.2563C446.675 43.1694 446.506 43.0016 446.417 42.7898C446.328 42.578 446.327 42.3396 446.414 42.127C446.552 41.7994 449.638 34.4201 454.379 33.6787C456.466 33.3511 458.483 34.3339 460.397 36.5925C461.818 38.1645 462.712 40.1419 462.953 42.2474C463.194 44.3529 462.77 46.4812 461.741 48.3339C459.638 52.3166 455.431 55.1442 451.776 55.1442Z" fill="#00194C"/>
<path d="M422.052 53.6787C421.117 53.7059 420.187 53.5294 419.328 53.1615C419.118 53.0611 418.935 52.9141 418.792 52.7318C418.648 52.5494 418.548 52.3366 418.5 52.1097C417.862 49.6442 422.5 42.8511 423.948 40.8166C424.012 40.724 424.094 40.645 424.188 40.5842C424.283 40.5235 424.389 40.4823 424.5 40.4631C424.61 40.4438 424.724 40.4468 424.834 40.472C424.943 40.4972 425.047 40.544 425.138 40.6097C425.231 40.6751 425.311 40.7582 425.371 40.8544C425.432 40.9506 425.474 41.0579 425.493 41.1701C425.512 41.2823 425.509 41.3972 425.484 41.5082C425.458 41.6191 425.411 41.724 425.345 41.8166C422.241 46.1959 419.81 50.8166 420.172 51.6959C421.976 52.0817 423.849 51.9866 425.603 51.4201C425.717 51.3873 425.835 51.377 425.952 51.39C426.069 51.403 426.183 51.439 426.286 51.4958C426.389 51.5526 426.481 51.6292 426.554 51.7213C426.628 51.8133 426.683 51.9189 426.715 52.0321C426.748 52.1454 426.759 52.2639 426.746 52.3811C426.733 52.4982 426.697 52.6117 426.64 52.715C426.583 52.8182 426.506 52.9093 426.414 52.9829C426.322 53.0566 426.217 53.1114 426.103 53.1442C424.784 53.5085 423.42 53.6884 422.052 53.6787Z" fill="#00194C"/>
<path d="M424.966 65.3511C424.966 65.3511 435.31 66.3511 441.155 64.6615C441.155 64.6615 435.138 80.0235 425.362 80.1787L424.966 65.3511Z" fill="#00194C"/>
<path d="M425.362 81.0925C425.136 81.0925 424.92 81.0041 424.758 80.8461C424.597 80.6882 424.505 80.4733 424.5 80.2476L424.103 65.3683C424.1 65.2461 424.123 65.1245 424.171 65.0118C424.218 64.8991 424.289 64.7978 424.379 64.7146C424.469 64.6314 424.575 64.5683 424.691 64.5294C424.807 64.4905 424.93 64.4768 425.052 64.489C425.155 64.489 435.276 65.4545 440.914 63.8339C441.068 63.7858 441.233 63.7829 441.389 63.8257C441.545 63.8685 441.685 63.9551 441.793 64.0752C441.903 64.1936 441.977 64.3403 442.008 64.4988C442.038 64.6573 442.024 64.8212 441.966 64.9718C441.707 65.627 435.621 80.8683 425.379 81.0925H425.362ZM425.845 66.2821L426.19 79.2994C433.086 78.4718 437.948 69.558 439.672 65.9028C435.093 66.5561 430.453 66.6834 425.845 66.2821Z" fill="#00194C"/>
<path d="M432.848 39.1305C432.886 37.6646 432.237 36.4589 431.399 36.4376C430.562 36.4162 429.852 37.5873 429.815 39.0532C429.778 40.5191 430.426 41.7248 431.264 41.7462C432.102 41.7675 432.811 40.5964 432.848 39.1305Z" fill="#00194C"/>
<path d="M418.89 38.7892C418.927 37.3232 418.278 36.1176 417.441 36.0962C416.603 36.0749 415.894 37.2459 415.856 38.7119C415.819 40.1778 416.468 41.3835 417.305 41.4048C418.143 41.4262 418.852 40.2551 418.89 38.7892Z" fill="#00194C"/>
<path d="M471.931 57.4891C472.673 68.8167 473.655 89.6442 455.655 84.5063C451.926 83.3894 448.762 80.8921 446.81 77.5236C443.362 71.3511 452.638 62.4201 457.035 58.4029" fill="white"/>
<path d="M460.776 86.1787C458.959 86.1523 457.154 85.8737 455.414 85.3511C451.426 84.1998 448.043 81.5406 445.983 77.9373C442.414 71.6615 450.207 63.4201 456.328 57.7649C456.492 57.6059 456.711 57.5169 456.94 57.5169C457.168 57.5169 457.388 57.6059 457.552 57.7649C457.632 57.845 457.697 57.9404 457.74 58.0454C457.784 58.1505 457.807 58.2632 457.807 58.377C457.807 58.4908 457.784 58.6035 457.74 58.7085C457.697 58.8136 457.632 58.9089 457.552 58.989C454.241 62.0235 444.19 71.2304 447.5 77.0408C449.343 80.2491 452.359 82.6165 455.914 83.6442C460.431 84.9373 463.983 84.5753 466.465 82.5753C472.414 77.7649 471.517 64.0925 471.086 57.5235C471.078 57.4103 471.093 57.2967 471.129 57.189C471.165 57.0814 471.222 56.9819 471.296 56.8963C471.37 56.8106 471.461 56.7405 471.563 56.6898C471.664 56.6392 471.775 56.609 471.888 56.6011C472.001 56.5932 472.115 56.6076 472.222 56.6436C472.33 56.6796 472.429 56.7365 472.515 56.8109C472.601 56.8854 472.671 56.976 472.722 57.0775C472.772 57.1791 472.802 57.2896 472.81 57.4028C473.293 64.7994 474.207 78.5408 467.534 83.9201C465.62 85.4496 463.225 86.25 460.776 86.1787Z" fill="#00194C"/>
<path d="M432.707 57.6098C432.707 58.5236 431.172 59.3339 429.259 59.3339C427.345 59.3339 428.121 58.5753 428.121 57.6098C428.121 56.6442 427.362 55.8856 429.259 55.8856C431.155 55.8856 432.707 56.696 432.707 57.6098Z" fill="#00194C"/>
<path d="M475.724 79.5925C475.724 79.5925 459.81 92.8856 459.741 104.127C459.672 115.368 471.81 167.92 471.81 167.92L504.966 149.437C504.966 149.437 492.034 84.1443 475.724 79.5925Z" fill="#0055FF"/>
<path d="M379.138 161.11H378.897C378.788 161.076 378.686 161.022 378.598 160.949C378.511 160.876 378.438 160.786 378.385 160.685C378.332 160.584 378.3 160.474 378.29 160.36C378.28 160.247 378.293 160.132 378.328 160.024L402.086 82.4373C402.108 82.3177 402.155 82.204 402.224 82.1037C402.293 82.0035 402.382 81.9189 402.486 81.8556C402.59 81.7924 402.706 81.7518 402.827 81.7366C402.947 81.7214 403.07 81.7319 403.186 81.7674C403.302 81.8029 403.41 81.8626 403.501 81.9426C403.593 82.0226 403.667 82.1211 403.718 82.2316C403.768 82.3421 403.795 82.4621 403.796 82.5838C403.798 82.7054 403.773 82.8259 403.724 82.9373L379.966 160.523C379.907 160.696 379.796 160.846 379.647 160.951C379.498 161.057 379.32 161.112 379.138 161.11Z" fill="#00194C"/>
<path d="M472.138 165.196C471.941 165.2 471.748 165.135 471.594 165.012C471.44 164.89 471.333 164.717 471.293 164.524C457.862 104.61 458.69 103.903 459.224 103.472C459.388 103.313 459.608 103.224 459.836 103.224C460.065 103.224 460.284 103.313 460.448 103.472C460.547 103.586 460.614 103.724 460.641 103.873C460.668 104.022 460.655 104.175 460.603 104.317C460.603 107.127 467.965 141.472 473.034 164.058C473.06 164.169 473.063 164.284 473.044 164.396C473.025 164.508 472.983 164.616 472.922 164.712C472.862 164.808 472.782 164.891 472.689 164.956C472.596 165.022 472.49 165.068 472.379 165.093L472.138 165.196Z" fill="#00194C"/>
<path d="M425.862 164.334L364.052 187.627L336.604 167.92L390.638 151.61L425.862 164.334Z" fill="white"/>
<path d="M364.052 188.524C363.868 188.525 363.687 188.471 363.534 188.368L336.103 168.644C335.97 168.552 335.864 168.424 335.8 168.274C335.736 168.125 335.716 167.96 335.741 167.799C335.772 167.643 335.844 167.498 335.95 167.38C336.056 167.261 336.193 167.174 336.345 167.127L390.379 150.834C390.56 150.782 390.751 150.782 390.931 150.834L426.121 163.524C426.283 163.59 426.424 163.701 426.524 163.845C426.625 163.989 426.683 164.158 426.69 164.334C426.69 164.511 426.635 164.684 426.533 164.829C426.431 164.974 426.287 165.084 426.121 165.144L364.345 188.524C364.248 188.541 364.149 188.541 364.052 188.524ZM338.517 168.265L364.172 186.696L423.362 164.386L390.603 152.558L338.517 168.265Z" fill="#00194C"/>
<path d="M501.103 151.627C501.103 151.627 508 186.506 489.224 189.834C470.448 193.161 408.19 180.972 408.19 180.972C408.19 180.972 386.569 184.782 387.948 179.248C389.327 173.713 402.828 171.265 402.828 171.265C402.828 171.265 391.69 165.868 397.172 165.886C403.007 166.232 408.819 166.883 414.586 167.834L472.172 160.161" fill="white"/>
<path d="M480.707 191.282C457.121 191.282 411.931 182.661 408.293 181.851C405.034 182.42 390.776 184.679 387.776 181.437C387.49 181.134 387.288 180.761 387.191 180.356C387.094 179.95 387.106 179.527 387.224 179.127C388.379 174.627 396.276 172.075 400.396 171.041C394.534 167.937 394.81 166.713 394.931 166.23C395.19 165.11 396.655 165.11 397.276 165.11C403.116 165.447 408.934 166.092 414.707 167.041L472.172 159.386C472.401 159.356 472.632 159.418 472.815 159.559C472.997 159.7 473.117 159.907 473.146 160.136C473.176 160.364 473.114 160.595 472.973 160.778C472.833 160.961 472.625 161.08 472.396 161.11L414.81 168.765C414.725 168.782 414.637 168.782 414.552 168.765C408.841 167.827 403.087 167.182 397.31 166.834H397.052C399.019 168.298 401.134 169.552 403.362 170.575C403.522 170.658 403.653 170.788 403.736 170.947C403.82 171.107 403.853 171.288 403.83 171.466C403.808 171.645 403.731 171.812 403.61 171.946C403.489 172.08 403.331 172.173 403.155 172.213C399.552 172.886 389.965 175.541 388.948 179.558C388.897 179.676 388.883 179.807 388.908 179.933C388.932 180.059 388.995 180.175 389.086 180.265C390.948 182.282 401.793 181.248 408.19 180.127H408.517C409.138 180.248 470.81 192.196 489.155 188.989C490.803 188.709 492.377 188.094 493.779 187.184C495.181 186.274 496.383 185.087 497.31 183.696C504.345 173.472 500.517 152.661 500.345 151.799C500.322 151.672 500.328 151.542 500.36 151.417C500.393 151.292 500.453 151.175 500.534 151.075C500.637 150.946 500.774 150.849 500.93 150.797C501.087 150.745 501.255 150.74 501.414 150.782C501.572 150.821 501.715 150.905 501.826 151.025C501.936 151.144 502.009 151.294 502.034 151.455L501.19 151.627L502.052 151.472C502.483 153.748 506.052 174.058 498.724 184.679C497.671 186.261 496.304 187.609 494.709 188.641C493.113 189.673 491.323 190.367 489.448 190.679C486.557 191.13 483.633 191.332 480.707 191.282Z" fill="#00194C"/>
<path d="M261.293 300.317C263.082 302.037 265.369 303.148 267.828 303.489C270.707 303.489 301.931 297.73 303.224 302.006C304.517 306.282 301.965 308.42 294.5 311.937C284.5 316.644 250.931 327.696 250.931 327.696L243.586 310.455L261.293 300.317Z" fill="white"/>
<path d="M250.931 328.489C250.775 328.493 250.622 328.448 250.493 328.362C250.363 328.275 250.263 328.151 250.207 328.006L242.862 310.765C242.786 310.59 242.777 310.392 242.838 310.211C242.898 310.029 243.024 309.877 243.19 309.782L260.897 299.644C261.054 299.554 261.237 299.52 261.415 299.549C261.594 299.577 261.758 299.665 261.879 299.799C263.518 301.365 265.603 302.383 267.845 302.713C269.949 302.57 272.045 302.311 274.121 301.937C292.724 299.334 302.983 298.489 303.983 301.782C305.466 306.696 302.362 309.11 294.828 312.661C284.914 317.351 251.517 328.351 251.172 328.472L250.931 328.489ZM244.586 310.782L251.379 326.73C256.207 325.127 285.103 315.489 294.155 311.213C301.828 307.592 303.535 305.748 302.466 302.213C301.69 299.644 281.103 302.524 274.345 303.472C270.552 304.006 268.534 304.23 267.81 304.265C265.345 303.96 263.031 302.913 261.172 301.265L244.586 310.782Z" fill="#00194C"/>
<path d="M164.241 318.817C164.241 318.817 197.707 330.317 199.138 332.506C200.569 334.696 198.034 337.265 189.121 338.058C180.207 338.851 142.069 336.782 142.069 336.782C142.069 336.782 141.586 326.437 143.983 321.265C146.379 316.092 164.241 318.817 164.241 318.817Z" fill="white"/>
<path d="M182.759 339.023C169.103 339.023 143.328 337.644 142.035 337.575C141.837 337.563 141.651 337.479 141.512 337.339C141.372 337.2 141.288 337.014 141.276 336.817C141.276 336.386 140.828 326.23 143.259 320.886C145.828 315.248 162.466 317.748 164.362 318.041H164.483C172.397 320.765 198.328 329.799 199.793 332.058C200.073 332.449 200.243 332.908 200.286 333.387C200.328 333.866 200.242 334.348 200.035 334.782C199.017 336.868 195.259 338.23 189.19 338.799C187.724 338.972 185.483 339.023 182.759 339.023ZM142.828 336.041C148.138 336.317 180.983 337.989 189.052 337.265C196.845 336.575 198.345 334.696 198.603 334.127C198.7 333.938 198.74 333.725 198.718 333.514C198.697 333.303 198.615 333.103 198.483 332.937C197.155 331.386 176.69 323.937 164 319.592C157.31 318.523 146.19 318.127 144.638 321.541C142.776 325.765 142.776 333.644 142.828 336.041Z" fill="#00194C"/>
<path d="M77.4483 209.799C77.4483 209.799 50.1379 141.541 53 107.868C55.8621 74.196 77.8448 72.1442 85.5517 71.6615C93.2586 71.1787 133.724 65.7822 148.5 83.9029C163.276 102.024 159.483 189.299 159.483 189.299L77.4483 209.799Z" fill="#0055FF"/>
<path d="M125.655 87.2132L125.155 155.61L96.1207 82.627L125.655 87.2132Z" fill="#00194C"/>
<path d="M125.155 156.472C124.983 156.472 124.814 156.422 124.67 156.327C124.525 156.231 124.412 156.096 124.345 155.937L95.3103 82.9373C95.2595 82.7935 95.2456 82.6393 95.2697 82.4888C95.2937 82.3382 95.3551 82.196 95.4482 82.0753C95.5426 81.9551 95.6678 81.8628 95.8105 81.8081C95.9532 81.7535 96.1081 81.7385 96.2586 81.7649L125.793 86.3684C125.997 86.3972 126.184 86.4983 126.32 86.6533C126.456 86.8083 126.532 87.007 126.534 87.2132L126.017 155.627C126.012 155.825 125.94 156.016 125.811 156.166C125.682 156.317 125.505 156.419 125.31 156.455L125.155 156.472ZM97.5689 83.6959L124.397 151.196L124.862 87.9546L97.5689 83.6959Z" fill="#00194C"/>
<path d="M161.155 172.006C161.155 172.006 194.534 180.937 224.379 201.213C238.069 210.506 263.638 301.679 263.638 301.679C263.638 301.679 260.776 317.472 242.534 315.006L162.81 211.713C162.81 211.713 145.707 171.61 161.155 172.006Z" fill="#00194C"/>
<path d="M246.259 316.11C244.972 316.107 243.688 316.015 242.414 315.834C242.19 315.799 241.987 315.682 241.845 315.506L162.138 212.213C162.088 212.157 162.047 212.093 162.017 212.024C161.517 210.834 149.552 182.558 155.5 173.799C156.123 172.891 156.977 172.164 157.974 171.694C158.971 171.225 160.075 171.029 161.172 171.127H161.379C161.707 171.213 195.241 180.334 224.862 200.437C238.655 209.817 263.414 297.661 264.517 301.403C264.543 301.528 264.543 301.657 264.517 301.782C263.631 305.929 261.319 309.635 257.983 312.253C254.646 314.871 250.498 316.236 246.259 316.11ZM243 314.179C259.017 316.161 262.362 303.489 262.741 301.696C261.397 296.92 236.879 210.713 223.897 201.903C195.31 182.489 163.069 173.403 161.035 172.851H160.931C160.155 172.794 159.378 172.941 158.677 173.276C157.975 173.612 157.373 174.125 156.931 174.765C151.672 182.524 162.776 209.386 163.569 211.248L243 314.179Z" fill="#00194C"/>
<path d="M77.4483 209.799C77.4483 209.799 140.69 184.075 156.897 181.696C156.897 181.696 180.086 190.317 192 212.282C203.914 234.248 164.241 318.817 164.241 318.817C157.714 322.677 150.007 324.037 142.552 322.644L142.034 234.127C142.034 234.127 65.6379 241.696 77.4483 209.799Z" fill="#00194C"/>
<path d="M148.328 324.058C146.331 324.056 144.34 323.865 142.379 323.489C142.185 323.449 142.01 323.344 141.884 323.19C141.758 323.036 141.69 322.843 141.69 322.644L141.172 235.075C133.897 235.713 89.5345 238.92 78.069 224.058C75 220.11 74.6207 215.213 76.6379 209.506C76.6793 209.394 76.7436 209.292 76.8267 209.205C76.9098 209.119 77.0099 209.052 77.1207 209.006C79.7069 207.955 140.638 183.144 156.776 180.834C156.918 180.8 157.065 180.8 157.207 180.834C157.431 180.92 180.828 189.851 192.759 211.868C204.69 233.886 166.638 315.713 165.017 319.179C164.953 319.328 164.845 319.455 164.707 319.541C159.761 322.511 154.097 324.073 148.328 324.058ZM143.362 321.92C150.305 323.024 157.416 321.722 163.517 318.23C165.776 313.334 202.483 233.437 191.19 212.696C180.155 192.386 159.052 183.489 156.707 182.575C141.069 185.024 83.1552 208.437 78.0517 210.455C76.3276 215.42 76.7414 219.627 79.3448 223.006C91 238.11 141.414 233.351 141.862 233.351C141.98 233.34 142.098 233.352 142.211 233.388C142.323 233.423 142.428 233.481 142.517 233.558C142.608 233.638 142.681 233.736 142.732 233.846C142.782 233.956 142.809 234.075 142.81 234.196L143.362 321.92Z" fill="#00194C"/>
<path d="M190.569 248.713H190.414C190.189 248.671 189.99 248.543 189.858 248.356C189.726 248.17 189.672 247.939 189.707 247.713C191.931 235.058 194.224 215.092 191.431 211.955C182.241 201.817 159.414 184.92 159.19 184.748C159.009 184.613 158.888 184.414 158.853 184.191C158.817 183.969 158.87 183.742 159 183.558C159.137 183.376 159.34 183.255 159.565 183.219C159.79 183.184 160.02 183.237 160.207 183.368C160.431 183.541 183.397 200.61 192.707 210.799C197.035 215.558 192.052 244.713 191.466 248.024C191.428 248.229 191.315 248.413 191.15 248.541C190.984 248.668 190.777 248.729 190.569 248.713Z" fill="white"/>
<path d="M148.534 83.9029C148.534 83.9029 159.483 104.937 165.931 115.748C172.379 126.558 186.379 142.058 186.379 142.058C186.379 142.058 235.966 159.696 236.293 160.644C236.621 161.593 231.586 178.265 231.586 178.265C231.586 178.265 179.569 174.524 170.948 170.455C162.328 166.386 144.879 146.317 144.879 146.317L148.534 83.9029Z" fill="#0055FF"/>
<path d="M114.414 94.7649L110.759 100.524L114.759 102.903L115.155 130.489L125.155 155.61L125.655 132.368L117.328 102.11L119.81 99.196L114.414 94.7649Z" fill="white"/>
<path d="M125.155 156.472C124.983 156.472 124.814 156.422 124.67 156.327C124.526 156.231 124.413 156.096 124.345 155.937L114.362 130.817C114.354 130.713 114.354 130.61 114.362 130.506L113.983 103.386L110.379 101.265C110.182 101.138 110.041 100.94 109.983 100.713C109.955 100.602 109.952 100.486 109.973 100.373C109.994 100.26 110.038 100.152 110.103 100.058L113.759 94.2994C113.824 94.1963 113.909 94.1078 114.01 94.0395C114.111 93.9713 114.225 93.9247 114.345 93.9028C114.467 93.8854 114.591 93.8933 114.709 93.9259C114.828 93.9585 114.939 94.0153 115.035 94.0925L120.431 98.5235C120.519 98.5966 120.592 98.6864 120.644 98.7878C120.697 98.8892 120.729 99 120.739 99.1139C120.749 99.2279 120.736 99.3426 120.7 99.4514C120.665 99.5601 120.609 99.6609 120.535 99.7477L118.293 102.317L126.5 132.144C126.508 132.23 126.508 132.317 126.5 132.403L125.983 155.627C125.978 155.825 125.905 156.016 125.776 156.166C125.648 156.317 125.471 156.419 125.276 156.455L125.155 156.472ZM116.017 130.334L124.397 151.351L124.81 132.489L116.5 102.317C116.467 102.18 116.465 102.038 116.495 101.9C116.525 101.763 116.586 101.634 116.672 101.524L118.586 99.2821L114.621 96.0235L111.966 100.213L115.207 102.144C115.333 102.219 115.437 102.325 115.509 102.452C115.582 102.579 115.62 102.722 115.621 102.868L116.017 130.334Z" fill="#00194C"/>
<path d="M94.3103 16.5752C95.3049 16.1959 96.3408 15.9354 97.3965 15.7994C101.603 15.3166 101.672 16.2304 104.914 13.5063C109.859 9.61594 115.875 7.32991 122.155 6.95455C134.224 6.16145 143 12.2132 140.241 25.4545C138.915 30.6991 136.507 35.6087 133.172 39.8683C126.276 49.3166 116.741 57.8683 105.121 58.8339C101.672 59.0925 95.2069 58.8339 92.7069 56.0235C89.1552 51.9961 86.6996 47.1225 85.5763 41.8715C84.453 36.6205 84.6999 31.1688 86.2931 26.0408C86.9292 23.8447 87.9894 21.7946 89.4138 20.0063C90.7368 18.4749 92.4193 17.296 94.3103 16.5752Z" fill="white"/>
<path d="M103 59.6787C99.931 59.6787 94.5 59.2649 92.0173 56.5063C88.3755 52.3771 85.8595 47.3791 84.7119 41.9944C83.5643 36.6097 83.8238 31.0201 85.4655 25.7649C86.1348 23.4642 87.2542 21.3193 88.7586 19.4545C90.9575 16.9155 94.039 15.3069 97.3793 14.9546C98.2491 14.8467 99.1238 14.7834 100 14.7649C101.724 14.7649 102.259 14.7649 104.431 12.8511C109.486 8.82356 115.668 6.46764 122.121 6.10972C129.241 5.6442 135.017 7.50627 138.379 11.2821C141.379 14.7304 142.328 19.6614 141.103 25.5408C139.784 30.9137 137.326 35.9407 133.897 40.2821C127.948 48.5235 118.155 58.558 105.207 59.5235C104.879 59.627 104.086 59.6787 103 59.6787ZM124.172 7.74765C123.517 7.74765 122.845 7.74765 122.155 7.74765C116.056 8.13761 110.22 10.3814 105.431 14.1787C104.739 14.9332 103.893 15.5301 102.95 15.9287C102.007 16.3273 100.989 16.5184 99.9655 16.489C99.3276 16.489 98.5345 16.489 97.4655 16.6614C96.4794 16.7822 95.5121 17.0254 94.5862 17.3856C92.8343 18.0493 91.2757 19.1397 90.0517 20.558C88.694 22.2599 87.6809 24.21 87.069 26.2994C85.5313 31.277 85.3026 36.567 86.4049 41.6588C87.5072 46.7506 89.9034 51.4723 93.3621 55.3683C95.3276 57.558 100.81 58.2304 105.069 57.8856C117.345 56.9718 126.759 47.2994 132.483 39.3683C135.76 35.2183 138.111 30.4155 139.379 25.2821C140.483 19.9373 139.672 15.5235 137.034 12.489C134.397 9.45455 129.81 7.74765 124.172 7.74765Z" fill="#00194C"/>
<path d="M125.672 69.0063V87.2132C125.672 87.2132 121.397 97.2304 109.483 94.2132C97.5689 91.1959 96.1207 82.6097 96.1207 82.6097L96.6552 48.8684C96.6552 48.8684 105.569 44.2477 103.19 24.989C112.926 29.3108 123.646 30.9307 134.224 29.6787C134.224 29.6787 137.879 50.7304 136.603 60.0063C135.31 69.0408 125.828 68.8856 125.672 69.0063Z" fill="white"/>
<path d="M113.776 95.6442C112.257 95.6305 110.745 95.4278 109.276 95.0408C96.9655 91.9028 95.3276 83.127 95.2759 82.7649L95.7931 48.9028C95.798 48.7468 95.8434 48.5947 95.9251 48.4617C96.0067 48.3286 96.1217 48.2192 96.2586 48.1442C96.2586 48.1442 104.603 43.4718 102.345 25.1442C102.32 24.9886 102.341 24.829 102.405 24.6851C102.469 24.5411 102.574 24.4191 102.707 24.3339C102.839 24.2531 102.991 24.2104 103.147 24.2104C103.302 24.2104 103.454 24.2531 103.586 24.3339C113.164 28.5498 123.691 30.1388 134.086 28.9373C134.304 28.9161 134.522 28.9768 134.697 29.1075C134.872 29.2382 134.993 29.4296 135.034 29.6442C135.172 30.5063 138.69 50.9373 137.397 60.2477C136.655 65.7477 132.793 69.1442 126.534 69.8511V87.2821C126.553 87.3906 126.553 87.5013 126.534 87.6097C125.371 90.0075 123.559 92.0312 121.304 93.4513C119.049 94.8715 116.441 95.6311 113.776 95.6442ZM97.5173 49.4028L96.9828 82.627C96.9828 82.7994 98.5173 90.5235 109.707 93.3683C120.052 96.0235 124.224 88.1959 124.81 87.0235V69.0063C124.809 68.8782 124.836 68.7514 124.89 68.635C124.943 68.5187 125.022 68.4159 125.121 68.3339C125.354 68.1758 125.632 68.0972 125.914 68.1097C131.655 67.5925 135.035 64.7649 135.69 59.9373C136.793 51.9201 134.103 34.5925 133.466 30.627C123.498 31.6676 113.428 30.2223 104.155 26.4201C105.793 42.6097 99.3448 48.1614 97.5173 49.4028Z" fill="#00194C"/>
<path d="M103.707 48.4201C103.32 46.7717 102.406 45.2947 101.103 44.2132C99.8513 43.2633 98.446 42.5344 96.9483 42.058C96.1553 41.7128 95.2955 41.5479 94.431 41.5752C93.8224 41.6619 93.2367 41.8669 92.7069 42.1787C91.4094 42.7914 90.3753 43.8499 89.7931 45.1615C89.4422 46.2765 89.3711 47.4607 89.5862 48.6097C89.7217 49.8551 90.0172 51.0779 90.4655 52.2477C90.934 53.4139 91.6305 54.4749 92.5141 55.3686C93.3978 56.2624 94.4509 56.9708 95.6117 57.4525C96.7726 57.9342 98.0178 58.1794 99.2746 58.1738C100.531 58.1683 101.775 57.912 102.931 57.4201" fill="white"/>
<path d="M99.1896 58.9201C97.1483 58.9161 95.1538 58.3083 93.4571 57.1731C91.7605 56.0379 90.4377 54.4262 89.6552 52.5408C89.1661 51.3032 88.8527 50.0032 88.7241 48.6787C88.4888 47.4024 88.5717 46.0878 88.9655 44.8511C89.6226 43.3438 90.7966 42.1209 92.2759 41.4028C92.8938 41.0338 93.58 40.7934 94.2931 40.696C95.2922 40.6523 96.2883 40.835 97.2069 41.2304C98.7968 41.7408 100.289 42.5161 101.621 43.5235C103.059 44.7299 104.069 46.3688 104.5 48.1959C104.528 48.3058 104.534 48.4203 104.517 48.5324C104.5 48.6445 104.46 48.752 104.401 48.8486C104.341 48.9451 104.263 49.0287 104.17 49.0943C104.078 49.1599 103.973 49.2062 103.862 49.2304C103.64 49.2823 103.407 49.2443 103.213 49.1248C103.019 49.0053 102.881 48.8139 102.828 48.5925C102.478 47.1301 101.668 45.8185 100.517 44.8511C99.334 43.9697 98.011 43.2936 96.6034 42.8511C95.9384 42.5468 95.2141 42.3937 94.4828 42.4028C93.9938 42.4843 93.5254 42.66 93.1034 42.9201C91.9978 43.4393 91.1033 44.3216 90.569 45.4201C90.2974 46.3969 90.2503 47.4225 90.431 48.4201C90.5416 49.603 90.8203 50.7641 91.2586 51.8684C91.6939 52.9178 92.3322 53.8708 93.1371 54.6727C93.9419 55.4745 94.8973 56.1094 95.9483 56.5408C98.077 57.4025 100.457 57.4025 102.586 56.5408C102.689 56.4929 102.8 56.4666 102.913 56.4634C103.026 56.4603 103.139 56.4803 103.244 56.5223C103.349 56.5643 103.444 56.6274 103.524 56.7077C103.603 56.788 103.666 56.8837 103.707 56.9891C103.753 57.0932 103.777 57.2053 103.779 57.3189C103.781 57.4326 103.761 57.5455 103.719 57.6513C103.678 57.757 103.616 57.8535 103.537 57.9352C103.457 58.0168 103.363 58.082 103.259 58.127C101.97 58.6632 100.586 58.933 99.1896 58.9201Z" fill="#00194C"/>
<path d="M124.966 41.8339C124.966 41.8339 131.448 51.0408 130 52.696C128.552 54.3511 124.362 53.3684 124.362 53.3684" fill="white"/>
<path d="M126.914 54.5235C125.992 54.5159 125.073 54.4119 124.172 54.2132C124.059 54.1882 123.952 54.1413 123.857 54.075C123.762 54.0086 123.681 53.9242 123.618 53.8266C123.556 53.7289 123.513 53.6199 123.493 53.5058C123.473 53.3916 123.475 53.2746 123.5 53.1614C123.525 53.0482 123.572 52.941 123.638 52.846C123.705 52.7509 123.789 52.6698 123.887 52.6074C123.984 52.545 124.093 52.5024 124.207 52.4821C124.321 52.4617 124.438 52.4641 124.552 52.489C125.983 52.8166 128.552 52.989 129.345 52.0752C129.707 51.2304 127.328 46.6442 124.172 42.2821C124.056 42.0945 124.016 41.8692 124.061 41.6529C124.105 41.4366 124.231 41.2457 124.413 41.1197C124.594 40.9936 124.817 40.942 125.035 40.9754C125.254 41.0088 125.451 41.1248 125.586 41.2994C128.155 44.9373 132.207 51.3166 130.569 53.2132C130.08 53.6667 129.503 54.0166 128.875 54.2418C128.247 54.467 127.58 54.5628 126.914 54.5235Z" fill="#00194C"/>
<path d="M121.373 39.9284C121.447 38.7309 120.814 37.7173 119.958 37.6645C119.103 37.6118 118.35 38.5398 118.276 39.7373C118.202 40.9348 118.835 41.9484 119.691 42.0011C120.546 42.0539 121.299 41.1259 121.373 39.9284Z" fill="#00194C"/>
<path d="M133.277 42.0338C134.132 41.9737 134.756 40.9548 134.672 39.7579C134.588 38.5611 133.827 37.6395 132.972 37.6996C132.117 37.7597 131.492 38.7786 131.576 39.9755C131.661 41.1723 132.422 42.0939 133.277 42.0338Z" fill="#00194C"/>
<path d="M125.276 60.0408C121.69 60.0408 116.983 59.489 113.879 56.989C113.7 56.8437 113.586 56.6341 113.56 56.4052C113.534 56.1762 113.599 55.9463 113.741 55.7649C113.812 55.6763 113.899 55.6026 113.998 55.5484C114.098 55.4942 114.207 55.4604 114.319 55.4492C114.432 55.4379 114.545 55.4494 114.654 55.4829C114.762 55.5164 114.862 55.5712 114.948 55.6442C119.862 59.5925 129.965 57.989 130.069 57.9718C130.298 57.9352 130.531 57.991 130.719 58.1268C130.906 58.2626 131.032 58.4673 131.069 58.6959C131.105 58.9246 131.05 59.1584 130.914 59.3459C130.778 59.5334 130.573 59.6593 130.345 59.6959C128.666 59.9382 126.972 60.0534 125.276 60.0408Z" fill="#00194C"/>
<path d="M136.948 51.4201C135.252 51.4253 133.576 51.0586 132.036 50.3459C130.497 49.6331 129.133 48.5916 128.04 47.2947C126.947 45.9978 126.152 44.477 125.71 42.8394C125.268 41.2019 125.19 39.4874 125.483 37.8166C126.021 34.7901 127.737 32.1002 130.254 30.3359C132.771 28.5715 135.885 27.8764 138.914 28.4028C141.79 28.878 144.382 30.4202 146.172 32.7217C147.961 35.0233 148.818 37.915 148.57 40.8199C148.322 43.7249 146.987 46.4295 144.833 48.3943C142.679 50.3591 139.864 51.4395 136.948 51.4201ZM127.19 38.127C126.849 40.051 127.088 42.0328 127.876 43.8209C128.664 45.6089 129.965 47.1226 131.615 48.17C133.264 49.2173 135.188 49.7511 137.141 49.7035C139.094 49.6559 140.99 49.0292 142.586 47.9028C143.651 47.1561 144.558 46.2068 145.256 45.1093C145.953 44.0118 146.428 42.7875 146.652 41.5065C146.876 40.2256 146.845 38.913 146.562 37.6438C146.279 36.3746 145.748 35.1737 145 34.1097C143.876 32.5127 142.304 31.2846 140.482 30.5806C138.66 29.8766 136.671 29.7284 134.765 30.1546C132.859 30.5808 131.122 31.5623 129.774 32.9751C128.426 34.388 127.526 36.1688 127.19 38.0925V38.127Z" fill="#00194C"/>
<path d="M114.431 50.5925C113.755 50.5951 113.08 50.5374 112.414 50.4201C110.87 50.2058 109.386 49.6828 108.049 48.8823C106.712 48.0817 105.55 47.0201 104.632 45.7607C103.714 44.5013 103.059 43.0699 102.707 41.552C102.354 40.034 102.311 38.4606 102.58 36.9256C102.849 35.3907 103.424 33.9255 104.271 32.6177C105.118 31.3099 106.221 30.1861 107.512 29.3134C108.803 28.4408 110.256 27.8371 111.786 27.5385C113.315 27.2399 114.889 27.2524 116.414 27.5753C118.672 27.9725 120.761 29.0296 122.419 30.6132C124.076 32.1968 125.228 34.2359 125.728 36.4733C126.228 38.7106 126.053 41.0459 125.227 43.1844C124.401 45.3229 122.96 47.1688 121.086 48.4891C119.136 49.8556 116.813 50.5899 114.431 50.5925ZM114.431 29.127C112.63 29.135 110.866 29.6349 109.329 30.5728C107.792 31.5106 106.54 32.8508 105.709 34.4484C104.879 36.046 104.5 37.8402 104.615 39.6372C104.73 41.4342 105.334 43.1656 106.362 44.6443C107.107 45.7112 108.056 46.6202 109.154 47.3188C110.252 48.0173 111.477 48.4917 112.76 48.7145C114.042 48.9372 115.355 48.904 116.625 48.6168C117.894 48.3295 119.094 47.7939 120.155 47.0408C121.22 46.294 122.127 45.3448 122.824 44.2473C123.522 43.1497 123.997 41.9255 124.221 40.6445C124.445 39.3635 124.414 38.0509 124.131 36.7817C123.848 35.5125 123.317 34.3116 122.569 33.2477C121.662 31.9421 120.449 30.8779 119.037 30.1477C117.625 29.4175 116.055 29.0434 114.465 29.058L114.431 29.127Z" fill="#00194C"/>
<path d="M125.672 69.0063C125.672 69.0063 114.345 71.627 107.672 67.8339C107.672 67.8339 115.052 83.0925 125.672 81.5063V69.0063Z" fill="#00194C"/>
<path d="M124.086 82.4718C113.914 82.4718 107.19 68.7994 106.845 68.1959C106.757 68.0327 106.729 67.8444 106.763 67.6625C106.798 67.4805 106.893 67.3159 107.034 67.1959C107.165 67.0686 107.333 66.9878 107.514 66.966C107.695 66.9441 107.878 66.9825 108.034 67.0753C114.345 70.6787 125.276 68.1959 125.414 68.1787C125.54 68.1475 125.672 68.1452 125.799 68.1721C125.926 68.199 126.046 68.2543 126.148 68.3339C126.251 68.4135 126.335 68.5154 126.393 68.6318C126.451 68.7482 126.481 68.8763 126.483 69.0063V81.489C126.481 81.6953 126.405 81.8939 126.269 82.0489C126.133 82.2039 125.946 82.305 125.741 82.3339C125.194 82.4195 124.64 82.4655 124.086 82.4718ZM109.69 69.6615C112.069 73.558 117.707 81.2304 124.81 80.7132V70.0753C122.172 70.558 115.224 71.5408 109.69 69.6615Z" fill="#00194C"/>
<path d="M64.0517 79.9028C54.7931 81.627 17.2931 168.248 30.1379 178.179C50.1724 193.696 119.879 178.006 119.879 178.006L114.207 151.11C114.207 151.11 69.3793 152.368 68.7414 143.161C68.1034 133.955 94.8103 91.4373 91.3103 84.989C87.8103 78.5408 64.0517 79.9028 64.0517 79.9028Z" fill="#0055FF"/>
<path d="M85.8966 186.886C85.7834 186.896 85.6693 186.884 85.5608 186.85C85.4523 186.816 85.3515 186.761 85.2643 186.688C85.177 186.615 85.105 186.526 85.0522 186.425C84.9995 186.324 84.9671 186.214 84.9569 186.101C84.9467 185.988 84.9589 185.874 84.9928 185.765C85.0267 185.657 85.0817 185.556 85.1545 185.469C85.2274 185.382 85.3167 185.31 85.4174 185.257C85.5181 185.204 85.6282 185.172 85.7414 185.161L106.828 181.541L107.483 156.972L67.8276 152.886C67.7033 152.877 67.5826 152.84 67.4749 152.777C67.3673 152.714 67.2756 152.628 67.2069 152.524C67.1336 152.42 67.0847 152.301 67.0638 152.175C67.0429 152.05 67.0506 151.921 67.0862 151.799L84.7414 91.2649C84.8054 91.0454 84.954 90.8604 85.1545 90.7504C85.3549 90.6405 85.5909 90.6147 85.8104 90.6787C86.0273 90.7466 86.2095 90.8958 86.3188 91.0951C86.4281 91.2944 86.456 91.5283 86.3966 91.7477L69.1552 151.299L108.483 155.351C108.699 155.373 108.899 155.475 109.043 155.639C109.187 155.802 109.264 156.013 109.259 156.23L108.569 182.299C108.564 182.5 108.488 182.693 108.356 182.844C108.224 182.995 108.043 183.095 107.845 183.127L86.069 186.886H85.8966Z" fill="#00194C"/>
<path d="M109.31 160.092C116.765 160.542 124.246 160.178 131.621 159.006C137.066 157.684 142.655 157.041 148.259 157.093C155.653 157.45 162.927 159.113 169.741 162.006C170.023 162.097 170.274 162.264 170.466 162.489C171.121 163.403 169.552 164.213 168.431 164.334C165.466 164.403 162.508 164.025 159.655 163.213C166.706 165.829 173.374 169.378 179.483 173.765C180.19 174.265 180.948 175.041 180.604 175.834C180.259 176.627 178.879 176.472 177.931 176.058L161.897 168.73C166.051 170.382 169.903 172.712 173.293 175.627C173.776 176.058 174.293 176.61 174.155 177.248C173.931 178.317 172.328 178.11 171.328 177.627C166.454 175.199 161.799 172.355 157.414 169.127L167.31 176.696C167.431 177.506 166.586 178.196 165.759 178.23C164.94 178.173 164.153 177.893 163.483 177.42L152.448 171.041L159.345 175.868C160.431 176.627 161.655 177.851 161.069 179.058C160.483 180.265 158.328 180.041 156.897 179.403C151.215 176.936 145.276 175.108 139.19 173.955C137.06 173.254 134.855 172.808 132.621 172.627C129.211 173.052 125.847 173.785 122.569 174.817C117.586 175.937 112.603 177.093 107.621 178.265" fill="white"/>
<path d="M159.379 180.817C158.426 180.769 157.489 180.541 156.621 180.144C150.996 177.691 145.115 175.876 139.086 174.73C138.328 174.593 137.586 174.368 136.845 174.161C135.514 173.699 134.116 173.454 132.707 173.437C130.405 173.632 128.133 174.083 125.931 174.782C124.862 175.075 123.81 175.368 122.793 175.593C117.81 176.73 112.828 177.868 107.845 179.041C107.642 179.083 107.43 179.046 107.254 178.937C107.077 178.828 106.95 178.655 106.897 178.455C106.871 178.354 106.866 178.249 106.882 178.146C106.898 178.043 106.934 177.945 106.989 177.856C107.043 177.768 107.115 177.691 107.2 177.631C107.285 177.571 107.381 177.529 107.483 177.506C112.466 176.334 117.466 175.196 122.448 174.058C123.431 173.834 124.466 173.558 125.517 173.265C127.835 172.525 130.23 172.05 132.655 171.851C134.226 171.89 135.782 172.158 137.276 172.644C137.983 172.851 138.672 173.058 139.397 173.196C145.543 174.354 151.541 176.199 157.276 178.696C158.1 179.152 159.056 179.31 159.983 179.144C160.076 179.116 160.161 179.067 160.232 179.001C160.304 178.936 160.36 178.855 160.397 178.765C160.759 177.937 159.328 176.851 158.879 176.524L151.983 171.713C151.814 171.595 151.697 171.416 151.656 171.214C151.614 171.013 151.651 170.803 151.759 170.627C151.872 170.457 152.046 170.337 152.245 170.292C152.444 170.247 152.653 170.281 152.828 170.386L163.862 176.765C164.404 177.168 165.05 177.407 165.724 177.455C165.856 177.447 165.986 177.412 166.104 177.353C166.223 177.293 166.328 177.211 166.414 177.11L156.879 169.817C156.783 169.76 156.7 169.684 156.635 169.593C156.57 169.501 156.525 169.398 156.503 169.288C156.482 169.178 156.483 169.065 156.508 168.956C156.533 168.847 156.581 168.745 156.648 168.656C156.715 168.566 156.8 168.492 156.898 168.438C156.996 168.384 157.104 168.352 157.216 168.343C157.327 168.333 157.439 168.348 157.545 168.385C157.65 168.422 157.747 168.481 157.828 168.558C162.173 171.762 166.788 174.583 171.621 176.989C172.112 177.268 172.69 177.354 173.241 177.23C173.345 177.058 173.241 176.817 172.707 176.299C170.388 174.286 167.842 172.55 165.121 171.127L161.5 169.403C161.331 169.306 161.204 169.151 161.142 168.966C161.08 168.782 161.089 168.581 161.165 168.402C161.242 168.223 161.382 168.079 161.558 167.996C161.734 167.914 161.934 167.899 162.121 167.955C163.379 168.455 164.603 169.024 165.81 169.679L178.19 175.351C178.654 175.599 179.187 175.69 179.707 175.61C179.914 175.299 179.552 174.817 178.966 174.403C172.91 170.057 166.3 166.543 159.31 163.955C159.119 163.884 158.964 163.742 158.877 163.558C158.79 163.375 158.778 163.164 158.845 162.972C158.908 162.778 159.044 162.616 159.224 162.52C159.404 162.423 159.614 162.4 159.81 162.455C162.577 163.253 165.45 163.619 168.328 163.541C168.597 163.54 168.864 163.483 169.111 163.373C169.357 163.264 169.578 163.103 169.759 162.903L169.362 162.73C162.637 159.865 155.456 158.219 148.155 157.868C143.3 157.787 138.453 158.302 133.724 159.403L131.69 159.782C124.28 160.954 116.765 161.324 109.276 160.886C109.172 160.881 109.069 160.856 108.975 160.812C108.88 160.768 108.795 160.706 108.725 160.629C108.654 160.552 108.6 160.462 108.564 160.364C108.529 160.266 108.513 160.162 108.517 160.058C108.517 159.954 108.538 159.851 108.58 159.755C108.621 159.66 108.681 159.574 108.757 159.502C108.833 159.431 108.923 159.377 109.021 159.342C109.119 159.307 109.224 159.292 109.328 159.299C116.718 159.738 124.134 159.379 131.448 158.23L133.483 157.851C138.33 156.722 143.3 156.201 148.276 156.299C155.766 156.664 163.132 158.351 170.035 161.282C170.449 161.423 170.814 161.68 171.086 162.024C171.254 162.249 171.356 162.517 171.38 162.797C171.404 163.077 171.35 163.359 171.224 163.61C170.913 164.065 170.496 164.439 170.01 164.7C169.524 164.961 168.983 165.101 168.431 165.11C167.672 165.11 166.914 165.11 166.172 165.11C171.012 167.35 175.63 170.04 179.966 173.144C181.276 174.075 181.776 175.179 181.345 176.161C181.252 176.38 181.116 176.577 180.944 176.74C180.772 176.903 180.568 177.029 180.345 177.11C179.429 177.341 178.461 177.231 177.621 176.799L173.776 175.075C174.152 175.338 174.453 175.693 174.649 176.108C174.846 176.522 174.931 176.98 174.897 177.437C174.842 177.693 174.73 177.933 174.568 178.14C174.407 178.346 174.201 178.512 173.966 178.627C173.472 178.797 172.947 178.861 172.427 178.813C171.907 178.766 171.403 178.608 170.948 178.351C169.983 177.886 169.035 177.386 168.069 176.868C168.075 177.336 167.909 177.79 167.603 178.144C167.374 178.412 167.092 178.63 166.774 178.785C166.457 178.939 166.111 179.026 165.759 179.041C164.789 179.007 163.85 178.696 163.052 178.144L161.724 177.368C161.877 177.686 161.956 178.033 161.956 178.386C161.956 178.738 161.877 179.086 161.724 179.403C161.606 179.683 161.433 179.937 161.213 180.147C160.994 180.358 160.733 180.521 160.448 180.627C160.105 180.749 159.744 180.813 159.379 180.817Z" fill="#00194C"/>
<path d="M139.086 94.7822C139.086 94.7822 147.293 128.248 154.603 152.058L139.086 94.7822Z" fill="white"/>
<path d="M154.672 152.834C154.506 152.834 154.344 152.78 154.211 152.68C154.077 152.581 153.979 152.441 153.931 152.282C146.621 128.748 138.414 95.3856 138.31 94.9718C138.285 94.8699 138.279 94.7639 138.295 94.66C138.311 94.5561 138.347 94.4563 138.401 94.3665C138.456 94.2766 138.528 94.1985 138.613 94.1367C138.698 94.0749 138.794 94.0306 138.897 94.0063C139.1 93.9596 139.314 93.995 139.491 94.1047C139.669 94.2144 139.796 94.3897 139.845 94.5925C139.931 94.9201 148.138 128.317 155.362 151.817C155.422 152.016 155.401 152.23 155.304 152.414C155.207 152.597 155.042 152.736 154.845 152.799C154.789 152.82 154.731 152.831 154.672 152.834Z" fill="#00194C"/>
<path d="M237.517 192.437L237.086 197.127L131.621 212.541L132.672 207.627L237.517 192.437Z" fill="white"/>
<path d="M131.621 213.403C131.501 213.402 131.383 213.377 131.274 213.329C131.164 213.282 131.065 213.213 130.983 213.127C130.888 213.028 130.82 212.906 130.783 212.774C130.747 212.641 130.745 212.502 130.776 212.368L131.828 207.437C131.871 207.268 131.963 207.114 132.091 206.995C132.219 206.876 132.379 206.796 132.552 206.765L237.397 191.592C237.524 191.576 237.653 191.588 237.775 191.626C237.897 191.665 238.009 191.73 238.103 191.817C238.197 191.908 238.271 192.018 238.318 192.14C238.366 192.262 238.387 192.393 238.379 192.524L237.948 197.196C237.931 197.387 237.851 197.568 237.72 197.708C237.589 197.849 237.414 197.942 237.224 197.972L131.741 213.489L131.621 213.403ZM133.345 208.386L132.672 211.506L236.241 196.368L236.5 193.455L133.345 208.386Z" fill="#00194C"/>
<path d="M237.517 192.437C237.517 192.437 213.5 171.851 212.707 172.041C211.914 172.23 104.086 185.161 104.086 185.161L132.724 207.575L237.517 192.437Z" fill="white"/>
<path d="M132.672 208.489C132.483 208.49 132.299 208.422 132.155 208.299L103.5 185.886C103.366 185.78 103.266 185.637 103.213 185.475C103.16 185.313 103.156 185.139 103.202 184.974C103.248 184.81 103.342 184.663 103.472 184.552C103.602 184.441 103.761 184.371 103.931 184.351C105 184.23 210.828 171.541 212.552 171.248C213.034 171.144 213.741 170.955 238.086 191.834C238.212 191.942 238.305 192.084 238.354 192.242C238.402 192.401 238.405 192.57 238.362 192.73C238.313 192.889 238.221 193.031 238.097 193.141C237.972 193.251 237.819 193.323 237.655 193.351L132.828 208.524L132.672 208.489ZM106.207 185.765L132.914 206.713L235.517 191.868C226.897 184.541 214.448 174.024 212.586 172.903C206.966 173.696 127.448 183.213 106.207 185.765Z" fill="#00194C"/>
<path d="M131.621 212.541L103.603 189.834L104.034 185.161L132.672 207.627L131.621 212.541Z" fill="white"/>
<path d="M131.621 213.403C131.421 213.403 131.227 213.336 131.069 213.213L103.069 190.506C102.96 190.417 102.874 190.304 102.817 190.175C102.76 190.046 102.734 189.906 102.741 189.765L103.172 185.075C103.191 184.922 103.249 184.777 103.341 184.653C103.433 184.53 103.555 184.432 103.697 184.371C103.838 184.31 103.993 184.287 104.146 184.305C104.299 184.323 104.445 184.38 104.569 184.472L133.207 206.886C133.333 206.987 133.429 207.121 133.483 207.273C133.538 207.425 133.55 207.589 133.517 207.748L132.466 212.679C132.432 212.822 132.362 212.955 132.262 213.063C132.162 213.172 132.037 213.253 131.897 213.299C131.812 213.351 131.718 213.386 131.621 213.403ZM104.5 189.455L131.069 210.937L131.724 207.92L104.741 186.799L104.5 189.455Z" fill="#00194C"/>
<path d="M237.517 192.437L257.776 124.524L146.604 143.472L132.672 207.627L237.517 192.437Z" fill="white"/>
<path d="M132.672 208.489C132.556 208.488 132.44 208.462 132.334 208.415C132.227 208.367 132.131 208.299 132.052 208.213C131.957 208.11 131.888 207.986 131.849 207.851C131.81 207.717 131.803 207.575 131.828 207.437L145.759 143.299C145.791 143.13 145.875 142.975 145.998 142.855C146.121 142.735 146.278 142.655 146.448 142.627L257.638 123.661C257.782 123.634 257.931 123.644 258.069 123.691C258.208 123.738 258.333 123.82 258.43 123.93C258.527 124.039 258.595 124.172 258.625 124.316C258.655 124.459 258.648 124.608 258.603 124.748L238.345 192.679C238.292 192.833 238.198 192.971 238.074 193.077C237.949 193.183 237.799 193.254 237.638 193.282L132.81 208.455L132.672 208.489ZM147.328 144.23L133.793 206.593L236.845 191.661L256.552 125.61L147.328 144.23Z" fill="#00194C"/>
<path d="M297.121 90.489C296.911 90.4901 296.708 90.413 296.552 90.2728C296.396 90.1326 296.297 89.9392 296.276 89.7304C295.69 84.0235 299.948 77.0063 300.138 76.7132C300.196 76.6154 300.274 76.5302 300.365 76.4624C300.457 76.3947 300.561 76.3457 300.672 76.3185C300.782 76.2912 300.897 76.2862 301.01 76.3036C301.122 76.321 301.23 76.3606 301.328 76.4201C301.519 76.544 301.654 76.7373 301.706 76.9592C301.757 77.1811 301.721 77.4143 301.604 77.6097C301.604 77.6097 297.466 84.5063 297.983 89.5408C297.995 89.6541 297.984 89.7686 297.951 89.8778C297.919 89.9869 297.865 90.0885 297.793 90.1767C297.721 90.2649 297.632 90.3379 297.531 90.3915C297.431 90.4451 297.32 90.4783 297.207 90.489H297.121Z" fill="#00194C"/>
<path d="M367.621 181.161C367.456 181.158 367.295 181.111 367.155 181.024L347.897 168.644C347.702 168.521 347.565 168.325 347.515 168.1C347.465 167.876 347.506 167.64 347.629 167.446C347.753 167.252 347.948 167.114 348.173 167.064C348.398 167.014 348.633 167.055 348.828 167.179L368.086 179.558C368.279 179.685 368.414 179.883 368.463 180.108C368.511 180.334 368.469 180.57 368.345 180.765C368.264 180.883 368.156 180.981 368.03 181.05C367.904 181.119 367.764 181.157 367.621 181.161Z" fill="#D1D3D4"/>
<path d="M374.586 178.058C374.423 178.063 374.261 178.021 374.121 177.937L355.828 166.11C355.636 165.984 355.501 165.787 355.454 165.562C355.408 165.338 355.452 165.103 355.578 164.911C355.703 164.719 355.9 164.585 356.125 164.538C356.35 164.491 356.584 164.536 356.776 164.661L375.052 176.403C375.245 176.53 375.38 176.727 375.428 176.953C375.477 177.179 375.434 177.415 375.31 177.61C375.236 177.739 375.131 177.847 375.005 177.925C374.878 178.004 374.735 178.049 374.586 178.058Z" fill="#D1D3D4"/>
<path d="M381.293 175.765C381.129 175.759 380.968 175.712 380.828 175.627L362.328 163.765C362.136 163.639 362.001 163.442 361.954 163.218C361.908 162.993 361.952 162.759 362.078 162.567C362.203 162.375 362.4 162.24 362.625 162.193C362.85 162.147 363.084 162.191 363.276 162.317L381.707 174.179C381.899 174.302 382.034 174.497 382.082 174.72C382.131 174.943 382.089 175.176 381.966 175.368C381.895 175.485 381.796 175.582 381.679 175.651C381.562 175.72 381.429 175.759 381.293 175.765Z" fill="#D1D3D4"/>
<path d="M389.724 173.489C389.572 173.492 389.422 173.45 389.293 173.368L369.448 161.679C369.338 161.629 369.24 161.557 369.16 161.467C369.08 161.377 369.019 161.271 368.982 161.156C368.946 161.041 368.933 160.92 368.946 160.8C368.959 160.68 368.997 160.564 369.058 160.46C369.119 160.356 369.201 160.265 369.298 160.195C369.396 160.124 369.508 160.074 369.626 160.05C369.744 160.025 369.866 160.025 369.984 160.05C370.101 160.075 370.213 160.125 370.31 160.196L390.155 171.886C390.317 171.982 390.443 172.128 390.514 172.302C390.585 172.476 390.597 172.669 390.548 172.851C390.499 173.032 390.392 173.193 390.243 173.308C390.095 173.424 389.912 173.487 389.724 173.489Z" fill="#D1D3D4"/>
<path d="M395.741 171.437C395.584 171.441 395.428 171.399 395.293 171.317L375.448 159.627C375.254 159.506 375.115 159.314 375.06 159.092C375.006 158.869 375.04 158.635 375.155 158.437C375.21 158.338 375.285 158.252 375.375 158.183C375.465 158.114 375.568 158.064 375.678 158.036C375.788 158.009 375.902 158.004 376.014 158.023C376.126 158.041 376.232 158.083 376.328 158.144L396.172 169.834C396.334 169.93 396.46 170.076 396.531 170.25C396.602 170.425 396.614 170.617 396.565 170.799C396.516 170.981 396.409 171.142 396.261 171.257C396.112 171.372 395.93 171.435 395.741 171.437Z" fill="#D1D3D4"/>
</svg>
