<svg width="238" height="425" viewBox="0 0 238 425" fill="none" xmlns="http://www.w3.org/2000/svg">
<g opacity="0.8">
<path d="M353.828 -145.631L236.358 57.0241L348.215 389.735C348.208 390.51 348.203 391.284 348.196 392.059L235.598 57.1447L235.516 56.9006L353.846 -147.239C353.84 -146.703 353.834 -146.167 353.828 -145.631Z" fill="#00194C"/>
<path d="M353.988 -159.523L227.068 59.4337L347.984 419.087C347.979 419.844 347.972 420.602 347.966 421.359L226.326 59.5516L226.246 59.3131L354.006 -161.094C354 -160.57 353.993 -160.046 353.988 -159.523Z" fill="#00194C"/>
<path d="M354.147 -173.416L217.778 61.8436L347.752 448.439C347.746 449.179 347.74 449.918 347.734 450.659L217.054 61.9602L216.976 61.7256L354.165 -174.95C354.16 -174.439 354.154 -173.927 354.147 -173.416Z" fill="#00194C"/>
<path d="M354.307 -187.308L208.489 64.2532L347.521 477.793C347.516 478.515 347.509 479.24 347.504 479.964L207.78 64.3671L207.704 64.1394L354.326 -188.805C354.319 -188.306 354.314 -187.807 354.307 -187.308Z" fill="#00194C"/>
<path d="M354.467 -201.201L199.199 66.663L347.324 507.249C347.32 507.956 347.315 508.665 347.31 509.373L198.508 66.7727L198.434 66.5506L354.486 -202.664C354.479 -202.176 354.474 -201.689 354.467 -201.201Z" fill="#00194C"/>
<path d="M354.627 -215.093L189.909 69.0726L347.132 536.719C347.127 537.409 347.123 538.1 347.118 538.79L189.235 69.1796L189.162 68.9629L354.644 -216.521L354.627 -215.093Z" fill="#00194C"/>
<path d="M354.786 -228.982L180.62 71.4824L346.94 566.187C346.936 566.861 346.931 567.534 346.927 568.209L179.963 71.5866L179.892 71.3754L354.802 -230.37C354.796 -229.907 354.791 -229.444 354.786 -228.982Z" fill="#00194C"/>
<path d="M354.944 -242.871L171.329 73.8922L346.771 595.728C346.768 596.386 346.766 597.046 346.761 597.704L170.69 73.9949L170.621 73.7892L354.959 -244.225C354.953 -243.774 354.949 -243.323 354.944 -242.871Z" fill="#00194C"/>
<path d="M355.1 -256.758L162.04 76.3018L346.625 625.333C346.622 625.974 346.619 626.614 346.615 627.256L161.416 76.4006L161.349 76.2003L355.116 -258.077C355.111 -257.637 355.106 -257.198 355.1 -256.758Z" fill="#00194C"/>
<path d="M355.259 -270.649L152.751 78.7129L346.478 654.94C346.476 655.564 346.471 656.187 346.469 656.811L152.146 78.8089L152.08 78.6127L355.273 -271.929C355.268 -271.503 355.264 -271.075 355.259 -270.649Z" fill="#00194C"/>
<path d="M355.416 -284.536L143.46 81.1201L346.338 684.565C346.336 685.172 346.335 685.781 346.333 686.389L142.872 81.2133L142.809 81.024L355.431 -285.781C355.426 -285.366 355.421 -284.95 355.416 -284.536Z" fill="#00194C"/>
<path d="M350.613 -289.867L134.171 83.531L346.245 714.33C346.243 714.921 346.242 715.511 346.24 716.102L133.599 83.623L133.538 83.4392L349.951 -289.913L18.5461 -1013.06L19.0245 -1013.41L350.52 -290.066L350.613 -289.867Z" fill="#00194C"/>
<path d="M339.019 724.614L124.325 86.0287L124.266 85.8503L340.681 -287.501L9.27197 -1010.65L9.73735 -1010.99L341.235 -287.65L341.323 -287.456L124.879 85.9408L339.602 724.61C339.407 724.611 339.213 724.612 339.019 724.614Z" fill="#00194C"/>
<path d="M328.971 724.716L115.054 88.4369L114.995 88.2641L331.411 -285.088L0 -1008.25L0.450218 -1008.58L331.948 -285.233L332.034 -285.046L115.592 88.3505L329.533 724.705C329.345 724.708 329.159 724.714 328.971 724.716Z" fill="#00194C"/>
</g>
</svg>
