<svg width="140" height="141" viewBox="0 0 140 141" fill="none" xmlns="http://www.w3.org/2000/svg">
<rect x="5.5" y="6.18933" width="129" height="129" rx="64.5" stroke="#0055FF" stroke-dasharray="4 4"/>
<g filter="url(#filter0_d_49_8897)">
<rect x="20" y="20.6893" width="100" height="100" rx="50" fill="white" shape-rendering="crispEdges"/>
<g clip-path="url(#clip0_49_8897)">
<path d="M95.51 83.3093C94.56 83.1393 93.72 82.8393 92.99 82.4193C92.1763 81.9822 91.4746 81.3627 90.94 80.6093C90.7 80.2793 90.52 79.9193 90.35 79.5493C92.63 77.2893 94.07 73.6493 94.07 70.2493C94.07 69.0893 93.89 68.0093 93.57 67.0293C93.56 66.9693 93.56 66.9193 93.53 66.8693C93.5177 66.8579 93.5075 66.8444 93.5 66.8293C92.31 63.4693 89.35 61.3193 85.48 61.3193C80.43 61.3193 76.89 64.9893 76.89 70.2493C76.89 73.6493 78.33 77.3093 80.62 79.5593C80.51 79.8093 80.39 80.0493 80.25 80.2693C79.77 81.0393 79.18 81.6393 78.46 82.1193C77.64 82.6793 76.62 83.0693 75.5 83.2893C75.22 83.3293 68.55 84.3093 68.97 95.7193C68.99 96.2393 69.42 96.6493 69.94 96.6493H101.02C101.54 96.6493 101.97 96.2393 101.99 95.7193C102.41 84.3193 95.74 83.3393 95.51 83.3093ZM85.47 63.2693C88.24 63.2693 90.33 64.5593 91.38 66.7393C86.39 68.5893 83.76 65.7393 83.65 65.6093C83.46 65.3893 83.17 65.2493 82.88 65.2793C82.59 65.2893 82.31 65.4393 82.14 65.6693C81.34 66.7593 80.4 67.4093 79.2 67.6893C80.05 64.9393 82.33 63.2693 85.47 63.2693ZM78.83 70.2593C78.83 70.0793 78.84 69.8993 78.85 69.7193C80.51 69.4993 81.89 68.8193 83.02 67.6393C84.39 68.6893 87.43 70.2593 91.97 68.5993C92.07 69.1293 92.12 69.6793 92.12 70.2693C92.12 75.1893 88.89 79.8293 85.47 79.8293C82.05 79.8293 78.83 75.1793 78.83 70.2593ZM85.47 81.7593C86.66 81.7593 87.77 81.3993 88.77 80.7893C89.0685 81.3665 89.438 81.904 89.87 82.3893L85.48 85.4393L81.08 82.3893C81.37 82.0593 81.65 81.6993 81.9 81.3093C82 81.1493 82.09 80.9693 82.17 80.7993C83.18 81.3993 84.29 81.7593 85.47 81.7593ZM70.89 94.7293C70.89 86.0493 75.55 85.2493 75.81 85.2193C77.26 84.9393 78.52 84.4393 79.55 83.7393C79.56 83.7293 79.58 83.7193 79.59 83.7093L84.93 87.4193C85.1 87.5393 85.29 87.5893 85.48 87.5893C85.67 87.5893 85.87 87.5293 86.03 87.4193L91.37 83.7093C91.59 83.8593 91.8 83.9993 92.04 84.1293C92.95 84.6493 94 85.0193 95.2 85.2393C95.41 85.2693 100.07 86.0693 100.06 94.7493H70.89V94.7293ZM60.55 85.1093C59.77 84.9693 59.07 84.7193 58.47 84.3793C57.8057 84.0188 57.2315 83.5129 56.79 82.8993C56.62 82.6493 56.47 82.3893 56.34 82.1193C58.24 80.1793 59.44 77.1193 59.44 74.2593C59.44 73.2493 59.28 72.3193 59 71.4593C59 71.4393 59 71.3993 58.98 71.3593C58.98 71.3493 58.97 71.3393 58.96 71.3293C57.94 68.4393 55.39 66.5993 52.07 66.5993C47.72 66.5993 44.69 69.7593 44.69 74.2793C44.69 77.1493 45.89 80.2193 47.81 82.1493C47.73 82.3193 47.64 82.4793 47.55 82.6393C47.15 83.2693 46.68 83.7593 46.09 84.1493C45.42 84.6093 44.58 84.9293 43.66 85.1093C43.41 85.1393 37.67 85.9893 38.02 95.7393C38.04 96.2593 38.47 96.6693 38.99 96.6693H65.16C65.68 96.6693 66.11 96.2593 66.13 95.7393C66.49 85.9793 60.74 85.1393 60.55 85.1093ZM49.35 83.3493C50.18 83.8293 51.09 84.1093 52.07 84.1093C53.05 84.1093 53.96 83.8193 54.8 83.3393C54.93 83.5693 55.06 83.7993 55.22 84.0193C55.32 84.1693 55.44 84.2993 55.56 84.4393L52.08 86.8593L48.61 84.4493C48.82 84.1993 49.02 83.9393 49.2 83.6493C49.25 83.5593 49.3 83.4493 49.35 83.3493ZM52.07 68.5393C54.27 68.5393 55.93 69.5493 56.81 71.2393C52.83 72.6193 50.74 70.3593 50.65 70.2693C50.5576 70.1566 50.4394 70.0677 50.3053 70.0102C50.1713 69.9528 50.0254 69.9285 49.88 69.9393C49.59 69.9493 49.31 70.0993 49.14 70.3293C48.55 71.1293 47.87 71.6293 47.03 71.8893C47.79 69.7993 49.6 68.5393 52.07 68.5393ZM46.65 73.9293C47.97 73.7293 49.09 73.1893 50.02 72.2693C51.23 73.1493 53.75 74.3493 57.42 73.0793C57.48 73.4593 57.51 73.8593 57.51 74.2793C57.51 78.3393 54.87 82.1793 52.07 82.1793C51.21 82.1793 50.37 81.8193 49.61 81.1993C49.6 81.1893 49.59 81.1893 49.58 81.1793C47.88 79.7793 46.62 77.0793 46.62 74.2793C46.63 74.1593 46.65 74.0493 46.65 73.9293ZM39.94 94.7293C39.99 87.7193 43.74 87.0493 43.96 87.0193C45.18 86.7893 46.24 86.3693 47.11 85.7793L51.52 88.8393C51.69 88.9593 51.88 89.0093 52.07 89.0093C52.26 89.0093 52.46 88.9493 52.62 88.8393L57.04 85.7693C57.2 85.8693 57.35 85.9793 57.52 86.0693C58.3 86.5093 59.2 86.8293 60.24 87.0193C60.41 87.0493 64.15 87.7093 64.2 94.7193H39.94V94.7293ZM83.09 49.8493L84.84 48.0593V57.9393C84.84 58.4793 85.27 58.9093 85.81 58.9093C86.35 58.9093 86.78 58.4793 86.78 57.9393V48.0593L88.53 49.8493C88.6188 49.9408 88.725 50.0136 88.8422 50.0637C88.9594 50.1137 89.0854 50.14 89.2129 50.1409C89.3404 50.1418 89.4668 50.1174 89.5847 50.0691C89.7027 50.0208 89.8099 49.9495 89.9 49.8593C90.28 49.4893 90.29 48.8693 89.92 48.4893L86.5 44.9993C86.5 44.9993 86.49 44.9993 86.49 44.9893C86.4 44.8977 86.2926 44.8248 86.1741 44.7751C86.0557 44.7254 85.9285 44.6998 85.8 44.6998C85.6715 44.6998 85.5443 44.7254 85.4259 44.7751C85.3074 44.8248 85.2 44.8977 85.11 44.9893L81.71 48.4893C81.33 48.8693 81.34 49.4893 81.73 49.8593C82.1 50.2393 82.72 50.2293 83.09 49.8493ZM49.07 55.8493C49.32 55.8493 49.57 55.7493 49.76 55.5593L51.1 54.1893V62.5993C51.1 63.1393 51.53 63.5693 52.07 63.5693C52.61 63.5693 53.04 63.1393 53.04 62.5993V54.1893L54.38 55.5593C54.75 55.9393 55.37 55.9493 55.75 55.5793C56.13 55.2093 56.14 54.5893 55.77 54.2093L52.77 51.1393C52.77 51.1393 52.76 51.1393 52.76 51.1293C52.72 51.0893 52.68 51.0793 52.64 51.0493C52.4802 50.9233 52.2835 50.8531 52.08 50.8493C51.9514 50.8484 51.8239 50.8737 51.7052 50.9235C51.5866 50.9734 51.4794 51.0468 51.39 51.1393L48.39 54.2093C48.01 54.5893 48.02 55.2093 48.41 55.5793C48.58 55.7593 48.82 55.8493 49.07 55.8493Z" fill="#00194C"/>
</g>
</g>
<defs>
<filter id="filter0_d_49_8897" x="0" y="0.689331" width="140" height="140" filterUnits="userSpaceOnUse" color-interpolation-filters="sRGB">
<feFlood flood-opacity="0" result="BackgroundImageFix"/>
<feColorMatrix in="SourceAlpha" type="matrix" values="0 0 0 0 0 0 0 0 0 0 0 0 0 0 0 0 0 0 127 0" result="hardAlpha"/>
<feOffset/>
<feGaussianBlur stdDeviation="10"/>
<feComposite in2="hardAlpha" operator="out"/>
<feColorMatrix type="matrix" values="0 0 0 0 0 0 0 0 0 0 0 0 0 0 0 0 0 0 0.14 0"/>
<feBlend mode="normal" in2="BackgroundImageFix" result="effect1_dropShadow_49_8897"/>
<feBlend mode="normal" in="SourceGraphic" in2="effect1_dropShadow_49_8897" result="shape"/>
</filter>
<clipPath id="clip0_49_8897">
<rect width="64" height="64" fill="white" transform="translate(38 38.6893)"/>
</clipPath>
</defs>
</svg>
