<svg width="535" height="473" viewBox="0 0 535 473" fill="none" xmlns="http://www.w3.org/2000/svg">
<path d="M404.553 289.47L363.087 440.32C363.087 440.32 330.407 448.01 331.041 450.048C331.676 452.085 382.638 459.006 382.638 459.006L434.312 302.677" fill="white"/>
<path d="M382.638 459.986H382.523C331.022 453.027 330.368 451.086 330.118 450.374C330.07 450.212 330.055 450.041 330.075 449.872C330.095 449.704 330.149 449.541 330.234 449.394C331.579 446.972 352.668 441.801 362.299 439.551L403.63 289.259C403.698 289.015 403.859 288.808 404.078 288.682C404.298 288.556 404.558 288.521 404.803 288.586C404.926 288.62 405.041 288.677 405.141 288.755C405.242 288.833 405.326 288.931 405.389 289.042C405.451 289.152 405.491 289.275 405.506 289.401C405.521 289.528 405.511 289.656 405.476 289.778L364.01 440.609C363.966 440.778 363.876 440.932 363.75 441.054C363.625 441.176 363.469 441.261 363.299 441.301C350.323 444.319 336.385 448.106 332.694 449.875C338.25 451.662 364.74 455.642 381.984 457.987L433.389 302.408C433.472 302.169 433.645 301.972 433.871 301.857C434.096 301.742 434.358 301.719 434.6 301.793C434.722 301.832 434.835 301.895 434.932 301.979C435.03 302.062 435.109 302.164 435.167 302.279C435.224 302.393 435.258 302.518 435.266 302.646C435.274 302.774 435.257 302.902 435.215 303.023L383.561 459.352C383.492 459.541 383.367 459.704 383.201 459.817C383.036 459.931 382.839 459.99 382.638 459.986Z" fill="#00194C"/>
<path d="M493.118 283.165L503.922 459.044C503.922 459.044 452.767 470.136 452.575 468.81C452.382 467.483 480.142 447.76 480.142 447.76L459.245 285.337" fill="white"/>
<path d="M452.882 469.752C452.229 469.752 452.094 469.752 451.998 469.598C451.778 469.426 451.627 469.18 451.575 468.906C451.46 468.195 451.287 466.984 479.046 447.26L458.246 285.395C458.212 285.14 458.282 284.882 458.439 284.679C458.596 284.475 458.827 284.342 459.082 284.309C459.337 284.276 459.594 284.345 459.798 284.502C460.002 284.659 460.135 284.89 460.168 285.145L481.064 447.567C481.085 447.743 481.058 447.921 480.987 448.083C480.916 448.246 480.804 448.386 480.661 448.49C472.125 454.546 459.053 464.1 454.766 467.714C461.975 466.772 486.601 461.697 502.826 458.102L492.157 283.28C492.149 283.154 492.166 283.027 492.207 282.908C492.248 282.788 492.313 282.678 492.397 282.583C492.481 282.489 492.582 282.411 492.696 282.356C492.81 282.301 492.934 282.269 493.06 282.261C493.314 282.251 493.562 282.339 493.752 282.507C493.942 282.676 494.059 282.912 494.079 283.165L504.825 459.044C504.844 459.274 504.778 459.502 504.64 459.686C504.502 459.87 504.301 459.998 504.075 460.044C464.57 468.541 455.266 469.752 452.882 469.752Z" fill="#00194C"/>
<path d="M410.34 136.467C407.725 137.294 405.091 138.082 402.439 138.774C381.401 144.569 359.646 147.339 337.827 147.002C330.541 146.81 320.814 147.002 314.143 143.888C308.953 141.427 304.07 137.121 299.283 133.949C298.053 133.142 296.073 132.469 295.438 133.757C294.9 134.737 295.708 135.891 296.477 136.679C299.247 139.505 302.265 142.078 305.493 144.369C299.269 143.297 292.968 142.731 286.653 142.677C286.372 142.644 286.089 142.705 285.846 142.85C285.134 143.388 286.057 144.426 286.884 144.772C288.801 145.574 290.782 146.217 292.805 146.695C290.933 146.118 288.995 145.782 287.038 145.695C286.153 145.695 285.115 145.695 284.712 146.56C284.192 147.694 285.557 148.752 286.73 149.213C288.615 149.961 290.54 150.603 292.497 151.135C290.224 151.096 287.958 151.387 285.769 152C285.386 152.065 285.034 152.254 284.769 152.539C284.591 152.833 284.517 153.178 284.558 153.519C284.775 154.426 285.256 155.248 285.94 155.881C286.625 156.514 287.482 156.93 288.403 157.075C290.258 157.312 292.099 157.646 293.92 158.075C292.228 158.19 290.556 157.575 288.883 157.691C287.211 157.806 285.327 159.171 285.692 160.824C286.057 162.477 287.614 162.747 289.152 163.169C317.431 169.52 346.447 171.965 375.391 170.436C389.856 169.688 404.254 167.974 418.491 165.303C431.351 162.881 444.52 160.805 453.228 150.059C453.914 149.255 454.555 148.414 455.15 147.54C457.271 144.762 458.217 141.262 457.784 137.794C455.65 127.394 441.751 128.317 433.831 129.835C425.881 131.597 418.038 133.812 410.34 136.467Z" fill="white"/>
<path d="M358.512 171.782C335.076 171.82 311.708 169.241 288.845 164.092C287.249 163.727 285 163.016 284.654 160.997C284.565 160.569 284.572 160.125 284.675 159.7C284.779 159.274 284.975 158.877 285.25 158.537C285.586 158.084 286.011 157.704 286.499 157.422C285.702 157.1 285.003 156.577 284.47 155.902C283.938 155.228 283.59 154.426 283.462 153.577C283.379 152.997 283.516 152.407 283.846 151.924C284.239 151.463 284.773 151.146 285.365 151.02C286.057 150.828 286.768 150.674 287.48 150.539L286.249 150.059C285.146 149.668 284.227 148.88 283.673 147.848C283.555 147.575 283.494 147.281 283.494 146.983C283.494 146.685 283.555 146.391 283.673 146.118C283.823 145.804 284.04 145.528 284.309 145.308C284.579 145.089 284.893 144.932 285.231 144.849C284.863 144.501 284.619 144.042 284.538 143.542C284.499 143.266 284.535 142.983 284.643 142.726C284.752 142.469 284.928 142.246 285.154 142.081C285.564 141.814 286.049 141.686 286.538 141.716C291.632 141.761 296.717 142.133 301.763 142.831C299.624 141.108 297.589 139.259 295.669 137.294C293.862 135.372 294.016 134.065 294.477 133.238C294.627 132.953 294.838 132.704 295.093 132.509C295.349 132.313 295.643 132.175 295.957 132.104C297.317 131.931 298.691 132.281 299.802 133.084C301.456 134.18 303.128 135.41 304.743 136.621C307.819 139.029 311.106 141.152 314.566 142.965C320.237 145.637 328.523 145.791 335.155 145.926H337.846C359.575 146.28 381.242 143.522 402.189 137.736C404.495 137.121 406.918 136.41 410.051 135.449L414.55 134.026C420.794 131.891 427.162 130.138 433.62 128.778C440.367 127.471 456.304 125.741 458.611 137.486C459.264 140.639 458.284 144.176 455.708 147.983C455.111 148.873 454.469 149.733 453.786 150.559C445.212 161.151 432.447 163.535 420.086 165.938L418.49 166.245C404.211 168.929 389.767 170.65 375.256 171.397C369.694 171.654 364.113 171.782 358.512 171.782ZM289.21 158.613H288.845C288.446 158.642 288.056 158.751 287.7 158.932C287.343 159.114 287.026 159.365 286.768 159.671C286.661 159.792 286.584 159.937 286.544 160.095C286.504 160.252 286.502 160.416 286.538 160.574C286.692 161.286 287.576 161.824 289.268 162.208C317.464 168.543 346.397 170.975 375.256 169.437C389.676 168.694 404.03 166.985 418.221 164.323L419.836 164.015C431.851 161.766 444.27 159.44 452.401 149.405C453.036 148.636 453.632 147.81 454.189 146.983C455.205 145.723 455.96 144.274 456.413 142.719C456.865 141.165 457.004 139.537 456.823 137.929C454.766 127.874 440.156 129.528 433.985 130.72C427.605 132.065 421.314 133.799 415.146 135.91L410.628 137.333C407.475 138.313 405.015 139.024 402.688 139.64C381.569 145.486 359.719 148.27 337.808 147.906H335.117C328.292 147.771 319.737 147.617 313.74 144.753C310.16 142.905 306.767 140.717 303.609 138.217C301.936 136.987 300.341 135.814 298.745 134.757C298.102 134.248 297.296 133.988 296.476 134.026C296.421 134.037 296.368 134.06 296.321 134.093C296.275 134.127 296.236 134.169 296.207 134.218C296.034 134.564 296.38 135.256 297.111 136.025C299.841 138.844 302.812 141.417 305.992 143.715C306.168 143.841 306.296 144.023 306.356 144.231C306.415 144.439 306.403 144.661 306.321 144.861C306.239 145.061 306.091 145.228 305.902 145.334C305.714 145.44 305.495 145.479 305.281 145.445C299.176 144.409 292.999 143.849 286.807 143.773C286.923 143.867 287.053 143.945 287.191 144.003C288.45 144.522 289.733 144.977 291.036 145.368C291.69 145.522 292.324 145.695 292.959 145.887C293.197 145.955 293.4 146.114 293.523 146.33C293.645 146.546 293.677 146.801 293.612 147.041C293.544 147.281 293.387 147.487 293.173 147.616C292.958 147.744 292.703 147.786 292.459 147.733C291.824 147.579 291.19 147.425 290.536 147.233C289.27 146.967 287.984 146.8 286.692 146.733C285.923 146.733 285.384 146.733 285.269 147.06C285.249 147.129 285.249 147.202 285.269 147.271C285.632 147.802 286.159 148.2 286.768 148.406C288.606 149.158 290.487 149.8 292.401 150.328C292.626 150.395 292.82 150.54 292.947 150.738C293.074 150.935 293.126 151.172 293.093 151.405C293.056 151.632 292.939 151.839 292.763 151.987C292.586 152.135 292.362 152.215 292.132 152.212C289.956 152.168 287.786 152.446 285.692 153.039C285.514 153.069 285.345 153.135 285.192 153.231C285.168 153.332 285.168 153.437 285.192 153.538C285.327 154.923 286.884 155.903 288.345 156.249C289.081 156.413 289.825 156.535 290.575 156.614C291.731 156.709 292.872 156.935 293.977 157.287C294.185 157.363 294.36 157.507 294.475 157.696C294.59 157.884 294.638 158.106 294.612 158.325C294.574 158.544 294.465 158.743 294.301 158.893C294.138 159.043 293.929 159.134 293.708 159.152C292.794 159.176 291.88 159.112 290.978 158.96C290.396 158.825 289.805 158.729 289.21 158.671V158.613Z" fill="#00194C"/>
<path d="M352.264 439.686L359.185 450.221L386.098 453.412L383.465 463.735C383.465 463.735 324.101 456.315 322.736 450.874C321.372 445.434 352.264 439.686 352.264 439.686Z" fill="#00194C"/>
<path d="M424.873 120.8C424.873 120.8 406.226 125.241 400.612 136.775C394.999 148.309 401.708 210.172 401.708 210.172L484.371 213.709C484.371 213.709 492.849 168.148 488.696 148.617C484.544 129.085 468.069 103.056 424.873 120.8Z" fill="#0055FF"/>
<path d="M427.295 110.266L421.989 127.567C421.989 127.567 422.104 137.794 433.427 136.621C436.772 136.238 439.99 135.115 442.846 133.332C445.703 131.55 448.126 129.154 449.941 126.317L453.978 95.367C452.216 93.915 451.058 91.8591 450.729 89.5999C450.431 87.8955 450.431 86.1523 450.729 84.4479C450.844 83.7943 451.575 79.9687 452.324 79.8341C450.176 80.1776 447.976 79.995 445.914 79.3019C443.851 78.6089 441.988 77.426 440.482 75.8548C438.909 74.0022 437.613 71.9298 436.638 69.7032C435.742 68.3505 435.392 66.709 435.657 65.1086C432.107 67.3642 428.666 69.7865 425.334 72.3753C423.491 73.7168 421.819 75.2792 420.355 77.0274C417.952 80.1417 417.298 84.4286 416.741 88.2157C416.005 92.7135 415.689 97.27 415.799 101.826C416.049 110.496 427.295 110.266 427.295 110.266Z" fill="white"/>
<path d="M431.659 137.698C429.046 137.822 426.483 136.95 424.488 135.257C422.429 133.262 421.223 130.547 421.124 127.682C421.106 127.594 421.106 127.502 421.124 127.413L426.084 111.188C421.72 110.9 415.069 108.728 414.819 101.865C414.713 97.2567 415.035 92.6489 415.78 88.1003C416.318 84.4094 416.991 79.8149 419.625 76.566C421.127 74.7549 422.852 73.1402 424.758 71.7601C428.103 69.1648 431.601 66.7042 435.158 64.4358C435.306 64.3374 435.48 64.2849 435.657 64.2849C435.835 64.2849 436.009 64.3374 436.157 64.4358C436.301 64.5455 436.407 64.6964 436.462 64.8682C436.517 65.04 436.518 65.2245 436.465 65.3969C436.282 66.7852 436.61 68.1928 437.388 69.3571C438.369 71.516 439.665 73.5178 441.232 75.2972C442.643 76.7573 444.382 77.8592 446.305 78.5113C448.228 79.1633 450.278 79.3466 452.286 79.0459C452.401 79.0267 452.519 79.0303 452.632 79.0567C452.746 79.083 452.853 79.1315 452.947 79.1994C453.042 79.2673 453.122 79.3532 453.184 79.4522C453.245 79.5512 453.286 79.6614 453.305 79.7764C453.332 79.9661 453.299 80.1597 453.209 80.329C453.119 80.4983 452.978 80.6347 452.805 80.7184C452.267 81.9844 451.899 83.3159 451.709 84.6785C451.431 86.2813 451.431 87.9201 451.709 89.5229C451.995 91.5775 453.02 93.4573 454.593 94.8095C454.724 94.9002 454.828 95.0254 454.892 95.1713C454.957 95.3172 454.98 95.478 454.958 95.6361L450.94 126.587C450.923 126.702 450.883 126.813 450.825 126.913C448.95 129.881 446.428 132.387 443.449 134.245C440.47 136.102 437.11 137.263 433.62 137.64C432.793 137.66 432.255 137.698 431.659 137.698ZM422.874 127.778C423.008 130.115 424.001 132.319 425.661 133.969C426.732 134.817 427.973 135.428 429.298 135.759C430.624 136.091 432.006 136.136 433.351 135.891C436.52 135.535 439.573 134.49 442.296 132.829C445.019 131.169 447.346 128.933 449.114 126.279L452.959 95.9821C451.237 94.3882 450.117 92.2497 449.787 89.9266C449.47 88.1206 449.47 86.2731 449.787 84.467C449.968 83.3073 450.238 82.1633 450.594 81.0452C448.577 81.1063 446.569 80.7425 444.701 79.9775C442.833 79.2125 441.147 78.0633 439.752 76.6045C438.098 74.692 436.731 72.5484 435.696 70.2414C435.121 69.2064 434.725 68.0821 434.523 66.9156C431.512 68.8893 428.577 70.9847 425.719 73.2018C423.971 74.4662 422.383 75.9379 420.99 77.5849C418.702 80.5454 418.087 84.6977 417.549 88.3695C416.829 92.8174 416.514 97.3214 416.607 101.826C416.876 109.516 426.891 109.516 427.276 109.516C427.413 109.513 427.55 109.543 427.673 109.603C427.797 109.663 427.905 109.752 427.987 109.862C428.072 109.972 428.13 110.101 428.156 110.238C428.183 110.375 428.178 110.516 428.141 110.65L422.874 127.778Z" fill="#00194C"/>
<path d="M447.884 92.964C448.386 91.6913 449.29 90.6178 450.46 89.9074C451.568 89.285 452.779 88.8682 454.035 88.6771C454.711 88.5139 455.416 88.5139 456.092 88.6771C456.563 88.8113 457.001 89.0403 457.38 89.3499C458.323 90.0045 459.004 90.9714 459.303 92.0797C459.437 93.0016 459.358 93.9421 459.072 94.8287C458.816 95.8092 458.435 96.7526 457.938 97.6354C456.882 99.3782 455.177 100.63 453.198 101.117C451.219 101.604 449.128 101.285 447.384 100.231" fill="white"/>
<path d="M451.459 101.922C449.907 101.927 448.383 101.501 447.057 100.692C446.885 100.584 446.76 100.414 446.71 100.217C446.66 100.02 446.688 99.8114 446.788 99.6345C446.839 99.5467 446.908 99.4703 446.99 99.4098C447.071 99.3493 447.164 99.3061 447.263 99.2827C447.362 99.2594 447.465 99.2563 447.565 99.2738C447.665 99.2914 447.76 99.329 447.845 99.3845C448.622 99.8587 449.484 100.174 450.383 100.313C451.282 100.452 452.2 100.411 453.083 100.193C453.966 99.9747 454.797 99.5837 455.528 99.0424C456.259 98.5011 456.876 97.8203 457.342 97.0392C457.798 96.2157 458.147 95.3371 458.38 94.4248C458.655 93.662 458.735 92.8424 458.611 92.041C458.331 91.1094 457.732 90.3061 456.919 89.7726C456.621 89.5191 456.274 89.3294 455.9 89.2151C455.328 89.1324 454.745 89.1717 454.189 89.3305C453.017 89.5101 451.885 89.894 450.844 90.4647C449.828 91.0915 449.039 92.0281 448.595 93.1368C448.561 93.2311 448.508 93.3176 448.44 93.3911C448.372 93.4647 448.29 93.5238 448.198 93.5651C448.107 93.6063 448.008 93.6288 447.908 93.6311C447.808 93.6335 447.708 93.6158 447.615 93.5789C447.52 93.5428 447.433 93.4881 447.359 93.4182C447.285 93.3482 447.226 93.2643 447.185 93.1713C447.144 93.0784 447.122 92.9782 447.12 92.8766C447.117 92.775 447.135 92.6739 447.173 92.5793C447.735 91.1331 448.763 89.9155 450.095 89.119C451.29 88.4577 452.591 88.0089 453.939 87.7925C454.729 87.5994 455.553 87.5994 456.342 87.7925C456.907 87.9618 457.436 88.2357 457.9 88.6C459.012 89.351 459.817 90.4767 460.168 91.7719C460.332 92.8151 460.246 93.8823 459.918 94.8862C459.648 95.9348 459.241 96.9432 458.707 97.8851C458.137 98.8354 457.385 99.664 456.494 100.324C455.604 100.983 454.592 101.461 453.516 101.73C452.841 101.874 452.15 101.938 451.459 101.922Z" fill="#00194C"/>
<path d="M424.642 118.359C426.637 118.861 428.716 118.928 430.739 118.557C432.763 118.185 434.682 117.383 436.369 116.206C437.892 115.2 439.181 113.877 440.146 112.328C441.111 110.778 441.731 109.039 441.963 107.228C441.963 107.228 433.389 112.668 426.392 110.246L424.642 118.359Z" fill="#00194C"/>
<path d="M428.218 119.647C426.92 119.66 425.627 119.498 424.373 119.166C424.168 119.103 423.995 118.965 423.888 118.78C423.781 118.594 423.748 118.375 423.796 118.166L425.546 110.073C425.575 109.956 425.627 109.847 425.7 109.751C425.772 109.655 425.864 109.575 425.969 109.516C426.078 109.468 426.196 109.443 426.315 109.443C426.434 109.443 426.552 109.468 426.661 109.516C433.178 111.765 441.405 106.632 441.482 106.574C441.612 106.494 441.762 106.452 441.915 106.452C442.068 106.452 442.217 106.494 442.347 106.574C442.484 106.646 442.597 106.754 442.675 106.886C442.753 107.019 442.793 107.17 442.79 107.324C442.555 109.261 441.903 111.124 440.877 112.784C439.852 114.443 438.477 115.86 436.849 116.936C434.338 118.742 431.311 119.693 428.218 119.647ZM425.642 117.724C427.404 118.057 429.214 118.035 430.967 117.659C432.72 117.282 434.38 116.56 435.85 115.533C438.198 113.926 439.938 111.577 440.79 108.862C438.061 110.285 432.313 112.707 427.026 111.342L425.642 117.724Z" fill="#00194C"/>
<path d="M434.197 80.6223C434.197 80.6223 427.026 88.1773 428.141 89.8882C429.256 91.5991 433.216 91.2723 433.216 91.2723" fill="white"/>
<path d="M432.389 92.1562C431.005 92.1562 428.429 91.9255 427.429 90.3492C426.199 88.4268 430.102 83.6977 433.581 80.0259C433.737 79.8628 433.951 79.7681 434.176 79.7627C434.401 79.7573 434.619 79.8416 434.783 79.9971C434.946 80.1526 435.04 80.3666 435.046 80.5919C435.051 80.8172 434.967 81.0355 434.811 81.1986C431.466 84.7358 428.679 88.5998 428.871 89.4841C429.467 90.3876 432.005 90.5222 433.139 90.4261C433.25 90.4172 433.362 90.4304 433.468 90.4647C433.574 90.4991 433.672 90.5539 433.757 90.6262C433.842 90.6985 433.911 90.7868 433.962 90.8861C434.013 90.9853 434.043 91.0936 434.052 91.2046C434.061 91.3157 434.048 91.4274 434.013 91.5335C433.979 91.6395 433.924 91.7377 433.852 91.8225C433.78 91.9072 433.691 91.977 433.592 92.0276C433.493 92.0783 433.385 92.1089 433.274 92.1178C432.98 92.1499 432.685 92.1628 432.389 92.1562Z" fill="#00194C"/>
<path d="M444.948 83.2078C445.365 82.1736 445.103 81.0942 444.364 80.797C443.626 80.4997 442.69 81.0971 442.273 82.1313C441.857 83.1655 442.119 84.2449 442.857 84.5421C443.596 84.8394 444.532 84.242 444.948 83.2078Z" fill="#00194C"/>
<path d="M427.149 82.2202C427.565 81.186 427.303 80.1067 426.565 79.8094C425.826 79.5122 424.89 80.1095 424.473 81.1437C424.057 82.1779 424.319 83.2573 425.057 83.5546C425.796 83.8519 426.732 83.2544 427.149 82.2202Z" fill="#00194C"/>
<path d="M423.373 95.7513L437.561 95.1938C437.561 95.1938 437.176 104.806 428.91 105.575C420.644 106.344 423.373 95.7513 423.373 95.7513Z" fill="#00194C"/>
<path d="M476.104 212.921C476.104 212.921 496.059 235.144 501.634 259.635C513.341 311.155 513.687 389.973 513.687 389.973L362.126 379.15L398.19 208.826L476.104 212.921Z" fill="#00194C"/>
<path d="M503.921 201.29C500.894 201.3 497.886 200.806 495.021 199.829C494.895 199.786 494.778 199.719 494.678 199.631C494.578 199.543 494.496 199.436 494.437 199.317C494.378 199.197 494.343 199.067 494.335 198.934C494.326 198.801 494.344 198.668 494.386 198.541C494.429 198.415 494.497 198.299 494.585 198.198C494.673 198.098 494.779 198.016 494.899 197.957C495.019 197.899 495.149 197.864 495.282 197.855C495.415 197.846 495.548 197.864 495.674 197.907C501.108 199.598 506.922 199.627 512.372 197.989C517.822 196.352 522.658 193.124 526.26 188.718C529.716 184.167 531.934 178.797 532.695 173.133C533.457 167.47 532.736 161.705 530.604 156.403C526.26 145.637 516.936 137.794 507.92 130.201C506.344 128.874 504.748 127.528 503.21 126.183C491.926 116.436 485.909 106.843 482.852 94.1173C480.065 82.1985 476.797 69.8183 470.318 60.7831C464.935 53.2858 451.767 44.6158 442.04 48.6144C439.02 50.0154 436.233 51.8694 433.774 54.1124C433.663 54.1981 433.536 54.2609 433.401 54.2972C433.265 54.3335 433.124 54.3426 432.985 54.3239C427.715 53.4174 422.332 53.3784 417.049 54.2085C411.843 55.0531 407.158 57.8599 403.957 62.0519C401.232 66.4576 400.048 71.6446 400.593 76.7966C400.689 78.296 401.208 80.1031 402.362 80.2376C402.62 80.2713 402.856 80.4048 403.017 80.6095C403.179 80.8142 403.254 81.074 403.227 81.3334C403.213 81.4644 403.172 81.5911 403.108 81.7061C403.044 81.8211 402.957 81.922 402.853 82.0028C402.749 82.0835 402.63 82.1424 402.502 82.1761C402.375 82.2097 402.242 82.2173 402.112 82.1985C400.189 81.9678 398.825 79.9877 398.613 76.9119C398.01 71.312 399.324 65.6731 402.342 60.9176C405.823 56.3209 410.936 53.2376 416.626 52.3053C421.979 51.428 427.44 51.428 432.793 52.3053C435.316 50.0471 438.168 48.1867 441.252 46.7881C452.055 42.3474 465.993 51.4018 471.894 59.6296C478.584 68.9532 481.91 81.5449 484.755 93.6559C487.6 105.767 493.521 115.225 504.46 124.683C505.998 126.029 507.574 127.355 509.17 128.682C518.359 136.371 527.874 144.445 532.411 155.595C534.718 161.22 535.503 167.352 534.686 173.376C533.87 179.4 531.48 185.103 527.759 189.91C524.862 193.437 521.225 196.284 517.106 198.251C512.987 200.217 508.486 201.255 503.921 201.29Z" fill="#00194C"/>
<path d="M508.631 461.428L507.074 450.816L475.835 459.428L469.761 451.412C469.761 451.412 446.884 468.002 450.095 471.674C453.305 475.346 486.966 468.637 508.631 461.428Z" fill="#00194C"/>
<path d="M359.742 290.758C359.588 290.761 359.435 290.725 359.298 290.655C359.16 290.584 359.042 290.481 358.954 290.355L330.522 249.369C330.38 249.157 330.327 248.897 330.373 248.646C330.42 248.394 330.563 248.171 330.772 248.024C330.875 247.951 330.991 247.9 331.114 247.874C331.237 247.847 331.364 247.845 331.488 247.869C331.612 247.892 331.729 247.94 331.834 248.009C331.939 248.079 332.029 248.169 332.098 248.273L360.569 289.259C360.641 289.362 360.692 289.478 360.719 289.601C360.746 289.724 360.747 289.851 360.724 289.975C360.701 290.098 360.653 290.216 360.583 290.321C360.514 290.426 360.424 290.516 360.319 290.585C360.152 290.707 359.949 290.768 359.742 290.758Z" fill="#D1D3D4"/>
<path d="M360.588 55.8428C360.407 55.8505 360.227 55.8055 360.07 55.7133C359.913 55.6211 359.787 55.4855 359.705 55.3229C359.624 55.1603 359.592 54.9777 359.612 54.7971C359.632 54.6164 359.704 54.4455 359.819 54.3048L390.577 14.4537C390.651 14.3451 390.746 14.2528 390.857 14.1823C390.968 14.1119 391.091 14.0648 391.221 14.0441C391.351 14.0233 391.483 14.0293 391.61 14.0617C391.737 14.0941 391.857 14.1522 391.96 14.2324C392.064 14.3126 392.151 14.4132 392.214 14.528C392.278 14.6428 392.317 14.7695 392.33 14.9001C392.342 15.0307 392.328 15.1625 392.288 15.2874C392.248 15.4123 392.182 15.5277 392.096 15.6264L361.338 55.4775C361.247 55.5898 361.133 55.6807 361.004 55.7438C360.874 55.807 360.732 55.8407 360.588 55.8428Z" fill="#D1D3D4"/>
<path d="M122.962 235.144L172.233 443.473L129.44 453.719L82.3609 285.414L68.6927 458.102L24.2856 455.815L22.7669 214.651L122.962 235.144Z" fill="#00194C"/>
<path d="M109.582 127.932C109.294 129.066 196.09 141.581 196.09 141.581L189.823 169.206C189.823 169.206 132.901 162.939 102.738 158.094L109.582 127.932Z" fill="white"/>
<path d="M189.842 170.167H189.746C189.169 170.167 132.439 163.842 102.604 159.055C102.472 159.039 102.346 158.994 102.233 158.925C102.12 158.855 102.024 158.762 101.95 158.652C101.808 158.429 101.76 158.16 101.816 157.902L108.64 127.74C108.699 127.493 108.854 127.279 109.07 127.146C109.286 127.013 109.546 126.971 109.793 127.028C109.934 127.065 110.065 127.13 110.178 127.221C113.715 128.489 163.332 135.929 196.224 140.677C196.355 140.697 196.48 140.743 196.592 140.813C196.704 140.882 196.801 140.973 196.878 141.081C196.954 141.188 197.008 141.31 197.034 141.44C197.061 141.569 197.06 141.702 197.031 141.831L190.764 169.456C190.71 169.659 190.59 169.838 190.423 169.967C190.256 170.095 190.052 170.166 189.842 170.167ZM103.911 157.306C131.92 161.747 181.96 167.36 189.092 168.148L194.859 142.388C130.44 133.084 114.369 130.181 110.274 129.105L103.911 157.306Z" fill="#00194C"/>
<path d="M59.8499 116.821C60.196 115.744 112.792 126.971 112.792 126.971L110.87 166.437L74.8253 153.538C74.8253 153.538 57.5046 124.03 59.8499 116.821Z" fill="#0055FF"/>
<path d="M94.4528 140.447C93.6647 138.313 83.7067 116.282 54.6786 115.571C25.6506 114.86 13.6164 113.649 7.56091 150.174C1.12091 188.795 21.2099 256.425 21.2099 256.425L131.901 231.434C131.901 231.434 102.142 161.189 94.4528 140.447Z" fill="#0055FF"/>
<path d="M268.621 87.4849L309.395 89.2727C304.877 104.652 308.395 117.34 319.449 125.644C325.12 129.804 331.902 132.177 338.929 132.461C345.956 132.746 352.908 130.928 358.896 127.24C370.431 120.012 374.948 107.574 371.853 92.0025L404.534 93.425L398.613 229.146L262.739 223.225C262.739 222.167 262.739 221.091 262.892 220.034C263.45 206.865 264.065 193.697 264.546 180.528C264.637 178.519 264.324 176.512 263.623 174.627C263.356 173.893 262.933 173.227 262.382 172.675C261.83 172.123 261.165 171.699 260.432 171.431C259.699 171.164 258.917 171.06 258.14 171.127C257.362 171.194 256.609 171.431 255.933 171.82C251.324 173.849 246.167 174.273 241.288 173.025C236.409 171.778 232.09 168.93 229.02 164.938C225.892 160.899 224.214 155.925 224.256 150.816C224.298 145.708 226.057 140.762 229.251 136.775C232.32 132.847 236.651 130.098 241.511 128.991C246.372 127.885 251.466 128.488 255.933 130.7C262.316 133.834 266.679 131.354 267.064 124.202C267.66 112.668 268.083 101.307 268.602 89.8686C268.544 89.1189 268.583 88.4845 268.621 87.4849Z" fill="white"/>
<path d="M398.575 230.107L262.7 224.186C262.443 224.166 262.202 224.05 262.027 223.859C261.942 223.766 261.876 223.657 261.834 223.538C261.791 223.419 261.772 223.293 261.777 223.167L262.354 210.345C262.777 200.406 263.219 190.448 263.585 180.49C263.671 178.612 263.377 176.735 262.719 174.973C262.523 174.401 262.21 173.877 261.799 173.434C261.389 172.99 260.89 172.637 260.336 172.397C259.679 172.167 258.982 172.073 258.287 172.123C257.593 172.173 256.916 172.364 256.299 172.685C251.51 174.782 246.157 175.217 241.092 173.921C236.027 172.626 231.541 169.673 228.347 165.534C225.095 161.32 223.351 156.136 223.397 150.813C223.442 145.491 225.273 140.337 228.597 136.179C231.796 132.111 236.292 129.263 241.336 128.108C246.381 126.954 251.668 127.563 256.318 129.835C259.163 131.219 261.566 131.45 263.258 130.451C264.949 129.451 265.891 127.298 266.064 124.145C266.487 116.129 266.833 107.959 267.16 100.077C267.295 96.6549 267.449 93.2331 267.602 89.8305V87.4467C267.615 87.1913 267.725 86.9505 267.91 86.7739C268.101 86.6073 268.348 86.5181 268.602 86.5239L309.376 88.3118C309.524 88.3123 309.67 88.3493 309.801 88.4198C309.932 88.4902 310.043 88.5917 310.126 88.7155C310.209 88.8342 310.264 88.9702 310.288 89.1134C310.311 89.2565 310.301 89.4031 310.26 89.5421C305.915 104.498 309.28 116.782 320.026 124.876C325.553 128.93 332.165 131.243 339.015 131.517C345.864 131.791 352.64 130.014 358.474 126.413C369.547 119.435 373.987 107.19 370.988 92.1758C370.956 92.0341 370.958 91.8867 370.995 91.7462C371.032 91.6056 371.102 91.476 371.2 91.3684C371.289 91.252 371.406 91.1607 371.541 91.1034C371.676 91.0461 371.823 91.0248 371.969 91.0416L404.649 92.4641C404.777 92.4662 404.902 92.4946 405.018 92.5475C405.134 92.6005 405.237 92.6768 405.322 92.7717C405.408 92.8644 405.475 92.9734 405.518 93.0923C405.56 93.2112 405.579 93.3375 405.572 93.4638L399.651 229.184C399.649 229.312 399.621 229.437 399.568 229.553C399.515 229.669 399.438 229.772 399.344 229.857C399.241 229.951 399.119 230.022 398.986 230.065C398.853 230.108 398.713 230.122 398.575 230.107ZM263.623 222.302L397.594 228.069L403.361 94.2519L373.007 92.9639C375.717 108.343 370.911 120.742 359.416 128.009C353.258 131.79 346.115 133.654 338.895 133.363C331.675 133.072 324.705 130.64 318.872 126.375C307.703 117.955 303.993 105.498 308.145 90.1765L269.544 88.4848V89.9074C269.409 93.3292 269.256 96.7318 269.121 100.154C268.794 108.055 268.448 116.225 268.025 124.241C267.814 128.086 266.526 130.797 264.18 132.123C261.835 133.449 258.894 133.257 255.434 131.546C251.182 129.461 246.344 128.895 241.727 129.945C237.109 130.994 232.99 133.595 230.058 137.313C227.013 141.126 225.335 145.851 225.293 150.73C225.252 155.61 226.848 160.362 229.827 164.227C232.751 168.027 236.86 170.742 241.503 171.94C246.145 173.138 251.055 172.751 255.453 170.84C256.304 170.4 257.238 170.141 258.194 170.082C259.151 170.022 260.109 170.163 261.009 170.494C261.811 170.828 262.535 171.327 263.131 171.96C263.727 172.593 264.183 173.344 264.469 174.166C265.221 176.173 265.561 178.311 265.468 180.452C265.103 190.41 264.661 200.368 264.219 210.326L263.623 222.302Z" fill="#00194C"/>
<path d="M237.959 88.4464L242.131 121.8C226.406 119.685 213.775 125.472 207.259 137.736C204.01 143.916 202.707 150.934 203.52 157.868C204.333 164.802 207.224 171.327 211.815 176.588C221.427 187.296 235.152 190.045 249.916 184.277L254.934 224.436L106.372 242.91L89.4161 106.997L136.438 101.23C137.904 101.059 139.317 100.577 140.582 99.8154C141.847 99.0539 142.934 98.031 143.772 96.815C144.609 95.5991 145.177 94.2182 145.437 92.765C145.697 91.3118 145.644 89.8197 145.281 88.3887C144.719 86.3283 143.946 84.3313 142.974 82.4293C140.582 78.1657 139.631 73.2434 140.263 68.3956C140.895 63.5478 143.077 59.034 146.483 55.5267C149.889 52.0194 154.336 49.7062 159.163 48.9317C163.991 48.1573 168.939 48.963 173.271 51.229C177.657 53.4909 181.201 57.0996 183.385 61.5251C185.568 65.9506 186.275 70.9595 185.401 75.8163C185.074 77.7387 184.632 79.6611 184.344 81.5835C183.344 88.0235 189.034 95.4054 196.839 93.7906C204.644 92.1758 229.923 89.446 237.959 88.4464Z" fill="white"/>
<path d="M106.372 243.833C106.162 243.841 105.958 243.773 105.795 243.641C105.691 243.564 105.604 243.466 105.541 243.354C105.478 243.241 105.44 243.116 105.43 242.987L88.4549 107.094C88.4388 106.967 88.448 106.839 88.4819 106.716C88.5159 106.593 88.5739 106.478 88.6526 106.378C88.7313 106.278 88.8291 106.195 88.9404 106.133C89.0517 106.071 89.1742 106.031 89.3008 106.017L92.588 105.594L136.322 100.135C137.676 99.9639 138.978 99.5071 140.141 98.7945C141.305 98.0819 142.303 97.1297 143.07 96.0014C143.809 94.9168 144.305 93.6854 144.524 92.3914C144.743 91.0974 144.68 89.7714 144.339 88.5041C143.802 86.5082 143.054 84.5749 142.109 82.7369C139.682 78.2954 138.745 73.1925 139.434 68.1786C140.124 63.1647 142.404 58.5043 145.94 54.8828C149.475 51.2612 154.079 48.8696 159.075 48.0597C164.071 47.2497 169.195 48.0641 173.694 50.3831C178.256 52.7445 181.943 56.5038 184.216 61.1111C186.488 65.7185 187.227 70.932 186.324 75.9893C186.189 76.8352 186.016 77.6618 185.862 78.4884C185.709 79.3151 185.439 80.603 185.266 81.6796C185.073 83.2853 185.257 84.9142 185.804 86.4361C186.352 87.9581 187.247 89.3311 188.419 90.4457C189.486 91.4858 190.795 92.2446 192.227 92.654C193.66 93.0633 195.172 93.1104 196.628 92.791C202.395 91.5991 217.774 89.8305 229.02 88.5425L237.844 87.5044C238.095 87.4767 238.347 87.5473 238.548 87.7013C238.749 87.8554 238.882 88.081 238.92 88.331L243.073 121.684C243.096 121.831 243.084 121.981 243.038 122.122C242.992 122.263 242.913 122.392 242.808 122.496C242.703 122.601 242.575 122.68 242.434 122.726C242.293 122.772 242.143 122.784 241.996 122.761C226.751 120.723 214.41 126.337 208.124 138.14C204.985 144.152 203.726 150.969 204.511 157.705C205.296 164.441 208.089 170.786 212.526 175.915C221.773 186.257 235.287 188.93 249.57 183.239C249.706 183.181 249.853 183.156 250.001 183.165C250.148 183.175 250.291 183.219 250.418 183.294C250.545 183.368 250.653 183.472 250.733 183.596C250.813 183.72 250.862 183.861 250.877 184.008L255.876 224.186C255.892 224.312 255.883 224.439 255.85 224.561C255.817 224.683 255.761 224.797 255.683 224.897C255.606 224.995 255.511 225.076 255.402 225.135C255.293 225.195 255.173 225.231 255.049 225.243L106.487 243.795L106.372 243.833ZM90.4926 107.805L107.217 241.795L253.857 223.494L249.109 185.508C234.46 190.929 220.658 187.949 211.084 177.222C206.391 171.799 203.436 165.091 202.603 157.967C201.77 150.844 203.098 143.635 206.413 137.275C212.93 124.991 225.502 118.993 241.016 120.685L237.171 89.5037L229.289 90.4264C218.697 91.6376 202.683 93.483 197.07 94.6557C195.309 95.0436 193.479 94.9885 191.744 94.4953C190.01 94.0021 188.425 93.0862 187.131 91.8298C185.726 90.5172 184.652 88.8904 183.997 87.0826C183.342 85.2748 183.125 83.3376 183.363 81.4297C183.536 80.3339 183.748 79.2382 183.978 78.1424L184.44 75.701C185.269 71.0457 184.587 66.2473 182.494 62.007C180.402 57.7667 177.008 54.3066 172.809 52.1325C168.672 49.9986 163.958 49.2505 159.363 49.9983C154.768 50.7461 150.535 52.9503 147.287 56.2861C144.04 59.6218 141.95 63.9126 141.326 68.526C140.701 73.1394 141.576 77.8314 143.82 81.9103C144.833 83.8694 145.632 85.9318 146.203 88.0619C146.611 89.5963 146.685 91.2004 146.42 92.7658C146.155 94.3311 145.556 95.8213 144.666 97.1356C143.746 98.4891 142.548 99.6314 141.153 100.487C139.757 101.342 138.196 101.89 136.572 102.095L92.838 107.574L90.4926 107.805Z" fill="#00194C"/>
<path d="M68.2892 130.451V117.513C68.2892 117.513 86.9748 121.358 84.5911 100.212C82.2073 79.0652 74.1717 70.5491 72.7876 70.972L46.6239 78.7961L44.1056 128.278C44.1056 128.278 57.0817 148.502 68.2892 130.451Z" fill="white"/>
<path d="M57.9274 138.909C49.9495 138.909 43.6441 129.201 43.3749 128.797C43.2598 128.628 43.2056 128.424 43.2211 128.22L45.6626 78.7381C45.6746 78.5401 45.7475 78.3507 45.8714 78.1958C45.9953 78.041 46.1641 77.9282 46.3546 77.873L72.4991 70.0489C72.7799 69.9883 73.0707 69.9914 73.3502 70.0579C73.6296 70.1244 73.8906 70.2527 74.1139 70.4334C77.4781 72.6634 83.5721 82.6982 85.6482 100.115C86.4172 107.036 85.0715 112.149 81.6305 115.302C77.555 119.051 71.7878 118.897 69.3464 118.628V130.45C69.3517 130.633 69.305 130.813 69.2118 130.969C65.963 136.198 62.1951 138.87 58.0235 138.909H57.9274ZM45.1628 127.99C46.1047 129.489 51.5835 136.986 57.9274 136.986C61.3493 136.986 64.502 134.66 67.3471 130.181V117.513C67.3464 117.371 67.379 117.231 67.4425 117.104C67.506 116.977 67.5984 116.867 67.7124 116.782C67.8208 116.692 67.9474 116.627 68.0834 116.591C68.2194 116.554 68.3617 116.547 68.5005 116.571C68.5005 116.571 75.8249 117.974 80.2656 113.879C83.226 111.15 84.3602 106.594 83.649 100.423C81.4959 81.3718 74.6714 72.7403 72.9028 72.029L47.5465 79.5071L45.1628 127.99Z" fill="#00194C"/>
<path d="M47.7196 92.5985C46.8353 88.6 40.8759 87.1966 37.9347 90.0418C37.2661 90.8045 36.7583 91.6943 36.4418 92.6579C36.1252 93.6215 36.0065 94.6391 36.0927 95.6497C36.1788 96.6603 36.4681 97.6431 36.9432 98.5392C37.4183 99.4353 38.0694 100.226 38.8574 100.865C40.5344 102.081 42.553 102.736 44.6246 102.736C46.6962 102.736 48.7148 102.081 50.3918 100.865" fill="white"/>
<path d="M44.317 103.633C42.1389 103.697 40.0037 103.019 38.2615 101.711C37.3148 100.925 36.5434 99.9487 35.997 98.8461C35.4507 97.7435 35.1415 96.5386 35.0895 95.3091C35.0343 94.25 35.1988 93.1909 35.5727 92.1984C35.9465 91.2059 36.5216 90.3015 37.2618 89.542C38.1895 88.7191 39.3172 88.1546 40.5318 87.9049C41.7465 87.6552 43.0054 87.7292 44.1824 88.1194C45.2582 88.393 46.2403 88.9516 47.0253 89.7365C47.8102 90.5214 48.3688 91.5036 48.6424 92.5794C48.6701 92.7056 48.6728 92.836 48.6501 92.9633C48.6275 93.0905 48.58 93.2121 48.5104 93.3209C48.4407 93.4298 48.3504 93.524 48.2444 93.5979C48.1384 93.6719 48.0189 93.7242 47.8926 93.752C47.7664 93.7798 47.636 93.7824 47.5087 93.7598C47.3815 93.7371 47.2599 93.6896 47.151 93.62C47.0421 93.5504 46.948 93.46 46.8741 93.354C46.8001 93.248 46.7477 93.1285 46.72 93.0023C46.5115 92.2596 46.1099 91.5855 45.5561 91.0485C45.0023 90.5116 44.316 90.1311 43.5673 89.9457C42.7179 89.6584 41.8083 89.5977 40.9284 89.7697C40.0484 89.9416 39.2285 90.3402 38.5498 90.9261C37.9852 91.4996 37.5505 92.1878 37.2752 92.944C36.9999 93.7003 36.8905 94.5069 36.9542 95.3091C36.9889 96.2639 37.2242 97.2007 37.6448 98.0586C38.0655 98.9164 38.662 99.6761 39.3957 100.288C40.9109 101.345 42.7187 101.903 44.5662 101.882C46.4137 101.861 48.2085 101.264 49.6997 100.173C49.8001 100.079 49.9194 100.008 50.0497 99.964C50.18 99.9202 50.3181 99.9049 50.4548 99.919C50.5915 99.9331 50.7236 99.9764 50.8421 100.046C50.9606 100.115 51.0629 100.21 51.142 100.322C51.2211 100.434 51.2751 100.562 51.3005 100.697C51.3259 100.832 51.3221 100.971 51.2893 101.105C51.2564 101.238 51.1953 101.363 51.1101 101.471C51.025 101.579 50.9177 101.667 50.7954 101.73C48.8782 103.005 46.6193 103.669 44.317 103.633Z" fill="#00194C"/>
<path d="M65.0786 87.7351C66.6446 89.7487 68.1075 91.8404 69.4617 94.0021C69.8509 94.4651 70.1322 95.0089 70.2852 95.5941C70.4381 96.1793 70.4589 96.7913 70.346 97.3855C70.1039 97.8625 69.7503 98.2741 69.3153 98.5853C68.8802 98.8966 68.3765 99.0983 67.8469 99.1733C67.4248 99.3254 66.9662 99.3443 66.533 99.2274C66.0998 99.1105 65.713 98.8635 65.4247 98.5197" fill="white"/>
<path d="M67.1165 100.115C66.6587 100.146 66.201 100.055 65.7894 99.8525C65.3777 99.65 65.0265 99.3428 64.7712 98.9617C64.6585 98.7649 64.6277 98.5318 64.6852 98.3125C64.7427 98.0932 64.884 97.9052 65.0788 97.789C65.2755 97.6764 65.5087 97.6455 65.728 97.7031C65.9473 97.7606 66.1353 97.9019 66.2514 98.0966C66.4437 98.4426 67.1742 98.4619 67.7509 98.3273C68.3276 98.1927 69.308 97.9044 69.6733 97.097C70.0385 96.2896 69.4233 95.3284 68.8851 94.4633C67.5187 92.3191 66.0429 90.2466 64.4636 88.254C64.3942 88.1669 64.3426 88.067 64.3118 87.96C64.281 87.8529 64.2715 87.7409 64.284 87.6302C64.2965 87.5195 64.3307 87.4124 64.3846 87.3149C64.4385 87.2174 64.5111 87.1315 64.5982 87.0621C64.6853 86.9927 64.7852 86.9411 64.8922 86.9103C64.9992 86.8795 65.1113 86.8701 65.222 86.8826C65.3326 86.895 65.4398 86.9292 65.5372 86.9831C65.6347 87.037 65.7206 87.1096 65.79 87.1967C67.4078 89.236 68.9158 91.36 70.3077 93.5598C70.7801 94.1255 71.1132 94.7941 71.2801 95.512C71.447 96.2298 71.4432 96.9768 71.2688 97.6929C70.9852 98.3043 70.5537 98.8354 70.0133 99.2381C69.4729 99.6409 68.8407 99.9027 68.1738 99.9998C67.8269 100.078 67.4722 100.117 67.1165 100.115Z" fill="#00194C"/>
<path d="M59.3611 87.9345C59.9769 87.9339 60.4754 87.2276 60.4744 86.357C60.4735 85.4864 59.9736 84.7811 59.3578 84.7818C58.742 84.7824 58.2436 85.4887 58.2445 86.3593C58.2454 87.2299 58.7453 87.9351 59.3611 87.9345Z" fill="#00194C"/>
<path d="M71.9643 86.8124C72.5777 86.7578 73.0124 86.0106 72.9353 85.1435C72.8582 84.2763 72.2985 83.6175 71.6851 83.672C71.0718 83.7265 70.637 84.4737 70.7141 85.3409C70.7912 86.2081 71.3509 86.8669 71.9643 86.8124Z" fill="#00194C"/>
<path d="M32.0905 95.3479C30.7833 95.3479 29.0532 94.5789 27.3422 91.5031C25.4527 88.5645 24.111 85.308 23.3821 81.8912C23.0421 80.1164 23.1094 78.2877 23.5789 76.5428C24.0484 74.7978 24.908 73.1823 26.0927 71.8179C27.1717 70.7037 28.5449 69.9189 30.0526 69.5548C31.5602 69.1907 33.1403 69.2621 34.6089 69.7609C34.3763 65.0003 35.9718 60.3308 39.0688 56.7079C42.5958 52.7793 46.8782 49.6018 51.6604 47.3651C57.3077 44.468 63.2166 42.1122 69.308 40.3291C73.1721 38.8842 77.3722 38.5904 81.3998 39.4833C88.205 41.521 91.6846 49.0952 92.0306 55.0739C92.2603 59.5308 91.3159 63.97 89.2917 67.9475C87.2676 71.9249 84.2347 75.3012 80.4963 77.7388C80.2737 77.8763 80.0062 77.9211 79.751 77.8636C79.4959 77.8061 79.2734 77.6509 79.1314 77.4312C79.0608 77.3218 79.0127 77.1993 78.9899 77.0711C78.9672 76.9428 78.9702 76.8113 78.9988 76.6842C79.0275 76.5572 79.0811 76.4371 79.1567 76.331C79.2323 76.2249 79.3282 76.1349 79.4389 76.0663C82.8668 73.802 85.6507 70.6896 87.5202 67.0314C89.3897 63.3733 90.2812 59.2937 90.1082 55.1892C89.8006 49.7681 86.7825 43.1358 80.9 41.3864C77.2352 40.6165 73.4267 40.91 69.9231 42.2323C63.9497 43.9777 58.1564 46.2886 52.6216 49.1337C48.0807 51.2218 44.0024 54.1955 40.6259 57.8805C39.0236 59.6933 37.8551 61.8471 37.2089 64.1787C36.5627 66.5102 36.4559 68.9583 36.8965 71.3373C36.9506 71.5404 36.9367 71.7556 36.8569 71.95C36.777 72.1445 36.6356 72.3074 36.4544 72.4138C36.285 72.5402 36.0793 72.6084 35.868 72.6084C35.6567 72.6084 35.4511 72.5402 35.2817 72.4138C34.1146 71.6084 32.6979 71.2471 31.2876 71.3952C29.8773 71.5433 28.5665 72.191 27.5921 73.2212C26.5947 74.379 25.8793 75.7524 25.5024 77.2335C25.1255 78.7145 25.0972 80.2628 25.4198 81.7566C26.1186 84.8959 27.3612 87.8887 29.0916 90.5996C29.899 92.0029 31.1486 93.6177 32.4558 93.3294C32.7132 93.2718 32.9829 93.3183 33.2061 93.4588C33.4294 93.5992 33.5881 93.8222 33.6477 94.0791C33.6757 94.2067 33.678 94.3386 33.6543 94.4671C33.6307 94.5956 33.5816 94.718 33.51 94.8273C33.4384 94.9365 33.3456 95.0303 33.2372 95.1032C33.1288 95.1761 33.0069 95.2266 32.8787 95.2518C32.6212 95.3177 32.3563 95.35 32.0905 95.3479Z" fill="#00194C"/>
<path d="M68.289 117.513C63.685 116.358 59.2516 114.607 55.1014 112.303C55.1014 112.303 54.8515 120.954 68.1352 125.087L68.289 117.513Z" fill="#00194C"/>
<path d="M68.1353 125.933H67.8854C54.1403 121.665 54.2556 112.707 54.2556 112.322C54.2631 112.174 54.3098 112.03 54.3908 111.905C54.4718 111.78 54.5843 111.678 54.717 111.611C54.8449 111.535 54.9911 111.495 55.1399 111.495C55.2888 111.495 55.4349 111.535 55.5629 111.611C59.6389 113.862 63.987 115.581 68.5005 116.725C68.6851 116.769 68.8489 116.875 68.9644 117.025C69.0799 117.176 69.1401 117.362 69.1349 117.551L68.9811 125.125C68.9745 125.255 68.9381 125.381 68.8748 125.495C68.8114 125.608 68.7228 125.705 68.6159 125.779C68.479 125.886 68.3087 125.94 68.1353 125.933ZM56.178 113.918C56.774 116.34 59.0039 121.031 67.3086 123.914L67.424 118.147C63.5362 117.14 59.7663 115.722 56.178 113.918Z" fill="#00194C"/>
<path d="M33.7823 180.49C33.7823 180.49 79.689 233.24 108.16 220.149C136.63 207.057 178.75 155.249 178.75 155.249C178.75 155.249 192.033 141.389 189.38 140.639C186.728 139.889 177.981 148.329 177.981 148.329C177.981 148.329 187.862 136.564 184.055 136.564C180.249 136.564 173.059 145.291 173.059 145.291C173.059 145.291 184.824 132.007 179.884 132.757C174.943 133.507 168.888 140.735 168.888 140.735C168.888 140.735 180.653 129.355 176.097 129.739C171.541 130.123 159.391 141.485 159.391 141.485C159.391 141.485 164.332 130.104 160.525 130.489C156.719 130.873 155.969 141.023 150.202 146.329C144.435 151.635 107.698 186.93 100.874 186.565C94.0492 186.2 63.6947 153.538 63.6947 153.538" fill="white"/>
<path d="M98.0862 223.225C87.4939 223.225 74.6523 217.458 59.6385 205.923C50.0398 198.435 41.1176 190.117 32.9749 181.067C32.7976 180.884 32.6984 180.639 32.6984 180.385C32.6984 180.13 32.7976 179.885 32.9749 179.702C33.0626 179.613 33.1673 179.541 33.2829 179.493C33.3984 179.444 33.5225 179.419 33.6478 179.419C33.7731 179.419 33.8972 179.444 34.0127 179.493C34.1282 179.541 34.2329 179.613 34.3206 179.702C34.782 180.221 80.0927 231.76 107.583 219.111C135.515 206.269 177.404 154.999 177.827 154.48C182.633 149.482 187.727 143.427 188.496 141.408C186.728 141.754 182.133 145.253 178.48 148.771C178.303 148.937 178.068 149.03 177.825 149.03C177.581 149.031 177.347 148.938 177.169 148.772C176.99 148.606 176.882 148.379 176.865 148.136C176.848 147.893 176.924 147.653 177.077 147.464C180.71 143.119 183.652 138.64 183.805 137.294C181.633 137.467 177.808 140.985 175.078 143.984L173.598 145.676C173.418 145.852 173.176 145.951 172.925 145.951C172.673 145.951 172.432 145.852 172.252 145.676C172.064 145.509 171.947 145.276 171.926 145.026C171.904 144.776 171.98 144.526 172.137 144.33C172.31 144.119 172.771 143.561 173.444 142.831C176.712 138.986 179.73 134.757 179.961 133.353C177.337 134.082 174.95 135.488 173.04 137.429C171.887 138.678 170.656 139.909 169.464 141.062C169.287 141.228 169.052 141.321 168.809 141.321C168.565 141.322 168.331 141.23 168.153 141.064C167.974 140.898 167.866 140.67 167.849 140.427C167.832 140.184 167.908 139.944 168.061 139.755C169.135 138.532 170.271 137.364 171.464 136.256C173.255 134.504 174.795 132.511 176.039 130.335C172.54 130.7 163.274 138.736 159.968 141.87C159.807 142.018 159.6 142.106 159.381 142.121C159.163 142.135 158.946 142.075 158.766 141.949C158.587 141.823 158.456 141.64 158.395 141.43C158.334 141.22 158.346 140.995 158.43 140.793C160.122 136.948 161.448 132.104 160.756 131.181C160.756 131.181 160.756 131.181 160.545 131.181C159.199 131.316 158.065 133.988 156.873 136.833C155.585 140.559 153.536 143.976 150.856 146.868L148.933 148.79C120.693 175.415 105.487 187.699 100.874 187.449C93.857 187.046 66.2707 157.499 63.0411 154.115C62.9516 154.027 62.8805 153.923 62.8319 153.807C62.7834 153.692 62.7584 153.568 62.7584 153.442C62.7584 153.317 62.7834 153.193 62.8319 153.077C62.8805 152.962 62.9516 152.857 63.0411 152.769C63.1305 152.679 63.2367 152.608 63.3539 152.559C63.471 152.51 63.5966 152.485 63.7235 152.485C63.8504 152.485 63.9761 152.51 64.0932 152.559C64.2103 152.608 64.3166 152.679 64.406 152.769C76.4978 165.784 96.2215 185.219 100.931 185.45C103.642 185.585 113.869 179.087 147.607 147.31L149.529 145.484C152.012 142.776 153.904 139.581 155.085 136.102C156.623 132.431 157.853 129.528 160.333 129.278C160.696 129.233 161.065 129.284 161.402 129.425C161.739 129.567 162.033 129.795 162.256 130.085C163.332 131.566 162.544 135.007 161.583 137.775C165.6 134.276 172.444 128.74 175.885 128.451C176.261 128.367 176.653 128.41 177.001 128.573C177.35 128.737 177.633 129.012 177.808 129.355C178.115 130.028 177.808 131.066 177.058 132.296C177.864 131.914 178.717 131.643 179.595 131.489C179.984 131.363 180.404 131.375 180.786 131.522C181.167 131.669 181.486 131.942 181.691 132.296C182.152 133.142 181.691 134.641 180.634 136.429C181.606 135.771 182.732 135.374 183.902 135.276C184.242 135.25 184.583 135.326 184.88 135.493C185.178 135.661 185.419 135.913 185.574 136.218C186.093 137.352 185.113 139.524 183.652 141.87C185.901 140.274 188.15 139.101 189.419 139.486C189.66 139.547 189.88 139.672 190.056 139.848C190.232 140.024 190.357 140.244 190.419 140.485C191.072 142.888 183.69 151.039 179.23 155.691C177.558 157.748 136.688 207.75 108.352 220.784C105.147 222.33 101.644 223.163 98.0862 223.225Z" fill="#00194C"/>
<path d="M73.9602 107.651C73.7803 107.961 73.5676 108.251 73.3258 108.516C68.0585 114.687 61.9453 108.958 58.485 104.364C58.831 104.844 65.8862 102.787 66.5975 102.653L75.2867 100.73C75.554 101.913 75.5742 103.138 75.346 104.329C75.1177 105.52 74.6459 106.651 73.9602 107.651Z" fill="#00194C"/>
<path d="M129.44 452.028L130.863 468.157C130.863 468.157 205.721 457.622 202.587 454.488C199.454 451.355 172.233 443.473 172.233 443.473" fill="white"/>
<path d="M130.863 469.118C130.646 469.115 130.437 469.041 130.267 468.906C130.062 468.738 129.931 468.497 129.902 468.233L128.479 452.104C128.456 451.85 128.535 451.596 128.699 451.399C128.864 451.203 129.099 451.08 129.354 451.057C129.609 451.034 129.862 451.113 130.059 451.277C130.255 451.441 130.379 451.677 130.401 451.931L131.728 467.061C156.719 463.523 195.474 457.353 201.242 454.661C197.397 452.239 182.018 447.318 171.964 444.396C171.843 444.362 171.73 444.306 171.632 444.228C171.534 444.151 171.452 444.055 171.391 443.946C171.33 443.837 171.292 443.717 171.278 443.593C171.264 443.469 171.275 443.343 171.31 443.223C171.382 442.978 171.546 442.77 171.769 442.644C171.992 442.519 172.255 442.485 172.502 442.55C175.308 443.377 200.05 450.586 203.26 453.815C203.427 453.975 203.545 454.18 203.599 454.405C203.654 454.63 203.643 454.865 203.568 455.084C202.395 458.564 157.584 465.35 130.978 469.098L130.863 469.118Z" fill="#00194C"/>
<path d="M68.6928 458.102V471.194L0.947815 471.674C0.947815 471.674 12.9051 460.294 24.2856 455.738" fill="white"/>
<path d="M0.947856 472.712C0.757386 472.71 0.571998 472.651 0.415222 472.542C0.258447 472.434 0.137357 472.282 0.0673218 472.105C-0.00271297 471.927 -0.0185332 471.733 0.0218698 471.547C0.0622728 471.361 0.157074 471.191 0.294244 471.059C0.774841 470.598 12.5014 459.525 23.9396 454.93C24.057 454.883 24.1824 454.86 24.3088 454.862C24.4352 454.864 24.56 454.89 24.676 454.94C24.7921 454.99 24.8971 455.063 24.9852 455.153C25.0732 455.244 25.1426 455.351 25.1892 455.469C25.2786 455.706 25.2724 455.969 25.1721 456.202C25.0717 456.435 24.8849 456.62 24.6509 456.718C16.1732 460.101 7.23406 467.464 3.50463 470.771L67.7701 470.232V458.102C67.7701 457.847 67.8713 457.603 68.0516 457.423C68.2318 457.242 68.4763 457.141 68.7313 457.141C68.9862 457.141 69.2307 457.242 69.4109 457.423C69.5912 457.603 69.6925 457.847 69.6925 458.102V471.194C69.6875 471.447 69.5847 471.689 69.4055 471.868C69.2263 472.047 68.9846 472.15 68.7313 472.155L1.00553 472.712H0.947856Z" fill="#00194C"/>
<path d="M73.9795 284.28C68.9043 284.28 65.6555 284.107 65.5978 284.107C65.3464 284.083 65.1134 283.964 64.9458 283.775C64.7781 283.586 64.6883 283.341 64.6943 283.088C64.7017 282.962 64.7339 282.838 64.7891 282.725C64.8443 282.611 64.9215 282.509 65.0161 282.425C65.1108 282.341 65.2211 282.277 65.3407 282.235C65.4603 282.194 65.5869 282.177 65.7132 282.185C75.03 282.59 84.3638 282.339 93.6455 281.435C93.7698 281.419 93.896 281.429 94.0165 281.463C94.137 281.497 94.2492 281.556 94.3463 281.635C94.4434 281.714 94.5234 281.812 94.5814 281.923C94.6394 282.034 94.6742 282.156 94.6836 282.281C94.7106 282.533 94.6369 282.786 94.4784 282.984C94.32 283.182 94.0897 283.309 93.8377 283.338C86.2251 284.088 79.0738 284.28 73.9795 284.28Z" fill="white"/>
<path d="M169.907 288.182C169.689 288.186 169.477 288.111 169.311 287.971C169.114 287.812 168.986 287.583 168.954 287.333C168.922 287.082 168.987 286.828 169.138 286.625L188.496 261.634C188.658 261.441 188.886 261.316 189.135 261.284C189.385 261.252 189.637 261.315 189.842 261.461C190.044 261.62 190.176 261.853 190.208 262.108C190.24 262.363 190.171 262.621 190.015 262.826L170.676 287.817C170.583 287.932 170.466 288.024 170.333 288.087C170.2 288.151 170.054 288.183 169.907 288.182Z" fill="#D1D3D4"/>
<path d="M272.101 367.135C271.857 367.135 271.623 367.041 271.448 366.873C271.272 366.705 271.169 366.475 271.159 366.232L265.392 264.903C265.381 264.646 265.472 264.395 265.644 264.204C265.817 264.014 266.058 263.899 266.314 263.884C266.44 263.876 266.565 263.893 266.684 263.935C266.802 263.976 266.911 264.041 267.004 264.125C267.097 264.209 267.173 264.311 267.226 264.425C267.279 264.539 267.309 264.662 267.314 264.787L273.081 366.116C273.089 366.243 273.072 366.369 273.03 366.489C272.989 366.608 272.925 366.719 272.841 366.813C272.757 366.908 272.655 366.985 272.541 367.04C272.427 367.096 272.304 367.128 272.178 367.135H272.101Z" fill="#D1D3D4"/>
<path d="M453.824 133.546C452.706 135.404 451.704 137.33 450.825 139.313C442.405 157.018 431.505 178.818 409.724 181.971C394.441 184.181 378.716 181.221 364.298 176.203C359.813 174.708 355.571 172.564 351.707 169.84C347.132 166.361 343.268 161.132 339.231 157.018C338.212 155.961 336.424 154.903 335.386 156.018C334.348 157.133 335.193 158.152 335.789 159.094C337.902 162.453 340.308 165.618 342.979 168.552C339.73 167.245 336.405 166.092 333.04 165.073C330.125 164.01 327.129 163.18 324.082 162.593C323.515 162.597 322.964 162.778 322.506 163.112C322.285 163.289 322.132 163.536 322.072 163.813C322.013 164.09 322.05 164.378 322.179 164.631C322.334 164.853 322.538 165.037 322.775 165.169C325.053 166.667 327.549 167.802 330.176 168.533C327.915 167.408 325.45 166.754 322.929 166.611C321.833 166.611 320.468 166.764 320.103 167.803C319.738 168.841 320.814 169.936 321.814 170.552C324.056 171.936 326.465 173.028 328.984 173.8C327.012 172.81 324.968 171.969 322.871 171.282C321.564 170.859 319.872 170.59 319.026 171.705C318.786 172.074 318.657 172.505 318.657 172.945C318.657 173.385 318.786 173.816 319.026 174.185C319.528 174.9 320.185 175.491 320.949 175.915C322.963 177.167 325.126 178.162 327.389 178.875L321.295 176.761C320.857 176.537 320.373 176.42 319.882 176.42C319.39 176.42 318.906 176.537 318.469 176.761C317.488 177.549 317.873 179.164 318.623 180.202C320.188 181.871 322.124 183.148 324.274 183.931C327.1 185.279 329.994 186.479 332.944 187.526C352.572 195.216 369.7 206.116 391.231 207.904C415.011 209.826 441.694 203.444 459.418 186.757C470.145 176.665 481.237 159.267 479.315 143.677C478.681 138.582 477.892 131.546 473.413 128.297C468.626 124.741 459.956 126.49 456.112 130.547C455.255 131.471 454.489 132.475 453.824 133.546Z" fill="white"/>
<path d="M399.939 209.268C397.056 209.268 394.172 209.153 391.193 208.903C375.679 207.596 362.703 201.733 348.9 195.446C343.614 193.043 338.135 190.564 332.541 188.391L330.618 187.699C328.269 186.846 325.965 185.87 323.717 184.777L322.583 184.22C320.702 183.484 319.036 182.287 317.738 180.74C317.141 180.094 316.809 179.246 316.809 178.366C316.809 177.486 317.141 176.638 317.738 175.992C318.096 175.711 318.519 175.526 318.968 175.454C318.678 175.188 318.426 174.884 318.219 174.55C317.866 174.024 317.677 173.405 317.677 172.772C317.677 172.138 317.866 171.519 318.219 170.994C318.59 170.491 319.117 170.126 319.718 169.956C319.401 169.613 319.179 169.193 319.074 168.737C318.969 168.282 318.986 167.807 319.122 167.36C319.335 166.838 319.696 166.388 320.16 166.067C320.625 165.746 321.172 165.568 321.737 165.553C321.489 165.357 321.288 165.107 321.15 164.823C321.013 164.538 320.941 164.226 320.941 163.91C320.941 163.593 321.013 163.281 321.15 162.997C321.288 162.712 321.489 162.462 321.737 162.266C322.352 161.788 323.111 161.531 323.89 161.535C326.524 161.851 329.107 162.497 331.579 163.458L333.175 163.958C335.347 164.611 337.5 165.323 339.653 166.111C337.912 163.984 336.307 161.75 334.847 159.421C333.463 157.229 333.905 155.922 334.521 155.211C334.725 154.959 334.983 154.757 335.276 154.617C335.568 154.477 335.888 154.404 336.212 154.403C337.561 154.512 338.815 155.139 339.711 156.153C341.095 157.556 342.479 159.132 343.806 160.632C346.295 163.641 349.063 166.409 352.072 168.898C355.858 171.552 360.009 173.643 364.395 175.108C380.812 180.875 395.941 182.797 409.378 180.875C431.294 177.703 442.386 154.23 449.749 138.697C450.64 136.71 451.661 134.784 452.805 132.93C453.512 131.789 454.33 130.72 455.247 129.739C459.322 125.452 468.53 123.453 473.836 127.375C478.565 130.893 479.449 138.005 480.084 143.215V143.503C482.006 158.883 471.318 176.665 459.88 187.411C445.366 201.406 423.335 209.268 399.939 209.268ZM319.699 177.395C319.496 177.391 319.296 177.444 319.122 177.549C318.68 177.914 318.949 178.952 319.468 179.664C320.578 180.957 322.001 181.943 323.601 182.528L324.774 183.124C326.961 184.179 329.2 185.122 331.483 185.95L333.406 186.661C339.038 188.853 344.536 191.352 349.842 193.755C363.414 199.906 376.217 205.712 391.423 206.981C417.452 209.153 442.674 201.367 458.88 186.123C469.953 175.703 480.295 158.594 478.469 143.83V143.542C477.854 138.697 477.046 132.008 472.971 129.028C468.549 125.741 460.456 127.452 456.919 131.162C456.096 132.053 455.356 133.019 454.708 134.045C453.611 135.853 452.629 137.728 451.767 139.659C444.251 155.557 432.889 179.587 409.955 182.912C396.21 184.835 380.773 182.912 364.068 177.03C359.498 175.477 355.168 173.29 351.207 170.532C348.1 167.976 345.242 165.131 342.672 162.035C341.287 160.459 339.98 158.998 338.635 157.614C338.102 157.001 337.377 156.587 336.578 156.441C336.519 156.439 336.462 156.45 336.408 156.473C336.355 156.496 336.308 156.531 336.27 156.576C336.02 156.864 336.27 157.614 336.789 158.498C338.844 161.841 341.185 164.999 343.787 167.937C343.935 168.096 344.025 168.3 344.042 168.516C344.06 168.733 344.004 168.949 343.883 169.129C343.759 169.309 343.577 169.442 343.367 169.505C343.157 169.568 342.932 169.557 342.729 169.475C339.5 168.187 336.174 167.033 332.848 166.034L331.214 165.515C328.946 164.68 326.612 164.037 324.236 163.592C323.882 163.595 323.537 163.695 323.236 163.881C323.191 163.918 323.155 163.965 323.131 164.018C323.108 164.072 323.098 164.13 323.102 164.188C323.187 164.272 323.284 164.344 323.39 164.4C324.423 165.088 325.51 165.692 326.639 166.207C328.048 166.566 329.414 167.075 330.714 167.726C330.927 167.83 331.093 168.01 331.178 168.231C331.264 168.452 331.263 168.697 331.176 168.917C331.086 169.138 330.92 169.319 330.709 169.428C330.497 169.537 330.254 169.568 330.022 169.513C328.645 169.129 327.301 168.634 326.004 168.033C325.006 167.8 323.99 167.652 322.967 167.591C322.16 167.591 321.275 167.706 321.045 168.129C320.814 168.552 321.583 169.283 322.352 169.763C322.794 170.052 323.275 170.321 323.736 170.571C325.708 171.239 327.635 172.035 329.503 172.954C329.714 173.066 329.878 173.25 329.963 173.473C330.047 173.696 330.048 173.942 329.965 174.166C329.871 174.386 329.701 174.566 329.486 174.672C329.27 174.778 329.024 174.803 328.792 174.742C326.796 174.129 324.865 173.325 323.025 172.339L322.64 172.205C321.987 171.993 320.43 171.59 319.91 172.205C319.796 172.426 319.746 172.675 319.767 172.923C319.787 173.171 319.877 173.409 320.026 173.608C320.452 174.203 321.012 174.69 321.66 175.031C323.528 176.194 325.529 177.13 327.619 177.818L327.888 177.914C328.111 178.006 328.29 178.178 328.392 178.396C328.493 178.614 328.51 178.862 328.437 179.092C328.365 179.321 328.209 179.515 328.001 179.635C327.792 179.755 327.546 179.793 327.312 179.74H327.023L321.025 177.818C320.605 177.618 320.158 177.475 319.699 177.395Z" fill="#00194C"/>
<path d="M257.125 62.2057C256.87 62.2057 256.626 62.1045 256.446 61.9242C256.265 61.744 256.164 61.4995 256.164 61.2445V1.65052C256.164 1.3956 256.265 1.15112 256.446 0.970858C256.626 0.790599 256.87 0.689331 257.125 0.689331C257.38 0.689331 257.625 0.790599 257.805 0.970858C257.985 1.15112 258.086 1.3956 258.086 1.65052V61.2445C258.086 61.4995 257.985 61.744 257.805 61.9242C257.625 62.1045 257.38 62.2057 257.125 62.2057Z" fill="#D1D3D4"/>
<path d="M140.206 52.4593C140.057 52.4578 139.91 52.4224 139.777 52.3558C139.644 52.2892 139.527 52.1931 139.437 52.0748L122.135 28.2564C122.061 28.1541 122.007 28.0382 121.977 27.9153C121.948 27.7923 121.943 27.6647 121.962 27.5398C122.002 27.2874 122.14 27.0611 122.347 26.9107C122.553 26.7603 122.811 26.6981 123.063 26.7378C123.316 26.7774 123.542 26.9157 123.692 27.1222L140.994 50.9406C141.14 51.1485 141.199 51.4051 141.16 51.6561C141.121 51.9072 140.985 52.1331 140.782 52.2862C140.612 52.4007 140.411 52.461 140.206 52.4593Z" fill="#D1D3D4"/>
<path d="M29.0917 176.472C28.9427 176.471 28.7961 176.436 28.6628 176.369C28.5296 176.302 28.4133 176.206 28.3227 176.088C20.96 166.303 15.0583 157.114 15.0006 157.018C14.9335 156.911 14.8882 156.791 14.8673 156.666C14.8465 156.542 14.8504 156.414 14.879 156.291C14.9076 156.168 14.9602 156.051 15.0338 155.948C15.1075 155.845 15.2007 155.758 15.3082 155.691C15.4146 155.622 15.5341 155.574 15.6594 155.552C15.7847 155.53 15.9132 155.533 16.0371 155.562C16.1611 155.59 16.2779 155.644 16.3806 155.719C16.4833 155.794 16.5697 155.889 16.6346 155.999C16.6346 155.999 22.5364 165.207 29.8606 174.934C29.9364 175.035 29.9915 175.15 30.0228 175.273C30.0541 175.395 30.0611 175.522 30.0432 175.647C30.0254 175.772 29.9831 175.892 29.9188 176.001C29.8545 176.11 29.7694 176.204 29.6684 176.28C29.5041 176.409 29.3004 176.477 29.0917 176.472Z" fill="#00194C"/>
<path d="M497.808 354.851C497.573 354.849 497.347 354.762 497.17 354.607C496.994 354.451 496.879 354.238 496.847 354.005C496.847 353.294 488.158 283.127 484.601 266.037C484.55 265.782 484.603 265.517 484.747 265.301C484.891 265.084 485.115 264.934 485.37 264.883C485.625 264.832 485.89 264.885 486.106 265.029C486.323 265.173 486.473 265.397 486.524 265.652C490.099 282.819 498.731 353.063 498.808 353.775C498.824 353.898 498.815 354.024 498.782 354.145C498.749 354.265 498.693 354.378 498.616 354.476C498.539 354.575 498.443 354.657 498.334 354.718C498.225 354.779 498.105 354.818 497.981 354.832L497.808 354.851Z" fill="white"/>
</svg>
