<svg width="535" height="310" viewBox="0 0 535 310" fill="none" xmlns="http://www.w3.org/2000/svg">
<path d="M243.677 256.671C213.03 263.864 181.854 268.579 150.45 270.77C142.482 271.257 134.384 271.55 126.319 271.55C118.253 271.55 110.155 271.257 102.203 270.77C70.7941 268.578 39.6126 263.863 8.96002 256.671C8.96002 256.671 7.77294 217.335 32.7992 190.487C57.8255 163.639 100.691 161.298 126.319 161.298C151.947 161.298 194.828 163.688 219.854 190.487C244.88 217.286 243.677 256.671 243.677 256.671Z" fill="#0055FF"/>
<path d="M150.45 174.421V270.77C142.482 271.258 134.384 271.551 126.319 271.551C118.253 271.551 110.155 271.258 102.203 270.77V174.421H150.45Z" fill="#00194C"/>
<path d="M126.936 140.5C151.176 140.5 170.826 117.981 170.826 90.2032C170.826 62.4253 151.176 39.9067 126.936 39.9067C102.697 39.9067 83.047 62.4253 83.047 90.2032C83.047 117.981 102.697 140.5 126.936 140.5Z" fill="white"/>
<path d="M126.936 141.345C102.284 141.345 82.2176 118.4 82.2176 90.2031C82.2176 60.2496 85.4699 39.061 126.936 39.061C168.403 39.061 171.672 60.2009 171.672 90.2031C171.672 118.4 151.605 141.345 126.936 141.345ZM126.936 40.736C86.8846 40.736 83.8925 60.2496 83.8925 90.2031C83.8925 117.474 103.211 139.67 126.936 139.67C150.662 139.67 169.997 117.474 169.997 90.2031C169.997 60.396 166.988 40.736 126.936 40.736Z" fill="#00194C"/>
<path d="M154.646 107.555C156.792 94.1551 179.038 90.8541 177.932 106.644C177.766 112.133 175.663 117.386 171.997 121.474C168.192 125.344 162.045 127.182 157.085 124.954" fill="white"/>
<path d="M161.736 126.694C160.017 126.704 158.315 126.349 156.744 125.653C156.643 125.609 156.553 125.544 156.477 125.465C156.402 125.385 156.342 125.291 156.303 125.188C156.264 125.085 156.245 124.976 156.248 124.866C156.251 124.756 156.276 124.648 156.321 124.548C156.366 124.447 156.43 124.357 156.51 124.281C156.59 124.206 156.683 124.146 156.786 124.107C156.889 124.068 156.998 124.049 157.108 124.052C157.218 124.055 157.326 124.08 157.427 124.125C159.817 125.037 162.424 125.214 164.916 124.635C167.407 124.055 169.669 122.745 171.411 120.873C174.92 116.921 176.929 111.861 177.087 106.579C177.639 98.7408 172.306 97.2772 169.997 97.0008C164.061 96.3341 156.63 100.546 155.475 107.685C155.482 107.811 155.46 107.938 155.412 108.055C155.363 108.172 155.288 108.277 155.194 108.361C155.099 108.446 154.986 108.508 154.864 108.543C154.743 108.578 154.614 108.585 154.489 108.564C154.364 108.543 154.245 108.494 154.142 108.42C154.038 108.347 153.953 108.251 153.891 108.14C153.83 108.029 153.794 107.906 153.787 107.779C153.779 107.652 153.801 107.525 153.849 107.408C155.15 99.2774 163.508 94.5778 170.208 95.3421C174.712 95.8462 179.331 99.1148 178.794 106.725C178.485 111.181 177.168 117.458 172.631 122.076C171.208 123.524 169.513 124.677 167.643 125.47C165.774 126.262 163.766 126.678 161.736 126.694Z" fill="#00194C"/>
<path d="M99.1945 107.555C97.048 94.1551 74.8024 90.8541 75.9082 106.644C76.0772 112.129 78.1729 117.38 81.8274 121.474C85.6488 125.344 91.7793 127.182 96.7553 124.954" fill="white"/>
<path d="M92.1534 126.693C88.0578 126.627 84.1564 124.936 81.307 121.994C77.5096 117.761 75.3221 112.327 75.1277 106.643C74.6073 99.0491 79.2255 95.7805 83.7137 95.2602C90.4297 94.4959 98.788 99.2605 100.089 107.326C100.122 107.548 100.068 107.774 99.9371 107.956C99.8065 108.138 99.6102 108.262 99.3897 108.302C99.17 108.335 98.9462 108.28 98.7666 108.149C98.5871 108.018 98.4663 107.822 98.4303 107.603C97.2757 100.464 89.8605 96.2196 83.9088 96.9188C81.5997 97.1953 76.266 98.6588 76.8026 106.497C77.0953 110.676 78.3149 116.546 82.4941 120.791C86.348 124.71 92.0883 126.076 96.4626 124.043C96.564 123.997 96.6735 123.971 96.7849 123.967C96.8963 123.963 97.0073 123.982 97.1115 124.021C97.2158 124.06 97.3113 124.12 97.3925 124.196C97.4737 124.272 97.539 124.364 97.5847 124.466C97.6729 124.669 97.6781 124.898 97.599 125.105C97.52 125.312 97.363 125.479 97.1619 125.571C95.5912 126.297 93.8837 126.68 92.1534 126.693Z" fill="#00194C"/>
<path d="M102.203 174.421C102.203 174.421 108.22 187.528 125.766 187.528C130.662 187.663 135.51 186.526 139.836 184.229C144.162 181.932 147.819 178.553 150.45 174.421L148.093 122.954H104.545L102.203 174.421Z" fill="white"/>
<path d="M125.766 188.374C107.878 188.374 101.504 174.909 101.374 174.779C101.343 174.651 101.343 174.517 101.374 174.389L103.715 122.905C103.728 122.69 103.822 122.487 103.979 122.339C104.137 122.19 104.345 122.108 104.561 122.108H148.109C148.325 122.108 148.533 122.19 148.69 122.339C148.847 122.487 148.942 122.69 148.954 122.905L151.231 174.389C151.24 174.541 151.206 174.693 151.133 174.828C148.414 179.065 144.655 182.534 140.214 184.906C135.773 187.277 130.799 188.471 125.766 188.374ZM103 174.242C103.796 175.869 109.846 186.699 125.766 186.699C130.47 186.807 135.125 185.719 139.294 183.538C143.464 181.356 147.011 178.152 149.605 174.226L147.312 123.816H105.341L103 174.242Z" fill="#00194C"/>
<path d="M104.545 144.955C107.906 149.834 112.426 153.801 117.7 156.501C126.335 161.265 139.23 166.632 149.702 165.038L147.979 143.329C140.315 144.288 132.564 144.343 124.888 143.492C118.123 142.89 111.147 142.24 104.951 139.621C103.894 139.101 103.211 142.874 104.545 144.955Z" fill="#00194C"/>
<path d="M145.718 166.095C135.165 166.095 123.668 160.68 117.31 157.151C111.899 154.419 107.272 150.356 103.862 145.345C103.306 144.414 103.004 143.353 102.987 142.269C102.97 141.184 103.238 140.115 103.764 139.166C103.941 138.943 104.186 138.783 104.462 138.713C104.739 138.642 105.03 138.664 105.293 138.776C111.472 141.378 118.643 142.028 124.953 142.565C132.569 143.425 140.26 143.376 147.865 142.418C147.975 142.406 148.086 142.415 148.192 142.445C148.298 142.476 148.397 142.528 148.483 142.597C148.572 142.664 148.646 142.75 148.699 142.848C148.752 142.946 148.784 143.055 148.792 143.166L150.516 164.924C150.53 165.13 150.466 165.333 150.336 165.493C150.206 165.653 150.02 165.758 149.816 165.786C148.46 165.996 147.09 166.099 145.718 166.095ZM104.886 140.434C104.661 141.108 104.576 141.819 104.634 142.527C104.693 143.234 104.895 143.922 105.228 144.549C108.507 149.322 112.936 153.192 118.107 155.801C124.953 159.59 137.929 165.656 148.841 164.355L147.214 144.207C139.758 145.044 132.231 145.044 124.774 144.207C118.464 143.687 111.277 143.053 104.886 140.434Z" fill="#00194C"/>
<path d="M125.213 148.419H128.79C136.91 148.385 144.686 145.135 150.415 139.381C156.145 133.627 159.362 125.838 159.362 117.718V69.0962C159.362 69.0962 148.694 72.1696 126.839 72.1696C104.984 72.1696 94.3161 69.0962 94.3161 69.0962V117.718C94.3182 121.765 95.1202 125.773 96.676 129.509C98.2319 133.246 100.511 136.638 103.382 139.491C106.253 142.345 109.66 144.602 113.406 146.134C117.153 147.666 121.165 148.443 125.213 148.419Z" fill="white"/>
<path d="M159.362 69.0956V117.717C159.362 125.86 156.127 133.669 150.369 139.426C144.612 145.184 136.803 148.419 128.66 148.419H125.213C117.072 148.414 109.265 145.178 103.508 139.422C97.7516 133.665 94.5156 125.858 94.5113 117.717V69.0956C94.5113 69.0956 105.195 72.169 127.034 72.169C148.873 72.169 159.557 69.0956 159.557 69.0956M159.557 67.4695C159.406 67.4457 159.252 67.4457 159.102 67.4695C159.004 67.4695 148.336 70.4778 127.067 70.4778C105.797 70.4778 95.1454 67.502 95.0479 67.4695C94.8915 67.4466 94.7327 67.4466 94.5763 67.4695C94.145 67.4695 93.7314 67.6408 93.4264 67.9458C93.1215 68.2507 92.9502 68.6643 92.9502 69.0956V117.717C92.9587 126.282 96.3569 134.495 102.402 140.561C108.448 146.628 116.648 150.055 125.213 150.094H128.79C137.376 150.085 145.608 146.672 151.68 140.602C157.753 134.533 161.17 126.303 161.183 117.717V69.0956C161.183 68.6643 161.012 68.2507 160.707 67.9458C160.402 67.6408 159.988 67.4695 159.557 67.4695Z" fill="#00194C"/>
<path d="M59.5655 263.55C59.3563 263.55 59.1547 263.472 59.0009 263.33C58.8471 263.189 58.7525 262.994 58.7361 262.785L52.0527 197.74C52.0299 197.518 52.0957 197.296 52.2358 197.122C52.3759 196.949 52.579 196.838 52.8007 196.813C53.021 196.798 53.2386 196.867 53.4104 197.006C53.5822 197.144 53.6954 197.343 53.7276 197.561L60.3948 262.607C60.406 262.716 60.3955 262.826 60.3639 262.931C60.3323 263.036 60.2802 263.133 60.2107 263.218C60.1411 263.303 60.0555 263.373 59.9587 263.424C59.8619 263.475 59.7559 263.507 59.6468 263.517L59.5655 263.55Z" fill="#00194C"/>
<path d="M193.088 263.55H192.99C192.881 263.54 192.775 263.508 192.678 263.457C192.582 263.406 192.496 263.335 192.426 263.251C192.357 263.166 192.305 263.068 192.273 262.964C192.242 262.859 192.231 262.748 192.242 262.639L198.926 197.594C198.993 197.419 199.115 197.272 199.275 197.174C199.435 197.077 199.622 197.035 199.808 197.056C199.994 197.076 200.167 197.158 200.302 197.287C200.437 197.417 200.525 197.588 200.552 197.773L193.868 262.818C193.843 263.012 193.751 263.19 193.609 263.323C193.466 263.457 193.282 263.537 193.088 263.55Z" fill="#00194C"/>
<path d="M458.425 90.2844C458.425 118.108 527.357 227.091 414.519 227.091C301.682 227.091 370.614 118.14 370.614 90.2844C370.614 62.4286 372.467 39.874 414.519 39.874C456.571 39.874 458.425 62.4448 458.425 90.2844Z" fill="white"/>
<path d="M414.471 227.888C386.208 227.888 366.857 220.928 356.97 207.187C340.302 184.015 352.954 146.223 362.19 118.628C366.207 106.659 369.67 96.3172 369.67 90.2517C369.67 60.2494 372.923 39.0283 414.471 39.0283C456.018 39.0283 459.271 60.2494 459.271 90.2517C459.271 96.3172 462.718 106.659 466.735 118.628C475.971 146.272 488.639 184.015 471.955 207.187C462.068 220.961 442.717 227.888 414.471 227.888ZM414.471 40.7032C374.337 40.7032 371.345 60.3145 371.345 90.2517C371.345 96.5937 367.849 107.05 363.784 119.164C354.661 146.402 342.156 183.722 358.336 206.196C367.898 219.481 386.777 226.213 414.471 226.213C442.164 226.213 461.043 219.481 470.589 206.196C486.769 183.722 474.264 146.402 465.141 119.164C461.092 107.05 457.58 96.5937 457.58 90.2517C457.58 60.3958 454.587 40.7358 414.471 40.7358V40.7032Z" fill="#00194C"/>
<path d="M530.918 256.671C500.271 263.865 469.095 268.579 437.692 270.77C429.724 271.258 421.626 271.551 413.56 271.551C405.494 271.551 397.396 271.258 389.444 270.77C358.035 268.579 326.854 263.864 296.201 256.671C296.201 256.671 295.014 217.335 320.041 190.536C345.067 163.738 387.932 161.347 413.56 161.347C439.188 161.347 482.085 163.738 507.095 190.536C532.105 217.335 530.918 256.671 530.918 256.671Z" fill="#0055FF"/>
<path d="M437.692 174.421V270.77C429.724 271.258 421.626 271.551 413.56 271.551C405.494 271.551 397.396 271.258 389.444 270.77V174.421H437.692Z" fill="#00194C"/>
<path d="M346.807 263.55C346.598 263.55 346.396 263.472 346.242 263.33C346.088 263.189 345.994 262.994 345.978 262.785L339.294 197.74C339.271 197.518 339.337 197.296 339.477 197.122C339.617 196.949 339.82 196.838 340.042 196.813C340.262 196.798 340.48 196.867 340.652 197.006C340.824 197.144 340.937 197.343 340.969 197.561L347.636 262.607C347.65 262.716 347.641 262.827 347.61 262.933C347.579 263.039 347.527 263.137 347.458 263.222C347.388 263.308 347.301 263.378 347.203 263.428C347.105 263.479 346.998 263.509 346.888 263.517L346.807 263.55Z" fill="#00194C"/>
<path d="M480.329 263.55H480.232C480.122 263.54 480.016 263.508 479.92 263.457C479.823 263.405 479.737 263.335 479.668 263.251C479.598 263.166 479.546 263.068 479.514 262.963C479.483 262.859 479.472 262.748 479.484 262.639L486.167 197.594C486.196 197.374 486.308 197.173 486.48 197.034C486.653 196.895 486.873 196.827 487.094 196.846C487.316 196.87 487.519 196.982 487.659 197.155C487.799 197.329 487.865 197.551 487.842 197.773L481.159 262.818C481.131 263.02 481.032 263.204 480.88 263.339C480.728 263.473 480.532 263.548 480.329 263.55Z" fill="#00194C"/>
<path d="M442.212 107.554C444.359 94.1387 466.605 90.8377 465.531 106.66C465.367 112.154 463.265 117.413 459.596 121.507C455.791 125.393 449.628 127.231 444.652 125.003" fill="white"/>
<path d="M449.302 126.824C447.585 126.838 445.884 126.489 444.31 125.8C444.197 125.763 444.093 125.702 444.006 125.622C443.918 125.542 443.848 125.444 443.8 125.335C443.753 125.226 443.729 125.108 443.73 124.99C443.731 124.871 443.757 124.753 443.806 124.645C443.856 124.537 443.927 124.441 444.017 124.362C444.106 124.284 444.211 124.225 444.324 124.189C444.438 124.154 444.558 124.143 444.676 124.157C444.794 124.171 444.907 124.21 445.009 124.271C449.384 126.239 455.14 124.873 458.994 121.019C463.173 116.759 464.409 110.872 464.702 106.693C465.239 98.8386 459.905 97.3588 457.579 97.0986C451.595 96.4319 444.196 100.644 443.042 107.799C442.969 107.976 442.837 108.123 442.67 108.216C442.502 108.309 442.307 108.342 442.118 108.31C441.929 108.278 441.757 108.182 441.629 108.039C441.501 107.896 441.426 107.714 441.416 107.522C442.717 99.3915 451.091 94.6594 457.807 95.4237C462.312 95.9441 466.93 99.2126 466.409 106.807C466.1 111.279 464.783 117.572 460.23 122.19C457.345 125.121 453.415 126.788 449.302 126.824Z" fill="#00194C"/>
<path d="M386.712 107.554C384.566 94.1387 362.32 90.8377 363.393 106.66C363.565 112.153 365.666 117.41 369.329 121.507C373.15 125.393 379.297 127.231 384.273 125.003" fill="white"/>
<path d="M379.622 126.824C375.513 126.758 371.596 125.069 368.727 122.125C364.19 117.507 362.873 111.213 362.564 106.742C362.028 99.1475 366.646 95.8789 371.15 95.3586C377.866 94.5943 386.257 99.3751 387.542 107.457C387.563 107.566 387.561 107.679 387.536 107.787C387.512 107.896 387.466 107.998 387.4 108.088C387.335 108.178 387.251 108.254 387.155 108.31C387.059 108.367 386.953 108.403 386.842 108.416C386.625 108.45 386.403 108.397 386.224 108.269C386.045 108.142 385.923 107.95 385.883 107.733C384.745 100.578 377.281 96.3505 371.345 97.0335C369.02 97.2937 363.686 98.7735 364.239 106.628C364.398 111.923 366.412 116.994 369.931 120.954C371.677 122.826 373.941 124.136 376.435 124.715C378.929 125.294 381.539 125.117 383.932 124.206C384.134 124.116 384.365 124.109 384.572 124.189C384.779 124.268 384.947 124.426 385.037 124.629C385.128 124.832 385.134 125.062 385.055 125.27C384.976 125.477 384.817 125.644 384.615 125.735C383.047 126.448 381.345 126.819 379.622 126.824Z" fill="#00194C"/>
<path d="M389.688 174.648C389.688 174.648 395.705 187.771 413.3 187.771C427.317 187.771 438.001 174.648 438.001 174.648L435.659 123.083H392.03L389.688 174.648Z" fill="white"/>
<path d="M413.3 188.601C395.412 188.601 388.908 175.12 388.908 174.99C388.848 174.869 388.82 174.734 388.826 174.599L391.184 123.035C391.197 122.822 391.289 122.621 391.443 122.473C391.596 122.326 391.8 122.242 392.014 122.238H435.643C435.856 122.242 436.06 122.326 436.214 122.473C436.368 122.621 436.46 122.822 436.472 123.035L438.83 174.599C438.833 174.806 438.764 175.007 438.635 175.169C438.212 175.722 427.561 188.601 413.3 188.601ZM390.534 174.469C391.331 176.096 397.38 186.926 413.3 186.926C425.723 186.926 435.627 176.112 437.155 174.356L434.846 123.945H392.827L390.534 174.469Z" fill="#00194C"/>
<path d="M392.03 145.151C395.4 150.033 399.932 154.001 405.218 156.696C413.853 161.477 426.78 166.86 437.269 165.25L435.545 143.46C427.864 144.413 420.098 144.462 412.405 143.606C405.624 143.004 398.648 142.354 392.436 139.736C391.379 139.264 390.696 143.037 392.03 145.151Z" fill="#00194C"/>
<path d="M433.269 166.356C422.715 166.356 411.186 160.94 404.828 157.412C399.404 154.671 394.766 150.597 391.347 145.573C390.791 144.642 390.49 143.581 390.473 142.497C390.455 141.412 390.723 140.343 391.249 139.394C391.426 139.171 391.671 139.011 391.948 138.941C392.224 138.87 392.515 138.892 392.778 139.004C398.973 141.622 406.145 142.256 412.47 142.793C420.102 143.661 427.811 143.612 435.431 142.646C435.653 142.624 435.874 142.688 436.049 142.825C436.134 142.895 436.204 142.982 436.254 143.08C436.304 143.178 436.334 143.285 436.342 143.394L438.066 165.185C438.085 165.39 438.025 165.596 437.898 165.759C437.771 165.922 437.587 166.031 437.383 166.063C436.02 166.259 434.645 166.357 433.269 166.356ZM392.371 140.597C392.146 141.271 392.061 141.982 392.119 142.69C392.178 143.397 392.38 144.085 392.713 144.712C396.002 149.486 400.436 153.361 405.608 155.981C412.47 159.77 425.479 165.851 436.391 164.534L434.765 144.354C427.297 145.191 419.759 145.191 412.292 144.354C405.966 143.85 398.762 143.216 392.371 140.597Z" fill="#00194C"/>
<path d="M447.01 82.4632V117.848C447.01 125.996 443.774 133.811 438.014 139.574C432.253 145.338 424.44 148.578 416.292 148.582H412.714C408.676 148.584 404.677 147.791 400.945 146.247C397.214 144.704 393.823 142.441 390.966 139.587C388.109 136.733 385.842 133.344 384.295 129.614C382.747 125.884 381.95 121.886 381.948 117.848V84.2844L401.299 82.6583L403.527 67.3075L408.405 84.6747L422.13 82.8534C423.544 76.7229 422.13 63.4698 421.935 62.8682L431.773 81.5363L447.01 82.4632Z" fill="white"/>
<path d="M416.292 149.427H412.714C404.337 149.423 396.304 146.095 390.377 140.175C384.451 134.255 381.115 126.225 381.102 117.848V84.2841C381.102 84.0723 381.182 83.8685 381.328 83.7143C381.473 83.5601 381.671 83.4672 381.883 83.4548L400.567 81.8286L402.697 67.1934C402.723 67.0044 402.813 66.8301 402.952 66.6998C403.091 66.5694 403.271 66.4911 403.462 66.4778C403.657 66.4534 403.854 66.5034 404.014 66.618C404.173 66.7325 404.284 66.9032 404.323 67.0958L408.99 83.7637L421.398 82.1376C422.552 75.9745 421.219 63.7134 421.089 63.0792C421.05 62.9724 421.033 62.8591 421.039 62.7458C421.044 62.6324 421.072 62.5212 421.12 62.4186C421.168 62.3159 421.236 62.2237 421.32 62.1473C421.404 62.071 421.502 62.0119 421.609 61.9734C421.716 61.935 421.829 61.918 421.943 61.9233C422.056 61.9287 422.167 61.9563 422.27 62.0046C422.373 62.0529 422.465 62.121 422.541 62.2049C422.618 62.2889 422.677 62.387 422.715 62.4938L432.391 80.6741L447.156 81.6497C447.367 81.6622 447.566 81.755 447.711 81.9092C447.856 82.0634 447.937 82.2673 447.936 82.4791V117.864C447.924 126.245 444.583 134.278 438.649 140.197C432.715 146.116 424.673 149.436 416.292 149.427ZM382.793 85.0646V117.848C382.802 125.779 385.958 133.383 391.567 138.99C397.177 144.596 404.783 147.748 412.714 147.752H416.292C424.22 147.744 431.822 144.59 437.428 138.984C443.034 133.378 446.188 125.776 446.197 117.848V83.2596L431.74 82.3002C431.599 82.2888 431.463 82.2427 431.344 82.1661C431.225 82.0896 431.126 81.9848 431.057 81.8611L423.17 67.0307C423.544 71.6815 423.87 78.9178 422.926 83.0645C422.889 83.2322 422.8 83.3839 422.672 83.4979C422.543 83.6118 422.382 83.6821 422.211 83.6987L408.486 85.5199C408.285 85.5475 408.081 85.5019 407.911 85.3915C407.741 85.281 407.616 85.1131 407.559 84.9183L403.787 71.3725L402.161 82.7555C402.135 82.9445 402.045 83.1188 401.906 83.2491C401.766 83.3794 401.587 83.4578 401.396 83.471L382.793 85.0646Z" fill="#00194C"/>
<path d="M388.16 200.342C356.531 166.453 302.348 163.445 269.939 163.445C237.53 163.445 183.347 166.453 151.719 200.342C120.09 234.231 121.603 283.926 121.603 283.926C121.603 283.926 196.909 302.691 269.939 302.691C342.969 302.691 418.276 283.877 418.276 283.877C418.276 283.877 419.772 234.231 388.16 200.342Z" fill="#0055FF"/>
<path d="M300.429 179.966L278.834 254.589L269.939 285.34L261.028 254.541L239.449 179.966C254.068 175.624 285.81 175.624 300.429 179.966Z" fill="#00194C"/>
<path d="M270.72 137.102C301.354 137.102 326.187 108.635 326.187 73.5196C326.187 38.4042 301.354 9.9375 270.72 9.9375C240.086 9.9375 215.252 38.4042 215.252 73.5196C215.252 108.635 240.086 137.102 270.72 137.102Z" fill="white"/>
<path d="M270.72 137.931C239.677 137.931 214.407 109.034 214.407 73.5195C214.407 35.793 218.456 9.0918 270.72 9.0918C322.984 9.0918 327.033 35.793 327.033 73.5195C327.033 109.034 301.779 137.931 270.72 137.931ZM270.72 10.7667C219.887 10.7667 216.081 35.6141 216.081 73.5195C216.081 108.107 240.604 136.256 270.72 136.256C300.836 136.256 325.358 108.107 325.358 73.5195C325.358 35.6141 321.553 10.7667 270.72 10.7667Z" fill="#00194C"/>
<path d="M305.714 95.358C308.414 78.4299 336.53 74.2182 335.131 94.2198C334.66 101.066 332.464 108.058 327.651 112.953C322.838 117.848 315.065 120.173 308.788 117.376" fill="white"/>
<path d="M314.691 119.425C312.553 119.438 310.436 119 308.479 118.141C308.276 118.045 308.119 117.875 308.04 117.665C307.961 117.456 307.967 117.224 308.056 117.019C308.148 116.817 308.316 116.66 308.523 116.581C308.729 116.502 308.959 116.508 309.162 116.596C314.788 119.133 322.171 117.376 327.049 112.368C332.367 106.953 333.928 99.4726 334.302 94.1551C334.79 87.1464 331.359 82.5282 325.13 81.8127C317.504 80.9346 308.007 86.3496 306.544 95.4885C306.504 95.7091 306.38 95.9054 306.198 96.0359C306.015 96.1665 305.79 96.2209 305.568 96.1878C305.459 96.1722 305.354 96.1346 305.26 96.0773C305.166 96.02 305.085 95.9442 305.021 95.8544C304.957 95.7647 304.912 95.663 304.889 95.5553C304.865 95.4477 304.864 95.3365 304.885 95.2284C306.511 85.1463 316.983 79.2109 325.309 80.154C330.903 80.7882 336.692 84.8373 335.977 94.2689C335.586 99.8791 333.928 107.766 328.253 113.539C324.686 117.214 319.811 119.33 314.691 119.425Z" fill="#00194C"/>
<path d="M235.79 95.358C233.075 78.4299 204.975 74.2182 206.357 94.2198C206.845 101.066 209.04 108.058 213.854 112.953C218.667 117.848 226.44 120.173 232.701 117.376" fill="white"/>
<path d="M226.749 119.425C221.622 119.34 216.738 117.222 213.171 113.539C207.495 107.766 205.837 99.8791 205.446 94.2689C204.78 84.8373 210.52 80.7882 216.098 80.154C224.456 79.2109 234.912 85.1463 236.538 95.2284C236.587 95.3463 236.607 95.4736 236.6 95.6007C236.592 95.7279 236.555 95.8516 236.493 95.9627C236.43 96.0738 236.344 96.1693 236.239 96.2421C236.135 96.315 236.015 96.3633 235.889 96.3834C235.763 96.4035 235.635 96.395 235.513 96.3584C235.391 96.3218 235.278 96.2581 235.185 96.172C235.091 96.086 235.017 95.9798 234.97 95.8615C234.923 95.7431 234.903 95.6156 234.912 95.4885C233.449 86.3496 223.952 80.8533 216.325 81.8127C210.081 82.5282 206.666 87.1464 207.154 94.1551C207.512 99.4726 209.073 106.953 214.407 112.368C219.285 117.376 226.7 119.116 232.294 116.596C232.394 116.55 232.503 116.524 232.613 116.521C232.723 116.517 232.833 116.536 232.936 116.575C233.039 116.615 233.133 116.674 233.212 116.75C233.292 116.826 233.356 116.918 233.4 117.019C233.446 117.12 233.472 117.23 233.476 117.341C233.479 117.452 233.461 117.563 233.422 117.668C233.382 117.772 233.323 117.867 233.247 117.948C233.17 118.03 233.079 118.095 232.977 118.141C231.014 119.002 228.892 119.44 226.749 119.425Z" fill="#00194C"/>
<path d="M239.449 179.966C239.449 179.966 247.059 196.536 269.24 196.536C291.421 196.536 300.429 179.966 300.429 179.966L297.47 114.92H242.409L239.449 179.966Z" fill="white"/>
<path d="M269.24 197.382C246.783 197.382 238.766 180.487 238.685 180.324C238.654 180.196 238.654 180.062 238.685 179.934L241.644 114.888C241.653 114.674 241.744 114.471 241.899 114.323C242.053 114.174 242.259 114.091 242.474 114.091H297.535C297.749 114.091 297.955 114.174 298.11 114.323C298.265 114.471 298.356 114.674 298.364 114.888L301.324 179.934C301.34 180.087 301.306 180.241 301.226 180.373C297.803 185.715 293.062 190.086 287.46 193.065C281.858 196.044 275.583 197.531 269.24 197.382ZM240.295 179.787C241.189 181.527 249.092 195.691 269.24 195.691C275.234 195.824 281.163 194.432 286.471 191.644C291.779 188.856 296.291 184.765 299.584 179.755L296.657 115.685H243.222L240.295 179.787Z" fill="#00194C"/>
<path d="M242.409 142.76C246.23 148.907 252.572 153.737 259.044 157.396C269.955 163.429 286.266 170.21 299.486 168.193L297.323 140.679C287.608 141.89 277.784 141.955 268.053 140.874C259.516 140.126 250.702 139.248 242.864 135.996C241.579 135.329 240.669 140.077 242.409 142.76Z" fill="#00194C"/>
<path d="M294.445 169.348C281.176 169.348 266.671 162.518 258.67 158.095C250.669 153.672 245.189 148.761 241.742 143.232C240.295 140.939 240.441 137.036 241.612 135.67C241.799 135.431 242.059 135.26 242.353 135.184C242.647 135.107 242.958 135.13 243.238 135.248C251.092 138.5 260.15 139.346 268.167 140.045C277.81 141.134 287.548 141.074 297.177 139.866C297.396 139.837 297.618 139.896 297.795 140.029C297.961 140.175 298.065 140.378 298.088 140.598L300.267 168.112C300.285 168.316 300.225 168.519 300.098 168.68C299.971 168.84 299.786 168.945 299.584 168.974C297.883 169.228 296.165 169.353 294.445 169.348ZM242.766 136.825C242.403 137.721 242.243 138.686 242.3 139.651C242.356 140.615 242.626 141.556 243.092 142.403C246.344 147.704 251.889 152.517 259.451 156.713C268.183 161.591 284.737 169.267 298.624 167.51L296.575 141.622C287.098 142.698 277.53 142.698 268.053 141.622C259.971 140.907 250.832 140.077 242.766 136.825Z" fill="#00194C"/>
<path d="M268.459 147.102H272.98C283.275 147.102 293.148 143.012 300.427 135.733C307.706 128.453 311.796 118.58 311.796 108.286V46.8501C311.796 46.8501 298.299 50.7366 270.72 50.7366C243.14 50.7366 229.66 46.8501 229.66 46.8501V108.286C229.66 118.577 233.747 128.448 241.023 135.727C248.299 143.006 258.168 147.097 268.459 147.102Z" fill="white"/>
<path d="M311.796 46.85V108.286C311.796 118.58 307.707 128.453 300.427 135.733C293.148 143.012 283.275 147.102 272.98 147.102H268.459C258.168 147.097 248.299 143.006 241.023 135.727C233.747 128.448 229.66 118.577 229.66 108.286V46.85C229.66 46.85 243.157 50.7364 270.72 50.7364C298.283 50.7364 311.796 46.85 311.796 46.85ZM229.66 45.2238C229.298 45.2248 228.946 45.3385 228.652 45.5491C228.44 45.7036 228.269 45.9071 228.153 46.1421C228.037 46.3771 227.979 46.6367 227.985 46.8987V108.334C227.993 119.068 232.26 129.359 239.848 136.95C247.436 144.542 257.726 148.812 268.459 148.825H272.98C283.715 148.812 294.007 144.542 301.597 136.951C309.188 129.361 313.458 119.069 313.471 108.334V46.85C313.477 46.5879 313.419 46.3283 313.303 46.0933C313.187 45.8583 313.016 45.6548 312.804 45.5003C312.51 45.2897 312.158 45.176 311.796 45.175C311.64 45.1521 311.481 45.1521 311.325 45.175C311.194 45.175 297.681 48.9802 270.671 48.9802C243.661 48.9802 230.196 45.2076 230.018 45.175C229.867 45.1513 229.713 45.1513 229.562 45.175L229.66 45.2238Z" fill="#00194C"/>
<path d="M269.939 213.708L259.483 205.643L269.939 197.577L280.395 205.643L269.939 213.708Z" fill="white"/>
<path d="M278.834 254.589L269.939 285.34L261.044 254.54L266.41 209.334L266.524 208.391H273.354L273.452 209.366L278.834 254.589Z" fill="white"/>
<path d="M185.559 292.397C185.352 292.398 185.153 292.322 184.999 292.184C184.846 292.046 184.75 291.855 184.729 291.649L176.29 209.416C176.276 209.305 176.285 209.193 176.316 209.087C176.346 208.98 176.398 208.88 176.468 208.794C176.537 208.707 176.624 208.636 176.722 208.583C176.82 208.531 176.927 208.499 177.038 208.489C177.256 208.474 177.472 208.544 177.641 208.683C177.81 208.822 177.92 209.02 177.948 209.237L186.388 291.471C186.411 291.692 186.345 291.914 186.205 292.088C186.065 292.262 185.862 292.373 185.64 292.397H185.559Z" fill="#00194C"/>
<path d="M354.32 292.397C354.098 292.373 353.895 292.262 353.755 292.088C353.615 291.914 353.549 291.692 353.572 291.471L362.011 209.237C362.04 209.02 362.15 208.822 362.319 208.683C362.488 208.544 362.703 208.474 362.922 208.489C363.032 208.499 363.14 208.531 363.238 208.583C363.336 208.636 363.422 208.707 363.492 208.794C363.562 208.88 363.614 208.98 363.644 209.087C363.675 209.193 363.683 209.305 363.67 209.416L355.23 291.649C355.22 291.759 355.188 291.865 355.137 291.961C355.086 292.058 355.016 292.144 354.931 292.213C354.846 292.283 354.749 292.335 354.644 292.367C354.539 292.398 354.429 292.409 354.32 292.397Z" fill="#00194C"/>
<path d="M121.684 283.438C121.574 283.434 121.465 283.408 121.365 283.361C121.265 283.314 121.175 283.248 121.101 283.166C121.027 283.085 120.97 282.989 120.933 282.885C120.896 282.781 120.881 282.67 120.887 282.56C120.887 281.926 124.14 218.246 158.711 192.585C190.112 169.234 238.912 163.9 239.4 163.852C239.584 163.881 239.753 163.971 239.881 164.107C240.009 164.243 240.088 164.417 240.107 164.602C240.125 164.788 240.082 164.974 239.984 165.132C239.885 165.291 239.737 165.412 239.563 165.478C239.091 165.478 190.779 170.811 159.703 193.886C125.847 219.075 122.578 281.958 122.562 282.592C122.562 282.706 122.539 282.819 122.495 282.924C122.45 283.028 122.385 283.123 122.303 283.202C122.221 283.281 122.124 283.343 122.018 283.383C121.911 283.424 121.798 283.442 121.684 283.438Z" fill="#00194C"/>
<path d="M418.292 283.438C418.076 283.438 417.868 283.356 417.711 283.208C417.553 283.059 417.459 282.857 417.446 282.641C417.446 282.007 414.194 219.124 380.289 193.935C349.262 170.86 300.917 165.575 300.429 165.526C300.301 165.545 300.171 165.535 300.048 165.495C299.925 165.456 299.812 165.388 299.719 165.299C299.626 165.209 299.555 165.099 299.511 164.978C299.467 164.856 299.451 164.726 299.465 164.597C299.479 164.469 299.523 164.345 299.592 164.236C299.662 164.127 299.755 164.035 299.865 163.968C299.976 163.901 300.1 163.859 300.229 163.848C300.358 163.836 300.487 163.854 300.608 163.9C301.096 163.9 349.897 169.283 381.297 192.634C415.804 218.295 419.089 281.974 419.121 282.608C419.126 282.829 419.046 283.043 418.898 283.206C418.75 283.37 418.544 283.47 418.324 283.487L418.292 283.438Z" fill="#00194C"/>
</svg>
