<svg width="535" height="394" viewBox="0 0 535 394" fill="none" xmlns="http://www.w3.org/2000/svg">
<path d="M342.219 196.256V77.2487C342.22 74.6935 341.708 72.1641 340.712 69.8109C339.716 67.4578 338.256 65.329 336.421 63.5512C334.586 61.7734 332.411 60.3829 330.028 59.4623C327.644 58.5418 325.1 58.1101 322.546 58.1929L218.239 61.33C215.651 61.4072 213.105 62.0107 210.757 63.1038C208.41 64.1969 206.309 65.7567 204.584 67.688C202.859 69.6193 201.545 71.8817 200.723 74.3373C199.9 76.7929 199.587 79.3902 199.801 81.971L210.13 205.65L342.219 196.256Z" fill="#231F20"/>
<path d="M210.18 206.468C209.971 206.473 209.768 206.398 209.613 206.258C209.458 206.119 209.362 205.925 209.345 205.717L199.066 82.0378C198.843 79.3488 199.169 76.6425 200.024 74.0834C200.879 71.5242 202.246 69.1656 204.041 67.1508C205.835 65.136 208.021 63.5071 210.465 62.3631C212.908 61.219 215.559 60.5837 218.256 60.4957L322.546 57.3753C325.206 57.2949 327.856 57.7494 330.338 58.7119C332.82 59.6744 335.083 61.1252 336.994 62.9785C338.905 64.8317 340.424 67.0497 341.462 69.5009C342.5 71.9522 343.035 74.5868 343.036 77.2488V196.256C343.037 196.466 342.958 196.669 342.816 196.823C342.674 196.978 342.478 197.073 342.269 197.09L210.213 206.468H210.18ZM323.18 59.0273H322.546L218.239 62.1643C215.774 62.2527 213.352 62.8408 211.121 63.8929C208.89 64.945 206.895 66.4391 205.259 68.2848C203.622 70.1306 202.377 72.2894 201.6 74.6305C200.822 76.9716 200.528 79.4461 200.735 81.9043L210.981 204.766L341.451 195.488V77.2488C341.451 72.4161 339.531 67.7814 336.114 64.3642C332.697 60.947 328.062 59.0273 323.23 59.0273H323.18Z" fill="#231F20"/>
<path d="M444.606 119.732C444.606 119.732 429.422 125.439 430.373 145.563C431.324 165.686 426.168 187.445 443.555 185.794L444.606 197.641L481.316 201.545C481.316 201.545 485.154 140.006 478.263 129.794C471.371 119.582 444.606 119.732 444.606 119.732Z" fill="white"/>
<path d="M481.35 202.363H481.266L444.556 198.458C444.363 198.44 444.183 198.355 444.046 198.218C443.909 198.081 443.824 197.9 443.805 197.708L442.838 186.695C441.298 186.883 439.735 186.749 438.25 186.301C436.765 185.853 435.389 185.1 434.211 184.092C429.205 179.486 429.422 169.758 429.622 158.495C429.622 154.273 429.772 149.901 429.622 145.613C429.121 134.917 433.143 128.259 436.614 124.538C438.787 122.153 441.436 120.249 444.389 118.948C444.489 118.932 444.59 118.932 444.69 118.948C445.808 118.948 472.005 119.065 479.064 129.444C486.122 139.823 482.401 199.109 482.267 201.646C482.259 201.758 482.229 201.868 482.177 201.968C482.126 202.069 482.054 202.158 481.967 202.23C481.785 202.35 481.565 202.398 481.35 202.363ZM445.374 196.84L480.582 200.578C480.999 193.069 483.819 139.439 477.595 130.278C471.371 121.117 446.959 120.533 444.756 120.516C443.188 121.151 430.339 127.024 431.19 145.546C431.407 149.901 431.324 154.29 431.19 158.545C431.007 168.957 430.84 178.802 435.262 182.89C437.147 184.642 439.817 185.326 443.422 184.993C443.643 184.974 443.864 185.039 444.039 185.176C444.208 185.32 444.315 185.523 444.339 185.743L445.374 196.84Z" fill="#231F20"/>
<path d="M469.853 184.559C489.454 184.559 505.345 167.1 505.345 145.563C505.345 124.026 489.454 106.567 469.853 106.567C450.251 106.567 434.361 124.026 434.361 145.563C434.361 167.1 450.251 184.559 469.853 184.559Z" fill="white"/>
<path d="M469.853 185.393C449.829 185.393 433.527 167.522 433.527 145.563C433.527 123.603 449.829 105.749 469.853 105.749C489.876 105.749 506.096 123.603 506.096 145.563C506.096 167.522 489.876 185.393 469.853 185.393ZM469.853 107.401C450.747 107.401 435.195 124.521 435.195 145.563C435.195 166.604 450.747 183.741 469.853 183.741C488.959 183.741 504.51 166.621 504.51 145.563C504.51 124.504 488.959 107.401 469.853 107.401Z" fill="#231F20"/>
<path d="M302.422 15.309C286.803 -6.60021 253.514 -1.69442 237.929 18.0122C229.719 28.3911 226.148 42.2575 216.237 51.0512C210.981 55.74 204.356 58.5767 198.149 61.9307C191.941 65.2846 185.801 69.5396 182.681 75.8638C179.56 82.1879 180.545 91.015 186.502 94.8028C191.741 98.1401 198.95 96.7551 204.256 100.009C197.581 100.893 193.126 109.32 196.196 115.344C198.8 120.466 204.907 122.569 210.48 123.954C230.137 128.96 251.111 130.729 270.551 124.922C285.068 120.6 299.886 110.972 308.028 97.8898C315.754 85.4751 312.951 62.0642 311.866 47.8307C311.082 37.4685 309.43 26.8893 304.157 17.9454C303.623 17.061 303.039 16.16 302.422 15.309Z" fill="white"/>
<path d="M244.537 129.327C232.985 129.208 221.491 127.673 210.313 124.755C204.523 123.32 198.232 121.1 195.495 115.727C194.729 114.095 194.362 112.304 194.426 110.502C194.49 108.7 194.982 106.939 195.863 105.365C197.147 102.827 199.304 100.836 201.936 99.7586C199.805 99.032 197.6 98.5396 195.362 98.2902C192.108 98.0237 188.947 97.0742 186.084 95.5036C179.51 91.3153 178.826 81.8542 181.963 75.48C185.4 68.5551 192.225 64.2 197.798 61.1965C199.2 60.4289 200.618 59.6947 202.053 58.9605C206.958 56.7022 211.561 53.8376 215.753 50.4338C221.376 45.4278 225.014 38.5364 228.534 31.8785C231.028 26.8335 233.966 22.02 237.311 17.4949C241.781 11.9514 247.459 7.50292 253.911 4.48945C260.363 1.47598 267.419 -0.0227739 274.539 0.107697C280.126 0.120593 285.63 1.46184 290.597 4.02077C295.564 6.5797 299.852 10.283 303.106 14.8251C303.723 15.6928 304.324 16.6272 304.891 17.5783C310.481 27.0562 311.983 38.186 312.717 47.814C312.817 49.1155 312.934 50.5005 313.051 51.9522C314.202 66.6863 315.871 86.8267 308.746 98.3904C301.07 110.755 286.887 120.984 270.801 125.789C262.264 128.234 253.417 129.426 244.537 129.327ZM273.454 1.75965C266.769 1.78674 260.172 3.29759 254.141 6.18317C248.111 9.06876 242.795 13.2571 238.58 18.446C235.289 22.8876 232.407 27.618 229.97 32.5794C226.382 39.3707 222.661 46.379 216.821 51.5851C212.54 55.0941 207.83 58.0435 202.804 60.3621C201.386 61.0963 199.967 61.8305 198.582 62.5814C193.226 65.4849 186.668 69.6398 183.465 76.1474C180.628 81.8709 181.179 90.3308 186.969 94.0352C189.633 95.5194 192.576 96.4343 195.612 96.7217C198.794 96.9965 201.891 97.8982 204.723 99.3748C204.869 99.4648 204.983 99.5973 205.051 99.7545C205.118 99.9116 205.136 100.086 205.102 100.253C205.067 100.421 204.982 100.574 204.857 100.691C204.733 100.809 204.575 100.885 204.406 100.91C202.908 101.213 201.496 101.847 200.273 102.764C199.05 103.681 198.046 104.859 197.335 106.212C196.624 107.566 196.223 109.06 196.162 110.588C196.101 112.115 196.38 113.637 196.981 115.043C199.417 119.849 205.324 121.885 210.713 123.236C233.424 128.91 253.481 129.243 270.334 124.221C286.036 119.532 299.869 109.554 307.344 97.5227C314.202 86.4763 312.584 66.6362 311.399 52.1525C311.282 50.7007 311.165 49.3158 311.065 48.0142C310.348 38.5698 308.879 27.6736 303.456 18.4794C302.922 17.5783 302.338 16.6939 301.788 15.8596C298.679 11.5293 294.586 8.00004 289.845 5.56297C285.105 3.12591 279.852 1.85088 274.522 1.84308L273.454 1.75965Z" fill="#231F20"/>
<path d="M322.879 79.2845C322.479 76.7649 259.037 65.9354 227.166 80.9531C215.753 124.655 222.06 210.189 222.06 210.189L335.394 209.321C335.394 209.321 336.445 162.199 322.879 79.2845Z" fill="#0055FF"/>
<path d="M252.88 82.0711C252.88 82.0711 250.894 208.137 250.878 209.021C250.861 209.905 285.001 209.021 285.919 207.536C286.837 206.051 285.919 97.7229 285.919 97.7229L257.736 91.7158" fill="#231F20"/>
<path d="M257.335 210.189C255.156 210.265 252.975 210.17 250.811 209.905C250.594 209.869 250.398 209.757 250.257 209.589C250.116 209.42 250.04 209.207 250.043 208.988C250.043 208.12 252.029 83.3059 252.046 82.0377C252.046 81.9289 252.067 81.8212 252.109 81.7209C252.152 81.6206 252.213 81.5297 252.291 81.4536C252.369 81.3774 252.461 81.3176 252.562 81.2775C252.663 81.2374 252.771 81.2179 252.88 81.2201C252.99 81.2222 253.098 81.246 253.198 81.2899C253.298 81.3339 253.389 81.3972 253.465 81.4762C253.541 81.5552 253.601 81.6484 253.641 81.7505C253.68 81.8526 253.7 81.9615 253.698 82.0711C253.698 83.2725 251.862 198.725 251.712 208.387C255.917 208.871 282.148 208.12 285.085 206.985C285.635 202.68 285.185 128.009 284.951 98.3903L257.469 92.4166C257.359 92.3936 257.255 92.3493 257.163 92.2861C257.07 92.2229 256.991 92.1421 256.93 92.0484C256.869 91.9546 256.827 91.8498 256.806 91.7397C256.785 91.6297 256.787 91.5167 256.81 91.4071C256.833 91.2975 256.877 91.1936 256.94 91.1012C257.003 91.0087 257.084 90.9297 257.178 90.8685C257.272 90.8073 257.376 90.7651 257.487 90.7444C257.597 90.7238 257.71 90.725 257.819 90.748L285.952 96.8552C286.136 96.8936 286.302 96.9941 286.42 97.14C286.539 97.2859 286.603 97.4682 286.603 97.6561C286.87 130.295 287.371 206.368 286.503 207.886C286.219 208.37 285.685 209.288 269.049 209.905C265.144 210.189 260.806 210.189 257.335 210.189Z" fill="#231F20"/>
<path d="M284.918 80.1355L285.752 100.86C285.752 100.86 283.433 110.438 269.433 107.768C255.433 105.098 252.93 95.6538 252.93 95.6538L252.78 56.9415C252.78 56.9415 273.922 44.3599 269.817 22.2338C269.817 22.2338 279.061 39.354 299.502 35.7331C299.502 35.7331 300.753 55.6065 299.602 66.4026C298.451 77.1987 284.918 80.1355 284.918 80.1355Z" fill="white"/>
<path d="M274.038 109.07C272.441 109.058 270.849 108.896 269.283 108.586C254.916 105.849 252.229 96.2712 252.112 95.8707C252.103 95.7987 252.103 95.7259 252.112 95.6538L251.962 56.9415C251.963 56.7978 252 56.6566 252.07 56.5312C252.14 56.4057 252.241 56.3 252.363 56.224C252.563 56.1071 272.954 43.6758 269.049 22.384C269.014 22.1893 269.049 21.9884 269.148 21.8173C269.248 21.6461 269.405 21.5158 269.591 21.4497C269.778 21.3835 269.981 21.3858 270.166 21.456C270.351 21.5263 270.505 21.6601 270.601 21.8334C273.443 26.735 277.738 30.6329 282.891 32.9883C288.044 35.3438 293.802 36.0405 299.368 34.9822C299.482 34.9589 299.6 34.9618 299.713 34.9907C299.825 35.0196 299.93 35.0737 300.019 35.1491C300.113 35.2199 300.189 35.3104 300.244 35.4142C300.299 35.518 300.33 35.6325 300.336 35.7498C300.336 35.95 301.571 55.7734 300.436 66.5695C299.368 76.5813 288.655 80.0688 285.785 80.8363L286.586 100.86C286.594 100.932 286.594 101.005 286.586 101.077C286.536 101.144 284.484 109.07 274.038 109.07ZM253.764 95.537C254.065 96.5549 256.901 104.514 269.583 106.934C281.914 109.303 284.601 101.711 284.901 100.76L284.167 80.1689C284.159 79.9709 284.222 79.7765 284.344 79.6206C284.466 79.4647 284.64 79.3573 284.834 79.3179C284.951 79.3179 297.783 76.3811 298.851 66.3192C299.835 57.0249 299.034 40.739 298.851 36.7009C293.663 37.5253 288.348 36.9219 283.477 34.9552C278.606 32.9886 274.363 29.7331 271.202 25.5377C272.603 44.1931 256.518 55.5732 253.731 57.4087L253.764 95.537Z" fill="#231F20"/>
<path d="M259.271 55.5231C258.699 53.6385 257.527 51.9921 255.934 50.8342C254.403 49.8191 252.71 49.0741 250.928 48.6317C249.991 48.282 248.986 48.1508 247.991 48.2479C247.299 48.3936 246.642 48.6712 246.055 49.0655C244.597 49.8675 243.473 51.1632 242.885 52.7198C242.56 54.0236 242.56 55.3873 242.885 56.6912C243.122 58.1262 243.548 59.5234 244.153 60.8461C244.787 62.1545 245.676 63.3236 246.766 64.2854C247.857 65.2471 249.128 65.9824 250.505 66.4482C251.883 66.9141 253.339 67.1013 254.789 66.9989C256.24 66.8966 257.656 66.5067 258.954 65.852" fill="white"/>
<path d="M254.132 67.8543C251.911 67.8655 249.734 67.2437 247.854 66.0615C245.974 64.8794 244.471 63.186 243.519 61.1798C242.879 59.7894 242.43 58.3188 242.184 56.808C241.833 55.3774 241.833 53.8833 242.184 52.4528C242.82 50.7031 244.064 49.2403 245.688 48.3313C246.367 47.8833 247.126 47.5716 247.924 47.4135C249.053 47.2872 250.195 47.4242 251.261 47.814C253.128 48.2882 254.901 49.0783 256.501 50.1501C258.227 51.4206 259.492 53.2189 260.105 55.2728C260.167 55.4941 260.139 55.7309 260.026 55.9312C259.913 56.1315 259.726 56.2788 259.505 56.3407C259.283 56.4027 259.046 56.3742 258.846 56.2616C258.646 56.1489 258.499 55.9613 258.437 55.74C257.923 54.0338 256.869 52.5406 255.433 51.485C254.009 50.5532 252.442 49.8599 250.794 49.4326C249.975 49.1223 249.098 48.9969 248.225 49.0655C247.628 49.1877 247.061 49.4258 246.556 49.7663C245.281 50.4803 244.291 51.6117 243.753 52.9701C243.469 54.1435 243.469 55.3675 243.753 56.541C243.971 57.9023 244.376 59.2273 244.954 60.4789C245.542 61.6848 246.364 62.7622 247.371 63.649C248.378 64.5358 249.55 65.2144 250.821 65.6457C252.091 66.0769 253.435 66.2523 254.773 66.1617C256.112 66.0711 257.419 65.7163 258.62 65.1178C258.815 65.0368 259.033 65.0324 259.23 65.1054C259.428 65.1784 259.59 65.3235 259.685 65.5115C259.78 65.6995 259.801 65.9165 259.743 66.1189C259.684 66.3214 259.552 66.4942 259.371 66.6028C257.744 67.4179 255.951 67.8462 254.132 67.8543Z" fill="#231F20"/>
<path d="M285.669 47.6471C285.669 47.6471 293.812 57.8425 292.243 59.8615C290.675 61.8806 285.769 61.0463 285.769 61.0463" fill="white"/>
<path d="M288.021 62.0641C287.223 62.062 286.425 62.0006 285.635 61.8806C285.418 61.8399 285.225 61.716 285.097 61.5354C284.969 61.3547 284.917 61.1314 284.951 60.9128C284.967 60.8048 285.005 60.7011 285.062 60.6079C285.119 60.5147 285.194 60.4338 285.282 60.37C285.371 60.3062 285.471 60.2609 285.578 60.2366C285.684 60.2123 285.795 60.2096 285.902 60.2286C287.054 60.4289 290.574 60.6792 291.592 59.3609C292.11 58.4432 289.039 53.2037 285.018 48.1811C284.948 48.095 284.895 47.9958 284.864 47.8892C284.833 47.7827 284.823 47.671 284.836 47.5607C284.848 47.4503 284.882 47.3436 284.937 47.2467C284.991 47.1498 285.064 47.0647 285.151 46.9963C285.324 46.8599 285.544 46.7974 285.763 46.8224C285.982 46.8474 286.182 46.9579 286.319 47.1298C288.889 50.3503 294.663 58.0761 292.994 60.3788C292.339 61.0069 291.554 61.4835 290.695 61.7747C289.836 62.066 288.923 62.1648 288.021 62.0641Z" fill="#231F20"/>
<path d="M279.562 43.6662C279.619 42.2758 278.867 41.1158 277.882 41.0752C276.897 41.0346 276.051 42.1288 275.994 43.5192C275.937 44.9095 276.689 46.0696 277.674 46.1102C278.66 46.1508 279.505 45.0566 279.562 43.6662Z" fill="#231F20"/>
<path d="M292.631 43.4894C292.841 42.1139 292.222 40.8778 291.247 40.7287C290.273 40.5795 289.312 41.5737 289.101 42.9493C288.891 44.3248 289.51 45.5608 290.485 45.71C291.46 45.8591 292.421 44.865 292.631 43.4894Z" fill="#231F20"/>
<path d="M292.21 65.5349C292.21 65.5349 274.556 76.2309 271.419 59.8115L292.21 65.5349Z" fill="white"/>
<path d="M281.097 69.7899C279.568 69.8108 278.051 69.5153 276.641 68.9222C273.504 67.5206 271.469 64.517 270.601 59.9617C270.579 59.8541 270.58 59.7433 270.602 59.6359C270.624 59.5284 270.667 59.4265 270.729 59.3362C270.792 59.2459 270.871 59.1691 270.964 59.1102C271.057 59.0514 271.16 59.0118 271.268 58.9938C271.483 58.9544 271.704 59.0004 271.885 59.122C272.066 59.2437 272.192 59.4312 272.236 59.6446C273.004 63.6327 274.706 66.3192 277.325 67.3871C283.149 69.9902 291.692 64.8841 291.776 64.8174C291.966 64.7023 292.194 64.6676 292.41 64.7208C292.626 64.774 292.812 64.9108 292.927 65.1011C293.042 65.2914 293.077 65.5196 293.024 65.7355C292.971 65.9514 292.834 66.1373 292.644 66.2524C289.129 68.3298 285.172 69.5422 281.097 69.7899Z" fill="#231F20"/>
<path d="M284.918 80.1355C284.918 80.1355 274.155 80.319 269.082 77.4656C269.082 77.4656 273.454 89.6967 285.218 92.6002L284.918 80.1355Z" fill="#231F20"/>
<path d="M285.218 93.3844H285.018C272.97 90.3976 268.498 78.2332 268.332 77.7159C268.268 77.5566 268.256 77.3813 268.298 77.2149C268.339 77.0484 268.432 76.8993 268.563 76.7886C268.694 76.6779 268.857 76.6112 269.028 76.5979C269.199 76.5847 269.37 76.6255 269.516 76.7148C274.322 79.4179 284.818 79.2678 284.918 79.2678C285.139 79.2575 285.356 79.3307 285.526 79.4728C285.696 79.6149 285.807 79.8157 285.836 80.0353L286.136 92.5167C286.138 92.6277 286.118 92.738 286.077 92.8411C286.036 92.9443 285.975 93.0383 285.898 93.1175C285.82 93.1968 285.727 93.2597 285.625 93.3027C285.522 93.3456 285.413 93.3678 285.302 93.3677L285.218 93.3844ZM270.818 79.1176C272.487 82.4549 276.725 89.1294 284.451 91.4989L284.167 80.9531C279.651 81.0024 275.153 80.3839 270.818 79.1176Z" fill="#231F20"/>
<path d="M426.118 89.7135C422.998 86.9268 402.757 99.7253 402.757 99.7253C403.625 91.7325 404.676 85.6587 402.757 85.4751C400.838 85.2916 393.029 106.8 393.029 106.8C393.029 106.8 367.132 144.612 365.046 145.663C362.96 146.714 322.879 79.2845 322.879 79.2845C300.086 104.147 317.156 139.072 317.156 139.072C317.156 139.072 359.389 192.251 368.25 191.734C375.408 191.317 399.27 148.616 408.147 132.28C408.147 132.28 414.304 122.269 416.807 118.564C419.31 114.86 427.503 107.101 431.157 102.746C434.812 98.3904 429.338 92.5001 426.118 89.7135Z" fill="white"/>
<path d="M368.133 192.501C358.872 192.501 320.877 144.995 316.555 139.556C316.288 139.055 299.435 103.713 322.329 78.7672C322.409 78.6814 322.508 78.6156 322.618 78.575C322.728 78.5345 322.846 78.5203 322.963 78.5336C323.081 78.542 323.194 78.5801 323.294 78.6443C323.393 78.7084 323.474 78.7967 323.53 78.9007C338.464 103.93 361.391 141.508 365.029 144.829C367.632 142.242 382.583 120.85 392.411 106.45C400.404 84.5073 402.256 84.6575 402.907 84.7576C403.118 84.7748 403.324 84.8355 403.51 84.9361C403.697 85.0366 403.861 85.1747 403.992 85.3416C405.06 86.6599 404.743 89.8636 403.992 96.4214C403.992 97.0221 403.858 97.6395 403.775 98.2736C409.732 94.5525 423.598 86.4096 426.652 89.1128C432.909 94.686 434.711 99.6919 431.758 103.213C430.223 105.048 427.937 107.434 425.517 109.887C422.651 112.725 419.959 115.734 417.458 118.898C414.988 122.485 408.881 132.481 408.814 132.581C396.783 154.707 375.441 191.967 368.3 192.401L368.133 192.501ZM322.762 80.5693C301.621 104.698 317.757 138.404 317.84 138.738C334.526 159.729 361.675 190.983 368.083 190.983H368.199C372.788 190.699 387.839 168.073 407.479 131.913C407.563 131.78 413.686 121.768 416.189 118.13C418.712 114.901 421.431 111.83 424.332 108.936C426.735 106.433 429.005 104.064 430.506 102.262C433.677 98.4905 428.754 93.1342 425.5 90.2808C423.832 88.7957 412.585 94.4023 403.124 100.443C403 100.516 402.859 100.555 402.715 100.555C402.571 100.555 402.43 100.516 402.306 100.443C402.184 100.367 402.085 100.257 402.023 100.127C401.961 99.997 401.938 99.8517 401.956 99.7086C402.089 98.5239 402.223 97.3725 402.34 96.2879C402.79 92.4 403.408 87.1104 402.74 86.3762C401.322 87.6777 397.1 97.773 393.696 107.117C393.699 107.178 393.699 107.24 393.696 107.301C389.341 113.642 367.582 145.329 365.43 146.397C364.495 146.881 363.511 147.382 342.536 113.291C333.725 98.9076 324.965 84.2737 322.762 80.5693Z" fill="#231F20"/>
<path d="M407.863 112.557C407.77 112.579 407.673 112.579 407.579 112.557C407.395 112.479 407.249 112.333 407.171 112.149C407.093 111.966 407.09 111.759 407.162 111.573C409.665 105.299 402.707 100.693 402.423 100.51C402.325 100.463 402.237 100.396 402.166 100.313C402.096 100.23 402.043 100.133 402.013 100.029C401.983 99.924 401.975 99.8141 401.991 99.7063C402.006 99.5984 402.044 99.4951 402.103 99.4032C402.161 99.3113 402.239 99.2328 402.33 99.1732C402.421 99.1135 402.524 99.0739 402.632 99.057C402.739 99.0401 402.849 99.0463 402.954 99.0752C403.059 99.1041 403.157 99.1551 403.241 99.2247C403.324 99.2247 411.584 104.698 408.58 112.14C408.513 112.271 408.41 112.38 408.283 112.454C408.156 112.528 408.01 112.564 407.863 112.557Z" fill="#231F20"/>
<path d="M403.508 179.453H131.437V392.754H403.508V179.453Z" fill="white"/>
<path d="M403.508 393.522H131.52C131.316 393.522 131.121 393.441 130.977 393.297C130.833 393.153 130.752 392.958 130.752 392.754V179.453C130.752 179.353 130.772 179.254 130.811 179.161C130.85 179.069 130.907 178.986 130.978 178.916C131.05 178.846 131.135 178.791 131.228 178.754C131.321 178.717 131.42 178.7 131.52 178.702H403.508C403.708 178.702 403.901 178.78 404.045 178.921C404.188 179.061 404.271 179.252 404.275 179.453V392.754C404.271 392.957 404.189 393.149 404.046 393.293C403.903 393.436 403.71 393.518 403.508 393.522ZM132.187 392.07H402.74V180.154H132.187V392.07Z" fill="#231F20"/>
<path d="M258.053 336.204L170.983 332.734C170.874 332.729 170.766 332.703 170.667 332.657C170.567 332.612 170.477 332.546 170.403 332.466C170.329 332.385 170.271 332.291 170.233 332.188C170.195 332.085 170.178 331.975 170.182 331.866L172.552 272.412C172.566 272.192 172.661 271.984 172.819 271.828C172.985 271.684 173.199 271.606 173.42 271.611L260.489 275.066C260.709 275.078 260.915 275.176 261.064 275.338C261.214 275.5 261.295 275.713 261.29 275.933L258.887 335.337C258.875 335.553 258.78 335.757 258.62 335.904C258.551 335.99 258.466 336.062 258.368 336.113C258.27 336.165 258.163 336.196 258.053 336.204ZM171.851 331.098L257.252 334.436L259.555 276.634L174.154 273.297L171.851 331.098Z" fill="#D1D3D4"/>
<path d="M270.951 259.08L211.665 257.662C211.445 257.657 211.236 257.567 211.081 257.411C210.931 257.247 210.848 257.033 210.847 256.811L212.232 199.543C212.234 199.433 212.258 199.325 212.302 199.225C212.346 199.125 212.409 199.034 212.488 198.958C212.567 198.882 212.66 198.822 212.762 198.783C212.864 198.743 212.973 198.723 213.083 198.725L272.37 200.144C272.479 200.148 272.587 200.174 272.686 200.22C272.786 200.266 272.876 200.331 272.95 200.412C273.024 200.492 273.082 200.587 273.12 200.69C273.158 200.793 273.175 200.902 273.17 201.011L271.802 258.279C271.794 258.498 271.705 258.706 271.552 258.863C271.383 259.004 271.171 259.081 270.951 259.08ZM212.549 256.01L270.15 257.395L271.485 201.796L213.884 200.427L212.549 256.01Z" fill="#D1D3D4"/>
<path d="M329.787 260.498L270.501 259.08C270.391 259.076 270.284 259.05 270.184 259.004C270.084 258.958 269.995 258.893 269.92 258.812C269.846 258.732 269.788 258.637 269.75 258.534C269.713 258.431 269.695 258.322 269.7 258.212L271.068 200.961C271.069 200.852 271.091 200.744 271.134 200.644C271.177 200.544 271.24 200.453 271.318 200.377C271.397 200.299 271.491 200.238 271.594 200.197C271.698 200.157 271.808 200.139 271.919 200.144L331.206 201.562C331.316 201.566 331.424 201.591 331.525 201.637C331.625 201.683 331.715 201.748 331.79 201.829C331.866 201.905 331.924 201.997 331.962 202.098C331.999 202.198 332.015 202.306 332.007 202.413L330.639 259.681C330.63 259.901 330.536 260.109 330.378 260.261C330.219 260.413 330.008 260.498 329.787 260.498ZM271.385 257.428L328.987 258.813L330.321 203.214L272.703 201.846L271.385 257.428Z" fill="#D1D3D4"/>
<path d="M261.29 249.018L226.249 248.184C226.027 248.184 225.815 248.096 225.659 247.939C225.502 247.783 225.414 247.571 225.414 247.35C225.414 247.128 225.502 246.916 225.659 246.76C225.815 246.603 226.027 246.515 226.249 246.515L261.29 247.35C261.51 247.358 261.718 247.452 261.87 247.61C262.023 247.769 262.108 247.98 262.108 248.201C262.103 248.416 262.016 248.622 261.863 248.774C261.711 248.926 261.505 249.014 261.29 249.018Z" fill="#D1D3D4"/>
<path d="M261.523 239.34L226.482 238.489C226.372 238.489 226.263 238.467 226.161 238.424C226.06 238.381 225.968 238.317 225.892 238.238C225.815 238.158 225.756 238.064 225.717 237.961C225.678 237.858 225.66 237.748 225.664 237.638C225.667 237.528 225.69 237.42 225.734 237.32C225.778 237.22 225.842 237.129 225.921 237.053C226 236.977 226.093 236.917 226.195 236.877C226.297 236.838 226.406 236.818 226.515 236.82L261.557 237.671C261.778 237.671 261.99 237.759 262.147 237.916C262.303 238.072 262.391 238.284 262.391 238.506C262.391 238.727 262.303 238.939 262.147 239.096C261.99 239.252 261.778 239.34 261.557 239.34H261.523Z" fill="#D1D3D4"/>
<path d="M261.757 229.645L226.716 228.811C226.606 228.809 226.498 228.785 226.398 228.741C226.297 228.697 226.207 228.634 226.131 228.555C226.055 228.476 225.995 228.383 225.955 228.281C225.915 228.178 225.896 228.07 225.898 227.96C225.915 227.743 226.01 227.539 226.167 227.388C226.324 227.238 226.532 227.15 226.749 227.142L261.791 227.977C262.012 227.989 262.22 228.086 262.372 228.248C262.524 228.409 262.609 228.623 262.608 228.844C262.6 229.063 262.506 229.269 262.346 229.419C262.187 229.568 261.976 229.65 261.757 229.645Z" fill="#D1D3D4"/>
<path d="M261.974 219.967L226.933 219.116C226.823 219.116 226.713 219.094 226.612 219.051C226.511 219.008 226.419 218.944 226.343 218.865C226.266 218.785 226.207 218.691 226.168 218.588C226.128 218.485 226.111 218.375 226.115 218.265C226.135 218.049 226.232 217.848 226.388 217.698C226.545 217.547 226.75 217.459 226.966 217.448L262.008 218.299C262.116 218.301 262.224 218.324 262.323 218.369C262.423 218.413 262.512 218.476 262.587 218.556C262.662 218.635 262.72 218.728 262.758 218.83C262.796 218.932 262.813 219.041 262.808 219.15C262.804 219.368 262.714 219.576 262.558 219.729C262.402 219.882 262.193 219.967 261.974 219.967Z" fill="#D1D3D4"/>
<path d="M262.208 210.272L227.166 209.438C226.948 209.429 226.742 209.335 226.592 209.176C226.442 209.017 226.361 208.806 226.365 208.587C226.382 208.37 226.478 208.166 226.635 208.016C226.792 207.865 226.999 207.777 227.216 207.769L262.258 208.604C262.367 208.608 262.475 208.634 262.575 208.68C262.674 208.726 262.764 208.791 262.838 208.872C262.913 208.952 262.97 209.047 263.008 209.15C263.046 209.252 263.063 209.362 263.059 209.471C263.057 209.58 263.033 209.688 262.989 209.787C262.944 209.887 262.881 209.976 262.802 210.051C262.722 210.125 262.629 210.184 262.527 210.222C262.425 210.26 262.316 210.277 262.208 210.272Z" fill="#D1D3D4"/>
<path d="M317.923 221.302L282.882 220.468C282.772 220.466 282.664 220.442 282.564 220.398C282.464 220.354 282.373 220.291 282.297 220.212C282.221 220.133 282.161 220.039 282.121 219.937C282.082 219.835 282.062 219.726 282.064 219.617C282.062 219.506 282.082 219.396 282.125 219.293C282.167 219.19 282.23 219.098 282.31 219.021C282.39 218.944 282.485 218.885 282.59 218.846C282.694 218.808 282.805 218.792 282.915 218.799L317.957 219.633C318.175 219.642 318.381 219.736 318.531 219.895C318.681 220.054 318.762 220.266 318.758 220.484C318.758 220.593 318.736 220.701 318.694 220.801C318.652 220.902 318.59 220.992 318.512 221.069C318.435 221.145 318.343 221.205 318.241 221.245C318.14 221.285 318.032 221.304 317.923 221.302Z" fill="#D1D3D4"/>
<path d="M318.157 211.624L283.116 210.773C283.007 210.771 282.899 210.747 282.8 210.703C282.7 210.659 282.611 210.595 282.536 210.516C282.462 210.437 282.404 210.343 282.366 210.241C282.327 210.139 282.31 210.031 282.315 209.922C282.317 209.812 282.341 209.704 282.384 209.604C282.428 209.504 282.492 209.413 282.571 209.337C282.65 209.261 282.743 209.201 282.845 209.161C282.947 209.122 283.056 209.102 283.166 209.104L318.207 209.955C318.428 209.955 318.641 210.043 318.797 210.2C318.953 210.356 319.041 210.568 319.041 210.79C319.041 211.011 318.953 211.223 318.797 211.38C318.641 211.536 318.428 211.624 318.207 211.624H318.157Z" fill="#D1D3D4"/>
<path d="M317.173 252.706L281.147 251.905C280.924 251.896 280.713 251.8 280.561 251.638C280.408 251.476 280.324 251.26 280.329 251.037L280.88 228.344C280.885 228.124 280.974 227.915 281.13 227.76C281.295 227.61 281.508 227.527 281.731 227.526L317.74 228.394C317.849 228.396 317.957 228.42 318.058 228.464C318.158 228.508 318.249 228.571 318.325 228.65C318.401 228.729 318.461 228.822 318.5 228.924C318.54 229.026 318.56 229.135 318.557 229.245L318.007 251.905C317.999 252.124 317.909 252.332 317.757 252.489C317.592 252.626 317.386 252.702 317.173 252.706ZM282.014 250.236L316.355 251.054L316.872 230.029L282.532 229.195L282.014 250.236Z" fill="#D1D3D4"/>
<path d="M228.334 81.704C228.334 81.704 181.696 137.637 175.706 156.442C169.715 175.248 213.917 234.217 213.917 234.217C213.917 234.217 228.334 252.973 235.226 248.985C242.117 244.997 235.226 224.306 235.226 224.306C235.226 224.306 247.357 231.197 244.737 225.557C242.117 219.917 226.132 215.295 226.132 215.295L206.392 156.275L222.427 136.402" fill="white"/>
<path d="M233.09 250.236C225.615 250.236 214.735 236.37 213.367 234.601C211.548 232.182 169.031 175.081 174.988 156.175C180.945 137.27 225.815 83.5228 227.717 81.2368C227.778 81.1484 227.856 81.0736 227.948 81.0174C228.039 80.9612 228.141 80.9247 228.247 80.9103C228.353 80.8959 228.461 80.9039 228.564 80.9338C228.667 80.9637 228.763 81.0149 228.845 81.084C228.927 81.1531 228.993 81.2386 229.04 81.335C229.087 81.4314 229.113 81.5365 229.117 81.6437C229.121 81.7508 229.102 81.8576 229.062 81.957C229.022 82.0565 228.962 82.1465 228.885 82.2213C228.418 82.7719 182.28 138.204 176.44 156.626C170.6 175.047 214.118 233.133 214.552 233.717C218.439 238.723 229.686 251.304 234.859 248.284C240.032 245.264 236.377 230.096 234.508 224.523C234.463 224.374 234.463 224.216 234.507 224.067C234.552 223.919 234.639 223.787 234.759 223.688C234.876 223.591 235.02 223.532 235.172 223.517C235.323 223.502 235.476 223.533 235.61 223.605C239.548 225.841 243.719 227.426 244.353 226.942C244.353 226.942 244.437 226.675 244.053 225.874C242.034 221.502 230.287 217.281 225.932 216.012C225.815 215.98 225.708 215.918 225.62 215.834C225.533 215.749 225.468 215.644 225.431 215.529L205.741 156.526C205.701 156.405 205.692 156.275 205.715 156.15C205.738 156.024 205.793 155.906 205.875 155.808L221.793 135.935C221.855 135.856 221.932 135.79 222.02 135.742C222.107 135.693 222.203 135.662 222.303 135.651C222.402 135.641 222.503 135.65 222.599 135.678C222.695 135.707 222.784 135.754 222.861 135.818C223.017 135.945 223.116 136.128 223.138 136.328C223.16 136.528 223.102 136.728 222.978 136.886L207.326 156.425L226.799 214.678C229.336 215.445 242.952 219.8 245.488 225.24C246.089 226.542 246.072 227.493 245.488 228.077C244.053 229.395 239.598 227.426 236.628 225.874C238.163 231.13 241.884 246.065 235.727 249.635C234.919 250.074 234.007 250.282 233.09 250.236Z" fill="#231F20"/>
<path d="M142.633 129.861C142.633 129.861 140.648 116.128 129.568 112.691C118.488 109.253 86.5838 109.887 83.1965 134.383C79.8092 158.878 91.8234 176.366 101.852 181.522L126.331 179.002L142.633 129.861Z" fill="white"/>
<path d="M101.852 182.406C101.725 182.431 101.595 182.431 101.468 182.406C92.1905 177.634 78.7913 160.38 82.3789 134.4C82.7993 130.711 84.0604 127.169 86.0651 124.044C88.0699 120.92 90.7649 118.297 93.9426 116.378C105.239 109.203 122.076 109.453 129.885 111.89C141.332 115.461 143.434 129.16 143.518 129.744C143.55 129.87 143.55 130.002 143.518 130.128L127.215 179.319C127.165 179.471 127.072 179.605 126.948 179.706C126.824 179.806 126.673 179.869 126.514 179.887L102.035 182.406H101.852ZM117.654 111.99C110.195 111.99 101.468 113.525 94.7769 117.78C91.8395 119.566 89.346 121.997 87.4845 124.887C85.6231 127.778 84.4422 131.053 84.0309 134.466C80.5935 159.379 93.1583 175.915 102.019 180.637L125.647 178.285L141.716 129.794C141.432 128.125 139.012 116.445 129.284 113.492C125.499 112.438 121.582 111.933 117.654 111.99Z" fill="#231F20"/>
<path d="M126.497 135.234L128.65 148.066C128.65 148.066 123.828 138.304 119.072 146.681C114.316 155.057 127.983 166.037 127.983 166.037L125.129 177.918L99.8994 180.437L96.5621 205.467C96.5621 205.467 134.006 210.923 133.389 209.972C133.172 209.655 135.925 185.26 135.925 185.26C135.925 185.26 142.767 188.013 146.571 177.133C150.376 166.254 142.683 129.794 142.683 129.794L126.497 135.234Z" fill="white"/>
<path d="M132.521 210.906C129.751 210.906 121.592 210.022 96.3953 206.351C96.1795 206.318 95.9852 206.202 95.8541 206.027C95.7231 205.852 95.6658 205.633 95.6945 205.417L99.0318 180.387C99.0538 180.202 99.1387 180.029 99.2722 179.899C99.4058 179.768 99.58 179.687 99.766 179.67L124.412 177.217L127.015 166.421C124.662 164.435 113.666 154.473 118.288 146.397C119.756 143.811 121.508 142.542 123.294 142.592C124.044 142.669 124.771 142.895 125.433 143.256C126.094 143.617 126.678 144.106 127.148 144.695L125.613 135.517C125.579 135.322 125.615 135.12 125.716 134.949C125.817 134.777 125.976 134.648 126.164 134.583L142.3 129.21C142.406 129.157 142.523 129.13 142.642 129.13C142.76 129.13 142.877 129.157 142.984 129.21C143.085 129.269 143.172 129.349 143.241 129.444C143.31 129.538 143.359 129.646 143.384 129.761C143.701 131.246 151.077 166.471 147.239 177.534C145.754 181.805 143.601 184.609 140.881 185.877C139.52 186.501 138.003 186.705 136.526 186.461C135.491 195.655 134.073 208.804 134.09 210.005C134.128 210.219 134.086 210.438 133.973 210.623C133.99 210.706 133.806 210.906 132.521 210.906ZM97.4799 204.833C109.911 206.635 128.9 209.221 132.521 209.321C132.521 207.336 133.139 201.762 135.008 185.226C135.025 185.1 135.07 184.98 135.139 184.873C135.208 184.766 135.3 184.676 135.408 184.609C135.522 184.551 135.648 184.522 135.775 184.522C135.903 184.522 136.028 184.551 136.142 184.609C137.498 185.039 138.968 184.932 140.247 184.308C142.533 183.257 144.369 180.788 145.704 176.983C149.041 167.388 143.117 136.719 141.966 131.012L127.399 135.868L129.451 147.999C129.48 148.195 129.438 148.394 129.333 148.562C129.229 148.73 129.068 148.855 128.879 148.915C128.691 148.975 128.487 148.966 128.305 148.89C128.122 148.814 127.972 148.676 127.882 148.499C127.298 147.315 125.329 144.244 123.277 144.194C122.076 144.194 120.891 145.146 119.756 147.165C115.401 154.824 128.35 165.353 128.483 165.52C128.608 165.618 128.702 165.751 128.752 165.903C128.803 166.054 128.808 166.216 128.767 166.371L125.914 178.251C125.87 178.419 125.777 178.57 125.646 178.683C125.514 178.796 125.352 178.867 125.179 178.885L100.617 181.205L97.4799 204.833Z" fill="#231F20"/>
<path d="M143.785 148.933C143.785 148.933 153.363 161.398 151.928 163.284C150.493 165.169 145.553 165.236 145.553 165.236" fill="white"/>
<path d="M145.553 166.07C145.335 166.07 145.125 165.985 144.969 165.832C144.813 165.679 144.723 165.471 144.719 165.253C144.723 165.034 144.809 164.825 144.961 164.667C145.113 164.509 145.318 164.414 145.537 164.402C147.205 164.402 150.392 163.901 151.26 162.733C151.577 161.565 147.322 154.874 143.117 149.384C142.989 149.205 142.934 148.984 142.965 148.766C142.996 148.548 143.111 148.351 143.284 148.216C143.462 148.089 143.681 148.035 143.897 148.062C144.114 148.09 144.312 148.199 144.452 148.366C148.991 154.29 154.097 161.715 152.578 163.734C151.06 165.753 146.121 166.02 145.57 166.02L145.553 166.07Z" fill="#231F20"/>
<path d="M138.401 147.82C139.072 147.653 139.227 145.952 138.746 144.02C138.266 142.088 137.333 140.658 136.662 140.824C135.992 140.991 135.837 142.692 136.317 144.624C136.797 146.556 137.731 147.987 138.401 147.82Z" fill="#231F20"/>
<path d="M144.218 177.684C143.96 177.688 143.702 177.66 143.451 177.601C140.898 176.983 140.848 171.627 140.898 170.008C140.9 169.884 140.932 169.762 140.99 169.652C141.048 169.542 141.131 169.447 141.232 169.374C141.327 169.294 141.441 169.238 141.563 169.212C141.686 169.186 141.812 169.19 141.932 169.224L147.639 170.592C147.855 170.648 148.04 170.785 148.155 170.975C148.271 171.166 148.307 171.393 148.257 171.61C148.231 171.718 148.185 171.82 148.119 171.909C148.054 171.999 147.972 172.075 147.877 172.132C147.782 172.19 147.677 172.228 147.567 172.244C147.458 172.261 147.346 172.255 147.239 172.228L142.567 171.093C142.567 173.446 143.134 175.798 143.851 175.982C144.028 176.03 144.212 176.042 144.393 176.016C144.573 175.99 144.747 175.927 144.903 175.832C145.595 175.232 146.075 174.424 146.271 173.529C146.295 173.421 146.339 173.32 146.403 173.229C146.466 173.139 146.546 173.062 146.639 173.003C146.732 172.944 146.836 172.904 146.945 172.886C147.053 172.867 147.165 172.87 147.272 172.895C147.484 172.95 147.667 173.085 147.782 173.272C147.897 173.458 147.935 173.682 147.889 173.896C147.606 175.223 146.861 176.405 145.787 177.233C145.318 177.531 144.774 177.688 144.218 177.684Z" fill="#231F20"/>
<path d="M187.87 298.727C187.87 298.727 197.181 306.703 204.273 302.932C211.364 299.161 213.35 295.173 213.35 295.173C213.35 295.173 215.786 305.602 218.456 302.715C218.815 302.341 219.094 301.899 219.278 301.414C219.461 300.929 219.544 300.413 219.522 299.895C219.5 299.377 219.374 298.869 219.151 298.402C218.927 297.935 218.611 297.517 218.222 297.175C218.222 297.175 223.095 304.934 223.545 300.712C223.996 296.491 220.659 292.069 220.659 292.069C220.659 292.069 235.076 302.715 234.408 296.291C233.741 289.866 221.059 281.657 211.581 281.657C202.103 281.657 184.316 286.763 184.316 286.763" fill="white"/>
<path d="M200.018 304.784C193.744 304.784 187.636 299.628 187.319 299.361C187.154 299.213 187.052 299.007 187.037 298.786C187.021 298.564 187.093 298.346 187.236 298.176C187.312 298.098 187.403 298.037 187.503 297.995C187.603 297.952 187.711 297.931 187.82 297.931C187.929 297.931 188.036 297.952 188.137 297.995C188.237 298.037 188.328 298.098 188.404 298.176C188.504 298.176 197.364 305.735 203.872 302.281C210.38 298.827 212.582 294.922 212.599 294.889C212.679 294.737 212.803 294.612 212.955 294.532C213.107 294.451 213.279 294.419 213.45 294.438C213.621 294.455 213.783 294.526 213.911 294.639C214.04 294.753 214.13 294.905 214.168 295.073C214.952 298.41 216.454 302.198 217.505 302.465C217.505 302.465 217.722 302.465 217.889 302.231C218.286 301.864 218.567 301.389 218.698 300.864C218.828 300.339 218.802 299.788 218.623 299.277C218.239 298.727 217.872 298.176 217.572 297.609C217.471 297.438 217.435 297.237 217.469 297.042C217.503 296.847 217.606 296.67 217.758 296.543C217.911 296.417 218.103 296.349 218.302 296.352C218.5 296.354 218.691 296.427 218.84 296.558C219.379 297.064 219.805 297.678 220.091 298.36C220.777 299.424 221.654 300.352 222.678 301.096C222.7 300.941 222.7 300.784 222.678 300.629C223.078 296.808 219.991 292.62 219.958 292.57C219.836 292.41 219.778 292.211 219.793 292.011C219.808 291.811 219.897 291.624 220.041 291.485C220.184 291.347 220.37 291.263 220.568 291.247C220.767 291.232 220.964 291.287 221.126 291.402C225.881 294.922 231.889 298.226 233.307 297.409C233.574 297.258 233.591 296.758 233.541 296.374C232.906 290.284 220.575 282.491 211.548 282.491C202.237 282.491 184.7 287.497 184.516 287.497C184.301 287.554 184.073 287.524 183.88 287.415C183.687 287.306 183.544 287.126 183.481 286.913C183.424 286.703 183.452 286.479 183.558 286.288C183.664 286.098 183.84 285.957 184.049 285.895C184.783 285.678 202.003 280.756 211.548 280.756C221.443 280.756 234.492 289.232 235.192 296.14C235.313 296.637 235.277 297.159 235.089 297.634C234.901 298.109 234.569 298.515 234.141 298.794C231.939 300.045 226.766 297.125 223.178 294.806C224.068 296.653 224.47 298.699 224.346 300.746C224.23 301.864 223.779 302.531 223.045 302.698C222.311 302.865 221.193 302.198 220.225 301.196C219.983 301.952 219.572 302.643 219.023 303.215C218.789 303.517 218.471 303.744 218.11 303.869C217.748 303.993 217.358 304.01 216.988 303.916C215.102 303.416 213.65 299.628 212.966 297.092C210.65 299.798 207.812 302.011 204.623 303.599C203.21 304.37 201.627 304.778 200.018 304.784Z" fill="#231F20"/>
<path d="M131.437 363.703C131.437 363.703 131.437 331.766 133.389 296.524C135.341 261.283 148.64 247.166 137.344 212.592C126.047 178.018 93.3585 182.356 77.1393 195.805C44.1504 223.154 13.7312 306.669 30.9682 365.856C30.9682 365.773 68.6627 381.725 131.437 363.703Z" fill="#0055FF"/>
<path d="M97.2796 221.602C97.2796 223.371 79.1082 309.356 91.0723 317.332C103.036 325.308 190.79 307.153 190.79 307.153L189.906 283.208L138.044 277.452C138.044 277.452 152.678 212.375 126.981 195.038C101.284 177.701 97.2796 221.602 97.2796 221.602Z" fill="#0055FF"/>
<path d="M105.072 322.305C95.511 322.305 86.0832 320.202 82.2954 312.843C73.8355 296.357 96.7625 209.138 97.747 205.433C97.7744 205.324 97.8231 205.221 97.8903 205.13C97.9576 205.039 98.042 204.963 98.1389 204.904C98.2357 204.846 98.343 204.808 98.4547 204.791C98.5665 204.775 98.6803 204.78 98.7899 204.808C98.8995 204.835 99.0026 204.884 99.0933 204.951C99.1841 205.018 99.2607 205.103 99.3188 205.199C99.3769 205.296 99.4153 205.404 99.432 205.515C99.4486 205.627 99.443 205.741 99.4156 205.85C99.1654 206.752 75.6543 296.157 83.8306 312.076C91.84 327.694 129.902 317.082 130.285 316.982C130.507 316.92 130.744 316.948 130.944 317.061C131.144 317.173 131.291 317.361 131.353 317.582C131.415 317.804 131.387 318.04 131.274 318.241C131.162 318.441 130.974 318.588 130.753 318.65C122.374 320.915 113.75 322.142 105.072 322.305Z" fill="#231F20"/>
<path d="M137.994 278.286C135.808 278.203 124.896 277.619 123.911 273.664C123.01 270.06 134.841 235.285 137.26 228.427C137.331 228.217 137.482 228.043 137.681 227.945C137.88 227.846 138.11 227.831 138.32 227.902C138.53 227.972 138.703 228.124 138.802 228.322C138.901 228.521 138.916 228.751 138.845 228.961C133.389 244.813 124.962 270.844 125.496 273.263C125.997 275.282 133.122 276.434 138.011 276.601C138.232 276.601 138.444 276.689 138.601 276.845C138.757 277.001 138.845 277.214 138.845 277.435C138.845 277.656 138.757 277.868 138.601 278.025C138.444 278.181 138.232 278.269 138.011 278.269L137.994 278.286Z" fill="#231F20"/>
<path d="M20.2889 227.61C32.7036 228.127 47.9049 228.844 59.2015 229.395C63.694 229.611 67.9582 231.439 71.2127 234.543C74.4673 237.648 76.4943 241.821 76.9224 246.298L86.2501 342.328H131.437V380.223L16.4845 376.786L0.932759 248.568C0.609302 245.874 0.874486 243.143 1.70999 240.562C2.54549 237.981 3.93138 235.612 5.7719 233.619C7.61242 231.627 9.86368 230.057 12.3701 229.02C14.8765 227.982 17.5784 227.501 20.2889 227.61Z" fill="#231F20"/>
<path d="M131.437 381.057L16.4844 377.603C16.2867 377.601 16.0966 377.527 15.9493 377.395C15.8021 377.263 15.7076 377.082 15.6834 376.886L0.13173 248.701C-0.195451 245.895 0.0885858 243.052 0.964329 240.366C1.84007 237.681 3.28677 235.216 5.20505 233.143C7.12333 231.069 9.46773 229.435 12.0772 228.353C14.6867 227.271 17.4994 226.767 20.3222 226.875C32.9371 227.393 48.4554 228.127 59.2348 228.644C63.9201 228.895 68.3616 230.811 71.758 234.049C75.1543 237.286 77.2818 241.63 77.7567 246.298L87.0009 341.577H131.437C131.545 341.577 131.653 341.599 131.753 341.641C131.854 341.683 131.945 341.745 132.021 341.823C132.097 341.9 132.157 341.993 132.197 342.094C132.237 342.195 132.257 342.303 132.254 342.412V380.223C132.257 380.335 132.236 380.446 132.193 380.55C132.15 380.653 132.085 380.747 132.004 380.824C131.852 380.972 131.649 381.056 131.437 381.057ZM17.2186 376.051L130.602 379.389V343.179H86.25C86.0454 343.176 85.849 343.098 85.6982 342.96C85.5474 342.821 85.4529 342.632 85.4324 342.428L76.1047 246.398C75.6804 242.122 73.7392 238.139 70.6326 235.17C67.5259 232.201 63.4591 230.443 59.1681 230.213C48.372 229.679 32.8704 228.944 20.2555 228.427C17.6648 228.322 15.0822 228.78 12.6862 229.771C10.2901 230.761 8.13778 232.261 6.37803 234.165C4.61828 236.069 3.29308 238.333 2.49407 240.799C1.69505 243.266 1.44128 245.877 1.75031 248.451L17.2186 376.051Z" fill="#231F20"/>
<path d="M417.324 202.013C399.703 208.27 342.235 299.411 352.247 315.663C362.259 331.916 404.309 322.555 404.309 322.555L403.524 351.873L511.986 350.087C511.986 350.087 536.398 242.827 520.329 215.629C504.193 188.747 434.928 195.739 417.324 202.013Z" fill="#0055FF"/>
<path d="M515.19 227.593C502.525 228.11 486.823 228.844 475.259 229.412C470.886 229.624 466.736 231.404 463.568 234.425C460.4 237.446 458.425 241.507 458.005 245.864L448.644 342.328H403.458V380.223L518.41 376.786L534.029 248.017C534.347 245.394 534.092 242.732 533.281 240.217C532.47 237.702 531.122 235.393 529.33 233.451C527.538 231.508 525.345 229.978 522.904 228.967C520.462 227.955 517.83 227.486 515.19 227.593Z" fill="#231F20"/>
<path d="M403.458 381.057C403.245 381.056 403.042 380.972 402.89 380.824C402.809 380.747 402.745 380.653 402.702 380.55C402.658 380.446 402.637 380.335 402.64 380.223V342.328C402.638 342.219 402.657 342.111 402.698 342.01C402.738 341.909 402.797 341.817 402.874 341.739C402.95 341.662 403.041 341.6 403.141 341.558C403.241 341.516 403.349 341.494 403.458 341.494H447.894L457.171 245.798C457.63 241.242 459.701 236.999 463.011 233.836C466.322 230.672 470.654 228.795 475.226 228.544C486.406 228.01 502.408 227.242 515.156 226.725C517.917 226.616 520.669 227.107 523.222 228.166C525.774 229.224 528.067 230.824 529.941 232.855C531.814 234.886 533.225 237.299 534.075 239.928C534.925 242.558 535.193 245.34 534.863 248.084L519.244 376.852C519.22 377.049 519.126 377.229 518.978 377.361C518.831 377.493 518.641 377.567 518.443 377.57L403.491 381.024L403.458 381.057ZM404.292 343.163V379.372L517.676 376.035L533.211 247.984C533.518 245.479 533.277 242.937 532.503 240.535C531.729 238.133 530.442 235.928 528.73 234.073C527.019 232.219 524.924 230.759 522.591 229.796C520.259 228.832 517.744 228.388 515.223 228.494C502.491 229.011 486.489 229.762 475.309 230.313C471.141 230.537 467.191 232.242 464.168 235.121C461.146 238 459.25 241.863 458.823 246.015L449.462 342.478C449.442 342.682 449.347 342.871 449.196 343.01C449.045 343.148 448.849 343.226 448.644 343.229L404.292 343.163Z" fill="#231F20"/>
<path d="M404.309 323.389C404.199 323.377 404.093 323.343 403.996 323.289C403.899 323.235 403.814 323.163 403.746 323.076C403.678 322.989 403.627 322.889 403.598 322.782C403.569 322.676 403.561 322.564 403.575 322.455C404.259 316.414 411.484 249.569 411.551 248.901C411.575 248.68 411.686 248.477 411.86 248.338C412.034 248.199 412.255 248.134 412.477 248.159C412.698 248.183 412.901 248.294 413.04 248.468C413.179 248.642 413.244 248.864 413.219 249.085C413.136 249.752 405.927 316.598 405.226 322.655C405.197 322.872 405.086 323.069 404.915 323.206C404.744 323.343 404.527 323.408 404.309 323.389Z" fill="#231F20"/>
<path d="M434.611 159.296C434.276 157.769 434.334 156.183 434.78 154.685C435.227 153.188 436.047 151.829 437.164 150.735C437.754 150.093 438.552 149.679 439.417 149.567C439.928 149.567 440.431 149.695 440.88 149.94C441.329 150.185 441.71 150.539 441.986 150.969C442.527 151.834 442.89 152.799 443.054 153.806C443.717 156.539 443.808 159.379 443.321 162.149C442.825 164.956 441.361 167.501 439.183 169.341" fill="white"/>
<path d="M439.183 170.242C439.057 170.245 438.932 170.218 438.819 170.163C438.706 170.108 438.608 170.026 438.533 169.925C438.394 169.754 438.329 169.535 438.351 169.317C438.373 169.098 438.48 168.897 438.649 168.757C440.682 167.057 442.048 164.693 442.504 162.082C442.98 159.402 442.895 156.652 442.254 154.006C442.101 153.113 441.778 152.257 441.302 151.486C441.107 151.173 440.837 150.913 440.517 150.73C440.197 150.547 439.836 150.445 439.467 150.435C438.817 150.539 438.226 150.87 437.798 151.37C436.779 152.359 436.029 153.593 435.621 154.954C435.212 156.315 435.157 157.758 435.462 159.145C435.489 159.251 435.495 159.36 435.478 159.468C435.461 159.575 435.423 159.678 435.365 159.77C435.307 159.862 435.231 159.942 435.142 160.004C435.053 160.065 434.951 160.108 434.845 160.13C434.63 160.18 434.405 160.143 434.217 160.028C434.029 159.912 433.895 159.727 433.844 159.512C433.475 157.845 433.539 156.111 434.03 154.476C434.521 152.84 435.422 151.357 436.647 150.168C437.375 149.388 438.357 148.891 439.417 148.766C440.069 148.741 440.716 148.88 441.3 149.172C441.883 149.464 442.384 149.898 442.754 150.435C443.369 151.387 443.784 152.455 443.972 153.572C444.669 156.442 444.76 159.426 444.239 162.333C443.704 165.332 442.133 168.048 439.801 170.008C439.72 170.088 439.623 170.15 439.517 170.19C439.41 170.23 439.297 170.248 439.183 170.242Z" fill="#231F20"/>
<path d="M464.113 122.936C465.689 127.688 468.582 131.895 472.456 135.067C476.765 138.91 482.302 141.093 488.074 141.224C492.58 141.224 497.669 138.705 498.403 134.249C498.904 131.279 497.319 128.359 495.533 125.906C490.148 118.336 482.372 112.8 473.457 110.188C470.754 109.487 466.966 108.769 464.747 110.972C462.01 113.792 463.078 119.632 464.113 122.936Z" fill="#231F20"/>
<path d="M487.874 142.059C481.998 141.864 476.376 139.614 471.989 135.701C467.961 132.443 464.95 128.101 463.312 123.186C462.644 121.067 460.742 113.875 464.23 110.405C466.682 107.968 470.587 108.586 473.741 109.403C482.832 112.078 490.767 117.717 496.284 125.422C497.853 127.591 499.888 130.862 499.288 134.4C498.47 139.405 493.064 141.992 488.141 142.059H487.874ZM469.035 110.354C468.376 110.313 467.716 110.402 467.091 110.617C466.467 110.832 465.891 111.168 465.398 111.606C463.162 113.842 463.729 118.798 464.897 122.702C466.459 127.288 469.288 131.338 473.057 134.383C477.202 138.08 482.522 140.19 488.074 140.34C492.196 140.34 496.935 138.071 497.602 134.066C497.969 131.863 497.118 129.41 494.882 126.357C489.594 118.961 481.99 113.541 473.274 110.955C471.891 110.578 470.468 110.371 469.035 110.338V110.354Z" fill="#231F20"/>
<path d="M511.684 127.745C517.933 116.923 513.131 102.454 500.96 95.4268C488.789 88.3999 473.858 91.4766 467.61 102.299C461.361 113.121 466.163 127.591 478.334 134.617C490.505 141.644 505.436 138.568 511.684 127.745Z" fill="white"/>
<path d="M492.096 139.239C487.109 139.206 482.219 137.865 477.912 135.351C471.98 132 467.48 126.592 465.264 120.149C464.226 117.163 463.838 113.99 464.126 110.842C464.413 107.693 465.37 104.643 466.933 101.894C473.407 90.6979 488.875 87.4775 501.423 94.7193C513.972 101.961 518.911 116.962 512.453 128.092C510.846 130.817 508.674 133.166 506.084 134.982C503.494 136.798 500.545 138.039 497.435 138.621C495.681 139.006 493.892 139.213 492.096 139.239ZM487.173 92.5167C483.407 92.4056 479.679 93.2934 476.367 95.09C473.055 96.8865 470.278 99.5279 468.318 102.745C466.878 105.294 466.002 108.122 465.748 111.038C465.495 113.954 465.871 116.89 466.849 119.649C468.989 125.671 473.204 130.734 478.739 133.93C484.274 137.125 490.766 138.244 497.052 137.086C499.928 136.55 502.657 135.405 505.055 133.727C507.452 132.049 509.463 129.877 510.951 127.358C516.975 116.946 512.303 102.946 500.539 96.171C496.485 93.792 491.874 92.5257 487.173 92.5001V92.5167Z" fill="#231F20"/>
<path d="M365.096 368.96H291.893C291.672 368.96 291.459 368.872 291.303 368.715C291.146 368.559 291.058 368.347 291.058 368.125V325.725C291.058 325.504 291.146 325.292 291.303 325.135C291.459 324.979 291.672 324.891 291.893 324.891H365.096C365.317 324.891 365.529 324.979 365.686 325.135C365.842 325.292 365.93 325.504 365.93 325.725V368.125C365.93 368.347 365.842 368.559 365.686 368.715C365.529 368.872 365.317 368.96 365.096 368.96ZM292.727 367.291H364.262V326.56H292.727V367.291Z" fill="#D1D3D4"/>
<path d="M365.096 376.469H291.893C291.672 376.469 291.459 376.381 291.303 376.224C291.146 376.068 291.058 375.855 291.058 375.634V368.125C291.058 367.904 291.146 367.692 291.303 367.535C291.459 367.379 291.672 367.291 291.893 367.291H365.096C365.317 367.291 365.529 367.379 365.686 367.535C365.842 367.692 365.93 367.904 365.93 368.125V375.634C365.93 375.855 365.842 376.068 365.686 376.224C365.529 376.381 365.317 376.469 365.096 376.469ZM292.727 374.8H364.262V368.96H292.727V374.8Z" fill="#D1D3D4"/>
<path d="M313.101 360.366H300.853C300.632 360.366 300.42 360.278 300.263 360.122C300.107 359.965 300.019 359.753 300.019 359.532V332.934C300.019 332.713 300.107 332.5 300.263 332.344C300.42 332.187 300.632 332.1 300.853 332.1H313.118C313.339 332.1 313.551 332.187 313.708 332.344C313.864 332.5 313.952 332.713 313.952 332.934V359.549C313.95 359.658 313.926 359.766 313.882 359.867C313.838 359.967 313.775 360.058 313.696 360.134C313.617 360.21 313.524 360.269 313.422 360.309C313.32 360.349 313.211 360.368 313.101 360.366ZM301.671 358.698H312.267V333.768H301.671V358.698Z" fill="#D1D3D4"/>
<path d="M322.813 304.784H295.847C295.627 304.78 295.418 304.69 295.262 304.535C295.107 304.379 295.017 304.17 295.013 303.95V285.778C295.013 285.557 295.101 285.345 295.257 285.188C295.414 285.032 295.626 284.944 295.847 284.944H322.796C323.017 284.944 323.229 285.032 323.386 285.188C323.542 285.345 323.63 285.557 323.63 285.778V303.95C323.626 304.167 323.539 304.374 323.387 304.529C323.235 304.684 323.03 304.775 322.813 304.784ZM296.698 303.115H321.978V286.612H296.698V303.115Z" fill="#D1D3D4"/>
</svg>
