<svg width="400" height="379" viewBox="0 0 400 379" fill="none" xmlns="http://www.w3.org/2000/svg">
<path d="M391.561 248.244H288.602V332.13H391.561V248.244Z" fill="white"/>
<path d="M391.561 332.959H288.602C288.386 332.959 288.18 332.874 288.027 332.721C287.875 332.569 287.789 332.362 287.789 332.146V248.244C287.789 248.028 287.875 247.821 288.027 247.669C288.18 247.517 288.386 247.431 288.602 247.431H391.561C391.776 247.435 391.98 247.522 392.132 247.674C392.283 247.825 392.37 248.03 392.374 248.244V332.146C392.37 332.361 392.283 332.565 392.132 332.717C391.98 332.868 391.776 332.955 391.561 332.959ZM289.415 331.333H390.748V249.057H289.431L289.415 331.333Z" fill="#D1D3D4"/>
<path d="M391.561 259.837H288.602C288.386 259.837 288.18 259.752 288.027 259.599C287.875 259.447 287.789 259.24 287.789 259.024C287.789 258.809 287.875 258.602 288.027 258.449C288.18 258.297 288.386 258.211 288.602 258.211H391.561C391.777 258.211 391.984 258.297 392.136 258.449C392.289 258.602 392.374 258.809 392.374 259.024C392.37 259.239 392.283 259.443 392.132 259.595C391.98 259.746 391.776 259.833 391.561 259.837Z" fill="#D1D3D4"/>
<path d="M107.87 91.5122C105.65 91.6615 103.434 91.1565 101.497 90.0597C99.5609 88.9629 97.9883 87.3225 96.9744 85.3413C95.9604 83.3601 95.5496 81.1251 95.7926 78.9129C96.0356 76.7006 96.9218 74.6081 98.3417 72.8943C92.1303 70.0325 88.8457 62.6829 89.301 55.8699C89.7563 49.0569 93.3498 42.8618 97.8376 37.626C101.529 33.3496 106.163 29.4959 111.708 28.439C112.757 28.3345 113.78 28.0484 114.732 27.5935C115.481 27.0668 116.13 26.4117 116.651 25.6585C120.699 20.4878 125.691 15.7398 131.935 13.6585C138.179 11.5772 145.821 12.7642 150 17.8536C152.089 16.0402 154.679 14.9038 157.428 14.5947C160.177 14.2857 162.955 14.8185 165.394 16.1228C167.834 17.4271 169.82 19.4414 171.089 21.8991C172.359 24.3567 172.852 27.1419 172.504 29.8862C176.903 30.5356 181.028 32.4185 184.401 35.3165C187.774 38.2145 190.257 42.009 191.561 46.2602C193.886 54.813 189.935 64.8618 182.049 68.9106C181.138 69.3821 180.049 70 180.082 71.0081C180.171 71.6166 180.443 72.1835 180.862 72.6341C183.399 76.2602 182.13 81.5122 179.236 84.7967C176.342 88.0813 172.016 89.8211 167.854 91.4797C168.78 92.4081 169.397 93.5996 169.621 94.8915C169.845 96.1835 169.665 97.5132 169.106 98.6992C167.9 101.073 166.022 103.041 163.708 104.358C154.667 110.195 143.48 108.374 133.35 108.585C124 108.78 114.716 102.813 108.521 96.0488C107.317 94.7642 106.358 92.4228 107.87 91.5122Z" fill="white"/>
<path d="M144.553 109.512C142.927 109.512 141.301 109.512 139.805 109.512C137.692 109.512 135.48 109.415 133.399 109.512C124.911 109.659 115.513 104.894 107.936 96.7154C107.402 96.1807 106.983 95.5432 106.704 94.8416C106.424 94.1401 106.29 93.3891 106.31 92.6341C106.3 92.5749 106.3 92.5145 106.31 92.4553C104.12 92.3501 102.001 91.6538 100.175 90.4403C98.3504 89.2269 96.8882 87.5416 95.9442 85.5636C95.0003 83.5856 94.6098 81.3889 94.8144 79.2068C95.0191 77.0247 95.811 74.9387 97.1062 73.1707C91.4965 70.0813 88.0005 63.1057 88.4884 55.8211C88.8949 49.5935 91.8379 43.3008 97.2201 37.0894C101.903 31.6911 106.586 28.6016 111.562 27.6423L112.114 27.5447C112.897 27.514 113.659 27.2862 114.329 26.8826C115 26.479 115.558 25.9125 115.952 25.2358C121.057 18.7317 126.179 14.7317 131.675 12.8943C138.456 10.6341 145.887 12.2114 150.098 16.7154C152.315 15.0043 154.979 13.972 157.77 13.7436C160.561 13.5152 163.358 14.1005 165.823 15.4285C168.288 16.7565 170.316 18.7705 171.66 21.2267C173.005 23.6829 173.609 26.4761 173.399 29.2683C177.792 30.0622 181.883 32.0468 185.227 35.0057C188.57 37.9647 191.037 41.7844 192.358 46.0488C194.83 55.1382 190.456 65.561 182.423 69.6423C181.61 70.0488 180.879 70.5041 180.895 70.9919C180.976 71.3293 181.137 71.6418 181.366 71.9024L181.513 72.1138C184.407 76.2114 182.765 81.9512 179.757 85.2683C176.781 88.1888 173.193 90.4105 169.253 91.7724C169.964 92.8378 170.395 94.0663 170.503 95.3431C170.611 96.6199 170.393 97.9033 169.87 99.0732C168.626 101.58 166.661 103.658 164.228 105.041C158.196 108.943 151.366 109.512 144.553 109.512ZM135.204 107.756C136.749 107.756 138.309 107.756 139.838 107.756C147.968 107.919 156.342 108.098 163.285 103.61C165.473 102.391 167.246 100.545 168.375 98.3089C168.879 97.2731 169.048 96.1059 168.859 94.9694C168.67 93.8329 168.131 92.7837 167.318 91.9675C167.211 91.877 167.13 91.7607 167.081 91.6297C167.033 91.4987 167.019 91.3574 167.041 91.2195C167.064 91.0795 167.122 90.9477 167.211 90.8367C167.299 90.7257 167.414 90.6391 167.545 90.5854C171.35 89.0569 175.675 87.3333 178.553 84.0813C181.139 81.2358 182.586 76.3577 180.179 72.9431L180.033 72.7642C179.59 72.2531 179.317 71.6165 179.253 70.9431C179.253 69.3171 180.797 68.5366 181.659 68.0975C189.041 64.2927 193.041 54.7642 190.765 46.374C189.478 42.2963 187.07 38.6633 183.814 35.8911C180.559 33.1189 176.589 31.3196 172.358 30.6992C172.148 30.667 171.959 30.5536 171.831 30.3833C171.703 30.2131 171.647 29.9996 171.675 29.7886C171.995 27.2127 171.528 24.6004 170.337 22.2943C169.146 19.9881 167.286 18.0956 165.001 16.8651C162.715 15.6345 160.111 15.1232 157.53 15.3983C154.949 15.6733 152.512 16.7219 150.537 18.4065C150.455 18.4784 150.36 18.5328 150.257 18.5663C150.153 18.5999 150.044 18.6119 149.936 18.6016C149.828 18.5936 149.724 18.5635 149.628 18.5131C149.533 18.4627 149.45 18.3932 149.383 18.3089C145.724 13.8537 138.651 12.2276 132.212 14.3902C127.025 16.1138 122.147 19.9512 117.301 26.1138C116.727 26.9479 116.005 27.6699 115.171 28.2439C114.313 28.7009 113.374 28.988 112.407 29.0894L111.887 29.187C107.285 30.0813 102.895 32.9919 98.4558 38.0976C93.3176 44.0325 90.5209 50.0163 90.1306 55.8699C89.6591 62.8943 93.1713 69.561 98.6997 72.1301C98.8121 72.1823 98.9114 72.2591 98.9901 72.3548C99.0689 72.4505 99.1253 72.5626 99.155 72.6829C99.181 72.8054 99.1784 72.9322 99.1474 73.0534C99.1164 73.1747 99.0578 73.2872 98.9762 73.3821C97.6353 74.9666 96.7932 76.9124 96.5557 78.9745C96.3183 81.0366 96.6962 83.1228 97.6418 84.9707C98.5874 86.8185 100.059 88.3452 101.87 89.3588C103.681 90.3724 105.752 90.8274 107.822 90.6667C108.007 90.6478 108.193 90.6944 108.347 90.7983C108.502 90.9023 108.615 91.0571 108.667 91.2358C108.722 91.4103 108.717 91.5983 108.652 91.7695C108.587 91.9406 108.467 92.0849 108.309 92.1789C108.209 92.2345 108.124 92.3141 108.061 92.4105C107.999 92.507 107.961 92.6173 107.952 92.7317C107.979 93.7695 108.411 94.7555 109.155 95.4797C116.342 103.317 125.415 107.902 133.366 107.74L135.204 107.756Z" fill="#00194C"/>
<path d="M223.999 329.642C227.723 329.642 255.479 332.65 268.471 339.106C281.463 345.561 284.276 346.065 281.641 354.78C279.007 363.496 256.129 365.642 238.715 362.358C227.498 360.052 216.679 356.119 206.601 350.683L223.999 329.642Z" fill="white"/>
<path d="M255.139 364.683C249.583 364.661 244.041 364.117 238.586 363.057C227.293 360.733 216.399 356.779 206.245 351.317C206.15 351.26 206.069 351.185 206.004 351.095C205.94 351.006 205.895 350.904 205.871 350.797C205.852 350.691 205.857 350.582 205.885 350.478C205.913 350.374 205.964 350.277 206.033 350.195L223.432 329.154C223.496 329.068 223.579 328.998 223.675 328.95C223.771 328.902 223.877 328.877 223.984 328.878H224.147C228.684 328.878 255.789 331.968 268.798 338.423L271.724 339.87C282.147 344.976 284.96 346.374 282.358 354.992C280.716 360.455 270.017 364.683 255.139 364.683ZM207.757 350.455C217.548 355.624 228.02 359.385 238.863 361.626C256.342 364.878 278.521 362.569 280.944 354.569C283.171 347.154 281.562 346.358 271.074 341.22L268.147 339.772C255.741 333.61 229.204 330.472 224.342 330.374L207.757 350.455Z" fill="#00194C"/>
<path d="M227.724 329.561C230.179 330.162 232.316 331.67 233.706 333.781C235.096 335.892 235.637 338.45 235.219 340.943C234 350.195 214.439 350.585 213.317 350.699C212.195 350.813 227.724 329.561 227.724 329.561Z" fill="white"/>
<path d="M213.317 351.219C213.172 351.215 213.03 351.174 212.905 351.1C212.78 351.026 212.676 350.922 212.602 350.797C212.358 350.309 211.967 349.561 227.122 329.057C227.209 328.937 227.33 328.847 227.469 328.798C227.609 328.748 227.76 328.742 227.902 328.78C227.984 328.78 237.252 331.106 236.033 340.911C234.797 350.325 216.976 351.154 213.415 351.219H213.317ZM227.951 330.358C223.187 336.862 216.098 346.618 214.325 349.707C218.78 349.496 233.431 348.244 234.423 340.715C234.805 338.512 234.363 336.246 233.181 334.348C232 332.45 230.161 331.053 228.016 330.423L227.951 330.358Z" fill="#00194C"/>
<path d="M82.7479 350.748C82.1788 351.041 76.8617 357.951 53.6747 360.715C30.4877 363.48 21.8861 368.472 16.7153 356.293C11.5446 344.114 15.0893 336.244 26.4714 332.764C37.8536 329.285 69.382 326.407 75.5609 332.228C81.7397 338.049 82.7479 350.748 82.7479 350.748Z" fill="white"/>
<path d="M28.1626 364.846C22.4228 364.846 18.7317 362.927 16.0325 356.585C13.3333 350.244 12.9268 344.797 14.8943 340.585C16.7155 336.683 20.5529 333.805 26.2764 332.065C36.9756 328.813 69.4797 325.463 76.0813 331.691C82.4065 337.642 83.4146 350.163 83.4634 350.683C83.4709 350.821 83.4417 350.958 83.3789 351.081C83.3161 351.204 83.2218 351.308 83.1057 351.382L82.8781 351.577C76.1951 357.659 63.3659 360.309 53.7398 361.447C48.748 362.049 44.4553 362.748 40.7317 363.366C36.5843 364.169 32.3831 364.663 28.1626 364.846ZM58.1789 329.626C47.0406 329.626 33.5447 331.398 26.748 333.48C21.4146 335.106 17.8699 337.707 16.2439 341.22C14.4553 345.024 14.8455 350 17.3984 356C21.2195 365.024 26.8618 364.13 40.4553 361.902C44.2602 361.285 48.5854 360.585 53.5935 359.984C62.9919 358.862 75.5285 356.293 81.9187 350.472C81.6911 348.341 80.2927 337.821 75.0406 332.813C72.6992 330.504 66.0163 329.626 58.1789 329.626Z" fill="#00194C"/>
<path d="M90.1467 345.772C90.1467 345.772 79.6263 354.553 72.6182 353.512C65.6101 352.472 55.919 348.634 59.8215 341.073C63.7239 333.512 88.8458 328.959 88.8458 328.959L90.1467 345.772Z" fill="white"/>
<path d="M73.8213 354.342C73.3804 354.342 72.9402 354.309 72.5042 354.244C67.2522 353.463 60.9107 351.22 58.8782 347.236C58.3764 346.215 58.1387 345.085 58.187 343.949C58.2353 342.812 58.568 341.706 59.1546 340.732C63.1871 332.894 87.6749 328.423 88.7156 328.228C88.818 328.21 88.9229 328.214 89.0237 328.239C89.1245 328.264 89.2189 328.31 89.3009 328.374C89.3833 328.439 89.4517 328.52 89.502 328.613C89.5523 328.705 89.5835 328.806 89.5936 328.911L90.8944 345.707C90.9034 345.826 90.8846 345.945 90.8394 346.055C90.7943 346.165 90.724 346.263 90.6343 346.342C90.2115 346.683 80.9595 354.342 73.8213 354.342ZM88.179 329.854C83.87 330.699 63.7888 334.976 60.5367 341.415C60.057 342.179 59.7786 343.053 59.7274 343.954C59.6762 344.856 59.854 345.755 60.244 346.569C62.0327 350.033 67.8863 352.049 72.7806 352.781C78.7481 353.675 87.7074 346.813 89.431 345.447L88.179 329.854Z" fill="#00194C"/>
<path d="M216.521 272.016C216.521 272.016 205.431 315.268 164.96 323.528C124.488 331.789 103.545 329.61 89.2037 302.293C74.8622 274.976 84.3257 258.26 84.3257 258.26L212.049 255.724L216.521 272.016Z" fill="#00194C"/>
<path d="M131.578 328.585C112.066 328.585 98.5209 321.789 88.4721 302.667C74.0982 275.268 83.2526 258.553 83.5941 257.854C83.665 257.731 83.7669 257.629 83.8895 257.557C84.0122 257.486 84.1514 257.448 84.2933 257.447L212.017 254.911C212.201 254.901 212.383 254.956 212.531 255.066C212.679 255.176 212.785 255.333 212.83 255.512L217.253 271.772C217.285 271.911 217.285 272.056 217.253 272.195C217.139 272.634 205.578 316.098 165.057 324.309C152.261 326.959 141.188 328.585 131.578 328.585ZM84.8624 259.057C83.5941 261.74 77.1876 277.642 89.9193 301.919C104.472 329.561 125.692 330.732 164.716 322.732C202.814 314.959 214.7 275.203 215.594 272.016L211.383 256.553L84.8624 259.057Z" fill="#00194C"/>
<path d="M74.7967 272.406C74.7967 272.406 53.8699 204.764 56.6179 162.374C59.3659 119.984 75.1219 118.472 96.6179 116.081C106.163 115.008 157.008 107.48 176.049 129.886C195.089 152.293 228.602 257.236 228.602 257.236L74.7967 272.406Z" fill="#0055FF"/>
<path d="M150.326 116.195L147.074 138.829C147.074 138.829 139.952 150.52 125.692 144.602C111.431 138.683 111.155 127.772 111.155 127.772L117.919 85.9512C117.919 85.9512 132.96 72.4553 139.285 46.6667C139.285 46.6667 151.887 68.6504 170.179 73.5935C170.179 73.5935 168.96 91.8537 165.692 103.171C162.44 114.114 150.553 116.065 150.326 116.195Z" fill="white"/>
<path d="M133.333 147.073C130.567 147.04 127.836 146.454 125.3 145.35C110.666 139.301 110.276 128.26 110.26 127.789L117.073 85.8211C117.106 85.6351 117.197 85.4644 117.333 85.3333C117.479 85.2032 132.26 71.7073 138.471 46.4715C138.516 46.3166 138.604 46.1776 138.725 46.071C138.846 45.9644 138.994 45.8946 139.154 45.8699C139.313 45.8475 139.475 45.8725 139.619 45.942C139.764 46.0114 139.885 46.1221 139.967 46.2602C140.097 46.4878 152.633 68.0162 170.341 72.7967C170.524 72.8455 170.684 72.9566 170.794 73.111C170.904 73.2654 170.956 73.4533 170.942 73.6423C170.942 73.8211 169.674 92.1301 166.422 103.398C163.739 112.683 155.04 115.87 151.073 116.846L147.821 138.943C147.805 139.051 147.772 139.155 147.723 139.252C146.121 141.607 143.979 143.546 141.476 144.906C138.973 146.267 136.181 147.01 133.333 147.073ZM118.699 86.3414L111.967 127.902C111.967 128.163 112.455 138.211 126.016 143.854C138.682 149.106 145.528 139.756 146.308 138.537L149.56 116.081C149.575 115.958 149.62 115.84 149.691 115.738C149.762 115.636 149.857 115.553 149.967 115.496C150.117 115.409 150.283 115.354 150.455 115.333C153.951 114.504 162.373 111.626 164.877 102.943C167.739 93.0406 169.04 77.561 169.284 74.1951C153.999 69.7073 142.91 53.9512 139.593 48.7317C133.414 71.626 120.455 84.5528 118.699 86.3414Z" fill="#00194C"/>
<path d="M126.682 86.5854C126.5 84.4699 125.632 82.4718 124.211 80.8943C122.829 79.4771 121.211 78.3107 119.43 77.4472C118.507 76.876 117.468 76.5151 116.39 76.3903C115.626 76.3977 114.871 76.5466 114.162 76.8293C112.431 77.3815 110.954 78.535 109.999 80.0813C109.371 81.3931 109.075 82.8394 109.138 84.2927C109.073 85.8654 109.215 87.4398 109.56 88.9756C109.942 90.5091 110.626 91.9509 111.573 93.2164C112.519 94.482 113.709 95.5458 115.072 96.3455C116.435 97.1451 117.944 97.6646 119.511 97.8733C121.077 98.082 122.67 97.9758 124.194 97.561" fill="white"/>
<path d="M121.105 98.7154C118.276 98.718 115.526 97.7756 113.294 96.0376C111.061 94.2996 109.472 91.8656 108.78 89.1219C108.403 87.5249 108.25 85.8832 108.325 84.2439C108.268 82.6602 108.597 81.0864 109.284 79.6585C110.32 77.9587 111.929 76.6844 113.821 76.065C114.63 75.7506 115.489 75.5853 116.357 75.5772C117.562 75.7041 118.723 76.0985 119.756 76.7317C121.615 77.6392 123.304 78.8603 124.748 80.3415C126.29 82.0546 127.232 84.2238 127.431 86.5203C127.444 86.7351 127.374 86.9468 127.234 87.1107C127.095 87.2745 126.897 87.3777 126.683 87.3984C126.469 87.408 126.259 87.3362 126.096 87.1974C125.933 87.0585 125.829 86.8631 125.805 86.6504C125.645 84.7157 124.863 82.8847 123.577 81.4309C122.255 80.0887 120.709 78.988 119.008 78.1789C118.197 77.659 117.28 77.3258 116.325 77.2033C115.666 77.2087 115.015 77.3412 114.406 77.5935C112.87 78.0677 111.548 79.0624 110.666 80.4065C110.114 81.6075 109.858 82.9234 109.918 84.2439C109.84 85.7462 109.977 87.2519 110.325 88.7154C110.683 90.1388 111.32 91.4769 112.199 92.6519C113.079 93.8268 114.183 94.8152 115.448 95.5596C116.713 96.304 118.113 96.7896 119.567 96.988C121.021 97.1864 122.5 97.0938 123.918 96.7155C124.125 96.6606 124.346 96.6896 124.531 96.7961C124.717 96.9027 124.853 97.0782 124.91 97.2846C124.937 97.3881 124.943 97.496 124.928 97.6019C124.914 97.7079 124.878 97.8099 124.823 97.902C124.769 97.9942 124.697 98.0747 124.612 98.1389C124.526 98.2032 124.429 98.2499 124.325 98.2764C123.276 98.5661 122.193 98.7138 121.105 98.7154Z" fill="#00194C"/>
<path d="M147.123 80.1301C147.123 80.1301 153.513 92.7317 151.415 94.5366C149.318 96.3414 144.277 94.3577 144.277 94.3577" fill="white"/>
<path d="M148.797 96.1138C147.126 96.0623 145.477 95.7269 143.919 95.1219C143.819 95.0825 143.729 95.0239 143.652 94.9494C143.575 94.8749 143.514 94.7861 143.472 94.6879C143.43 94.5897 143.407 94.4842 143.406 94.3773C143.404 94.2704 143.424 94.1643 143.463 94.065C143.546 93.8671 143.703 93.7091 143.9 93.6242C144.097 93.5393 144.319 93.5341 144.52 93.6097C145.707 94.065 149.398 95.1219 150.813 93.9187C151.675 93.2032 149.528 86.7967 146.341 80.4878C146.291 80.3932 146.261 80.2894 146.252 80.1828C146.243 80.0761 146.256 79.9688 146.289 79.8671C146.322 79.7654 146.376 79.6715 146.446 79.591C146.517 79.5105 146.603 79.4449 146.699 79.3984C146.892 79.3062 147.113 79.2919 147.316 79.3586C147.519 79.4252 147.688 79.5676 147.789 79.7561C149.789 83.7236 154.211 93.1544 151.886 95.1544C150.995 95.8163 149.906 96.1547 148.797 96.1138Z" fill="#00194C"/>
<path d="M139.183 77.2818C139.306 75.7781 138.535 74.4881 137.461 74.4006C136.387 74.313 135.417 75.461 135.294 76.9647C135.171 78.4684 135.943 79.7584 137.017 79.8459C138.091 79.9335 139.061 78.7855 139.183 77.2818Z" fill="#00194C"/>
<path d="M159.328 80.0652C159.44 78.5607 158.66 77.2762 157.585 77.1961C156.511 77.1161 155.549 78.2708 155.437 79.7753C155.324 81.2798 156.105 82.5644 157.179 82.6444C158.254 82.7245 159.216 81.5697 159.328 80.0652Z" fill="#00194C"/>
<path d="M145.463 106.195C142.977 106.239 140.517 105.681 138.292 104.569C134.406 102.537 131.918 98.6504 130.894 93.0244C130.875 92.9187 130.878 92.8103 130.901 92.7055C130.925 92.6007 130.969 92.5016 131.031 92.4139C131.093 92.3262 131.171 92.2517 131.262 92.1946C131.353 92.1375 131.455 92.099 131.561 92.0813C131.771 92.0476 131.987 92.0964 132.163 92.2175C132.338 92.3386 132.46 92.5228 132.504 92.7317C133.414 97.8374 135.626 101.333 139.008 103.122C145.837 106.699 155.447 102.374 155.544 102.325C155.741 102.237 155.964 102.231 156.165 102.307C156.366 102.383 156.529 102.536 156.618 102.732C156.663 102.829 156.689 102.934 156.693 103.041C156.698 103.148 156.68 103.255 156.642 103.355C156.604 103.455 156.547 103.546 156.473 103.624C156.398 103.701 156.31 103.763 156.211 103.805C152.815 105.284 149.166 106.096 145.463 106.195Z" fill="#00194C"/>
<path d="M150.325 116.195C150.325 116.195 135.69 117.398 128.146 111.447C128.146 111.447 134.569 131.772 148.064 131.707L150.325 116.195Z" fill="#00194C"/>
<path d="M147.967 132.52C134.081 132.52 127.609 112.537 127.333 111.691C127.285 111.524 127.291 111.347 127.349 111.184C127.407 111.02 127.516 110.879 127.658 110.781C127.795 110.674 127.964 110.616 128.138 110.616C128.312 110.616 128.48 110.674 128.618 110.781C135.886 116.455 150.081 115.366 150.227 115.35C150.348 115.341 150.47 115.36 150.583 115.404C150.696 115.449 150.797 115.518 150.88 115.607C150.962 115.696 151.024 115.802 151.06 115.918C151.097 116.034 151.106 116.156 151.089 116.276L148.829 131.805C148.794 132.007 148.688 132.191 148.53 132.322C148.372 132.453 148.172 132.523 147.967 132.52ZM129.756 113.496C131.821 118.585 137.674 130.374 147.333 130.878L149.333 117.073C146.211 117.203 136.585 117.301 129.788 113.496H129.756Z" fill="#00194C"/>
<path d="M80.5046 119.854C50.4721 116.114 22.277 243.61 38.6672 255.724C64.2282 274.634 142.244 248.813 142.244 248.813L134.44 215.171C134.44 215.171 78.1306 217.854 77.1062 206.293C76.0818 194.732 108.57 140.537 104.017 132.634C99.464 124.732 80.5046 119.854 80.5046 119.854Z" fill="#0055FF"/>
<path d="M185.366 216.114C185.187 216.119 185.012 216.057 184.877 215.939C184.741 215.822 184.655 215.658 184.635 215.48C180.765 188.293 172.277 142.764 169.529 140.098C169.395 139.958 169.321 139.771 169.322 139.578C169.322 139.384 169.398 139.199 169.533 139.06C169.667 138.921 169.851 138.84 170.044 138.833C170.237 138.826 170.426 138.895 170.57 139.024C174.098 142.455 183.171 194.683 186.098 215.268C186.126 215.464 186.075 215.664 185.956 215.822C185.837 215.981 185.66 216.086 185.464 216.114H185.366Z" fill="#00194C"/>
<path d="M156.635 280.439L104.797 265.919L200 248.016L251.529 269.61L156.635 280.439Z" fill="white"/>
<path d="M156.635 281.301C156.565 281.316 156.493 281.316 156.423 281.301L104.586 266.667C104.37 266.667 104.164 266.581 104.011 266.429C103.859 266.276 103.773 266.069 103.773 265.854C103.773 265.638 103.859 265.431 104.011 265.279C104.164 265.126 104.37 265.041 104.586 265.041L199.789 247.154C199.937 247.106 200.097 247.106 200.244 247.154L251.773 268.748C251.938 268.818 252.075 268.94 252.163 269.096C252.251 269.252 252.286 269.432 252.261 269.61C252.236 269.789 252.153 269.956 252.023 270.082C251.894 270.209 251.725 270.289 251.545 270.309L156.732 281.301H156.635ZM108.375 266.13L156.7 279.675L248.342 269.219L199.903 248.927L108.375 266.13Z" fill="#00194C"/>
<path d="M126.049 226.797C137.431 228.049 147.984 228.862 158.569 233.301C164.618 235.841 170.331 239.118 175.577 243.057C178.251 244.954 180.749 247.087 183.041 249.431C184.862 251.415 184.277 253.35 181.22 252.39C177.665 251.277 174.299 249.632 171.236 247.512C178.56 253.487 185.051 260.416 190.537 268.114C191.155 268.992 191.756 270.244 191.025 271.024C190.293 271.805 188.667 271.024 187.773 270.211L171.691 254.959C175.948 258.632 179.569 262.983 182.407 267.837C182.813 268.537 183.203 269.463 182.781 270.098C182.065 271.285 180.244 270.39 179.269 269.398C174.452 264.535 170.072 259.257 166.179 253.626L174.862 266.634C174.78 266.874 174.651 267.095 174.483 267.285C174.314 267.475 174.11 267.629 173.882 267.74C173.654 267.85 173.406 267.914 173.152 267.928C172.899 267.942 172.646 267.906 172.407 267.821C171.45 267.426 170.623 266.773 170.016 265.935L159.496 253.854L165.708 262.406C166.683 263.74 167.659 265.659 166.537 266.911C165.415 268.163 162.878 266.911 161.447 265.642C155.692 260.39 149.371 255.793 142.602 251.935C140.147 250.488 138.049 248.52 135.334 247.691C131.431 246.488 126.553 246.65 122.488 246.195" fill="white"/>
<path d="M190.244 272.13C189.158 272.007 188.147 271.513 187.383 270.732L182.179 265.854C182.521 266.39 182.862 266.943 183.171 267.48C183.5 267.903 183.709 268.408 183.775 268.94C183.841 269.473 183.761 270.013 183.545 270.504C183.4 270.755 183.197 270.967 182.954 271.126C182.711 271.284 182.435 271.383 182.147 271.415C181.532 271.407 180.925 271.271 180.365 271.016C179.806 270.762 179.305 270.393 178.895 269.935C177.822 268.862 176.781 267.772 175.757 266.683C175.764 266.742 175.764 266.802 175.757 266.862C175.695 267.163 175.57 267.447 175.391 267.697C175.212 267.946 174.982 268.155 174.716 268.309C174.365 268.519 173.975 268.655 173.569 268.708C173.164 268.761 172.751 268.73 172.358 268.618C171.264 268.189 170.316 267.455 169.627 266.504L167.708 264.309C167.947 264.839 168.032 265.425 167.951 266.001C167.87 266.576 167.628 267.117 167.253 267.561C167.018 267.823 166.733 268.035 166.414 268.183C166.096 268.331 165.75 268.413 165.399 268.423C163.701 268.237 162.128 267.44 160.976 266.179C155.277 260.955 149.004 256.395 142.277 252.585C141.448 252.098 140.651 251.545 139.87 250.959C138.45 249.851 136.864 248.974 135.171 248.358C132.336 247.64 129.428 247.248 126.505 247.187C125.106 247.106 123.74 247.024 122.456 246.894C122.26 246.87 122.082 246.769 121.96 246.614C121.838 246.458 121.782 246.261 121.805 246.065C121.815 245.969 121.845 245.875 121.891 245.79C121.938 245.705 122 245.63 122.076 245.57C122.152 245.509 122.239 245.465 122.332 245.438C122.425 245.411 122.522 245.403 122.618 245.415C123.887 245.545 125.22 245.626 126.586 245.707C129.631 245.765 132.659 246.175 135.61 246.927C137.443 247.597 139.164 248.54 140.716 249.724C141.464 250.26 142.228 250.78 143.025 251.252C149.844 255.127 156.209 259.752 162 265.041C162.88 265.935 164.017 266.532 165.253 266.748C165.404 266.743 165.552 266.707 165.689 266.642C165.826 266.578 165.949 266.487 166.049 266.374C166.927 265.415 165.724 263.545 165.171 262.78L158.96 254.244C158.902 254.169 158.859 254.084 158.834 253.993C158.809 253.902 158.803 253.806 158.815 253.713C158.827 253.619 158.857 253.529 158.905 253.447C158.952 253.365 159.015 253.293 159.09 253.236C159.227 253.102 159.411 253.027 159.602 253.027C159.794 253.027 159.978 253.102 160.114 253.236L170.651 265.317C171.165 266.037 171.869 266.599 172.683 266.943C172.876 266.997 173.077 267.012 173.275 266.987C173.474 266.962 173.665 266.897 173.838 266.797C173.942 266.743 174.031 266.665 174.098 266.569L165.627 253.837C165.517 253.676 165.475 253.477 165.512 253.285C165.549 253.093 165.66 252.923 165.822 252.813C165.983 252.703 166.182 252.662 166.374 252.698C166.566 252.735 166.736 252.846 166.846 253.008C170.721 258.599 175.073 263.844 179.854 268.683C180.384 269.264 181.106 269.634 181.887 269.724C181.951 269.722 182.014 269.703 182.068 269.668C182.122 269.634 182.166 269.586 182.196 269.528C182.374 269.252 182.196 268.732 181.822 268.016C179.864 264.666 177.523 261.556 174.846 258.748L171.22 255.301C171.103 255.161 171.04 254.984 171.045 254.802C171.049 254.619 171.12 254.445 171.243 254.311C171.367 254.177 171.536 254.093 171.717 254.075C171.898 254.057 172.08 254.105 172.228 254.211C173.513 255.317 174.732 256.471 175.903 257.691L188.326 269.48C188.808 270.028 189.472 270.386 190.196 270.488C190.261 270.49 190.327 270.477 190.386 270.449C190.446 270.42 190.498 270.378 190.537 270.325C190.911 269.935 190.537 269.057 190.001 268.341C184.555 260.7 178.113 253.821 170.846 247.886C170.713 247.76 170.631 247.589 170.616 247.406C170.601 247.223 170.653 247.041 170.764 246.894C170.874 246.747 171.035 246.646 171.215 246.61C171.395 246.575 171.582 246.606 171.74 246.699C174.73 248.78 178.02 250.392 181.496 251.48C182.635 251.837 183.236 251.691 183.35 251.48C183.464 251.268 183.35 250.553 182.553 249.707C180.297 247.392 177.831 245.291 175.187 243.431C169.992 239.533 164.334 236.295 158.342 233.789C148.797 229.805 139.253 228.78 129.074 227.691L125.903 227.333C125.807 227.323 125.713 227.294 125.628 227.248C125.543 227.201 125.468 227.138 125.408 227.063C125.347 226.987 125.302 226.9 125.276 226.807C125.249 226.714 125.241 226.616 125.253 226.52C125.263 226.424 125.292 226.331 125.338 226.246C125.385 226.161 125.448 226.086 125.523 226.025C125.599 225.965 125.686 225.92 125.779 225.893C125.872 225.867 125.969 225.859 126.066 225.87L129.318 226.211C139.545 227.317 149.187 228.358 158.927 232.423C165.033 234.952 170.8 238.229 176.098 242.179C178.816 244.112 181.352 246.289 183.675 248.683C184.846 249.951 185.204 251.333 184.618 252.26C184.277 252.78 183.366 253.561 181.074 252.845C179.751 252.441 178.453 251.958 177.187 251.398C182.386 256.263 187.087 261.634 191.22 267.431C192.342 269.057 192.488 270.374 191.659 271.285C191.482 271.48 191.266 271.637 191.025 271.746C190.785 271.855 190.525 271.914 190.261 271.919L190.244 272.13Z" fill="#00194C"/>
<path d="M251.529 269.61L275.252 206.114L178.358 208.033L156.634 280.439L251.529 269.61Z" fill="white"/>
<path d="M156.634 281.301C156.516 281.302 156.398 281.276 156.291 281.226C156.184 281.175 156.09 281.101 156.016 281.008C155.931 280.906 155.872 280.784 155.843 280.654C155.815 280.524 155.819 280.389 155.854 280.26L177.577 207.854C177.63 207.69 177.731 207.546 177.868 207.442C178.004 207.337 178.17 207.277 178.341 207.268L275.236 205.35C275.369 205.348 275.5 205.378 275.619 205.437C275.738 205.496 275.84 205.584 275.919 205.691C275.989 205.801 276.035 205.925 276.052 206.054C276.069 206.183 276.056 206.315 276.016 206.439L252.293 269.854C252.239 269.998 252.148 270.124 252.027 270.219C251.906 270.313 251.762 270.373 251.61 270.39L156.732 281.301H156.634ZM178.976 208.878L157.837 279.545L251.008 268.911L274.13 206.992L178.976 208.878Z" fill="#00194C"/>
<path d="M246.357 270.195C246.357 270.195 272.65 291.545 263.414 311.122C254.178 330.699 86.1782 353.073 86.1782 353.073L78.6172 327.48C78.6172 327.48 210.406 260.163 246.357 270.195Z" fill="#00194C"/>
<path d="M86.1785 353.886C86.0032 353.884 85.8333 353.826 85.693 353.72C85.5528 353.615 85.4495 353.468 85.398 353.301L77.837 327.707C77.7792 327.528 77.7886 327.333 77.8633 327.16C77.9381 326.986 78.0731 326.846 78.2435 326.764C78.5687 326.585 111.626 309.756 148.666 294.341C198.504 273.61 231.43 265.22 246.52 269.415C246.633 269.446 246.739 269.501 246.829 269.577C251.417 273.475 255.493 277.939 258.959 282.862C266.211 293.301 267.967 303.187 264.032 311.48C254.634 331.22 93.1541 352.959 86.2923 353.87L86.1785 353.886ZM79.5769 327.87L86.7638 352.13C98.5037 350.504 253.837 329.073 262.569 310.748C271.154 292.667 247.935 272.553 245.918 270.911C211.739 261.789 89.4305 322.992 79.6744 327.902L79.5769 327.87Z" fill="#00194C"/>
<path d="M69.9188 260.39C69.9188 260.39 200.374 313.138 232.716 327.057L213.919 356.098C213.919 356.098 93.4635 353.74 58.9269 323.48C24.3903 293.219 26.683 242.845 69.9188 260.39Z" fill="#00194C"/>
<path d="M213.918 356.943C213.625 356.943 183.365 356.309 149.284 351.984C103.43 346.146 72.8612 336.78 58.4059 324.114C40.3246 308.276 27.6579 280.472 37.6091 264.325C40.8612 258.959 49.5441 251.236 70.2595 259.626C71.5603 260.163 201.089 312.553 233.073 326.293C233.182 326.337 233.279 326.405 233.358 326.493C233.437 326.58 233.495 326.684 233.528 326.797C233.56 326.911 233.569 327.031 233.552 327.149C233.535 327.266 233.494 327.379 233.43 327.48L214.634 356.569C214.557 356.688 214.451 356.786 214.325 356.851C214.2 356.917 214.06 356.948 213.918 356.943ZM53.9018 257.561C47.2189 257.561 42.0969 260.13 38.975 265.171C31.3002 277.642 37.6904 303.821 59.4628 322.894C92.3246 351.691 205.365 355.106 213.479 355.301L231.528 327.415C198.129 313.106 70.9262 261.659 69.6254 261.138C64.6592 258.957 59.3227 257.743 53.9018 257.561Z" fill="#00194C"/>
<path d="M252.032 244.26C252.172 245.011 252.496 245.714 252.975 246.309L255.511 250.098C255.419 249.706 255.241 249.34 254.992 249.024C254.742 248.709 254.426 248.452 254.066 248.273C253.706 248.093 253.311 247.994 252.909 247.983C252.507 247.973 252.108 248.051 251.739 248.211C251.019 248.601 250.42 249.183 250.01 249.891C249.599 250.6 249.393 251.409 249.414 252.228C249.487 253.863 249.873 255.47 250.552 256.959C252.357 261.642 256.438 268.488 262.341 264.943C266.341 262.537 267.446 254.049 268.015 249.821C269.137 241.496 266.584 230.797 255.885 232.423C256.194 236.522 257.723 240.436 260.276 243.659C258.536 241.968 251.495 239.35 252.032 244.26Z" fill="white"/>
<path d="M259.072 266.667C258.419 266.671 257.769 266.561 257.154 266.341C253.3 265.024 250.894 260.065 249.804 257.22C249.095 255.64 248.692 253.941 248.617 252.211C248.591 251.25 248.838 250.301 249.33 249.475C249.822 248.648 250.54 247.979 251.398 247.545C251.796 247.363 252.228 247.269 252.666 247.268L252.308 246.732C251.753 246.033 251.384 245.205 251.235 244.325C251.106 243.679 251.195 243.009 251.49 242.42C251.784 241.831 252.267 241.357 252.861 241.073C254.528 240.558 256.329 240.692 257.902 241.447C256.34 238.717 255.406 235.673 255.17 232.537C255.159 232.349 255.218 232.164 255.335 232.017C255.452 231.87 255.619 231.772 255.804 231.74C257.431 231.384 259.121 231.429 260.727 231.87C262.333 232.312 263.808 233.138 265.024 234.276C268.845 238.049 269.479 244.846 268.78 249.967C268.146 254.65 267.007 263.057 262.747 265.626C261.645 266.313 260.371 266.674 259.072 266.667ZM252.764 248.78C252.501 248.777 252.241 248.827 251.999 248.927C251.408 249.258 250.918 249.746 250.586 250.337C250.253 250.928 250.089 251.599 250.113 252.276C250.177 253.817 250.542 255.331 251.186 256.732C251.999 258.813 254.243 263.805 257.69 264.976C258.402 265.203 259.156 265.264 259.894 265.154C260.633 265.044 261.336 264.766 261.951 264.341C265.609 262.146 266.715 253.886 267.251 249.919C267.918 245.041 267.381 238.699 263.999 235.285C263.039 234.381 261.885 233.71 260.625 233.324C259.364 232.938 258.032 232.847 256.731 233.057C257.149 236.758 258.597 240.267 260.91 243.187C261.029 243.333 261.087 243.52 261.071 243.707C261.056 243.895 260.969 244.07 260.829 244.195C260.69 244.325 260.507 244.398 260.316 244.398C260.126 244.398 259.943 244.325 259.804 244.195C258.715 243.122 255.121 241.593 253.511 242.374C253.154 242.537 252.698 242.911 252.812 244.179C252.954 244.806 253.232 245.394 253.625 245.902L254.991 247.919C255.349 248.151 255.651 248.459 255.876 248.822C256.101 249.184 256.243 249.592 256.292 250.016C256.309 250.182 256.271 250.349 256.182 250.49C256.094 250.632 255.961 250.74 255.804 250.797C255.649 250.852 255.479 250.854 255.322 250.801C255.166 250.748 255.032 250.643 254.942 250.504L253.934 249.008C253.57 248.832 253.167 248.753 252.764 248.78Z" fill="#00194C"/>
<path d="M215.399 321.041C215.296 321.056 215.192 321.056 215.09 321.041C212.244 319.935 144.992 293.902 129.838 284.618C129.649 284.5 129.515 284.313 129.463 284.097C129.411 283.881 129.447 283.654 129.561 283.463C129.618 283.368 129.693 283.286 129.782 283.22C129.871 283.155 129.973 283.108 130.08 283.082C130.188 283.056 130.3 283.052 130.409 283.07C130.518 283.088 130.622 283.128 130.716 283.187C145.74 292.39 214.992 319.203 215.691 319.463C215.9 319.544 216.069 319.703 216.16 319.907C216.252 320.112 216.259 320.344 216.179 320.553C216.112 320.702 216.002 320.828 215.863 320.915C215.724 321.002 215.563 321.045 215.399 321.041Z" fill="white"/>
<path d="M136.959 214.862C151.785 214.862 163.804 203.483 163.804 189.447C163.804 175.411 151.785 164.033 136.959 164.033C122.132 164.033 110.113 175.411 110.113 189.447C110.113 203.483 122.132 214.862 136.959 214.862Z" fill="#00194C"/>
<path d="M136.96 215.659C121.708 215.659 109.318 203.902 109.318 189.447C109.318 174.992 121.724 163.22 136.96 163.22C152.196 163.22 164.602 174.992 164.602 189.447C164.602 203.902 152.212 215.659 136.96 215.659ZM136.96 164.846C122.602 164.846 110.944 175.886 110.944 189.447C110.944 203.008 122.619 214.033 136.96 214.033C151.302 214.033 162.976 203.008 162.976 189.447C162.976 175.886 151.318 164.846 136.96 164.846Z" fill="#00194C"/>
<path d="M122.796 197.707L116.292 193.902V188.878L122.796 185.073C124.964 183.827 127.132 182.558 129.3 181.268V187.35C128.146 188.065 126.991 188.764 125.837 189.431C124.682 190.098 123.544 190.78 122.373 191.512L125.837 193.431L129.3 195.366V201.512L122.796 197.707Z" fill="white"/>
<path d="M131.139 203.122L138.797 173.984L142.797 175.789L135.106 204.878L131.139 203.122Z" fill="white"/>
<path d="M151.219 185.073L157.723 188.878V193.902L151.219 197.707L144.715 201.512V195.366L148.179 193.431L151.642 191.512C150.488 190.78 149.333 190.081 148.179 189.431C147.024 188.78 145.886 188.065 144.715 187.35V181.268L151.219 185.073Z" fill="white"/>
<path d="M81.3008 260.163C81.0852 260.176 80.8733 260.102 80.7117 259.959C80.55 259.816 80.452 259.614 80.4391 259.398C80.4261 259.183 80.4994 258.971 80.6427 258.809C80.786 258.648 80.9877 258.55 81.2033 258.537L120.228 253.805L126.423 222.569L76.4228 218.341C76.3033 218.333 76.1872 218.299 76.083 218.239C75.9788 218.18 75.8893 218.098 75.8212 218C75.7482 217.904 75.6985 217.792 75.6759 217.674C75.6533 217.555 75.6585 217.433 75.6911 217.317L96.2439 140.797C96.3 140.581 96.4394 140.397 96.6315 140.284C96.8236 140.171 97.0527 140.139 97.2683 140.195C97.484 140.251 97.6685 140.391 97.7813 140.583C97.8941 140.775 97.926 141.004 97.87 141.22L77.561 216.813L127.431 220.943C127.545 220.955 127.656 220.991 127.756 221.047C127.857 221.102 127.945 221.178 128.016 221.268C128.084 221.361 128.133 221.466 128.158 221.578C128.183 221.69 128.185 221.806 128.163 221.919L121.659 254.618C121.623 254.785 121.537 254.937 121.412 255.054C121.287 255.17 121.129 255.245 120.959 255.268L81.3008 260.065V260.163Z" fill="#00194C"/>
<path d="M296.195 39.3496H215.122V47.7399H296.195V39.3496Z" fill="#E6E7E8"/>
<path d="M386.699 39.3496H305.626V47.7399H386.699V39.3496Z" fill="#E6E7E8"/>
<path d="M296.195 53.7236H248.601V62.1138H296.195V53.7236Z" fill="#0055FF"/>
<path d="M377.642 53.7236H305.626V62.1138H377.642V53.7236Z" fill="#E6E7E8"/>
<path d="M296.194 68.1138H236.211V76.5041H296.194V68.1138Z" fill="#E6E7E8"/>
<path d="M339.447 68.1138H305.626V76.5041H339.447V68.1138Z" fill="#E6E7E8"/>
<path d="M296.212 82.4878H261.22V90.8781H296.212V82.4878Z" fill="#E6E7E8"/>
<path d="M371.87 82.4878H305.626V90.8781H371.87V82.4878Z" fill="#0055FF"/>
<path d="M296.194 96.8781H285.056V105.268H296.194V96.8781Z" fill="#0055FF"/>
<path d="M350.13 96.8781H305.626V105.268H350.13V96.8781Z" fill="#E6E7E8"/>
<path d="M294.798 156H220.293V165.61H294.798V156Z" fill="#0055FF"/>
<path d="M352.52 156H306.764V165.61H352.52V156Z" fill="#E6E7E8"/>
<path d="M294.78 172.455H234.292V182.065H294.78V172.455Z" fill="#E6E7E8"/>
<path d="M373.382 172.455H306.764V182.065H373.382V172.455Z" fill="#E6E7E8"/>
<path d="M294.781 188.927H264.537V198.537H294.781V188.927Z" fill="#E6E7E8"/>
<path d="M385.984 188.927H306.764V198.537H385.984V188.927Z" fill="#E6E7E8"/>
<path d="M294.781 205.398H283.448V215.008H294.781V205.398Z" fill="#E6E7E8"/>
<path d="M390.96 205.398H306.764V215.008H390.96V205.398Z" fill="#0055FF"/>
<path d="M363.317 221.854H306.764V231.463H363.317V221.854Z" fill="#E6E7E8"/>
<path d="M335.431 135.154L329.318 132.715V129.463L335.431 127.024L341.545 124.585V128.455C340.44 128.927 339.35 129.366 338.293 129.789C337.236 130.211 336.114 130.65 335.041 131.122L338.293 132.358L341.545 133.593V137.528L335.431 135.154Z" fill="#E6E7E8"/>
<path d="M343.35 138.618L350.602 119.967L354.407 121.106L347.106 139.837L343.35 138.618Z" fill="#E6E7E8"/>
<path d="M362.308 127.073C364.341 127.886 366.389 128.699 368.422 129.512V132.764L362.308 135.203L356.194 137.642V133.659L359.446 132.423L362.698 131.187C361.593 130.715 360.503 130.276 359.446 129.854C358.389 129.431 357.268 128.992 356.194 128.52V124.634L362.308 127.073Z" fill="#E6E7E8"/>
<path d="M217.253 19.3496C217.251 18.9726 217.334 18.6001 217.497 18.2601C217.639 17.9138 217.855 17.6029 218.131 17.3496C218.401 17.0993 218.716 16.9009 219.058 16.7642C219.424 16.6139 219.816 16.5365 220.212 16.5366C220.587 16.54 220.957 16.6174 221.302 16.7642C221.637 16.9048 221.945 17.1029 222.212 17.3496C222.472 17.6125 222.682 17.9212 222.83 18.2601C222.98 18.6037 223.058 18.9746 223.058 19.3496C223.058 19.7298 222.98 20.106 222.83 20.4553C222.677 20.7772 222.468 21.0691 222.212 21.3171C221.668 21.8249 220.956 22.1143 220.212 22.1301C219.816 22.1301 219.424 22.0527 219.058 21.9024C218.712 21.7719 218.397 21.5728 218.131 21.3171C217.86 21.0785 217.644 20.7846 217.497 20.4553C217.334 20.1096 217.25 19.7317 217.253 19.3496ZM217.253 28.878C217.261 28.5057 217.342 28.1386 217.493 27.7981C217.644 27.4576 217.86 27.1504 218.131 26.8943C218.396 26.6334 218.711 26.4288 219.058 26.2927C219.425 26.1479 219.817 26.0761 220.212 26.0813C220.586 26.0791 220.956 26.151 221.302 26.2927C221.641 26.4329 221.95 26.6372 222.212 26.8943C222.472 27.1512 222.682 27.4545 222.83 27.7886C222.98 28.1351 223.057 28.5086 223.057 28.8862C223.057 29.2637 222.98 29.6372 222.83 29.9837C222.682 30.313 222.472 30.6109 222.212 30.8618C221.945 31.1084 221.637 31.3065 221.302 31.4471C220.956 31.5888 220.586 31.6607 220.212 31.6585C219.817 31.6637 219.425 31.5919 219.058 31.4471C218.716 31.3104 218.401 31.112 218.131 30.8618C217.856 30.6203 217.64 30.3202 217.497 29.9837C217.332 29.6386 217.249 29.2604 217.253 28.878Z" fill="#E6E7E8"/>
<path d="M312.195 292.943C312.838 292.976 313.473 292.793 314 292.423C314.455 292.081 314.667 291.366 314.667 290.26V285.219C314.665 284.385 314.775 283.554 314.992 282.748C315.194 281.997 315.536 281.291 316 280.667C316.473 280.066 317.073 279.578 317.756 279.236C318.57 278.856 319.46 278.673 320.358 278.699H324.016V283.935H322.732C322.438 283.906 322.143 283.957 321.876 284.083C321.61 284.209 321.383 284.405 321.219 284.65C320.938 285.145 320.798 285.707 320.813 286.276V291.415C320.831 292.065 320.715 292.713 320.471 293.317C320.276 293.784 320.001 294.213 319.658 294.585C319.359 294.907 319 295.166 318.602 295.35C318.283 295.517 317.935 295.622 317.577 295.658C317.931 295.724 318.275 295.833 318.602 295.984C318.999 296.155 319.358 296.404 319.658 296.715C320.441 297.582 320.855 298.719 320.813 299.886V305.041C320.793 305.61 320.933 306.174 321.219 306.667C321.381 306.915 321.607 307.114 321.874 307.243C322.14 307.372 322.437 307.426 322.732 307.398H324.016V312.634H320.358C319.46 312.661 318.57 312.477 317.756 312.098C317.073 311.755 316.473 311.267 316 310.667C315.539 310.04 315.198 309.335 314.992 308.585C314.776 307.774 314.666 306.937 314.667 306.098V301.057C314.723 300.672 314.692 300.279 314.577 299.908C314.462 299.537 314.264 299.196 314 298.911C313.473 298.54 312.838 298.357 312.195 298.39V292.943Z" fill="#E6E7E8"/>
<path d="M368.357 298.358C367.709 298.324 367.069 298.507 366.536 298.878C366.275 299.165 366.079 299.506 365.964 299.877C365.849 300.248 365.817 300.64 365.87 301.024V306.065C365.87 306.905 365.76 307.741 365.544 308.553C365.345 309.305 365.003 310.012 364.536 310.634C364.071 311.242 363.47 311.732 362.78 312.065C361.967 312.444 361.076 312.628 360.179 312.602H356.52V307.317H357.821C358.113 307.341 358.406 307.286 358.67 307.157C358.933 307.028 359.157 306.831 359.317 306.585C359.603 306.092 359.744 305.529 359.723 304.959V299.805C359.707 299.159 359.823 298.517 360.065 297.919C360.264 297.445 360.544 297.01 360.894 296.634C361.189 296.324 361.543 296.075 361.935 295.902C362.268 295.754 362.617 295.645 362.975 295.577C362.612 295.539 362.259 295.434 361.935 295.268C361.54 295.086 361.186 294.826 360.894 294.504C360.541 294.137 360.26 293.707 360.065 293.236C359.821 292.632 359.705 291.984 359.723 291.333V286.179C359.739 285.61 359.598 285.048 359.317 284.553C359.155 284.31 358.93 284.116 358.667 283.99C358.404 283.864 358.111 283.811 357.821 283.837H356.52V278.699H360.179C361.076 278.673 361.967 278.856 362.78 279.236C363.47 279.568 364.071 280.058 364.536 280.667C365.006 281.287 365.349 281.994 365.544 282.748C365.761 283.554 365.871 284.385 365.87 285.219V290.26C365.815 290.647 365.847 291.042 365.962 291.416C366.077 291.789 366.273 292.133 366.536 292.423C367.069 292.793 367.709 292.976 368.357 292.943V298.358Z" fill="#E6E7E8"/>
</svg>
